M48
;Layer_Color=9474304
;FILE_FORMAT=2:5
INCH,TZ
;TYPE=PLATED
T2F00S00C0.02200
%
G90
G05
T02
G00X105951Y121166
M15
G01Y120166
M16
G00X123471Y121166
M15
G01Y120166
M16
G00X98274Y134866
M15
G01Y132066
M16
G00X131148Y134866
M15
G01Y132066
M16
G00X316778Y134866
M15
G01Y132066
M16
G00X324455Y121166
M15
G01Y120166
M16
G00X341975Y121166
M15
G01Y120166
M16
G00X349652Y134866
M15
G01Y132066
M16
G00X341975Y266835
M15
G01Y265835
M16
G00X324455Y266835
M15
G01Y265835
M16
G00X316778Y280536
M15
G01Y277735
M16
G00X349652Y280536
M15
G01Y277735
M16
G00X131148Y280536
M15
G01Y277735
M16
G00X123471Y266835
M15
G01Y265835
M16
G00X105951Y266835
M15
G01Y265835
M16
G00X98274Y280536
M15
G01Y277735
M16
G00X105951Y412505
M15
G01Y411505
M16
G00X123471Y412505
M15
G01Y411505
M16
G00X98274Y426205
M15
G01Y423405
M16
G00X131148Y426205
M15
G01Y423405
M16
G00X316778Y426205
M15
G01Y423405
M16
G00X324455Y412505
M15
G01Y411505
M16
G00X341975Y412505
M15
G01Y411505
M16
G00X349652Y426205
M15
G01Y423405
M16
M17
M30
