%FSLAX25Y25*%
%MOIN*%
G70*
G01*
G75*
G04 Layer_Color=2752767*
%ADD10C,0.01000*%
%ADD11C,0.00000*%
%ADD12C,0.00600*%
%ADD13C,0.00500*%
%ADD14C,0.00667*%
%ADD15C,0.01600*%
%ADD16C,0.00800*%
%ADD17C,0.01400*%
D10*
X-7122Y0D02*
X-1000D01*
X-7122Y137795D02*
X-1000D01*
X-6122Y0D02*
Y46204D01*
Y88391D02*
Y137795D01*
Y0D02*
X-4122Y6000D01*
X-8122D02*
X-6122Y0D01*
X-8122Y131795D02*
X-6122Y137795D01*
X-4122Y131795D01*
X0Y138795D02*
Y143998D01*
X202756Y138795D02*
Y143998D01*
X0Y142998D02*
X79184D01*
X120372D02*
X202756D01*
X0D02*
X6000Y140998D01*
X0Y142998D02*
X6000Y144998D01*
X196756D02*
X202756Y142998D01*
X196756Y140998D02*
X202756Y142998D01*
X290388Y122200D02*
X292387D01*
X291387D01*
Y128198D01*
X290388Y127198D01*
X299385Y122200D02*
X295386D01*
X299385Y126199D01*
Y127198D01*
X298385Y128198D01*
X296386D01*
X295386Y127198D01*
X301384D02*
X302384Y128198D01*
X304383D01*
X305383Y127198D01*
Y126199D01*
X304383Y125199D01*
X305383Y124199D01*
Y123200D01*
X304383Y122200D01*
X302384D01*
X301384Y123200D01*
Y124199D01*
X302384Y125199D01*
X301384Y126199D01*
Y127198D01*
X302384Y125199D02*
X304383D01*
X359969Y122200D02*
X361968D01*
X360969D01*
Y128198D01*
X359969Y127198D01*
X368966Y122200D02*
X364967D01*
X368966Y126199D01*
Y127198D01*
X367966Y128198D01*
X365967D01*
X364967Y127198D01*
X370965Y122200D02*
Y126199D01*
X371965D01*
X372965Y125199D01*
Y122200D01*
Y125199D01*
X373964Y126199D01*
X374964Y125199D01*
Y122200D01*
X376963D02*
X378963D01*
X377963D01*
Y126199D01*
X376963D01*
X381962Y122200D02*
X383961D01*
X382962D01*
Y128198D01*
X381962D01*
X394958Y122200D02*
X392958Y124199D01*
Y126199D01*
X394958Y128198D01*
X397957Y127198D02*
X398956Y128198D01*
X400956D01*
X401955Y127198D01*
Y123200D01*
X400956Y122200D01*
X398956D01*
X397957Y123200D01*
Y127198D01*
X403955Y122200D02*
Y123200D01*
X404954D01*
Y122200D01*
X403955D01*
X408953Y127198D02*
X409953Y128198D01*
X411952D01*
X412952Y127198D01*
Y126199D01*
X411952Y125199D01*
X410952D01*
X411952D01*
X412952Y124199D01*
Y123200D01*
X411952Y122200D01*
X409953D01*
X408953Y123200D01*
X414951Y127198D02*
X415951Y128198D01*
X417950D01*
X418950Y127198D01*
Y123200D01*
X417950Y122200D01*
X415951D01*
X414951Y123200D01*
Y127198D01*
X423948Y122200D02*
Y128198D01*
X420949Y125199D01*
X424948D01*
X426947Y127198D02*
X427947Y128198D01*
X429946D01*
X430946Y127198D01*
Y126199D01*
X429946Y125199D01*
X430946Y124199D01*
Y123200D01*
X429946Y122200D01*
X427947D01*
X426947Y123200D01*
Y124199D01*
X427947Y125199D01*
X426947Y126199D01*
Y127198D01*
X427947Y125199D02*
X429946D01*
X432945Y122200D02*
Y126199D01*
X433945D01*
X434945Y125199D01*
Y122200D01*
Y125199D01*
X435944Y126199D01*
X436944Y125199D01*
Y122200D01*
X438943D02*
Y126199D01*
X439943D01*
X440943Y125199D01*
Y122200D01*
Y125199D01*
X441942Y126199D01*
X442942Y125199D01*
Y122200D01*
X444941D02*
X446941Y124199D01*
Y126199D01*
X444941Y128198D01*
X729461Y122200D02*
Y128198D01*
X732460D01*
X733460Y127198D01*
Y125199D01*
X732460Y124199D01*
X729461D01*
X735459Y128198D02*
X739458D01*
X737458D01*
Y122200D01*
X741457Y128198D02*
Y122200D01*
Y125199D01*
X745456D01*
Y128198D01*
Y122200D01*
X779849D02*
Y128198D01*
X782848D01*
X783847Y127198D01*
Y125199D01*
X782848Y124199D01*
X779849D01*
X781848D02*
X783847Y122200D01*
X786846D02*
X788846D01*
X789845Y123200D01*
Y125199D01*
X788846Y126199D01*
X786846D01*
X785847Y125199D01*
Y123200D01*
X786846Y122200D01*
X791845Y126199D02*
Y123200D01*
X792844Y122200D01*
X795843D01*
Y126199D01*
X797843Y122200D02*
Y126199D01*
X800842D01*
X801842Y125199D01*
Y122200D01*
X807839Y128198D02*
Y122200D01*
X804840D01*
X803841Y123200D01*
Y125199D01*
X804840Y126199D01*
X807839D01*
X293387Y110200D02*
Y116198D01*
X290388Y113199D01*
X294386D01*
X363968Y110200D02*
X359969D01*
X363968Y114199D01*
Y115198D01*
X362968Y116198D01*
X360969D01*
X359969Y115198D01*
X365967Y116198D02*
X369966D01*
Y115198D01*
X365967Y111200D01*
Y110200D01*
X371965D02*
Y111200D01*
X372965D01*
Y110200D01*
X371965D01*
X380962Y116198D02*
X376963D01*
Y113199D01*
X378963Y114199D01*
X379962D01*
X380962Y113199D01*
Y111200D01*
X379962Y110200D01*
X377963D01*
X376963Y111200D01*
X386960Y116198D02*
X382962D01*
Y113199D01*
X384961Y114199D01*
X385961D01*
X386960Y113199D01*
Y111200D01*
X385961Y110200D01*
X383961D01*
X382962Y111200D01*
X388960D02*
X389959Y110200D01*
X391959D01*
X392958Y111200D01*
Y115198D01*
X391959Y116198D01*
X389959D01*
X388960Y115198D01*
Y114199D01*
X389959Y113199D01*
X392958D01*
X394958Y110200D02*
Y114199D01*
X395957D01*
X396957Y113199D01*
Y110200D01*
Y113199D01*
X397957Y114199D01*
X398956Y113199D01*
Y110200D01*
X400956D02*
X402955D01*
X401955D01*
Y114199D01*
X400956D01*
X405954Y110200D02*
X407953D01*
X406954D01*
Y116198D01*
X405954D01*
X418950Y110200D02*
X416951Y112199D01*
Y114199D01*
X418950Y116198D01*
X421949Y115198D02*
X422949Y116198D01*
X424948D01*
X425948Y115198D01*
Y111200D01*
X424948Y110200D01*
X422949D01*
X421949Y111200D01*
Y115198D01*
X427947Y110200D02*
Y111200D01*
X428947D01*
Y110200D01*
X427947D01*
X432945Y116198D02*
X436944D01*
Y115198D01*
X432945Y111200D01*
Y110200D01*
X438943D02*
Y114199D01*
X439943D01*
X440943Y113199D01*
Y110200D01*
Y113199D01*
X441942Y114199D01*
X442942Y113199D01*
Y110200D01*
X444941D02*
Y114199D01*
X445941D01*
X446941Y113199D01*
Y110200D01*
Y113199D01*
X447940Y114199D01*
X448940Y113199D01*
Y110200D01*
X450940D02*
X452939Y112199D01*
Y114199D01*
X450940Y116198D01*
X729461Y110200D02*
Y116198D01*
X732460D01*
X733460Y115198D01*
Y113199D01*
X732460Y112199D01*
X729461D01*
X735459Y116198D02*
X739458D01*
X737458D01*
Y110200D01*
X741457Y116198D02*
Y110200D01*
Y113199D01*
X745456D01*
Y116198D01*
Y110200D01*
X779849D02*
Y116198D01*
X782848D01*
X783847Y115198D01*
Y113199D01*
X782848Y112199D01*
X779849D01*
X781848D02*
X783847Y110200D01*
X786846D02*
X788846D01*
X789845Y111200D01*
Y113199D01*
X788846Y114199D01*
X786846D01*
X785847Y113199D01*
Y111200D01*
X786846Y110200D01*
X791845Y114199D02*
Y111200D01*
X792844Y110200D01*
X795843D01*
Y114199D01*
X797843Y110200D02*
Y114199D01*
X800842D01*
X801842Y113199D01*
Y110200D01*
X807839Y116198D02*
Y110200D01*
X804840D01*
X803841Y111200D01*
Y113199D01*
X804840Y114199D01*
X807839D01*
X294386Y104198D02*
X290388D01*
Y101199D01*
X292387Y102199D01*
X293387D01*
X294386Y101199D01*
Y99200D01*
X293387Y98200D01*
X291387D01*
X290388Y99200D01*
X300384Y98200D02*
X296386D01*
X300384Y102199D01*
Y103198D01*
X299385Y104198D01*
X297385D01*
X296386Y103198D01*
X359969D02*
X360969Y104198D01*
X362968D01*
X363968Y103198D01*
Y102199D01*
X362968Y101199D01*
X361968D01*
X362968D01*
X363968Y100199D01*
Y99200D01*
X362968Y98200D01*
X360969D01*
X359969Y99200D01*
X365967Y98200D02*
X367966D01*
X366967D01*
Y104198D01*
X365967Y103198D01*
X370965Y98200D02*
Y99200D01*
X371965D01*
Y98200D01*
X370965D01*
X378963D02*
Y104198D01*
X375964Y101199D01*
X379962D01*
X381962Y99200D02*
X382962Y98200D01*
X384961D01*
X385961Y99200D01*
Y103198D01*
X384961Y104198D01*
X382962D01*
X381962Y103198D01*
Y102199D01*
X382962Y101199D01*
X385961D01*
X391959Y104198D02*
X389959Y103198D01*
X387960Y101199D01*
Y99200D01*
X388960Y98200D01*
X390959D01*
X391959Y99200D01*
Y100199D01*
X390959Y101199D01*
X387960D01*
X393958Y98200D02*
Y102199D01*
X394958D01*
X395957Y101199D01*
Y98200D01*
Y101199D01*
X396957Y102199D01*
X397957Y101199D01*
Y98200D01*
X399956D02*
X401955D01*
X400956D01*
Y102199D01*
X399956D01*
X404954Y98200D02*
X406954D01*
X405954D01*
Y104198D01*
X404954D01*
X417950Y98200D02*
X415951Y100199D01*
Y102199D01*
X417950Y104198D01*
X420949Y103198D02*
X421949Y104198D01*
X423948D01*
X424948Y103198D01*
Y99200D01*
X423948Y98200D01*
X421949D01*
X420949Y99200D01*
Y103198D01*
X426947Y98200D02*
Y99200D01*
X427947D01*
Y98200D01*
X426947D01*
X431946Y103198D02*
X432945Y104198D01*
X434945D01*
X435944Y103198D01*
Y102199D01*
X434945Y101199D01*
X435944Y100199D01*
Y99200D01*
X434945Y98200D01*
X432945D01*
X431946Y99200D01*
Y100199D01*
X432945Y101199D01*
X431946Y102199D01*
Y103198D01*
X432945Y101199D02*
X434945D01*
X437944Y98200D02*
Y102199D01*
X438943D01*
X439943Y101199D01*
Y98200D01*
Y101199D01*
X440943Y102199D01*
X441942Y101199D01*
Y98200D01*
X443942D02*
Y102199D01*
X444941D01*
X445941Y101199D01*
Y98200D01*
Y101199D01*
X446941Y102199D01*
X447940Y101199D01*
Y98200D01*
X449940D02*
X451939Y100199D01*
Y102199D01*
X449940Y104198D01*
X729461Y98200D02*
Y104198D01*
X732460D01*
X733460Y103198D01*
Y101199D01*
X732460Y100199D01*
X729461D01*
X735459Y104198D02*
X739458D01*
X737458D01*
Y98200D01*
X741457Y104198D02*
Y98200D01*
Y101199D01*
X745456D01*
Y104198D01*
Y98200D01*
X779849D02*
Y104198D01*
X782848D01*
X783847Y103198D01*
Y101199D01*
X782848Y100199D01*
X779849D01*
X781848D02*
X783847Y98200D01*
X786846D02*
X788846D01*
X789845Y99200D01*
Y101199D01*
X788846Y102199D01*
X786846D01*
X785847Y101199D01*
Y99200D01*
X786846Y98200D01*
X791845Y102199D02*
Y99200D01*
X792844Y98200D01*
X795843D01*
Y102199D01*
X797843Y98200D02*
Y102199D01*
X800842D01*
X801842Y101199D01*
Y98200D01*
X807839Y104198D02*
Y98200D01*
X804840D01*
X803841Y99200D01*
Y101199D01*
X804840Y102199D01*
X807839D01*
X294386Y86200D02*
X290388D01*
X294386Y90199D01*
Y91198D01*
X293387Y92198D01*
X291387D01*
X290388Y91198D01*
X359969D02*
X360969Y92198D01*
X362968D01*
X363968Y91198D01*
Y90199D01*
X362968Y89199D01*
X361968D01*
X362968D01*
X363968Y88199D01*
Y87200D01*
X362968Y86200D01*
X360969D01*
X359969Y87200D01*
X365967D02*
X366967Y86200D01*
X368966D01*
X369966Y87200D01*
Y91198D01*
X368966Y92198D01*
X366967D01*
X365967Y91198D01*
Y90199D01*
X366967Y89199D01*
X369966D01*
X371965Y86200D02*
Y87200D01*
X372965D01*
Y86200D01*
X371965D01*
X376963Y91198D02*
X377963Y92198D01*
X379962D01*
X380962Y91198D01*
Y90199D01*
X379962Y89199D01*
X378963D01*
X379962D01*
X380962Y88199D01*
Y87200D01*
X379962Y86200D01*
X377963D01*
X376963Y87200D01*
X382962Y92198D02*
X386960D01*
Y91198D01*
X382962Y87200D01*
Y86200D01*
X388960D02*
Y90199D01*
X389959D01*
X390959Y89199D01*
Y86200D01*
Y89199D01*
X391959Y90199D01*
X392958Y89199D01*
Y86200D01*
X394958D02*
X396957D01*
X395957D01*
Y90199D01*
X394958D01*
X399956Y86200D02*
X401955D01*
X400956D01*
Y92198D01*
X399956D01*
X412952Y86200D02*
X410952Y88199D01*
Y90199D01*
X412952Y92198D01*
X415951Y86200D02*
X417950D01*
X416951D01*
Y92198D01*
X415951Y91198D01*
X420949Y86200D02*
Y90199D01*
X421949D01*
X422949Y89199D01*
Y86200D01*
Y89199D01*
X423948Y90199D01*
X424948Y89199D01*
Y86200D01*
X426947D02*
Y90199D01*
X427947D01*
X428947Y89199D01*
Y86200D01*
Y89199D01*
X429946Y90199D01*
X430946Y89199D01*
Y86200D01*
X432945D02*
X434945Y88199D01*
Y90199D01*
X432945Y92198D01*
X729461Y86200D02*
Y92198D01*
X732460D01*
X733460Y91198D01*
Y89199D01*
X732460Y88199D01*
X729461D01*
X735459Y92198D02*
X739458D01*
X737458D01*
Y86200D01*
X741457Y92198D02*
Y86200D01*
Y89199D01*
X745456D01*
Y92198D01*
Y86200D01*
X779849D02*
Y92198D01*
X782848D01*
X783847Y91198D01*
Y89199D01*
X782848Y88199D01*
X779849D01*
X781848D02*
X783847Y86200D01*
X786846D02*
X788846D01*
X789845Y87200D01*
Y89199D01*
X788846Y90199D01*
X786846D01*
X785847Y89199D01*
Y87200D01*
X786846Y86200D01*
X791845Y90199D02*
Y87200D01*
X792844Y86200D01*
X795843D01*
Y90199D01*
X797843Y86200D02*
Y90199D01*
X800842D01*
X801842Y89199D01*
Y86200D01*
X807839Y92198D02*
Y86200D01*
X804840D01*
X803841Y87200D01*
Y89199D01*
X804840Y90199D01*
X807839D01*
X293387Y74200D02*
Y80198D01*
X290388Y77199D01*
X294386D01*
X359969Y74200D02*
X361968D01*
X360969D01*
Y80198D01*
X359969Y79198D01*
X364967Y74200D02*
X366967D01*
X365967D01*
Y80198D01*
X364967Y79198D01*
X369966D02*
X370965Y80198D01*
X372965D01*
X373964Y79198D01*
Y78199D01*
X372965Y77199D01*
X373964Y76199D01*
Y75200D01*
X372965Y74200D01*
X370965D01*
X369966Y75200D01*
Y76199D01*
X370965Y77199D01*
X369966Y78199D01*
Y79198D01*
X370965Y77199D02*
X372965D01*
X375964Y74200D02*
Y75200D01*
X376963D01*
Y74200D01*
X375964D01*
X380962D02*
X382962D01*
X381962D01*
Y80198D01*
X380962Y79198D01*
X385961Y74200D02*
X387960D01*
X386960D01*
Y80198D01*
X385961Y79198D01*
X390959Y74200D02*
Y78199D01*
X391959D01*
X392958Y77199D01*
Y74200D01*
Y77199D01*
X393958Y78199D01*
X394958Y77199D01*
Y74200D01*
X396957D02*
X398956D01*
X397957D01*
Y78199D01*
X396957D01*
X401955Y74200D02*
X403955D01*
X402955D01*
Y80198D01*
X401955D01*
X414951Y74200D02*
X412952Y76199D01*
Y78199D01*
X414951Y80198D01*
X417950Y79198D02*
X418950Y80198D01*
X420949D01*
X421949Y79198D01*
Y78199D01*
X420949Y77199D01*
X419949D01*
X420949D01*
X421949Y76199D01*
Y75200D01*
X420949Y74200D01*
X418950D01*
X417950Y75200D01*
X423948Y74200D02*
Y78199D01*
X424948D01*
X425948Y77199D01*
Y74200D01*
Y77199D01*
X426947Y78199D01*
X427947Y77199D01*
Y74200D01*
X429946D02*
Y78199D01*
X430946D01*
X431946Y77199D01*
Y74200D01*
Y77199D01*
X432945Y78199D01*
X433945Y77199D01*
Y74200D01*
X435944D02*
X437944Y76199D01*
Y78199D01*
X435944Y80198D01*
X729461Y74200D02*
Y80198D01*
X732460D01*
X733460Y79198D01*
Y77199D01*
X732460Y76199D01*
X729461D01*
X735459Y80198D02*
X739458D01*
X737458D01*
Y74200D01*
X741457Y80198D02*
Y74200D01*
Y77199D01*
X745456D01*
Y80198D01*
Y74200D01*
X779849D02*
Y80198D01*
X782848D01*
X783847Y79198D01*
Y77199D01*
X782848Y76199D01*
X779849D01*
X781848D02*
X783847Y74200D01*
X786846D02*
X788846D01*
X789845Y75200D01*
Y77199D01*
X788846Y78199D01*
X786846D01*
X785847Y77199D01*
Y75200D01*
X786846Y74200D01*
X791845Y78199D02*
Y75200D01*
X792844Y74200D01*
X795843D01*
Y78199D01*
X797843Y74200D02*
Y78199D01*
X800842D01*
X801842Y77199D01*
Y74200D01*
X807839Y80198D02*
Y74200D01*
X804840D01*
X803841Y75200D01*
Y77199D01*
X804840Y78199D01*
X807839D01*
X290388Y62200D02*
X292387D01*
X291387D01*
Y68198D01*
X290388Y67198D01*
X363968Y62200D02*
X359969D01*
X363968Y66199D01*
Y67198D01*
X362968Y68198D01*
X360969D01*
X359969Y67198D01*
X365967Y62200D02*
X367966D01*
X366967D01*
Y68198D01*
X365967Y67198D01*
X370965Y62200D02*
Y63200D01*
X371965D01*
Y62200D01*
X370965D01*
X379962Y68198D02*
X377963Y67198D01*
X375964Y65199D01*
Y63200D01*
X376963Y62200D01*
X378963D01*
X379962Y63200D01*
Y64199D01*
X378963Y65199D01*
X375964D01*
X385961Y68198D02*
X381962D01*
Y65199D01*
X383961Y66199D01*
X384961D01*
X385961Y65199D01*
Y63200D01*
X384961Y62200D01*
X382962D01*
X381962Y63200D01*
X390959Y62200D02*
Y68198D01*
X387960Y65199D01*
X391959D01*
X393958Y62200D02*
Y66199D01*
X394958D01*
X395957Y65199D01*
Y62200D01*
Y65199D01*
X396957Y66199D01*
X397957Y65199D01*
Y62200D01*
X399956D02*
X401955D01*
X400956D01*
Y66199D01*
X399956D01*
X404954Y62200D02*
X406954D01*
X405954D01*
Y68198D01*
X404954D01*
X417950Y62200D02*
X415951Y64199D01*
Y66199D01*
X417950Y68198D01*
X420949Y67198D02*
X421949Y68198D01*
X423948D01*
X424948Y67198D01*
Y63200D01*
X423948Y62200D01*
X421949D01*
X420949Y63200D01*
Y67198D01*
X426947Y62200D02*
Y63200D01*
X427947D01*
Y62200D01*
X426947D01*
X435944Y68198D02*
X431946D01*
Y65199D01*
X433945Y66199D01*
X434945D01*
X435944Y65199D01*
Y63200D01*
X434945Y62200D01*
X432945D01*
X431946Y63200D01*
X441942Y68198D02*
X437944D01*
Y65199D01*
X439943Y66199D01*
X440943D01*
X441942Y65199D01*
Y63200D01*
X440943Y62200D01*
X438943D01*
X437944Y63200D01*
X443942Y62200D02*
Y66199D01*
X444941D01*
X445941Y65199D01*
Y62200D01*
Y65199D01*
X446941Y66199D01*
X447940Y65199D01*
Y62200D01*
X449940D02*
Y66199D01*
X450940D01*
X451939Y65199D01*
Y62200D01*
Y65199D01*
X452939Y66199D01*
X453938Y65199D01*
Y62200D01*
X455938D02*
X457937Y64199D01*
Y66199D01*
X455938Y68198D01*
X494329Y67198D02*
X495329Y68198D01*
X497328D01*
X498328Y67198D01*
Y66199D01*
X497328Y65199D01*
X496329D01*
X497328D01*
X498328Y64199D01*
Y63200D01*
X497328Y62200D01*
X495329D01*
X494329Y63200D01*
X504326Y62200D02*
X500327D01*
X504326Y66199D01*
Y67198D01*
X503326Y68198D01*
X501327D01*
X500327Y67198D01*
X506325Y62200D02*
Y66199D01*
X507325D01*
X508325Y65199D01*
Y62200D01*
Y65199D01*
X509325Y66199D01*
X510324Y65199D01*
Y62200D01*
X512324D02*
X514323D01*
X513323D01*
Y66199D01*
X512324D01*
X517322Y62200D02*
X519321D01*
X518322D01*
Y68198D01*
X517322D01*
X530318Y62200D02*
X528318Y64199D01*
Y66199D01*
X530318Y68198D01*
X533317Y67198D02*
X534316Y68198D01*
X536316D01*
X537315Y67198D01*
Y63200D01*
X536316Y62200D01*
X534316D01*
X533317Y63200D01*
Y67198D01*
X539315Y62200D02*
Y63200D01*
X540314D01*
Y62200D01*
X539315D01*
X544313Y67198D02*
X545313Y68198D01*
X547312D01*
X548312Y67198D01*
Y66199D01*
X547312Y65199D01*
X548312Y64199D01*
Y63200D01*
X547312Y62200D01*
X545313D01*
X544313Y63200D01*
Y64199D01*
X545313Y65199D01*
X544313Y66199D01*
Y67198D01*
X545313Y65199D02*
X547312D01*
X550311Y62200D02*
X552311D01*
X551311D01*
Y68198D01*
X550311Y67198D01*
X559308Y62200D02*
X555310D01*
X559308Y66199D01*
Y67198D01*
X558309Y68198D01*
X556309D01*
X555310Y67198D01*
X561308D02*
X562307Y68198D01*
X564307D01*
X565306Y67198D01*
Y66199D01*
X564307Y65199D01*
X565306Y64199D01*
Y63200D01*
X564307Y62200D01*
X562307D01*
X561308Y63200D01*
Y64199D01*
X562307Y65199D01*
X561308Y66199D01*
Y67198D01*
X562307Y65199D02*
X564307D01*
X567306Y62200D02*
Y66199D01*
X568305D01*
X569305Y65199D01*
Y62200D01*
Y65199D01*
X570305Y66199D01*
X571304Y65199D01*
Y62200D01*
X573304D02*
Y66199D01*
X574303D01*
X575303Y65199D01*
Y62200D01*
Y65199D01*
X576303Y66199D01*
X577303Y65199D01*
Y62200D01*
X579302D02*
X581301Y64199D01*
Y66199D01*
X579302Y68198D01*
X608296Y62200D02*
X610296D01*
X609296D01*
Y68198D01*
X608296Y67198D01*
X613295D02*
X614294Y68198D01*
X616294D01*
X617293Y67198D01*
Y63200D01*
X616294Y62200D01*
X614294D01*
X613295Y63200D01*
Y67198D01*
X619293Y62200D02*
Y63200D01*
X620293D01*
Y62200D01*
X619293D01*
X624291Y67198D02*
X625291Y68198D01*
X627290D01*
X628290Y67198D01*
Y66199D01*
X627290Y65199D01*
X626291D01*
X627290D01*
X628290Y64199D01*
Y63200D01*
X627290Y62200D01*
X625291D01*
X624291Y63200D01*
X633288Y62200D02*
Y68198D01*
X630289Y65199D01*
X634288D01*
X636287Y68198D02*
X640286D01*
Y67198D01*
X636287Y63200D01*
Y62200D01*
X642285D02*
Y66199D01*
X643285D01*
X644285Y65199D01*
Y62200D01*
Y65199D01*
X645284Y66199D01*
X646284Y65199D01*
Y62200D01*
X648283D02*
X650283D01*
X649283D01*
Y66199D01*
X648283D01*
X653282Y62200D02*
X655281D01*
X654282D01*
Y68198D01*
X653282D01*
X666278Y62200D02*
X664278Y64199D01*
Y66199D01*
X666278Y68198D01*
X669277Y67198D02*
X670276Y68198D01*
X672276D01*
X673275Y67198D01*
Y63200D01*
X672276Y62200D01*
X670276D01*
X669277Y63200D01*
Y67198D01*
X675275Y62200D02*
Y63200D01*
X676274D01*
Y62200D01*
X675275D01*
X684272D02*
X680273D01*
X684272Y66199D01*
Y67198D01*
X683272Y68198D01*
X681273D01*
X680273Y67198D01*
X690270Y68198D02*
X688270Y67198D01*
X686271Y65199D01*
Y63200D01*
X687271Y62200D01*
X689270D01*
X690270Y63200D01*
Y64199D01*
X689270Y65199D01*
X686271D01*
X696268Y62200D02*
X692269D01*
X696268Y66199D01*
Y67198D01*
X695268Y68198D01*
X693269D01*
X692269Y67198D01*
X698267D02*
X699267Y68198D01*
X701266D01*
X702266Y67198D01*
Y66199D01*
X701266Y65199D01*
X702266Y64199D01*
Y63200D01*
X701266Y62200D01*
X699267D01*
X698267Y63200D01*
Y64199D01*
X699267Y65199D01*
X698267Y66199D01*
Y67198D01*
X699267Y65199D02*
X701266D01*
X704265Y62200D02*
Y66199D01*
X705265D01*
X706265Y65199D01*
Y62200D01*
Y65199D01*
X707264Y66199D01*
X708264Y65199D01*
Y62200D01*
X710263D02*
Y66199D01*
X711263D01*
X712263Y65199D01*
Y62200D01*
Y65199D01*
X713262Y66199D01*
X714262Y65199D01*
Y62200D01*
X716261D02*
X718261Y64199D01*
Y66199D01*
X716261Y68198D01*
X729461Y62200D02*
Y68198D01*
X732460D01*
X733460Y67198D01*
Y65199D01*
X732460Y64199D01*
X729461D01*
X735459Y68198D02*
X739458D01*
X737458D01*
Y62200D01*
X741457Y68198D02*
Y62200D01*
Y65199D01*
X745456D01*
Y68198D01*
Y62200D01*
X783847Y67198D02*
X782848Y68198D01*
X780848D01*
X779849Y67198D01*
Y66199D01*
X780848Y65199D01*
X782848D01*
X783847Y64199D01*
Y63200D01*
X782848Y62200D01*
X780848D01*
X779849Y63200D01*
X785847Y62200D02*
X787846D01*
X786846D01*
Y68198D01*
X785847D01*
X791845Y62200D02*
X793844D01*
X794844Y63200D01*
Y65199D01*
X793844Y66199D01*
X791845D01*
X790845Y65199D01*
Y63200D01*
X791845Y62200D01*
X797843Y67198D02*
Y66199D01*
X796843D01*
X798842D01*
X797843D01*
Y63200D01*
X798842Y62200D01*
X290388Y50200D02*
X292387D01*
X291387D01*
Y56198D01*
X290388Y55198D01*
X363968Y50200D02*
X359969D01*
X363968Y54199D01*
Y55198D01*
X362968Y56198D01*
X360969D01*
X359969Y55198D01*
X369966Y50200D02*
X365967D01*
X369966Y54199D01*
Y55198D01*
X368966Y56198D01*
X366967D01*
X365967Y55198D01*
X371965Y50200D02*
Y54199D01*
X372965D01*
X373964Y53199D01*
Y50200D01*
Y53199D01*
X374964Y54199D01*
X375964Y53199D01*
Y50200D01*
X377963D02*
X379962D01*
X378963D01*
Y54199D01*
X377963D01*
X382962Y50200D02*
X384961D01*
X383961D01*
Y56198D01*
X382962D01*
X395957Y50200D02*
X393958Y52199D01*
Y54199D01*
X395957Y56198D01*
X398956Y55198D02*
X399956Y56198D01*
X401955D01*
X402955Y55198D01*
Y51200D01*
X401955Y50200D01*
X399956D01*
X398956Y51200D01*
Y55198D01*
X404954Y50200D02*
Y51200D01*
X405954D01*
Y50200D01*
X404954D01*
X413951Y56198D02*
X409953D01*
Y53199D01*
X411952Y54199D01*
X412952D01*
X413951Y53199D01*
Y51200D01*
X412952Y50200D01*
X410952D01*
X409953Y51200D01*
X419949Y56198D02*
X415951D01*
Y53199D01*
X417950Y54199D01*
X418950D01*
X419949Y53199D01*
Y51200D01*
X418950Y50200D01*
X416951D01*
X415951Y51200D01*
X421949Y55198D02*
X422949Y56198D01*
X424948D01*
X425948Y55198D01*
Y54199D01*
X424948Y53199D01*
X425948Y52199D01*
Y51200D01*
X424948Y50200D01*
X422949D01*
X421949Y51200D01*
Y52199D01*
X422949Y53199D01*
X421949Y54199D01*
Y55198D01*
X422949Y53199D02*
X424948D01*
X427947Y55198D02*
X428947Y56198D01*
X430946D01*
X431946Y55198D01*
Y54199D01*
X430946Y53199D01*
X431946Y52199D01*
Y51200D01*
X430946Y50200D01*
X428947D01*
X427947Y51200D01*
Y52199D01*
X428947Y53199D01*
X427947Y54199D01*
Y55198D01*
X428947Y53199D02*
X430946D01*
X433945Y50200D02*
Y54199D01*
X434945D01*
X435944Y53199D01*
Y50200D01*
Y53199D01*
X436944Y54199D01*
X437944Y53199D01*
Y50200D01*
X439943D02*
Y54199D01*
X440943D01*
X441942Y53199D01*
Y50200D01*
Y53199D01*
X442942Y54199D01*
X443942Y53199D01*
Y50200D01*
X445941D02*
X447940Y52199D01*
Y54199D01*
X445941Y56198D01*
X494329Y55198D02*
X495329Y56198D01*
X497328D01*
X498328Y55198D01*
Y54199D01*
X497328Y53199D01*
X496329D01*
X497328D01*
X498328Y52199D01*
Y51200D01*
X497328Y50200D01*
X495329D01*
X494329Y51200D01*
X504326Y50200D02*
X500327D01*
X504326Y54199D01*
Y55198D01*
X503326Y56198D01*
X501327D01*
X500327Y55198D01*
X506325Y50200D02*
Y54199D01*
X507325D01*
X508325Y53199D01*
Y50200D01*
Y53199D01*
X509325Y54199D01*
X510324Y53199D01*
Y50200D01*
X512324D02*
X514323D01*
X513323D01*
Y54199D01*
X512324D01*
X517322Y50200D02*
X519321D01*
X518322D01*
Y56198D01*
X517322D01*
X530318Y50200D02*
X528318Y52199D01*
Y54199D01*
X530318Y56198D01*
X533317Y55198D02*
X534316Y56198D01*
X536316D01*
X537315Y55198D01*
Y51200D01*
X536316Y50200D01*
X534316D01*
X533317Y51200D01*
Y55198D01*
X539315Y50200D02*
Y51200D01*
X540314D01*
Y50200D01*
X539315D01*
X544313Y55198D02*
X545313Y56198D01*
X547312D01*
X548312Y55198D01*
Y54199D01*
X547312Y53199D01*
X548312Y52199D01*
Y51200D01*
X547312Y50200D01*
X545313D01*
X544313Y51200D01*
Y52199D01*
X545313Y53199D01*
X544313Y54199D01*
Y55198D01*
X545313Y53199D02*
X547312D01*
X550311Y50200D02*
X552311D01*
X551311D01*
Y56198D01*
X550311Y55198D01*
X559308Y50200D02*
X555310D01*
X559308Y54199D01*
Y55198D01*
X558309Y56198D01*
X556309D01*
X555310Y55198D01*
X561308D02*
X562307Y56198D01*
X564307D01*
X565306Y55198D01*
Y54199D01*
X564307Y53199D01*
X565306Y52199D01*
Y51200D01*
X564307Y50200D01*
X562307D01*
X561308Y51200D01*
Y52199D01*
X562307Y53199D01*
X561308Y54199D01*
Y55198D01*
X562307Y53199D02*
X564307D01*
X567306Y50200D02*
Y54199D01*
X568305D01*
X569305Y53199D01*
Y50200D01*
Y53199D01*
X570305Y54199D01*
X571304Y53199D01*
Y50200D01*
X573304D02*
Y54199D01*
X574303D01*
X575303Y53199D01*
Y50200D01*
Y53199D01*
X576303Y54199D01*
X577303Y53199D01*
Y50200D01*
X579302D02*
X581301Y52199D01*
Y54199D01*
X579302Y56198D01*
X608296Y50200D02*
X610296D01*
X609296D01*
Y56198D01*
X608296Y55198D01*
X613295D02*
X614294Y56198D01*
X616294D01*
X617293Y55198D01*
Y51200D01*
X616294Y50200D01*
X614294D01*
X613295Y51200D01*
Y55198D01*
X619293Y50200D02*
Y54199D01*
X620293D01*
X621292Y53199D01*
Y50200D01*
Y53199D01*
X622292Y54199D01*
X623291Y53199D01*
Y50200D01*
X625291D02*
X627290D01*
X626291D01*
Y54199D01*
X625291D01*
X630289Y50200D02*
X632289D01*
X631289D01*
Y56198D01*
X630289D01*
X643285Y50200D02*
X641286Y52199D01*
Y54199D01*
X643285Y56198D01*
X646284Y55198D02*
X647284Y56198D01*
X649283D01*
X650283Y55198D01*
Y51200D01*
X649283Y50200D01*
X647284D01*
X646284Y51200D01*
Y55198D01*
X652282Y50200D02*
Y51200D01*
X653282D01*
Y50200D01*
X652282D01*
X661279D02*
X657280D01*
X661279Y54199D01*
Y55198D01*
X660280Y56198D01*
X658280D01*
X657280Y55198D01*
X667277Y56198D02*
X663278D01*
Y53199D01*
X665278Y54199D01*
X666278D01*
X667277Y53199D01*
Y51200D01*
X666278Y50200D01*
X664278D01*
X663278Y51200D01*
X672276Y50200D02*
Y56198D01*
X669277Y53199D01*
X673275D01*
X675275Y50200D02*
Y54199D01*
X676274D01*
X677274Y53199D01*
Y50200D01*
Y53199D01*
X678274Y54199D01*
X679273Y53199D01*
Y50200D01*
X681273D02*
Y54199D01*
X682272D01*
X683272Y53199D01*
Y50200D01*
Y53199D01*
X684272Y54199D01*
X685271Y53199D01*
Y50200D01*
X687271D02*
X689270Y52199D01*
Y54199D01*
X687271Y56198D01*
X729461Y50200D02*
Y56198D01*
X732460D01*
X733460Y55198D01*
Y53199D01*
X732460Y52199D01*
X729461D01*
X735459Y56198D02*
X739458D01*
X737458D01*
Y50200D01*
X741457Y56198D02*
Y50200D01*
Y53199D01*
X745456D01*
Y56198D01*
Y50200D01*
X783847Y55198D02*
X782848Y56198D01*
X780848D01*
X779849Y55198D01*
Y54199D01*
X780848Y53199D01*
X782848D01*
X783847Y52199D01*
Y51200D01*
X782848Y50200D01*
X780848D01*
X779849Y51200D01*
X785847Y50200D02*
X787846D01*
X786846D01*
Y56198D01*
X785847D01*
X791845Y50200D02*
X793844D01*
X794844Y51200D01*
Y53199D01*
X793844Y54199D01*
X791845D01*
X790845Y53199D01*
Y51200D01*
X791845Y50200D01*
X797843Y55198D02*
Y54199D01*
X796843D01*
X798842D01*
X797843D01*
Y51200D01*
X798842Y50200D01*
X294386Y38200D02*
X290388D01*
X294386Y42199D01*
Y43198D01*
X293387Y44198D01*
X291387D01*
X290388Y43198D01*
X363968Y38200D02*
X359969D01*
X363968Y42199D01*
Y43198D01*
X362968Y44198D01*
X360969D01*
X359969Y43198D01*
X369966Y38200D02*
X365967D01*
X369966Y42199D01*
Y43198D01*
X368966Y44198D01*
X366967D01*
X365967Y43198D01*
X371965Y38200D02*
Y42199D01*
X372965D01*
X373964Y41199D01*
Y38200D01*
Y41199D01*
X374964Y42199D01*
X375964Y41199D01*
Y38200D01*
X377963D02*
X379962D01*
X378963D01*
Y42199D01*
X377963D01*
X382962Y38200D02*
X384961D01*
X383961D01*
Y44198D01*
X382962D01*
X395957Y38200D02*
X393958Y40199D01*
Y42199D01*
X395957Y44198D01*
X398956Y43198D02*
X399956Y44198D01*
X401955D01*
X402955Y43198D01*
Y39200D01*
X401955Y38200D01*
X399956D01*
X398956Y39200D01*
Y43198D01*
X404954Y38200D02*
Y39200D01*
X405954D01*
Y38200D01*
X404954D01*
X413951Y44198D02*
X409953D01*
Y41199D01*
X411952Y42199D01*
X412952D01*
X413951Y41199D01*
Y39200D01*
X412952Y38200D01*
X410952D01*
X409953Y39200D01*
X419949Y44198D02*
X415951D01*
Y41199D01*
X417950Y42199D01*
X418950D01*
X419949Y41199D01*
Y39200D01*
X418950Y38200D01*
X416951D01*
X415951Y39200D01*
X421949Y43198D02*
X422949Y44198D01*
X424948D01*
X425948Y43198D01*
Y42199D01*
X424948Y41199D01*
X425948Y40199D01*
Y39200D01*
X424948Y38200D01*
X422949D01*
X421949Y39200D01*
Y40199D01*
X422949Y41199D01*
X421949Y42199D01*
Y43198D01*
X422949Y41199D02*
X424948D01*
X427947Y43198D02*
X428947Y44198D01*
X430946D01*
X431946Y43198D01*
Y42199D01*
X430946Y41199D01*
X431946Y40199D01*
Y39200D01*
X430946Y38200D01*
X428947D01*
X427947Y39200D01*
Y40199D01*
X428947Y41199D01*
X427947Y42199D01*
Y43198D01*
X428947Y41199D02*
X430946D01*
X433945Y38200D02*
Y42199D01*
X434945D01*
X435944Y41199D01*
Y38200D01*
Y41199D01*
X436944Y42199D01*
X437944Y41199D01*
Y38200D01*
X439943D02*
Y42199D01*
X440943D01*
X441942Y41199D01*
Y38200D01*
Y41199D01*
X442942Y42199D01*
X443942Y41199D01*
Y38200D01*
X445941D02*
X447940Y40199D01*
Y42199D01*
X445941Y44198D01*
X498328D02*
X494329D01*
Y41199D01*
X496329Y42199D01*
X497328D01*
X498328Y41199D01*
Y39200D01*
X497328Y38200D01*
X495329D01*
X494329Y39200D01*
X500327Y43198D02*
X501327Y44198D01*
X503326D01*
X504326Y43198D01*
Y39200D01*
X503326Y38200D01*
X501327D01*
X500327Y39200D01*
Y43198D01*
X506325Y38200D02*
Y42199D01*
X507325D01*
X508325Y41199D01*
Y38200D01*
Y41199D01*
X509325Y42199D01*
X510324Y41199D01*
Y38200D01*
X512324D02*
X514323D01*
X513323D01*
Y42199D01*
X512324D01*
X517322Y38200D02*
X519321D01*
X518322D01*
Y44198D01*
X517322D01*
X530318Y38200D02*
X528318Y40199D01*
Y42199D01*
X530318Y44198D01*
X533317Y38200D02*
X535316D01*
X534316D01*
Y44198D01*
X533317Y43198D01*
X538315Y38200D02*
Y39200D01*
X539315D01*
Y38200D01*
X538315D01*
X547312D02*
X543314D01*
X547312Y42199D01*
Y43198D01*
X546313Y44198D01*
X544313D01*
X543314Y43198D01*
X549311Y44198D02*
X553310D01*
Y43198D01*
X549311Y39200D01*
Y38200D01*
X555310D02*
Y42199D01*
X556309D01*
X557309Y41199D01*
Y38200D01*
Y41199D01*
X558309Y42199D01*
X559308Y41199D01*
Y38200D01*
X561308D02*
Y42199D01*
X562307D01*
X563307Y41199D01*
Y38200D01*
Y41199D01*
X564307Y42199D01*
X565306Y41199D01*
Y38200D01*
X567306D02*
X569305Y40199D01*
Y42199D01*
X567306Y44198D01*
X612295Y38200D02*
X608296D01*
X612295Y42199D01*
Y43198D01*
X611295Y44198D01*
X609296D01*
X608296Y43198D01*
X614294D02*
X615294Y44198D01*
X617293D01*
X618293Y43198D01*
Y42199D01*
X617293Y41199D01*
X618293Y40199D01*
Y39200D01*
X617293Y38200D01*
X615294D01*
X614294Y39200D01*
Y40199D01*
X615294Y41199D01*
X614294Y42199D01*
Y43198D01*
X615294Y41199D02*
X617293D01*
X620293Y38200D02*
Y42199D01*
X621292D01*
X622292Y41199D01*
Y38200D01*
Y41199D01*
X623291Y42199D01*
X624291Y41199D01*
Y38200D01*
X626291D02*
X628290D01*
X627290D01*
Y42199D01*
X626291D01*
X631289Y38200D02*
X633288D01*
X632289D01*
Y44198D01*
X631289D01*
X644285Y38200D02*
X642285Y40199D01*
Y42199D01*
X644285Y44198D01*
X647284Y43198D02*
X648283Y44198D01*
X650283D01*
X651282Y43198D01*
Y39200D01*
X650283Y38200D01*
X648283D01*
X647284Y39200D01*
Y43198D01*
X653282Y38200D02*
Y39200D01*
X654282D01*
Y38200D01*
X653282D01*
X658280Y44198D02*
X662279D01*
Y43198D01*
X658280Y39200D01*
Y38200D01*
X664278D02*
X666278D01*
X665278D01*
Y44198D01*
X664278Y43198D01*
X669277Y38200D02*
X671276D01*
X670276D01*
Y44198D01*
X669277Y43198D01*
X678274Y38200D02*
X674275D01*
X678274Y42199D01*
Y43198D01*
X677274Y44198D01*
X675275D01*
X674275Y43198D01*
X680273Y38200D02*
Y42199D01*
X681273D01*
X682272Y41199D01*
Y38200D01*
Y41199D01*
X683272Y42199D01*
X684272Y41199D01*
Y38200D01*
X686271D02*
Y42199D01*
X687271D01*
X688270Y41199D01*
Y38200D01*
Y41199D01*
X689270Y42199D01*
X690270Y41199D01*
Y38200D01*
X692269D02*
X694269Y40199D01*
Y42199D01*
X692269Y44198D01*
X729461Y38200D02*
Y44198D01*
X732460D01*
X733460Y43198D01*
Y41199D01*
X732460Y40199D01*
X729461D01*
X735459Y44198D02*
X739458D01*
X737458D01*
Y38200D01*
X741457Y44198D02*
Y38200D01*
Y41199D01*
X745456D01*
Y44198D01*
Y38200D01*
X783847Y43198D02*
X782848Y44198D01*
X780848D01*
X779849Y43198D01*
Y42199D01*
X780848Y41199D01*
X782848D01*
X783847Y40199D01*
Y39200D01*
X782848Y38200D01*
X780848D01*
X779849Y39200D01*
X785847Y38200D02*
X787846D01*
X786846D01*
Y44198D01*
X785847D01*
X791845Y38200D02*
X793844D01*
X794844Y39200D01*
Y41199D01*
X793844Y42199D01*
X791845D01*
X790845Y41199D01*
Y39200D01*
X791845Y38200D01*
X797843Y43198D02*
Y42199D01*
X796843D01*
X798842D01*
X797843D01*
Y39200D01*
X798842Y38200D01*
X290388Y26200D02*
X292387D01*
X291387D01*
Y32198D01*
X290388Y31198D01*
X295386Y27200D02*
X296386Y26200D01*
X298385D01*
X299385Y27200D01*
Y31198D01*
X298385Y32198D01*
X296386D01*
X295386Y31198D01*
Y30199D01*
X296386Y29199D01*
X299385D01*
X304383Y26200D02*
Y32198D01*
X301384Y29199D01*
X305383D01*
X316183Y32198D02*
X320181D01*
X318182D01*
Y26200D01*
X323181D02*
X325180D01*
X326180Y27200D01*
Y29199D01*
X325180Y30199D01*
X323181D01*
X322181Y29199D01*
Y27200D01*
X323181Y26200D01*
X329179Y31198D02*
Y30199D01*
X328179D01*
X330178D01*
X329179D01*
Y27200D01*
X330178Y26200D01*
X334177Y30199D02*
X336176D01*
X337176Y29199D01*
Y26200D01*
X334177D01*
X333177Y27200D01*
X334177Y28199D01*
X337176D01*
X339175Y26200D02*
X341175D01*
X340175D01*
Y32198D01*
X339175D01*
X447338Y16199D02*
X451336D01*
X447338Y18199D02*
X451336D01*
X463332Y19198D02*
X462333Y20198D01*
X460333D01*
X459334Y19198D01*
Y15200D01*
X460333Y14200D01*
X462333D01*
X463332Y15200D01*
X466331Y18199D02*
X468331D01*
X469331Y17199D01*
Y14200D01*
X466331D01*
X465332Y15200D01*
X466331Y16199D01*
X469331D01*
X471330Y14200D02*
X473329D01*
X472330D01*
Y20198D01*
X471330D01*
X480327Y18199D02*
X477328D01*
X476328Y17199D01*
Y15200D01*
X477328Y14200D01*
X480327D01*
X482326Y18199D02*
Y15200D01*
X483326Y14200D01*
X486325D01*
Y18199D01*
X488324Y14200D02*
X490324D01*
X489324D01*
Y20198D01*
X488324D01*
X494322Y18199D02*
X496322D01*
X497321Y17199D01*
Y14200D01*
X494322D01*
X493323Y15200D01*
X494322Y16199D01*
X497321D01*
X500320Y19198D02*
Y18199D01*
X499321D01*
X501320D01*
X500320D01*
Y15200D01*
X501320Y14200D01*
X507318D02*
X505319D01*
X504319Y15200D01*
Y17199D01*
X505319Y18199D01*
X507318D01*
X508318Y17199D01*
Y16199D01*
X504319D01*
X514316Y20198D02*
Y14200D01*
X511317D01*
X510317Y15200D01*
Y17199D01*
X511317Y18199D01*
X514316D01*
X523313Y14200D02*
Y19198D01*
Y17199D01*
X522313D01*
X524313D01*
X523313D01*
Y19198D01*
X524313Y20198D01*
X527312Y18199D02*
Y14200D01*
Y16199D01*
X528311Y17199D01*
X529311Y18199D01*
X530311D01*
X534309Y14200D02*
X536309D01*
X537309Y15200D01*
Y17199D01*
X536309Y18199D01*
X534309D01*
X533310Y17199D01*
Y15200D01*
X534309Y14200D01*
X539308D02*
Y18199D01*
X540308D01*
X541307Y17199D01*
Y14200D01*
Y17199D01*
X542307Y18199D01*
X543306Y17199D01*
Y14200D01*
X552304Y19198D02*
Y18199D01*
X551304D01*
X553303D01*
X552304D01*
Y15200D01*
X553303Y14200D01*
X557302D02*
X559301D01*
X560301Y15200D01*
Y17199D01*
X559301Y18199D01*
X557302D01*
X556302Y17199D01*
Y15200D01*
X557302Y14200D01*
X563300D02*
X565299D01*
X566299Y15200D01*
Y17199D01*
X565299Y18199D01*
X563300D01*
X562300Y17199D01*
Y15200D01*
X563300Y14200D01*
X568298D02*
X570298D01*
X569298D01*
Y20198D01*
X568298D01*
X579295Y14200D02*
X582294D01*
X583294Y15200D01*
X582294Y16199D01*
X580295D01*
X579295Y17199D01*
X580295Y18199D01*
X583294D01*
X586293Y19198D02*
Y18199D01*
X585293D01*
X587292D01*
X586293D01*
Y15200D01*
X587292Y14200D01*
X591291Y18199D02*
X593290D01*
X594290Y17199D01*
Y14200D01*
X591291D01*
X590291Y15200D01*
X591291Y16199D01*
X594290D01*
X596289Y18199D02*
Y14200D01*
Y16199D01*
X597289Y17199D01*
X598289Y18199D01*
X599288D01*
X603287Y19198D02*
Y18199D01*
X602287D01*
X604287D01*
X603287D01*
Y15200D01*
X604287Y14200D01*
X617283Y18199D02*
X614284D01*
X613284Y17199D01*
Y15200D01*
X614284Y14200D01*
X617283D01*
X622281D02*
X620282D01*
X619282Y15200D01*
Y17199D01*
X620282Y18199D01*
X622281D01*
X623281Y17199D01*
Y16199D01*
X619282D01*
X625280Y14200D02*
Y18199D01*
X628279D01*
X629279Y17199D01*
Y14200D01*
X632278Y19198D02*
Y18199D01*
X631278D01*
X633277D01*
X632278D01*
Y15200D01*
X633277Y14200D01*
X636276Y18199D02*
Y14200D01*
Y16199D01*
X637276Y17199D01*
X638276Y18199D01*
X639276D01*
X645273Y14200D02*
X643274D01*
X642275Y15200D01*
Y17199D01*
X643274Y18199D01*
X645273D01*
X646273Y17199D01*
Y16199D01*
X642275D01*
X654271Y12201D02*
Y18199D01*
X657270D01*
X658269Y17199D01*
Y15200D01*
X657270Y14200D01*
X654271D01*
X661268D02*
X663268D01*
X664267Y15200D01*
Y17199D01*
X663268Y18199D01*
X661268D01*
X660269Y17199D01*
Y15200D01*
X661268Y14200D01*
X666267D02*
X669266D01*
X670265Y15200D01*
X669266Y16199D01*
X667266D01*
X666267Y17199D01*
X667266Y18199D01*
X670265D01*
X672265Y14200D02*
X674264D01*
X673265D01*
Y18199D01*
X672265D01*
X678263Y19198D02*
Y18199D01*
X677263D01*
X679262D01*
X678263D01*
Y15200D01*
X679262Y14200D01*
X682262D02*
X684261D01*
X683261D01*
Y18199D01*
X682262D01*
X688260Y14200D02*
X690259D01*
X691259Y15200D01*
Y17199D01*
X690259Y18199D01*
X688260D01*
X687260Y17199D01*
Y15200D01*
X688260Y14200D01*
X693258D02*
Y18199D01*
X696257D01*
X697257Y17199D01*
Y14200D01*
X706254Y19198D02*
Y18199D01*
X705254D01*
X707254D01*
X706254D01*
Y15200D01*
X707254Y14200D01*
X711252D02*
X713251D01*
X714251Y15200D01*
Y17199D01*
X713251Y18199D01*
X711252D01*
X710253Y17199D01*
Y15200D01*
X711252Y14200D01*
X723248Y19198D02*
Y18199D01*
X722249D01*
X724248D01*
X723248D01*
Y15200D01*
X724248Y14200D01*
X728247D02*
X730246D01*
X731246Y15200D01*
Y17199D01*
X730246Y18199D01*
X728247D01*
X727247Y17199D01*
Y15200D01*
X728247Y14200D01*
X734245D02*
X736244D01*
X737244Y15200D01*
Y17199D01*
X736244Y18199D01*
X734245D01*
X733245Y17199D01*
Y15200D01*
X734245Y14200D01*
X739243D02*
X741243D01*
X740243D01*
Y20198D01*
X739243D01*
X753239Y14200D02*
X751239D01*
X750240Y15200D01*
Y17199D01*
X751239Y18199D01*
X753239D01*
X754238Y17199D01*
Y16199D01*
X750240D01*
X756238Y14200D02*
Y18199D01*
X759237D01*
X760236Y17199D01*
Y14200D01*
X766234Y20198D02*
Y14200D01*
X763235D01*
X762236Y15200D01*
Y17199D01*
X763235Y18199D01*
X766234D01*
X778230D02*
X775232D01*
X774232Y17199D01*
Y15200D01*
X775232Y14200D01*
X778230D01*
X783229D02*
X781229D01*
X780230Y15200D01*
Y17199D01*
X781229Y18199D01*
X783229D01*
X784229Y17199D01*
Y16199D01*
X780230D01*
X786228Y14200D02*
Y18199D01*
X789227D01*
X790227Y17199D01*
Y14200D01*
X793226Y19198D02*
Y18199D01*
X792226D01*
X794225D01*
X793226D01*
Y15200D01*
X794225Y14200D01*
X797224Y18199D02*
Y14200D01*
Y16199D01*
X798224Y17199D01*
X799224Y18199D01*
X800223D01*
X806221Y14200D02*
X804222D01*
X803222Y15200D01*
Y17199D01*
X804222Y18199D01*
X806221D01*
X807221Y17199D01*
Y16199D01*
X803222D01*
X815219Y12201D02*
Y18199D01*
X818218D01*
X819217Y17199D01*
Y15200D01*
X818218Y14200D01*
X815219D01*
X822216D02*
X824216D01*
X825215Y15200D01*
Y17199D01*
X824216Y18199D01*
X822216D01*
X821217Y17199D01*
Y15200D01*
X822216Y14200D01*
X827215D02*
X830214D01*
X831213Y15200D01*
X830214Y16199D01*
X828214D01*
X827215Y17199D01*
X828214Y18199D01*
X831213D01*
X833213Y14200D02*
X835212D01*
X834212D01*
Y18199D01*
X833213D01*
X839211Y19198D02*
Y18199D01*
X838211D01*
X840210D01*
X839211D01*
Y15200D01*
X840210Y14200D01*
X843209D02*
X845209D01*
X844209D01*
Y18199D01*
X843209D01*
X849207Y14200D02*
X851207D01*
X852207Y15200D01*
Y17199D01*
X851207Y18199D01*
X849207D01*
X848208Y17199D01*
Y15200D01*
X849207Y14200D01*
X854206D02*
Y18199D01*
X857205D01*
X858205Y17199D01*
Y14200D01*
X860204D02*
Y15200D01*
X861204D01*
Y14200D01*
X860204D01*
X447338Y4199D02*
X451336D01*
X447338Y6199D02*
X451336D01*
X459334Y2200D02*
Y8198D01*
X462333D01*
X463332Y7198D01*
Y5199D01*
X462333Y4199D01*
X459334D01*
X461333D02*
X463332Y2200D01*
X466331D02*
X468331D01*
X469331Y3200D01*
Y5199D01*
X468331Y6199D01*
X466331D01*
X465332Y5199D01*
Y3200D01*
X466331Y2200D01*
X471330Y6199D02*
Y3200D01*
X472330Y2200D01*
X475328D01*
Y6199D01*
X478328Y7198D02*
Y6199D01*
X477328D01*
X479327D01*
X478328D01*
Y3200D01*
X479327Y2200D01*
X488324D02*
Y8198D01*
X491323D01*
X492323Y7198D01*
Y5199D01*
X491323Y4199D01*
X488324D01*
X495322Y6199D02*
X497321D01*
X498321Y5199D01*
Y2200D01*
X495322D01*
X494322Y3200D01*
X495322Y4199D01*
X498321D01*
X501320Y7198D02*
Y6199D01*
X500320D01*
X502320D01*
X501320D01*
Y3200D01*
X502320Y2200D01*
X505319Y8198D02*
Y2200D01*
Y5199D01*
X506319Y6199D01*
X508318D01*
X509317Y5199D01*
Y2200D01*
X517315Y8198D02*
Y2200D01*
X521314D01*
X526312D02*
X524313D01*
X523313Y3200D01*
Y5199D01*
X524313Y6199D01*
X526312D01*
X527312Y5199D01*
Y4199D01*
X523313D01*
X529311Y2200D02*
Y6199D01*
X532310D01*
X533310Y5199D01*
Y2200D01*
X537309Y201D02*
X538308D01*
X539308Y1200D01*
Y6199D01*
X536309D01*
X535309Y5199D01*
Y3200D01*
X536309Y2200D01*
X539308D01*
X542307Y7198D02*
Y6199D01*
X541307D01*
X543306D01*
X542307D01*
Y3200D01*
X543306Y2200D01*
X546306Y8198D02*
Y2200D01*
Y5199D01*
X547305Y6199D01*
X549305D01*
X550304Y5199D01*
Y2200D01*
X558302Y5199D02*
X562300D01*
X560301Y7198D02*
Y3200D01*
X570298Y8198D02*
X574297D01*
X572297D01*
Y2200D01*
X577295D02*
X579295D01*
X580295Y3200D01*
Y5199D01*
X579295Y6199D01*
X577295D01*
X576296Y5199D01*
Y3200D01*
X577295Y2200D01*
X583294D02*
X585293D01*
X586293Y3200D01*
Y5199D01*
X585293Y6199D01*
X583294D01*
X582294Y5199D01*
Y3200D01*
X583294Y2200D01*
X588292D02*
X590291D01*
X589292D01*
Y8198D01*
X588292D01*
X603287Y7198D02*
X602287Y8198D01*
X600288D01*
X599288Y7198D01*
Y6199D01*
X600288Y5199D01*
X602287D01*
X603287Y4199D01*
Y3200D01*
X602287Y2200D01*
X600288D01*
X599288Y3200D01*
X605287Y2200D02*
X607286D01*
X606286D01*
Y6199D01*
X605287D01*
X610285D02*
X614284D01*
X610285Y2200D01*
X614284D01*
X619282D02*
X617283D01*
X616283Y3200D01*
Y5199D01*
X617283Y6199D01*
X619282D01*
X620282Y5199D01*
Y4199D01*
X616283D01*
X628279D02*
X632278D01*
X628279Y6199D02*
X632278D01*
X644274Y7198D02*
X643274Y8198D01*
X641275D01*
X640275Y7198D01*
Y6199D01*
X641275Y5199D01*
X643274D01*
X644274Y4199D01*
Y3200D01*
X643274Y2200D01*
X641275D01*
X640275Y3200D01*
X646273Y2200D02*
X648273D01*
X647273D01*
Y8198D01*
X646273D01*
X652271Y2200D02*
X654271D01*
X655270Y3200D01*
Y5199D01*
X654271Y6199D01*
X652271D01*
X651272Y5199D01*
Y3200D01*
X652271Y2200D01*
X658269Y7198D02*
Y6199D01*
X657270D01*
X659269D01*
X658269D01*
Y3200D01*
X659269Y2200D01*
X668266D02*
X670265D01*
X669266D01*
Y8198D01*
X668266D01*
X676264Y2200D02*
X674264D01*
X673265Y3200D01*
Y5199D01*
X674264Y6199D01*
X676264D01*
X677263Y5199D01*
Y4199D01*
X673265D01*
X679262Y2200D02*
Y6199D01*
X682262D01*
X683261Y5199D01*
Y2200D01*
X687260Y201D02*
X688260D01*
X689259Y1200D01*
Y6199D01*
X686260D01*
X685261Y5199D01*
Y3200D01*
X686260Y2200D01*
X689259D01*
X692258Y7198D02*
Y6199D01*
X691259D01*
X693258D01*
X692258D01*
Y3200D01*
X693258Y2200D01*
X696257Y8198D02*
Y2200D01*
Y5199D01*
X697257Y6199D01*
X699256D01*
X700256Y5199D01*
Y2200D01*
X709253Y6199D02*
X711252D01*
X712252Y5199D01*
Y2200D01*
X709253D01*
X708253Y3200D01*
X709253Y4199D01*
X712252D01*
X714251Y2200D02*
X717250D01*
X718250Y3200D01*
X717250Y4199D01*
X715251D01*
X714251Y5199D01*
X715251Y6199D01*
X718250D01*
X730246Y8198D02*
Y2200D01*
X727247D01*
X726247Y3200D01*
Y5199D01*
X727247Y6199D01*
X730246D01*
X735244Y2200D02*
X733245D01*
X732245Y3200D01*
Y5199D01*
X733245Y6199D01*
X735244D01*
X736244Y5199D01*
Y4199D01*
X732245D01*
X739243Y2200D02*
Y7198D01*
Y5199D01*
X738243D01*
X740243D01*
X739243D01*
Y7198D01*
X740243Y8198D01*
X743242Y2200D02*
X745241D01*
X744242D01*
Y6199D01*
X743242D01*
X748240Y2200D02*
Y6199D01*
X751239D01*
X752239Y5199D01*
Y2200D01*
X757237D02*
X755238D01*
X754238Y3200D01*
Y5199D01*
X755238Y6199D01*
X757237D01*
X758237Y5199D01*
Y4199D01*
X754238D01*
X764235Y8198D02*
Y2200D01*
X761236D01*
X760236Y3200D01*
Y5199D01*
X761236Y6199D01*
X764235D01*
X772232Y2200D02*
X774232D01*
X773232D01*
Y6199D01*
X772232D01*
X777231Y2200D02*
Y6199D01*
X780230D01*
X781229Y5199D01*
Y2200D01*
X790227Y7198D02*
Y6199D01*
X789227D01*
X791226D01*
X790227D01*
Y3200D01*
X791226Y2200D01*
X794225Y8198D02*
Y2200D01*
Y5199D01*
X795225Y6199D01*
X797224D01*
X798224Y5199D01*
Y2200D01*
X803222D02*
X801223D01*
X800223Y3200D01*
Y5199D01*
X801223Y6199D01*
X803222D01*
X804222Y5199D01*
Y4199D01*
X800223D01*
X812220Y2200D02*
Y8198D01*
X815219D01*
X816218Y7198D01*
Y5199D01*
X815219Y4199D01*
X812220D01*
X822216Y7198D02*
X821217Y8198D01*
X819217D01*
X818218Y7198D01*
Y3200D01*
X819217Y2200D01*
X821217D01*
X822216Y3200D01*
X824216Y8198D02*
Y2200D01*
X827215D01*
X828214Y3200D01*
Y4199D01*
X827215Y5199D01*
X824216D01*
X827215D01*
X828214Y6199D01*
Y7198D01*
X827215Y8198D01*
X824216D01*
X836212Y2200D02*
X838211D01*
X837211D01*
Y8198D01*
X836212D01*
X842210Y6199D02*
X844209D01*
X845209Y5199D01*
Y2200D01*
X842210D01*
X841210Y3200D01*
X842210Y4199D01*
X845209D01*
X847208Y6199D02*
Y3200D01*
X848208Y2200D01*
X851207D01*
Y1200D01*
X850207Y201D01*
X849207D01*
X851207Y2200D02*
Y6199D01*
X854206Y2200D02*
X856205D01*
X857205Y3200D01*
Y5199D01*
X856205Y6199D01*
X854206D01*
X853206Y5199D01*
Y3200D01*
X854206Y2200D01*
X859204Y6199D02*
Y3200D01*
X860204Y2200D01*
X863203D01*
Y6199D01*
X866202Y7198D02*
Y6199D01*
X865202D01*
X867202D01*
X866202D01*
Y3200D01*
X867202Y2200D01*
D11*
X0Y0D02*
Y137795D01*
X202756D01*
Y0D02*
Y137795D01*
X0Y0D02*
X202756D01*
D12*
X-7521Y47804D02*
X-8521Y48804D01*
Y50803D01*
X-7521Y51803D01*
X-6522D01*
X-5522Y50803D01*
Y49803D01*
Y50803D01*
X-4522Y51803D01*
X-3523D01*
X-2523Y50803D01*
Y48804D01*
X-3523Y47804D01*
X-8521Y57801D02*
Y53802D01*
X-5522D01*
X-6522Y55801D01*
Y56801D01*
X-5522Y57801D01*
X-3523D01*
X-2523Y56801D01*
Y54802D01*
X-3523Y53802D01*
X-2523Y59800D02*
X-3523D01*
Y60800D01*
X-2523D01*
Y59800D01*
X-7521Y64798D02*
X-8521Y65798D01*
Y67797D01*
X-7521Y68797D01*
X-3523D01*
X-2523Y67797D01*
Y65798D01*
X-3523Y64798D01*
X-7521D01*
Y70797D02*
X-8521Y71796D01*
Y73795D01*
X-7521Y74795D01*
X-3523D01*
X-2523Y73795D01*
Y71796D01*
X-3523Y70797D01*
X-7521D01*
X-2523Y76795D02*
X-6522D01*
Y77794D01*
X-5522Y78794D01*
X-2523D01*
X-5522D01*
X-6522Y79794D01*
X-5522Y80793D01*
X-2523D01*
Y82793D02*
X-6522D01*
Y83792D01*
X-5522Y84792D01*
X-2523D01*
X-5522D01*
X-6522Y85792D01*
X-5522Y86791D01*
X-2523D01*
X84783Y145397D02*
X80784D01*
Y142398D01*
X82784Y143397D01*
X83783D01*
X84783Y142398D01*
Y140398D01*
X83783Y139399D01*
X81784D01*
X80784Y140398D01*
X86782Y139399D02*
X88781D01*
X87782D01*
Y145397D01*
X86782Y144397D01*
X91781Y139399D02*
Y140398D01*
X92780D01*
Y139399D01*
X91781D01*
X100778Y145397D02*
X96779D01*
Y142398D01*
X98778Y143397D01*
X99778D01*
X100778Y142398D01*
Y140398D01*
X99778Y139399D01*
X97779D01*
X96779Y140398D01*
X102777Y144397D02*
X103777Y145397D01*
X105776D01*
X106776Y144397D01*
Y140398D01*
X105776Y139399D01*
X103777D01*
X102777Y140398D01*
Y144397D01*
X108775Y139399D02*
Y143397D01*
X109775D01*
X110774Y142398D01*
Y139399D01*
Y142398D01*
X111774Y143397D01*
X112774Y142398D01*
Y139399D01*
X114773D02*
Y143397D01*
X115773D01*
X116772Y142398D01*
Y139399D01*
Y142398D01*
X117772Y143397D01*
X118772Y142398D01*
Y139399D01*
D13*
X186317Y92544D02*
Y96544D01*
X190317D01*
Y92544D01*
X186317D01*
Y61048D02*
Y65048D01*
X190317D01*
Y61048D01*
X186317D01*
X42323Y125953D02*
X40323Y129953D01*
X44323D01*
X42323Y125953D01*
Y7842D02*
X40323Y11842D01*
X44323D01*
X42323Y7842D01*
X160433D02*
X158433Y11842D01*
X162433D01*
X160433Y7842D01*
Y125953D02*
X158433Y129953D01*
X162433D01*
X160433Y125953D01*
X134878Y398D02*
X135878Y1398D01*
X136878D01*
X135878Y2398D01*
X136878Y3398D01*
X135878D01*
X134878Y4398D01*
X133878Y3398D01*
X132878D01*
X133878Y2398D01*
X132878Y1398D01*
X133878D01*
X134878Y398D01*
X134879Y10398D02*
X135879Y11398D01*
X136879D01*
X135879Y12398D01*
X136879Y13398D01*
X135879D01*
X134879Y14398D01*
X133879Y13398D01*
X132879D01*
X133879Y12398D01*
X132879Y11398D01*
X133879D01*
X134879Y10398D01*
X134878Y398D02*
X135878Y1398D01*
X136878D01*
X135878Y2398D01*
X136878Y3398D01*
X135878D01*
X134878Y4398D01*
X133878Y3398D01*
X132878D01*
X133878Y2398D01*
X132878Y1398D01*
X133878D01*
X134878Y398D01*
X134877Y10398D02*
X135877Y11398D01*
X136877D01*
X135877Y12398D01*
X136877Y13398D01*
X135877D01*
X134877Y14398D01*
X133877Y13398D01*
X132877D01*
X133877Y12398D01*
X132877Y11398D01*
X133877D01*
X134877Y10398D01*
X60841Y129498D02*
X61841Y131498D01*
X60841Y133498D01*
X62841Y132498D01*
X64841Y133498D01*
X63841Y131498D01*
X64841Y129498D01*
X62841Y130498D01*
X60841Y129498D01*
X93715D02*
X94715Y131498D01*
X93715Y133498D01*
X95715Y132498D01*
X97715Y133498D01*
X96715Y131498D01*
X97715Y129498D01*
X95715Y130498D01*
X93715Y129498D01*
X69518Y118698D02*
Y117698D01*
X71518D01*
Y118698D01*
X72518D01*
Y120698D01*
X71518D01*
Y121698D01*
X69518D01*
Y120698D01*
X68518D01*
Y118698D01*
X69518D01*
X86038Y117698D02*
X87038D01*
X88038Y118698D01*
X89038Y117698D01*
X90038D01*
Y118698D01*
X89038Y119698D01*
X90038Y120698D01*
Y121698D01*
X89038D01*
X88038Y120698D01*
X87038Y121698D01*
X86038D01*
Y120698D01*
X87038Y119698D01*
X86038Y118698D01*
Y117698D01*
X70178Y26198D02*
X72178Y28198D01*
X74178Y26198D01*
X72178Y24198D01*
X70178Y26198D01*
X83278Y36198D02*
X85278Y38198D01*
X87278Y36198D01*
X85278Y34198D01*
X83278Y36198D01*
X68078Y4498D02*
X70078Y6498D01*
X72078Y4498D01*
X70078Y2498D01*
X68078Y4498D01*
X67378Y70698D02*
X69378Y72698D01*
X71378Y70698D01*
X69378Y68698D01*
X67378Y70698D01*
X67878Y131398D02*
X69878Y133398D01*
X71878Y131398D01*
X69878Y129398D01*
X67878Y131398D01*
X66178Y124698D02*
X68178Y126698D01*
X70178Y124698D01*
X68178Y122698D01*
X66178Y124698D01*
X61878Y72198D02*
X63878Y74198D01*
X65878Y72198D01*
X63878Y70198D01*
X61878Y72198D01*
X48678Y88998D02*
X50678Y90998D01*
X52678Y88998D01*
X50678Y86998D01*
X48678Y88998D01*
Y85998D02*
X50678Y87998D01*
X52678Y85998D01*
X50678Y83998D01*
X48678Y85998D01*
X179678Y19898D02*
X181678Y21898D01*
X183678Y19898D01*
X181678Y17898D01*
X179678Y19898D01*
X119278Y14998D02*
X121278Y16998D01*
X123278Y14998D01*
X121278Y12998D01*
X119278Y14998D01*
X140978D02*
X142978Y16998D01*
X144978Y14998D01*
X142978Y12998D01*
X140978Y14998D01*
X76878Y128298D02*
X78878Y130298D01*
X80878Y128298D01*
X78878Y126298D01*
X76878Y128298D01*
X80228D02*
X82228Y130298D01*
X84228Y128298D01*
X82228Y126298D01*
X80228Y128298D01*
X88478Y33498D02*
X90478Y35498D01*
X92478Y33498D01*
X90478Y31498D01*
X88478Y33498D01*
X82178Y30998D02*
X84178Y32998D01*
X86178Y30998D01*
X84178Y28998D01*
X82178Y30998D01*
X75378Y69998D02*
X77378Y71998D01*
X79378Y69998D01*
X77378Y67998D01*
X75378Y69998D01*
X76978Y72698D02*
X78978Y74698D01*
X80978Y72698D01*
X78978Y70698D01*
X76978Y72698D01*
X76278Y75698D02*
X78278Y77698D01*
X80278Y75698D01*
X78278Y73698D01*
X76278Y75698D01*
X80578Y33998D02*
X82578Y35998D01*
X84578Y33998D01*
X82578Y31998D01*
X80578Y33998D01*
X120678Y99798D02*
X122678Y101798D01*
X124678Y99798D01*
X122678Y97798D01*
X120678Y99798D01*
X137778Y81998D02*
X139778Y83998D01*
X141778Y81998D01*
X139778Y79998D01*
X137778Y81998D01*
X64078Y99498D02*
X66078Y101498D01*
X68078Y99498D01*
X66078Y97498D01*
X64078Y99498D01*
X137178Y96498D02*
X139178Y98498D01*
X141178Y96498D01*
X139178Y94498D01*
X137178Y96498D01*
Y92098D02*
X139178Y94098D01*
X141178Y92098D01*
X139178Y90098D01*
X137178Y92098D01*
X53578Y103798D02*
X55578Y105798D01*
X57578Y103798D01*
X55578Y101798D01*
X53578Y103798D01*
X56578Y104198D02*
X58578Y106198D01*
X60578Y104198D01*
X58578Y102198D01*
X56578Y104198D01*
X61878Y106898D02*
X63878Y108898D01*
X65878Y106898D01*
X63878Y104898D01*
X61878Y106898D01*
X195378Y106998D02*
X197378Y108998D01*
X199378Y106998D01*
X197378Y104998D01*
X195378Y106998D01*
X125078Y39898D02*
X127078Y41898D01*
X129078Y39898D01*
X127078Y37898D01*
X125078Y39898D01*
X93678Y52798D02*
X95678Y54798D01*
X97678Y52798D01*
X95678Y50798D01*
X93678Y52798D01*
X90478Y31198D02*
X92478Y33198D01*
X94478Y31198D01*
X92478Y29198D01*
X90478Y31198D01*
X152578Y83298D02*
X154578Y85298D01*
X156578Y83298D01*
X154578Y81298D01*
X152578Y83298D01*
X154178Y85998D02*
X156178Y87998D01*
X158178Y85998D01*
X156178Y83998D01*
X154178Y85998D01*
X150978Y70998D02*
X152978Y72998D01*
X154978Y70998D01*
X152978Y68998D01*
X150978Y70998D01*
X149378Y66698D02*
X151378Y68698D01*
X153378Y66698D01*
X151378Y64698D01*
X149378Y66698D01*
X136578Y87998D02*
X138578Y89998D01*
X140578Y87998D01*
X138578Y85998D01*
X136578Y87998D01*
X94378Y64498D02*
X96378Y66498D01*
X98378Y64498D01*
X96378Y62498D01*
X94378Y64498D01*
X68778D02*
X70778Y66498D01*
X72778Y64498D01*
X70778Y62498D01*
X68778Y64498D01*
X96178Y96898D02*
X98178Y98898D01*
X100178Y96898D01*
X98178Y94898D01*
X96178Y96898D01*
X71678Y98798D02*
X73678Y100798D01*
X75678Y98798D01*
X73678Y96798D01*
X71678Y98798D01*
X79278Y83398D02*
X81278Y85398D01*
X83278Y83398D01*
X81278Y81398D01*
X79278Y83398D01*
X79978Y80398D02*
X81978Y82398D01*
X83978Y80398D01*
X81978Y78398D01*
X79978Y80398D01*
X77178Y39998D02*
X79178Y41998D01*
X81178Y39998D01*
X79178Y37998D01*
X77178Y39998D01*
X65778Y64498D02*
X67778Y66498D01*
X69778Y64498D01*
X67778Y62498D01*
X65778Y64498D01*
X49978Y74298D02*
X51978Y76298D01*
X53978Y74298D01*
X51978Y72298D01*
X49978Y74298D01*
X64178Y74198D02*
X66178Y76198D01*
X68178Y74198D01*
X66178Y72198D01*
X64178Y74198D01*
X85178Y98498D02*
X87178Y100498D01*
X89178Y98498D01*
X87178Y96498D01*
X85178Y98498D01*
X111678Y9498D02*
X113678Y11498D01*
X115678Y9498D01*
X113678Y7498D01*
X111678Y9498D01*
X104478Y101098D02*
X106478Y103098D01*
X108478Y101098D01*
X106478Y99098D01*
X104478Y101098D01*
X107878Y97098D02*
X109878Y99098D01*
X111878Y97098D01*
X109878Y95098D01*
X107878Y97098D01*
X115361Y104780D02*
X117361Y106780D01*
X119361Y104780D01*
X117361Y102780D01*
X115361Y104780D01*
X52378Y16898D02*
X54378Y18898D01*
X56378Y16898D01*
X54378Y14898D01*
X52378Y16898D01*
X81978Y71798D02*
X83978Y73798D01*
X85978Y71798D01*
X83978Y69798D01*
X81978Y71798D01*
X83978Y74098D02*
X85978Y76098D01*
X87978Y74098D01*
X85978Y72098D01*
X83978Y74098D01*
X79978Y69498D02*
X81978Y71498D01*
X83978Y69498D01*
X81978Y67498D01*
X79978Y69498D01*
X124478Y83098D02*
X126478Y85098D01*
X128478Y83098D01*
X126478Y81098D01*
X124478Y83098D01*
X105778D02*
X107778Y85098D01*
X109778Y83098D01*
X107778Y81098D01*
X105778Y83098D01*
X122678Y70298D02*
X124678Y72298D01*
X126678Y70298D01*
X124678Y68298D01*
X122678Y70298D01*
X80578Y98498D02*
X82578Y100498D01*
X84578Y98498D01*
X82578Y96498D01*
X80578Y98498D01*
X124478Y67698D02*
X126478Y69698D01*
X128478Y67698D01*
X126478Y65698D01*
X124478Y67698D01*
X78278Y96498D02*
X80278Y98498D01*
X82278Y96498D01*
X80278Y94498D01*
X78278Y96498D01*
X82878D02*
X84878Y98498D01*
X86878Y96498D01*
X84878Y94498D01*
X82878Y96498D01*
X35978Y107998D02*
X37978Y109998D01*
X39978Y107998D01*
X37978Y105998D01*
X35978Y107998D01*
X42378D02*
X44378Y109998D01*
X46378Y107998D01*
X44378Y105998D01*
X42378Y107998D01*
X48778D02*
X50778Y109998D01*
X52778Y107998D01*
X50778Y105998D01*
X48778Y107998D01*
X74978Y78698D02*
X76978Y80698D01*
X78978Y78698D01*
X76978Y76698D01*
X74978Y78698D01*
X76678Y85098D02*
X78678Y87098D01*
X80678Y85098D01*
X78678Y83098D01*
X76678Y85098D01*
X76478Y90798D02*
X78478Y92798D01*
X80478Y90798D01*
X78478Y88798D01*
X76478Y90798D01*
X94378Y88998D02*
X96378Y90998D01*
X98378Y88998D01*
X96378Y86998D01*
X94378Y88998D01*
X89778Y90998D02*
X91778Y92998D01*
X93778Y90998D01*
X91778Y88998D01*
X89778Y90998D01*
X87878Y96898D02*
X89878Y98898D01*
X91878Y96898D01*
X89878Y94898D01*
X87878Y96898D01*
X91278Y64498D02*
X93278Y66498D01*
X95278Y64498D01*
X93278Y62498D01*
X91278Y64498D01*
X96178Y93798D02*
X98178Y95798D01*
X100178Y93798D01*
X98178Y91798D01*
X96178Y93798D01*
X60178Y31898D02*
X62178Y33898D01*
X64178Y31898D01*
X62178Y29898D01*
X60178Y31898D01*
Y26898D02*
X62178Y28898D01*
X64178Y26898D01*
X62178Y24898D01*
X60178Y26898D01*
Y21898D02*
X62178Y23898D01*
X64178Y21898D01*
X62178Y19898D01*
X60178Y21898D01*
X115278Y127398D02*
X117278Y129398D01*
X119278Y127398D01*
X117278Y125398D01*
X115278Y127398D01*
X141678Y47798D02*
X143678Y49798D01*
X145678Y47798D01*
X143678Y45798D01*
X141678Y47798D01*
X115078Y1998D02*
X117078Y3998D01*
X119078Y1998D01*
X117078Y-2D01*
X115078Y1998D01*
X75078Y116098D02*
X77078Y118098D01*
X79078Y116098D01*
X77078Y114098D01*
X75078Y116098D01*
X82378Y109698D02*
X84378Y111698D01*
X86378Y109698D01*
X84378Y107698D01*
X82378Y109698D01*
X76578Y93898D02*
X78578Y95898D01*
X80578Y93898D01*
X78578Y91898D01*
X76578Y93898D01*
X28578Y71098D02*
X30578Y73098D01*
X32578Y71098D01*
X30578Y69098D01*
X28578Y71098D01*
X33378Y72898D02*
X35378Y74898D01*
X37378Y72898D01*
X35378Y70898D01*
X33378Y72898D01*
X28378Y66498D02*
X30378Y68498D01*
X32378Y66498D01*
X30378Y64498D01*
X28378Y66498D01*
X36578Y64698D02*
X38578Y66698D01*
X40578Y64698D01*
X38578Y62698D01*
X36578Y64698D01*
X44678Y62798D02*
X46678Y64798D01*
X48678Y62798D01*
X46678Y60798D01*
X44678Y62798D01*
X61878Y58698D02*
X63878Y60698D01*
X65878Y58698D01*
X63878Y56698D01*
X61878Y58698D01*
X60178Y36898D02*
X62178Y38898D01*
X64178Y36898D01*
X62178Y34898D01*
X60178Y36898D01*
X49678Y61198D02*
X51678Y63198D01*
X53678Y61198D01*
X51678Y59198D01*
X49678Y61198D01*
X52578Y54098D02*
X54578Y56098D01*
X56578Y54098D01*
X54578Y52098D01*
X52578Y54098D01*
X45878Y87498D02*
X47878Y89498D01*
X49878Y87498D01*
X47878Y85498D01*
X45878Y87498D01*
X158433Y104943D02*
X160433Y106942D01*
X162433Y104943D01*
X160433Y102943D01*
X158433Y104943D01*
X8778Y131398D02*
X10778Y133398D01*
X12778Y131398D01*
X10778Y129398D01*
X8778Y131398D01*
X18378Y130398D02*
X20378Y132398D01*
X22378Y130398D01*
X20378Y128398D01*
X18378Y130398D01*
Y120198D02*
X20378Y122198D01*
X22378Y120198D01*
X20378Y118198D01*
X18378Y120198D01*
X27678Y118798D02*
X29678Y120798D01*
X31678Y118798D01*
X29678Y116798D01*
X27678Y118798D01*
X36978Y99398D02*
X38978Y101398D01*
X40978Y99398D01*
X38978Y97398D01*
X36978Y99398D01*
X31978Y104798D02*
X33978Y106798D01*
X35978Y104798D01*
X33978Y102798D01*
X31978Y104798D01*
X59078Y98798D02*
X61078Y100798D01*
X63078Y98798D01*
X61078Y96798D01*
X59078Y98798D01*
X62178Y86698D02*
X64178Y88698D01*
X66178Y86698D01*
X64178Y84698D01*
X62178Y86698D01*
Y94898D02*
X64178Y96898D01*
X66178Y94898D01*
X64178Y92898D01*
X62178Y94898D01*
X71978Y95798D02*
X73978Y97798D01*
X75978Y95798D01*
X73978Y93798D01*
X71978Y95798D01*
X189978Y37698D02*
X191978Y39698D01*
X193978Y37698D01*
X191978Y35698D01*
X189978Y37698D01*
Y10698D02*
X191978Y12698D01*
X193978Y10698D01*
X191978Y8698D01*
X189978Y10698D01*
X185578Y2098D02*
X187578Y4098D01*
X189578Y2098D01*
X187578Y98D01*
X185578Y2098D01*
X190178Y5498D02*
X192178Y7498D01*
X194178Y5498D01*
X192178Y3498D01*
X190178Y5498D01*
X177078Y40698D02*
X179078Y42698D01*
X181078Y40698D01*
X179078Y38698D01*
X177078Y40698D01*
X123578Y88498D02*
X125578Y90498D01*
X127578Y88498D01*
X125578Y86498D01*
X123578Y88498D01*
X106078Y76498D02*
X108078Y78498D01*
X110078Y76498D01*
X108078Y74498D01*
X106078Y76498D01*
X123578Y79698D02*
X125578Y81698D01*
X127578Y79698D01*
X125578Y77698D01*
X123578Y79698D01*
X106078Y86098D02*
X108078Y88098D01*
X110078Y86098D01*
X108078Y84098D01*
X106078Y86098D01*
X98378Y107598D02*
X100378Y109598D01*
X102378Y107598D01*
X100378Y105598D01*
X98378Y107598D01*
X96278Y101298D02*
X98278Y103298D01*
X100278Y101298D01*
X98278Y99298D01*
X96278Y101298D01*
X73978Y86698D02*
X75978Y88698D01*
X77978Y86698D01*
X75978Y84698D01*
X73978Y86698D01*
X90478Y51098D02*
X92478Y53098D01*
X94478Y51098D01*
X92478Y49098D01*
X90478Y51098D01*
X88478Y48798D02*
X90478Y50798D01*
X92478Y48798D01*
X90478Y46798D01*
X88478Y48798D01*
X107778Y32798D02*
X109778Y34798D01*
X111778Y32798D01*
X109778Y30798D01*
X107778Y32798D01*
X78878Y36998D02*
X80878Y38998D01*
X82878Y36998D01*
X80878Y34998D01*
X78878Y36998D01*
X83378Y46198D02*
X85378Y48198D01*
X87378Y46198D01*
X85378Y44198D01*
X83378Y46198D01*
X84678Y127098D02*
X86678Y129098D01*
X88678Y127098D01*
X86678Y125098D01*
X84678Y127098D01*
X51778Y109998D02*
X53778Y111998D01*
X55778Y109998D01*
X53778Y107998D01*
X51778Y109998D01*
X117278Y23298D02*
X119278Y25298D01*
X121278Y23298D01*
X119278Y21298D01*
X117278Y23298D01*
X155378Y33498D02*
X157378Y35498D01*
X159378Y33498D01*
X157378Y31498D01*
X155378Y33498D01*
X91378Y93698D02*
X93378Y95698D01*
X95378Y93698D01*
X93378Y91698D01*
X91378Y93698D01*
X88678Y123498D02*
X90678Y125498D01*
X92678Y123498D01*
X90678Y121498D01*
X88678Y123498D01*
X124478Y72698D02*
X126478Y74698D01*
X128478Y72698D01*
X126478Y70698D01*
X124478Y72698D01*
X240000Y125200D02*
X242400Y127600D01*
X244800Y125200D01*
X242400Y122800D01*
X240000Y125200D01*
X242400Y110800D02*
X243600Y112000D01*
X244800D01*
X243600Y113200D01*
X244800Y114400D01*
X243600D01*
X242400Y115600D01*
X241200Y114400D01*
X240000D01*
X241200Y113200D01*
X240000Y112000D01*
X241200D01*
X242400Y110800D01*
X240000Y86800D02*
Y91600D01*
X244800D01*
Y86800D01*
X240000D01*
X242400Y74800D02*
X240000Y79600D01*
X244800D01*
X242400Y74800D01*
X240000Y62800D02*
X241200D01*
X242400Y64000D01*
X243600Y62800D01*
X244800D01*
Y64000D01*
X243600Y65200D01*
X244800Y66400D01*
Y67600D01*
X243600D01*
X242400Y66400D01*
X241200Y67600D01*
X240000D01*
Y66400D01*
X241200Y65200D01*
X240000Y64000D01*
Y62800D01*
X241200Y52000D02*
Y50800D01*
X243600D01*
Y52000D01*
X244800D01*
Y54400D01*
X243600D01*
Y55600D01*
X241200D01*
Y54400D01*
X240000D01*
Y52000D01*
X241200D01*
X240000Y38800D02*
X241200Y41200D01*
X240000Y43600D01*
X242400Y42400D01*
X244800Y43600D01*
X243600Y41200D01*
X244800Y38800D01*
X242400Y40000D01*
X240000Y38800D01*
D14*
X144378Y104398D02*
G03*
X144378Y104398I-2000J0D01*
G01*
X114378D02*
G03*
X114378Y104398I-2000J0D01*
G01*
X124378D02*
G03*
X124378Y104398I-2000J0D01*
G01*
X134378D02*
G03*
X134378Y104398I-2000J0D01*
G01*
X179378Y121398D02*
G03*
X179378Y121398I-2000J0D01*
G01*
X189378Y131398D02*
G03*
X189378Y131398I-2000J0D01*
G01*
X179378D02*
G03*
X179378Y131398I-2000J0D01*
G01*
X189378Y121398D02*
G03*
X189378Y121398I-2000J0D01*
G01*
X17378Y128898D02*
G03*
X17378Y128898I-2000J0D01*
G01*
X27378Y118898D02*
G03*
X27378Y118898I-2000J0D01*
G01*
Y128898D02*
G03*
X27378Y128898I-2000J0D01*
G01*
X17378Y118898D02*
G03*
X17378Y118898I-2000J0D01*
G01*
X7378D02*
G03*
X7378Y118898I-2000J0D01*
G01*
X7378Y128898D02*
G03*
X7378Y128898I-2000J0D01*
G01*
Y28898D02*
G03*
X7378Y28898I-2000J0D01*
G01*
X27378D02*
G03*
X27378Y28898I-2000J0D01*
G01*
X17378D02*
G03*
X17378Y28898I-2000J0D01*
G01*
Y18898D02*
G03*
X17378Y18898I-2000J0D01*
G01*
X27378Y8898D02*
G03*
X27378Y8898I-2000J0D01*
G01*
Y18898D02*
G03*
X27378Y18898I-2000J0D01*
G01*
X17378Y8898D02*
G03*
X17378Y8898I-2000J0D01*
G01*
X7378D02*
G03*
X7378Y8898I-2000J0D01*
G01*
X7378Y18898D02*
G03*
X7378Y18898I-2000J0D01*
G01*
Y58898D02*
G03*
X7378Y58898I-2000J0D01*
G01*
X27378D02*
G03*
X27378Y58898I-2000J0D01*
G01*
X17378D02*
G03*
X17378Y58898I-2000J0D01*
G01*
Y48898D02*
G03*
X17378Y48898I-2000J0D01*
G01*
X27378Y38898D02*
G03*
X27378Y38898I-2000J0D01*
G01*
Y48898D02*
G03*
X27378Y48898I-2000J0D01*
G01*
X17378Y38898D02*
G03*
X17378Y38898I-2000J0D01*
G01*
X7378D02*
G03*
X7378Y38898I-2000J0D01*
G01*
X7378Y48898D02*
G03*
X7378Y48898I-2000J0D01*
G01*
X17378Y78898D02*
G03*
X17378Y78898I-2000J0D01*
G01*
X27378Y68898D02*
G03*
X27378Y68898I-2000J0D01*
G01*
Y78898D02*
G03*
X27378Y78898I-2000J0D01*
G01*
X17378Y68898D02*
G03*
X17378Y68898I-2000J0D01*
G01*
X7378D02*
G03*
X7378Y68898I-2000J0D01*
G01*
X7378Y78898D02*
G03*
X7378Y78898I-2000J0D01*
G01*
Y98898D02*
G03*
X7378Y98898I-2000J0D01*
G01*
X7378Y88898D02*
G03*
X7378Y88898I-2000J0D01*
G01*
X17378D02*
G03*
X17378Y88898I-2000J0D01*
G01*
X27378Y98898D02*
G03*
X27378Y98898I-2000J0D01*
G01*
Y88898D02*
G03*
X27378Y88898I-2000J0D01*
G01*
X17378Y98898D02*
G03*
X17378Y98898I-2000J0D01*
G01*
X179378Y16398D02*
G03*
X179378Y16398I-2000J0D01*
G01*
X189378D02*
G03*
X189378Y16398I-2000J0D01*
G01*
Y26398D02*
G03*
X189378Y26398I-2000J0D01*
G01*
X179378Y36398D02*
G03*
X179378Y36398I-2000J0D01*
G01*
X189378D02*
G03*
X189378Y36398I-2000J0D01*
G01*
X179378Y26398D02*
G03*
X179378Y26398I-2000J0D01*
G01*
X189378Y6398D02*
G03*
X189378Y6398I-2000J0D01*
G01*
X179378D02*
G03*
X179378Y6398I-2000J0D01*
G01*
D15*
X244798Y142598D02*
X243599Y143798D01*
X241200D01*
X240000Y142598D01*
Y141399D01*
X241200Y140199D01*
X243599D01*
X244798Y138999D01*
Y137800D01*
X243599Y136600D01*
X241200D01*
X240000Y137800D01*
X247198Y141399D02*
Y137800D01*
X248397Y136600D01*
X251996D01*
Y135400D01*
X250797Y134201D01*
X249597D01*
X251996Y136600D02*
Y141399D01*
X254395Y136600D02*
Y141399D01*
X255595D01*
X256795Y140199D01*
Y136600D01*
Y140199D01*
X257994Y141399D01*
X259194Y140199D01*
Y136600D01*
X261593Y143798D02*
Y136600D01*
X265192D01*
X266391Y137800D01*
Y138999D01*
Y140199D01*
X265192Y141399D01*
X261593D01*
X269990Y136600D02*
X272390D01*
X273589Y137800D01*
Y140199D01*
X272390Y141399D01*
X269990D01*
X268791Y140199D01*
Y137800D01*
X269990Y136600D01*
X275988D02*
X278388D01*
X277188D01*
Y143798D01*
X275988D01*
X290388D02*
Y136600D01*
Y140199D01*
X295186D01*
Y143798D01*
Y136600D01*
X297585D02*
X299985D01*
X298785D01*
Y141399D01*
X297585D01*
X304783Y142598D02*
Y141399D01*
X303583D01*
X305982D01*
X304783D01*
Y137800D01*
X305982Y136600D01*
X321578Y142598D02*
X320378Y143798D01*
X317979D01*
X316779Y142598D01*
Y137800D01*
X317979Y136600D01*
X320378D01*
X321578Y137800D01*
X325176Y136600D02*
X327575D01*
X328775Y137800D01*
Y140199D01*
X327575Y141399D01*
X325176D01*
X323977Y140199D01*
Y137800D01*
X325176Y136600D01*
X331174Y141399D02*
Y137800D01*
X332374Y136600D01*
X335973D01*
Y141399D01*
X338372Y136600D02*
Y141399D01*
X341971D01*
X343170Y140199D01*
Y136600D01*
X346769Y142598D02*
Y141399D01*
X345570D01*
X347969D01*
X346769D01*
Y137800D01*
X347969Y136600D01*
X364767Y143798D02*
X359969D01*
Y140199D01*
X362368D01*
X359969D01*
Y136600D01*
X367167D02*
X369566D01*
X368366D01*
Y141399D01*
X367167D01*
X373165Y136600D02*
Y141399D01*
X376764D01*
X377963Y140199D01*
Y136600D01*
X380362D02*
X382762D01*
X381562D01*
Y141399D01*
X380362D01*
X386360Y136600D02*
X389959D01*
X391159Y137800D01*
X389959Y138999D01*
X387560D01*
X386360Y140199D01*
X387560Y141399D01*
X391159D01*
X393558Y143798D02*
Y136600D01*
Y140199D01*
X394758Y141399D01*
X397157D01*
X398357Y140199D01*
Y136600D01*
X404355D02*
X401955D01*
X400756Y137800D01*
Y140199D01*
X401955Y141399D01*
X404355D01*
X405554Y140199D01*
Y138999D01*
X400756D01*
X412752Y143798D02*
Y136600D01*
X409153D01*
X407953Y137800D01*
Y140199D01*
X409153Y141399D01*
X412752D01*
X422349Y143798D02*
Y136600D01*
Y140199D01*
X427147D01*
Y143798D01*
Y136600D01*
X430746D02*
X433145D01*
X434345Y137800D01*
Y140199D01*
X433145Y141399D01*
X430746D01*
X429546Y140199D01*
Y137800D01*
X430746Y136600D01*
X436744D02*
X439143D01*
X437944D01*
Y143798D01*
X436744D01*
X446341Y136600D02*
X443942D01*
X442742Y137800D01*
Y140199D01*
X443942Y141399D01*
X446341D01*
X447541Y140199D01*
Y138999D01*
X442742D01*
X461936Y142598D02*
X460736Y143798D01*
X458337D01*
X457137Y142598D01*
Y141399D01*
X458337Y140199D01*
X460736D01*
X461936Y138999D01*
Y137800D01*
X460736Y136600D01*
X458337D01*
X457137Y137800D01*
X464335Y136600D02*
X466734D01*
X465535D01*
Y141399D01*
X464335D01*
X470333D02*
X475132D01*
X470333Y136600D01*
X475132D01*
X481130D02*
X478730D01*
X477531Y137800D01*
Y140199D01*
X478730Y141399D01*
X481130D01*
X482329Y140199D01*
Y138999D01*
X477531D01*
X494329Y136600D02*
Y143798D01*
X497928D01*
X499128Y142598D01*
Y140199D01*
X497928Y138999D01*
X494329D01*
X501527Y143798D02*
Y136600D01*
Y140199D01*
X502727Y141399D01*
X505126D01*
X506325Y140199D01*
Y136600D01*
X508725Y141399D02*
Y137800D01*
X509924Y136600D01*
X513523D01*
Y135400D01*
X512324Y134201D01*
X511124D01*
X513523Y136600D02*
Y141399D01*
X515922Y136600D02*
X519521D01*
X520721Y137800D01*
X519521Y138999D01*
X517122D01*
X515922Y140199D01*
X517122Y141399D01*
X520721D01*
X523120Y136600D02*
X525519D01*
X524320D01*
Y141399D01*
X523120D01*
X533917D02*
X530318D01*
X529118Y140199D01*
Y137800D01*
X530318Y136600D01*
X533917D01*
X537515Y141399D02*
X539915D01*
X541114Y140199D01*
Y136600D01*
X537515D01*
X536316Y137800D01*
X537515Y138999D01*
X541114D01*
X543513Y136600D02*
X545913D01*
X544713D01*
Y143798D01*
X543513D01*
X556709D02*
Y136600D01*
X561508D01*
X567506D02*
X565106D01*
X563907Y137800D01*
Y140199D01*
X565106Y141399D01*
X567506D01*
X568705Y140199D01*
Y138999D01*
X563907D01*
X571104Y136600D02*
Y141399D01*
X574703D01*
X575903Y140199D01*
Y136600D01*
X580701Y134201D02*
X581901D01*
X583101Y135400D01*
Y141399D01*
X579502D01*
X578302Y140199D01*
Y137800D01*
X579502Y136600D01*
X583101D01*
X586699Y142598D02*
Y141399D01*
X585500D01*
X587899D01*
X586699D01*
Y137800D01*
X587899Y136600D01*
X591498Y143798D02*
Y136600D01*
Y140199D01*
X592697Y141399D01*
X595097D01*
X596296Y140199D01*
Y136600D01*
X608296D02*
Y143798D01*
X611895D01*
X613095Y142598D01*
Y140199D01*
X611895Y138999D01*
X608296D01*
X610696D02*
X613095Y136600D01*
X616694D02*
X619093D01*
X620293Y137800D01*
Y140199D01*
X619093Y141399D01*
X616694D01*
X615494Y140199D01*
Y137800D01*
X616694Y136600D01*
X622692Y141399D02*
Y137800D01*
X623891Y136600D01*
X627490D01*
Y141399D01*
X631089Y142598D02*
Y141399D01*
X629889D01*
X632289D01*
X631089D01*
Y137800D01*
X632289Y136600D01*
X643085D02*
Y143798D01*
X646684D01*
X647884Y142598D01*
Y140199D01*
X646684Y138999D01*
X643085D01*
X651482Y141399D02*
X653882D01*
X655081Y140199D01*
Y136600D01*
X651482D01*
X650283Y137800D01*
X651482Y138999D01*
X655081D01*
X658680Y142598D02*
Y141399D01*
X657480D01*
X659880D01*
X658680D01*
Y137800D01*
X659880Y136600D01*
X663479Y143798D02*
Y136600D01*
Y140199D01*
X664678Y141399D01*
X667077D01*
X668277Y140199D01*
Y136600D01*
X677874Y143798D02*
Y136600D01*
X682672D01*
X688670D02*
X686271D01*
X685072Y137800D01*
Y140199D01*
X686271Y141399D01*
X688670D01*
X689870Y140199D01*
Y138999D01*
X685072D01*
X692269Y136600D02*
Y141399D01*
X695868D01*
X697068Y140199D01*
Y136600D01*
X701866Y134201D02*
X703066D01*
X704265Y135400D01*
Y141399D01*
X700666D01*
X699467Y140199D01*
Y137800D01*
X700666Y136600D01*
X704265D01*
X707864Y142598D02*
Y141399D01*
X706665D01*
X709064D01*
X707864D01*
Y137800D01*
X709064Y136600D01*
X712663Y143798D02*
Y136600D01*
Y140199D01*
X713862Y141399D01*
X716261D01*
X717461Y140199D01*
Y136600D01*
X729461D02*
Y143798D01*
X733060D01*
X734260Y142598D01*
Y140199D01*
X733060Y138999D01*
X729461D01*
X736659Y136600D02*
X739058D01*
X737858D01*
Y143798D01*
X736659D01*
X743856Y141399D02*
X746256D01*
X747455Y140199D01*
Y136600D01*
X743856D01*
X742657Y137800D01*
X743856Y138999D01*
X747455D01*
X751054Y142598D02*
Y141399D01*
X749854D01*
X752254D01*
X751054D01*
Y137800D01*
X752254Y136600D01*
X759451D02*
X757052D01*
X755853Y137800D01*
Y140199D01*
X757052Y141399D01*
X759451D01*
X760651Y140199D01*
Y138999D01*
X755853D01*
X767849Y143798D02*
Y136600D01*
X764250D01*
X763050Y137800D01*
Y140199D01*
X764250Y141399D01*
X767849D01*
X779849Y143798D02*
Y136600D01*
Y140199D01*
X784647D01*
Y143798D01*
Y136600D01*
X788246D02*
X790645D01*
X791845Y137800D01*
Y140199D01*
X790645Y141399D01*
X788246D01*
X787046Y140199D01*
Y137800D01*
X788246Y136600D01*
X794244D02*
X796643D01*
X795443D01*
Y143798D01*
X794244D01*
X803841Y136600D02*
X801442D01*
X800242Y137800D01*
Y140199D01*
X801442Y141399D01*
X803841D01*
X805040Y140199D01*
Y138999D01*
X800242D01*
X814637Y143798D02*
X819436D01*
X817037D01*
Y136600D01*
X821835Y141399D02*
Y137800D01*
X823035Y136600D01*
X826633D01*
Y135400D01*
X825434Y134201D01*
X824234D01*
X826633Y136600D02*
Y141399D01*
X829033Y134201D02*
Y141399D01*
X832631D01*
X833831Y140199D01*
Y137800D01*
X832631Y136600D01*
X829033D01*
X839829D02*
X837430D01*
X836230Y137800D01*
Y140199D01*
X837430Y141399D01*
X839829D01*
X841029Y140199D01*
Y138999D01*
X836230D01*
X231200Y147400D02*
X853029D01*
X231200Y131200D02*
X853029D01*
X231200Y147400D02*
Y23200D01*
X853029Y147400D02*
Y23200D01*
X285988Y147400D02*
Y23200D01*
X355569Y147400D02*
Y23200D01*
X489929Y147400D02*
Y23200D01*
X603896Y147400D02*
Y23200D01*
X725061Y147400D02*
Y23200D01*
X775449Y147400D02*
Y23200D01*
X231200Y35200D02*
X853029D01*
X231200Y23200D02*
X853029D01*
D16*
X244800Y101200D02*
G03*
X244800Y101200I-2400J0D01*
G01*
D17*
X243999Y19198D02*
X242999Y20198D01*
X241000D01*
X240000Y19198D01*
Y18199D01*
X241000Y17199D01*
X242999D01*
X243999Y16199D01*
Y15200D01*
X242999Y14200D01*
X241000D01*
X240000Y15200D01*
X245998Y14200D02*
X247997D01*
X246998D01*
Y20198D01*
X245998D01*
X251996Y14200D02*
X253995D01*
X254995Y15200D01*
Y17199D01*
X253995Y18199D01*
X251996D01*
X250996Y17199D01*
Y15200D01*
X251996Y14200D01*
X257994Y19198D02*
Y18199D01*
X256995D01*
X258994D01*
X257994D01*
Y15200D01*
X258994Y14200D01*
X271990Y20198D02*
Y14200D01*
X268991D01*
X267991Y15200D01*
Y17199D01*
X268991Y18199D01*
X271990D01*
X276988Y14200D02*
X274989D01*
X273989Y15200D01*
Y17199D01*
X274989Y18199D01*
X276988D01*
X277988Y17199D01*
Y16199D01*
X273989D01*
X280987Y14200D02*
Y19198D01*
Y17199D01*
X279987D01*
X281986D01*
X280987D01*
Y19198D01*
X281986Y20198D01*
X284985Y14200D02*
X286985D01*
X285985D01*
Y18199D01*
X284985D01*
X289984Y14200D02*
Y18199D01*
X292983D01*
X293983Y17199D01*
Y14200D01*
X295982D02*
X297981D01*
X296982D01*
Y18199D01*
X295982D01*
X301980Y19198D02*
Y18199D01*
X300980D01*
X302980D01*
X301980D01*
Y15200D01*
X302980Y14200D01*
X305979D02*
X307978D01*
X306978D01*
Y18199D01*
X305979D01*
X311977Y14200D02*
X313976D01*
X314976Y15200D01*
Y17199D01*
X313976Y18199D01*
X311977D01*
X310977Y17199D01*
Y15200D01*
X311977Y14200D01*
X316975D02*
Y18199D01*
X319974D01*
X320974Y17199D01*
Y14200D01*
X322973D02*
X325972D01*
X326972Y15200D01*
X325972Y16199D01*
X323973D01*
X322973Y17199D01*
X323973Y18199D01*
X326972D01*
X334969D02*
X335969D01*
Y17199D01*
X334969D01*
Y18199D01*
Y15200D02*
X335969D01*
Y14200D01*
X334969D01*
Y15200D01*
X347569Y14200D02*
Y20198D01*
X350568D01*
X351568Y19198D01*
Y17199D01*
X350568Y16199D01*
X347569D01*
X349568D02*
X351568Y14200D01*
X354567D02*
X356566D01*
X357566Y15200D01*
Y17199D01*
X356566Y18199D01*
X354567D01*
X353567Y17199D01*
Y15200D01*
X354567Y14200D01*
X359565Y18199D02*
Y15200D01*
X360565Y14200D01*
X363564D01*
Y18199D01*
X366563Y19198D02*
Y18199D01*
X365563D01*
X367563D01*
X366563D01*
Y15200D01*
X367563Y14200D01*
X376560D02*
Y20198D01*
X379559D01*
X380558Y19198D01*
Y17199D01*
X379559Y16199D01*
X376560D01*
X383557Y18199D02*
X385557D01*
X386556Y17199D01*
Y14200D01*
X383557D01*
X382558Y15200D01*
X383557Y16199D01*
X386556D01*
X389555Y19198D02*
Y18199D01*
X388556D01*
X390555D01*
X389555D01*
Y15200D01*
X390555Y14200D01*
X393554Y20198D02*
Y14200D01*
Y17199D01*
X394554Y18199D01*
X396553D01*
X397553Y17199D01*
Y14200D01*
X405550Y20198D02*
Y14200D01*
X409549D01*
X414547D02*
X412548D01*
X411548Y15200D01*
Y17199D01*
X412548Y18199D01*
X414547D01*
X415547Y17199D01*
Y16199D01*
X411548D01*
X417546Y14200D02*
Y18199D01*
X420545D01*
X421545Y17199D01*
Y14200D01*
X425544Y12201D02*
X426543D01*
X427543Y13200D01*
Y18199D01*
X424544D01*
X423544Y17199D01*
Y15200D01*
X424544Y14200D01*
X427543D01*
X430542Y19198D02*
Y18199D01*
X429542D01*
X431542D01*
X430542D01*
Y15200D01*
X431542Y14200D01*
X434541Y20198D02*
Y14200D01*
Y17199D01*
X435540Y18199D01*
X437540D01*
X438540Y17199D01*
Y14200D01*
X347569Y2200D02*
Y8198D01*
X350568D01*
X351568Y7198D01*
Y5199D01*
X350568Y4199D01*
X347569D01*
X353567Y8198D02*
Y2200D01*
Y5199D01*
X354567Y6199D01*
X356566D01*
X357566Y5199D01*
Y2200D01*
X359565Y6199D02*
Y3200D01*
X360565Y2200D01*
X363564D01*
Y1200D01*
X362564Y201D01*
X361564D01*
X363564Y2200D02*
Y6199D01*
X365563Y2200D02*
X368562D01*
X369562Y3200D01*
X368562Y4199D01*
X366563D01*
X365563Y5199D01*
X366563Y6199D01*
X369562D01*
X371561Y2200D02*
X373561D01*
X372561D01*
Y6199D01*
X371561D01*
X380558D02*
X377559D01*
X376560Y5199D01*
Y3200D01*
X377559Y2200D01*
X380558D01*
X383557Y6199D02*
X385557D01*
X386556Y5199D01*
Y2200D01*
X383557D01*
X382558Y3200D01*
X383557Y4199D01*
X386556D01*
X388556Y2200D02*
X390555D01*
X389555D01*
Y8198D01*
X388556D01*
X399552D02*
Y2200D01*
X403551D01*
X408549D02*
X406550D01*
X405550Y3200D01*
Y5199D01*
X406550Y6199D01*
X408549D01*
X409549Y5199D01*
Y4199D01*
X405550D01*
X411548Y2200D02*
Y6199D01*
X414547D01*
X415547Y5199D01*
Y2200D01*
X419546Y201D02*
X420545D01*
X421545Y1200D01*
Y6199D01*
X418546D01*
X417546Y5199D01*
Y3200D01*
X418546Y2200D01*
X421545D01*
X424544Y7198D02*
Y6199D01*
X423544D01*
X425544D01*
X424544D01*
Y3200D01*
X425544Y2200D01*
X428543Y8198D02*
Y2200D01*
Y5199D01*
X429542Y6199D01*
X431542D01*
X432541Y5199D01*
Y2200D01*
M02*
