M48
;Layer_Color=9474304
;FILE_FORMAT=2:5
INCH,TZ
;TYPE=PLATED
T1F00S00C0.01200
T3F00S00C0.02756
T4F00S00C0.03150
T5F00S00C0.03937
T6F00S00C0.11811
%
T01
X441515Y4066
X446115Y7466
X445915Y12666
X436715Y18866
X396915Y16966
X375215
X367615Y11466
X371015Y3966
X348415Y10766
X341415Y17266
X319615Y20966
X316615Y20266
X308315Y8866
X324015Y6466
X227611Y7466
X227411Y12666
X223011Y4066
X218211Y18866
X178411Y16966
X156711
X149111Y11466
X152511Y3966
X129911Y10766
X122911Y17266
X101111Y20966
X98111Y20266
X89811Y8866
X105511Y6466
X105011Y28166
X97211Y28866
Y23866
X107611Y35366
X118011Y35966
X119611Y32966
X120711Y38166
X116311Y38966
X114611Y41966
X120811Y48166
X127833Y49668
Y52969
X128711Y66466
X117411Y71466
X119411Y73766
X121411Y76066
X114411Y74666
X113711Y77666
X112411Y80666
X117411Y82366
X116711Y85366
X114111Y87066
X111411Y88666
X113911Y92766
X114011Y95866
X115711Y98466
X118011Y100466
X120311Y98466
X122611Y100466
X125311Y98866
X127211Y92966
X109411Y97766
X109111Y100766
X101511Y101466
X96511Y100766
X99611Y96866
Y88666
X86111Y87966
Y90966
X83311Y89466
X87411Y76266
X87111Y63166
X82111Y64766
X74011Y66666
X65811Y68466
X66011Y73066
X70811Y74866
X99311Y74166
X101611Y76166
X104811Y72666
X106211Y66466
X103211
X99311Y60666
X90011Y56066
X88211Y40466
X74311Y36966
X125733Y35368
X127833Y33169
X112811Y71966
X112511Y116566
X116811Y114466
X119711Y111566
X122111Y129066
X117661Y130266
X114311
X105311Y133366
X103611Y126666
X99311Y108866
X94011Y106166
X91011Y105766
X89211Y111966
X86211Y109966
X79811
X73411
X69411Y106766
X74411Y101366
X65111Y120766
X55811Y122166
Y132366
X46211Y133366
X89811Y154535
X105511Y152136
X101111Y166636
X98111Y165936
X97211Y169536
Y174536
X105011Y173836
X122911Y162935
X126111Y125466
X145711Y125166
X152711Y129366
X157211Y137566
X152511Y149636
X149111Y157135
X156711Y162636
X154711Y170935
X140811Y177235
X129911Y156436
X135811Y109566
X133711Y103266
X133611Y98866
Y95766
X128811Y95666
X131811Y90966
X143511Y88066
X143211Y85066
X143511Y78466
X146911Y66366
X136511Y65566
X131811Y66466
X131111Y54766
X130911Y35466
X140811Y31566
X145211Y34766
X154711Y25266
X172611Y29466
X177211Y29266
X192811Y35466
X208611Y35166
X214511Y42666
X218511Y39466
X221111Y34066
X217111Y26466
Y21866
X222911Y22666
X236111Y28366
X227411Y39666
X179111Y49766
X163011Y50266
X162511Y41866
X157111Y44966
X161911Y69666
X160111Y72266
X161911Y74666
X161011Y81666
X161911Y85066
X161011Y90466
X174011Y89966
X174611Y94066
Y98466
X175211Y83966
X190011Y85266
X191611Y87966
X190011Y75666
X188411Y72966
X186811Y68666
X195866Y106911
X189911Y117866
X183911Y133366
X178411Y162636
X177211Y174935
X172611Y175136
X217111Y172135
Y167535
X218211Y164535
X222911Y168335
X227411Y158335
X227611Y153136
X223011Y149735
X236111Y174036
X232811Y108966
X229311Y112266
X274315Y122166
Y132366
X264715Y133366
X283615Y120766
X284515Y73066
X284315Y68466
X158111Y101766
X152794Y106749
X141911Y103066
X145311Y99066
X292915Y101366
X291915Y109966
X298315
X304715
X307715Y111966
X309515Y105766
X312515Y106166
X315015Y100766
X320015Y101466
X318115Y96866
Y88666
X329915
X332615Y87066
X335215Y85366
X335915Y82366
X330915Y80666
X332215Y77666
X332915Y74666
X331315Y71966
X335915Y71466
X337915Y73766
X339915Y76066
X347215Y66466
X350315
X355015Y65566
X365415Y66366
X362015Y78466
X361715Y85066
X362015Y88066
X363815Y99066
X360415Y103066
X352215Y103266
X352115Y98866
Y95766
X347315Y95666
X345715Y92966
X350315Y90966
X343815Y98866
X341115Y100466
X338815Y98466
X336515Y100466
X334215Y98466
X332515Y95866
X332415Y92766
X327915Y97766
X327615Y100766
X317815Y108866
X331015Y116566
X335315Y114466
X338215Y111566
X354315Y109566
X371298Y106749
X376615Y101766
X379515Y90466
X380415Y85066
X379515Y81666
X380415Y74666
X378615Y72266
X380415Y69666
X381515Y50266
X381015Y41866
X375615Y44966
X373215Y25266
X363715Y34766
X359315Y31566
X349415Y35466
X344237Y35368
X346337Y33169
X338115Y32966
X336515Y35966
X334815Y38966
X333115Y41966
X339215Y38166
X339315Y48166
X346337Y49668
Y52969
X349615Y54766
X324715Y66466
X321715
X323315Y72666
X320115Y76166
X317815Y74166
Y60666
X308515Y56066
X305615Y63166
X300615Y64766
X292515Y66666
X289315Y74866
X305915Y76266
X304615Y87966
Y90966
X301815Y89466
X287915Y106766
X322115Y126666
X323815Y133366
X332815Y130266
X336165
X340615Y129066
X344615Y125466
X364215Y125166
X371215Y129366
X375715Y137566
X371015Y149636
X367615Y157135
X375215Y162636
X373215Y170935
X359315Y177235
X348415Y156436
X341415Y162935
X319615Y166636
X316615Y165936
X315715Y169536
Y174536
X323515Y173836
X324015Y152136
X308315Y154535
X396915Y162636
X395715Y174935
X391115Y175136
X435615Y172135
Y167535
X436715Y164535
X402415Y133366
X408415Y117866
X414370Y106911
X410115Y87966
X408515Y85266
Y75666
X406915Y72966
X405315Y68666
X397615Y49766
X395715Y29266
X391115Y29466
X411315Y35466
X427115Y35166
X433015Y42666
X437015Y39466
X439615Y34066
X435615Y26466
Y21866
X393715Y83966
X392515Y89966
X393115Y94066
Y98466
X326115Y35366
X323515Y28166
X315715Y28866
Y23866
X306715Y40466
X292815Y36966
X445915Y39666
X454615Y28366
X441415Y22666
X447815Y112266
X451315Y108966
X446115Y153136
X445915Y158335
X441515Y149735
X441415Y168335
X454615Y174036
X445915Y185336
X447815Y257936
X451315Y254636
X446115Y298805
X445915Y304005
X441515Y295405
X441415Y314005
X454615Y319705
X445915Y331005
X437015Y330805
X433015Y334005
X427115Y326505
X439615Y325405
X435615Y317805
Y313205
X436715Y310205
X396915Y308305
X395715Y320605
X391115Y320805
X373215Y316605
X375215Y308305
X367615Y302805
X371015Y295305
X375715Y283236
X371215Y275036
X364215Y270835
X344615Y271135
X340615Y274735
X336165Y275936
X332815
X323815Y279035
X322115Y272336
X331015Y262235
X335315Y260136
X338215Y257236
X336515Y246135
X338815Y244135
X341115Y246135
X343815Y244535
X347315Y241336
X345715Y238635
X350315Y236635
X352115Y241436
Y244535
X352215Y248936
X354315Y255236
X360415Y248735
X363815Y244736
X362015Y233735
X361715Y230735
X362015Y224135
X365415Y212035
X355015Y211235
X350315Y212136
X347215
X349615Y200435
X346337Y198638
Y195338
X339315Y193835
X339215Y183835
X336515Y181635
X338115Y178636
X346337Y178838
X344237Y181038
X349415Y181135
X363715Y180436
X375615Y190636
X381015Y187536
X381515Y195935
X397615Y195436
X405315Y214335
X406915Y218636
X408515Y221336
Y230936
X410115Y233635
X392515Y235635
X393115Y239736
Y244136
X393715Y229636
X380415Y230735
X379515Y227336
X380415Y220336
X378615Y217935
X380415Y215335
X379515Y236136
X376615Y247435
X371298Y252418
X414370Y252580
X408415Y263535
X402415Y279035
X411315Y326805
X381015Y333205
X363715Y326105
X359315Y322905
X349415Y326805
X344237Y326707
X346337Y324507
X338115Y324305
X336515Y327305
X334815Y330305
X333115Y333305
X339215Y329505
X326115Y326705
X323515Y319505
X315715Y320205
Y315205
X316615Y311605
X319615Y312305
X324015Y297805
X308315Y300205
X306715Y331805
X292815Y328305
X341415Y308605
X348415Y302105
X334215Y244135
X332515Y241535
X332415Y238436
X332615Y232735
X329915Y234335
X335215Y231035
X335915Y228035
X330915Y226336
X332215Y223336
X332915Y220336
X331315Y217635
X335915Y217136
X337915Y219436
X339915Y221736
X320115Y221835
X317815Y219835
X323315Y218336
X324715Y212136
X321715
X317815Y206335
X308515Y201735
X305615Y208836
X300615Y210436
X292515Y212335
X289315Y220535
X305915Y221936
X304615Y233635
Y236635
X301815Y235136
X318115Y234335
Y242535
X320015Y247135
X315015Y246435
X312515Y251835
X309515Y251435
X307715Y257635
X304715Y255635
X298315
X291915
X287915Y252435
X292915Y247036
X317815Y254536
X327615Y246435
X327915Y243436
X333115Y187636
X334815Y184635
X326115Y181035
X306715Y186135
X292815Y182635
X411315Y181135
X427115Y180835
X433015Y188336
X437015Y185135
X439615Y179736
X284315Y214136
X284515Y218736
X283615Y266436
X274315Y267835
Y278035
X264715Y279035
X232811Y254636
X229311Y257936
X195866Y252580
X189911Y263535
X183911Y279035
X157211Y283236
X152711Y275036
X145711Y270835
X135811Y255236
X133711Y248936
X133611Y244535
Y241436
X128811Y241336
X131811Y236635
X143511Y233735
X143211Y230735
X143511Y224135
X146911Y212035
X136511Y211235
X131811Y212136
X131111Y200435
X130911Y181135
X145211Y180436
X157111Y190636
X162511Y187536
X163011Y195935
X179111Y195436
X186811Y214335
X188411Y218636
X190011Y221336
Y230936
X191611Y233635
X174011Y235635
X174611Y239736
Y244136
X175211Y229636
X161911Y230735
X161011Y227336
X161911Y220336
X160111Y217935
X161911Y215335
X161011Y236136
X158111Y247435
X152794Y252418
X141911Y248735
X145311Y244736
X152511Y295305
X149111Y302805
X156711Y308305
X154711Y316605
X145211Y326105
X140811Y322905
X130911Y326805
X129911Y302105
X178411Y308305
X177211Y320605
X172611Y320805
X162511Y333205
X192811Y326805
X208611Y326505
X214511Y334005
X218511Y330805
X221111Y325405
X217111Y317805
Y313205
X218211Y310205
X222911Y314005
X227411Y304005
X227611Y298805
X223011Y295405
X236111Y319705
X227411Y331005
Y185336
X218511Y185135
X214511Y188336
X208611Y180835
X221111Y179736
X192811Y181135
X125733Y181038
X127833Y178838
X119611Y178636
X118011Y181635
X116311Y184635
X114611Y187636
X120711Y183835
X120811Y193835
X127833Y195338
Y198638
X128711Y212136
X117411Y217136
X119411Y219436
X121411Y221736
X114411Y220336
X113711Y223336
X112411Y226336
X117411Y228035
X116711Y231035
X114111Y232735
X111411Y234335
X113911Y238436
X114011Y241535
X115711Y244135
X118011Y246135
X120311Y244135
X122611Y246135
X125311Y244535
X127211Y238635
X109411Y243436
X109111Y246435
X101511Y247135
X96511Y246435
X99611Y242535
Y234335
X86111Y233635
Y236635
X83311Y235136
X87411Y221936
X87111Y208836
X82111Y210436
X74011Y212335
X65811Y214136
X66011Y218736
X70811Y220535
X99311Y219835
X101611Y221835
X104811Y218336
X106211Y212136
X103211
X99311Y206335
X90011Y201735
X88211Y186135
X74311Y182635
X107611Y181035
X112811Y217635
X112511Y262235
X116811Y260136
X119711Y257236
X122111Y274735
X117661Y275936
X114311
X105311Y279035
X103611Y272336
X99311Y254536
X94011Y251835
X91011Y251435
X89211Y257635
X86211Y255635
X79811
X73411
X69411Y252435
X74411Y247036
X65111Y266436
X55811Y267835
Y278035
X46211Y279035
X89811Y300205
X105511Y297805
X101111Y312305
X98111Y311605
X97211Y315205
Y320205
X105011Y319505
X107611Y326705
X118011Y327305
X119611Y324305
X120711Y329505
X116311Y330305
X114611Y333305
X125733Y326707
X127833Y324507
X122911Y308605
X126111Y271135
X88211Y331805
X74311Y328305
X74011Y358005
X82111Y356105
X87111Y354505
X90011Y347405
X99311Y352005
X103211Y357805
X106211
X104811Y364005
X101611Y367505
X99311Y365505
X87411Y367605
X86111Y379305
Y382305
X83311Y380805
X99611Y380005
Y388205
X101511Y392805
X96511Y392105
X94011Y397505
X91011Y397105
X89211Y403305
X86211Y401305
X79811
X73411
X69411Y398105
X74411Y392705
X65111Y412105
X55811Y413505
Y423705
X46211Y424705
X105311
X103611Y418005
X114311Y421605
X117661
X122111Y420405
X126111Y416805
X119711Y402905
X116811Y405805
X112511Y407905
X109111Y392105
X109411Y389105
X114011Y387205
X113911Y384105
X114111Y378405
X111411Y380005
X116711Y376705
X117411Y373705
X112411Y372005
X113711Y369005
X114411Y366005
X112811Y363305
X117411Y362805
X119411Y365105
X121411Y367405
X128711Y357805
X127833Y344307
Y341007
X120811Y339505
X120311Y389805
X118011Y391805
X115711Y389805
X122611Y391805
X125311Y390205
X127211Y384305
X99311Y400205
X70811Y366205
X66011Y364405
X65811Y359805
X131811Y357805
X136511Y356905
X146911Y357705
X143511Y369805
X143211Y376405
X143511Y379405
X145311Y390405
X141911Y394405
X133711Y394605
X133611Y390205
Y387105
X128811Y387005
X131811Y382305
X135811Y400905
X152794Y398087
X158111Y393105
X161011Y381805
X161911Y376405
X161011Y373005
X161911Y366005
X160111Y363605
X161911Y361005
X163011Y341605
X157111Y336305
X179111Y341105
X186811Y360005
X188411Y364305
X190011Y367005
Y376605
X191611Y379305
X174011Y381305
X174611Y385405
Y389805
X175211Y375305
X195866Y398250
X189911Y409205
X183911Y424705
X157211Y428905
X152711Y420705
X145711Y416505
X131111Y346105
X229311Y403605
X232811Y400305
X274315Y413505
Y423705
X264715Y424705
X283615Y412105
X284515Y364405
X284315Y359805
X292515Y358005
X300615Y356105
X305615Y354505
X308515Y347405
X317815Y352005
X321715Y357805
X324715
X323315Y364005
X320115Y367505
X317815Y365505
X305915Y367605
X304615Y379305
Y382305
X301815Y380805
X318115Y380005
Y388205
X320015Y392805
X315015Y392105
X312515Y397505
X309515Y397105
X307715Y403305
X304715Y401305
X298315
X291915
X287915Y398105
X292915Y392705
X289315Y366205
X332915Y366005
X332215Y369005
X330915Y372005
X335915Y373705
X335215Y376705
X332615Y378405
X329915Y380005
X332415Y384105
X332515Y387205
X334215Y389805
X336515Y391805
X338815Y389805
X341115Y391805
X343815Y390205
X347315Y387005
X345715Y384305
X350315Y382305
X352115Y387105
Y390205
X352215Y394605
X354315Y400905
X360415Y394405
X363815Y390405
X362015Y379405
X361715Y376405
X362015Y369805
X365415Y357705
X355015Y356905
X350315Y357805
X347215
X349615Y346105
X346337Y344307
Y341007
X339315Y339505
X335915Y362805
X337915Y365105
X339915Y367405
X331315Y363305
X327915Y389105
X327615Y392105
X317815Y400205
X331015Y407905
X335315Y405805
X338215Y402905
X340615Y420405
X336165Y421605
X332815
X323815Y424705
X322115Y418005
X344615Y416805
X364215Y416505
X371215Y420705
X375715Y428905
X402415Y424705
X408415Y409205
X414370Y398250
X410115Y379305
X408515Y376605
Y367005
X406915Y364305
X405315Y360005
X380415Y361005
X378615Y363605
X380415Y366005
X379515Y373005
X380415Y376405
X379515Y381805
X392515Y381305
X393115Y385405
Y389805
X393715Y375305
X376615Y393105
X371298Y398087
X375615Y336305
X381515Y341605
X397615Y341105
X447815Y403605
X451315Y400305
T03
X388815Y4366
X388816Y14366
X388814
X170312
X170310
X170311Y4366
Y150036
X170312Y160036
X170310
X388814
X388816
X388815Y150036
Y295705
X388816Y305705
X388814
X170312
X170310
X170311Y295705
T04
X441315Y8366
Y18366
X431315
Y8366
X279315Y10866
X269315
X259315
X259315Y20866
X269315
X279315
X222811Y18366
Y8366
X212811
Y18366
X60811Y20866
Y10866
X50811
X40811
X40811Y20866
X50811
Y30866
Y40866
X40811
X40811Y50866
Y60866
X40811Y70866
X50811
X60811
Y80866
Y90866
Y100866
X50811
Y90866
X40811
X40811Y100866
Y80866
X50811
Y60866
Y50866
X60811
Y40866
Y30866
X40811
X60811Y60866
Y120866
X50811
X40811
X40811Y130866
X50811
X60811
Y156535
X50811
X40811
X40811Y166535
Y176535
X50811
Y166535
X60811
Y176535
X212811Y174036
X222811
Y164035
Y154035
X212811
Y164035
Y133366
X222811
Y123366
X212811
X259315Y120866
X269315
X279315
Y130866
X269315
X259315
X259315Y156535
X269315
X279315
Y166535
X269315
Y176535
X279315
X259315
Y166535
Y100866
X269315
X279315
Y90866
X269315
X259315
X259315Y80866
X259315Y70866
X269315
X279315
Y80866
X269315
Y60866
Y50866
Y40866
X259315
X259315Y50866
Y60866
X279315
Y50866
Y40866
Y30866
X269315
X259315
X222811Y28366
X212811
Y38366
X222811
X177811Y106366
X167811
X157811
X147811
X366315
X376315
X386315
X396315
X431315Y123366
Y133366
Y154035
Y164035
Y174036
Y38366
Y28366
X441315
Y38366
Y123366
Y133366
Y154035
Y164035
Y174036
Y184036
Y269036
Y279035
Y299705
Y309705
Y319705
Y329705
X431315
Y319705
Y309705
Y299705
Y279035
Y269036
X396315Y252035
X386315
X376315
X366315
X431315Y184036
X279315Y186536
X269315
X259315
X259315Y196536
Y206536
X259315Y216535
X269315
X279315
Y226536
Y236536
Y246535
X269315
Y236536
X259315
X259315Y246535
Y226536
X269315
Y206536
Y196536
X279315
Y206536
Y266535
X269315
X259315
X259315Y276536
X269315
X279315
Y302205
X269315
X259315
X259315Y312205
Y322205
X259315Y332205
X269315
X279315
Y322205
Y312205
X269315
Y322205
X222811Y319705
X212811
Y329705
X222811
Y309705
Y299705
X212811
Y309705
Y279035
X222811
Y269036
X212811
X177811Y252035
X167811
X157811
X147811
X212811Y184036
X222811
X60811Y186536
X50811
X40811
X40811Y196536
Y206536
X40811Y216535
X50811
X60811
Y226536
Y236536
Y246535
X50811
Y236536
X40811
X40811Y246535
Y226536
X50811
Y206536
Y196536
X60811
Y206536
Y266535
X50811
X40811
X40811Y276536
X50811
X60811
Y302205
X50811
X40811
X40811Y312205
Y322205
X40811Y332205
X50811
X60811
Y322205
Y312205
X50811
Y322205
Y342205
X60811
Y352205
Y362205
X50811
X40811
X40811Y372205
X40811Y382205
X50811
Y392205
X60811
Y382205
Y372205
X50811
Y352205
X40811
Y342205
Y392205
X40811Y412205
X50811
X60811
Y422205
X50811
X40811
X147811Y397705
X157811
X167811
X177811
X212811Y414705
X222811
Y424705
X212811
X259315Y422205
X259315Y412205
X269315
X279315
Y422205
X269315
Y392205
X279315
Y382205
X269315
X259315
X259315Y392205
Y372205
X259315Y362205
X269315
X279315
Y372205
X269315
Y352205
Y342205
X279315
Y352205
X259315
Y342205
X366315Y397705
X376315
X386315
X396315
X431315Y414705
Y424705
X441315
Y414705
T05
X223750Y65017
Y96513
X442254
Y65017
Y210686
Y242182
X223750
Y210686
Y356355
Y387851
X442254
Y356355
T06
X478347Y13780
X414370Y11811
X296260
X195866
X77756
X13780Y13780
X77756Y129921
Y157480
X195866
Y129921
X296260
Y157480
X414370
Y129921
Y275591
Y303150
X296260
Y275591
X195866
Y303150
X77756
Y275591
Y421260
X13780Y419291
X195866Y421260
X296260
X414370
X478346Y419291
M30
