%FSLAX25Y25*%
%MOIN*%
G70*
G01*
G75*
%ADD10C,0.07874*%
%ADD11C,0.01000*%
%ADD12C,0.00200*%
%ADD13C,0.15748*%
%ADD14C,0.00100*%
%ADD15C,0.00600*%
%ADD16C,0.00000*%
%ADD17C,0.00500*%
%ADD18C,0.00667*%
%ADD19C,0.01600*%
%ADD20C,0.00800*%
%ADD21C,0.01400*%
D10*
X242126Y430039D02*
G03*
X237126Y435039I-5000J0D01*
G01*
X36496D02*
G03*
X31496Y430039I0J-5000D01*
G01*
Y294370D02*
G03*
X36496Y289370I5000J0D01*
G01*
X237126D02*
G03*
X242126Y294370I0J5000D01*
G01*
X36496Y289370D02*
G03*
X31496Y284370I0J-5000D01*
G01*
X242126D02*
G03*
X237126Y289370I-5000J0D01*
G01*
X242126Y138701D02*
G03*
X237126Y143701I-5000J0D01*
G01*
X36496D02*
G03*
X31496Y138701I0J-5000D01*
G01*
X237126Y143701D02*
G03*
X242126Y148701I0J5000D01*
G01*
X31496D02*
G03*
X36496Y143701I5000J0D01*
G01*
X237126Y-1969D02*
G03*
X242126Y3032I0J5000D01*
G01*
X31496D02*
G03*
X36496Y-1969I5000J0D01*
G01*
X250000Y3032D02*
G03*
X255000Y-1969I5000J0D01*
G01*
X455630D02*
G03*
X460630Y3032I0J5000D01*
G01*
X250000Y148701D02*
G03*
X255000Y143701I5000J0D01*
G01*
X455630D02*
G03*
X460630Y148701I0J5000D01*
G01*
X255000Y143701D02*
G03*
X250000Y138701I0J-5000D01*
G01*
X460630D02*
G03*
X455630Y143701I-5000J0D01*
G01*
X460630Y284370D02*
G03*
X455630Y289370I-5000J0D01*
G01*
X255000D02*
G03*
X250000Y284370I0J-5000D01*
G01*
X455630Y289370D02*
G03*
X460630Y294370I0J5000D01*
G01*
X250000D02*
G03*
X255000Y289370I5000J0D01*
G01*
Y435039D02*
G03*
X250000Y430039I0J-5000D01*
G01*
X460630D02*
G03*
X455630Y435039I-5000J0D01*
G01*
X36496D02*
X455630D01*
X36496Y289370D02*
X455630D01*
X36496Y143701D02*
X455630D01*
X36496Y-1969D02*
X455630D01*
X31496Y402559D02*
Y430039D01*
X242126Y402480D02*
Y430039D01*
X31496Y256890D02*
Y321850D01*
X242126Y294370D02*
Y321929D01*
X31496Y111221D02*
Y176181D01*
X242126Y148701D02*
Y176260D01*
Y3032D02*
Y30591D01*
Y111142D02*
Y138701D01*
Y256811D02*
Y284370D01*
X250000Y256811D02*
Y284370D01*
Y111142D02*
Y138701D01*
Y3032D02*
Y30591D01*
X460630Y3032D02*
Y30512D01*
Y111221D02*
Y176181D01*
X250000Y148701D02*
Y176260D01*
X460630Y256890D02*
Y321850D01*
X250000Y294370D02*
Y321929D01*
X460630Y402559D02*
Y430039D01*
X250000Y402480D02*
Y430039D01*
X31496Y3032D02*
Y30512D01*
D11*
X-5921Y0D02*
X-1100D01*
X-5921Y433071D02*
X-1100D01*
X-4921Y0D02*
Y191842D01*
Y238029D02*
Y433071D01*
Y0D02*
X-2921Y6000D01*
X-6921D02*
X-4921Y0D01*
X-6921Y427071D02*
X-4921Y433071D01*
X-2921Y427071D01*
X492126Y434171D02*
Y462000D01*
X0Y434171D02*
Y462000D01*
X268056Y461000D02*
X492126D01*
X0D02*
X220870D01*
X486126Y463000D02*
X492126Y461000D01*
X486126Y459000D02*
X492126Y461000D01*
X0D02*
X6000Y459000D01*
X0Y461000D02*
X6000Y463000D01*
X31931Y-34012D02*
X35432Y-30512D01*
X38932Y-34012D01*
X35432Y-38512D02*
Y-30512D01*
X238398Y-38512D02*
Y-30512D01*
X241898Y-34012D01*
X234898D02*
X238398Y-30512D01*
X253898Y-38512D02*
Y-30512D01*
X257398Y-34012D01*
X250398D02*
X253898Y-30512D01*
X456898Y-38512D02*
Y-30512D01*
X460398Y-34012D01*
X453398D02*
X456898Y-30512D01*
X468410Y442549D02*
X474067Y448206D01*
X468410Y442549D02*
Y447499D01*
Y442549D02*
X473360D01*
X468410Y329549D02*
X473360D01*
X468410D02*
Y334499D01*
Y329549D02*
X474067Y335206D01*
X468410Y183549D02*
X473360D01*
X468410D02*
Y188499D01*
Y183549D02*
X474067Y189206D01*
X468410Y38549D02*
X473360D01*
X468410D02*
Y43499D01*
Y38549D02*
X474067Y44206D01*
X31933Y-67012D02*
X35932D01*
X37931Y-65012D01*
X35932Y-63013D01*
X31933D01*
X34933Y-61014D02*
Y-57015D01*
X32933Y-51017D02*
X31933Y-52017D01*
Y-54016D01*
X32933Y-55015D01*
X36932D01*
X37931Y-54016D01*
Y-52017D01*
X36932Y-51017D01*
X33933Y-49018D02*
X36932D01*
X37931Y-48018D01*
Y-45019D01*
X33933D01*
X32933Y-42020D02*
X33933D01*
Y-43019D01*
Y-41020D01*
Y-42020D01*
X36932D01*
X37931Y-41020D01*
X234900Y-67012D02*
X238899D01*
X240898Y-65012D01*
X238899Y-63013D01*
X234900D01*
X237899Y-61014D02*
Y-57015D01*
X235900Y-51017D02*
X234900Y-52017D01*
Y-54016D01*
X235900Y-55015D01*
X239899D01*
X240898Y-54016D01*
Y-52017D01*
X239899Y-51017D01*
X236900Y-49018D02*
X239899D01*
X240898Y-48018D01*
Y-45019D01*
X236900D01*
X235900Y-42020D02*
X236900D01*
Y-43019D01*
Y-41020D01*
Y-42020D01*
X239899D01*
X240898Y-41020D01*
X250400Y-67012D02*
X254399D01*
X256398Y-65012D01*
X254399Y-63013D01*
X250400D01*
X253399Y-61014D02*
Y-57015D01*
X251400Y-51017D02*
X250400Y-52017D01*
Y-54016D01*
X251400Y-55015D01*
X255399D01*
X256398Y-54016D01*
Y-52017D01*
X255399Y-51017D01*
X252400Y-49018D02*
X255399D01*
X256398Y-48018D01*
Y-45019D01*
X252400D01*
X251400Y-42020D02*
X252400D01*
Y-43019D01*
Y-41020D01*
Y-42020D01*
X255399D01*
X256398Y-41020D01*
X453400Y-67012D02*
X457399D01*
X459398Y-65012D01*
X457399Y-63013D01*
X453400D01*
X456399Y-61014D02*
Y-57015D01*
X454400Y-51017D02*
X453400Y-52017D01*
Y-54016D01*
X454400Y-55015D01*
X458399D01*
X459398Y-54016D01*
Y-52017D01*
X458399Y-51017D01*
X455400Y-49018D02*
X458399D01*
X459398Y-48018D01*
Y-45019D01*
X455400D01*
X454400Y-42020D02*
X455400D01*
Y-43019D01*
Y-41020D01*
Y-42020D01*
X458399D01*
X459398Y-41020D01*
X476000Y455998D02*
Y450000D01*
X478999D01*
X479999Y451000D01*
Y454998D01*
X478999Y455998D01*
X476000D01*
X481998Y453999D02*
Y450000D01*
Y451999D01*
X482998Y452999D01*
X483997Y453999D01*
X484997D01*
X487996Y450000D02*
X489995D01*
X488996D01*
Y453999D01*
X487996D01*
X492994Y450000D02*
X494994D01*
X493994D01*
Y455998D01*
X492994D01*
X497993Y450000D02*
X499992D01*
X498993D01*
Y455998D01*
X497993D01*
X512988Y454998D02*
X511988Y455998D01*
X509989D01*
X508989Y454998D01*
Y451000D01*
X509989Y450000D01*
X511988D01*
X512988Y451000D01*
X514987Y453999D02*
Y451000D01*
X515987Y450000D01*
X518986D01*
Y453999D01*
X521985Y454998D02*
Y453999D01*
X520985D01*
X522985D01*
X521985D01*
Y451000D01*
X522985Y450000D01*
X476000Y342998D02*
Y337000D01*
X478999D01*
X479999Y338000D01*
Y341998D01*
X478999Y342998D01*
X476000D01*
X481998Y340999D02*
Y337000D01*
Y338999D01*
X482998Y339999D01*
X483997Y340999D01*
X484997D01*
X487996Y337000D02*
X489995D01*
X488996D01*
Y340999D01*
X487996D01*
X492994Y337000D02*
X494994D01*
X493994D01*
Y342998D01*
X492994D01*
X497993Y337000D02*
X499992D01*
X498993D01*
Y342998D01*
X497993D01*
X512988Y341998D02*
X511988Y342998D01*
X509989D01*
X508989Y341998D01*
Y338000D01*
X509989Y337000D01*
X511988D01*
X512988Y338000D01*
X514987Y340999D02*
Y338000D01*
X515987Y337000D01*
X518986D01*
Y340999D01*
X521985Y341998D02*
Y340999D01*
X520985D01*
X522985D01*
X521985D01*
Y338000D01*
X522985Y337000D01*
X476000Y196998D02*
Y191000D01*
X478999D01*
X479999Y192000D01*
Y195998D01*
X478999Y196998D01*
X476000D01*
X481998Y194999D02*
Y191000D01*
Y192999D01*
X482998Y193999D01*
X483997Y194999D01*
X484997D01*
X487996Y191000D02*
X489995D01*
X488996D01*
Y194999D01*
X487996D01*
X492994Y191000D02*
X494994D01*
X493994D01*
Y196998D01*
X492994D01*
X497993Y191000D02*
X499992D01*
X498993D01*
Y196998D01*
X497993D01*
X512988Y195998D02*
X511988Y196998D01*
X509989D01*
X508989Y195998D01*
Y192000D01*
X509989Y191000D01*
X511988D01*
X512988Y192000D01*
X514987Y194999D02*
Y192000D01*
X515987Y191000D01*
X518986D01*
Y194999D01*
X521985Y195998D02*
Y194999D01*
X520985D01*
X522985D01*
X521985D01*
Y192000D01*
X522985Y191000D01*
X476000Y51998D02*
Y46000D01*
X478999D01*
X479999Y47000D01*
Y50998D01*
X478999Y51998D01*
X476000D01*
X481998Y49999D02*
Y46000D01*
Y47999D01*
X482998Y48999D01*
X483997Y49999D01*
X484997D01*
X487996Y46000D02*
X489995D01*
X488996D01*
Y49999D01*
X487996D01*
X492994Y46000D02*
X494994D01*
X493994D01*
Y51998D01*
X492994D01*
X497993Y46000D02*
X499992D01*
X498993D01*
Y51998D01*
X497993D01*
X512988Y50998D02*
X511988Y51998D01*
X509989D01*
X508989Y50998D01*
Y47000D01*
X509989Y46000D01*
X511988D01*
X512988Y47000D01*
X514987Y49999D02*
Y47000D01*
X515987Y46000D01*
X518986D01*
Y49999D01*
X521985Y50998D02*
Y49999D01*
X520985D01*
X522985D01*
X521985D01*
Y47000D01*
X522985Y46000D01*
D12*
X0Y0D02*
Y433071D01*
X492126D01*
Y0D02*
Y433071D01*
X0Y0D02*
X492126D01*
X35333Y-25591D02*
Y451772D01*
X238300Y-25591D02*
Y451772D01*
X253800Y-25591D02*
Y451772D01*
X456800Y-25591D02*
Y451772D01*
D13*
X246063Y402559D02*
Y431102D01*
Y256890D02*
Y321850D01*
Y111221D02*
Y176181D01*
Y1969D02*
Y30512D01*
D14*
X34833Y-26091D02*
X35833Y-25091D01*
X34833D02*
X35833Y-26091D01*
X237800Y-25091D02*
X238800Y-26091D01*
X237800D02*
X238800Y-25091D01*
X253300D02*
X254300Y-26091D01*
X253300D02*
X254300Y-25091D01*
X456300D02*
X457300Y-26091D01*
X456300D02*
X457300Y-25091D01*
X465000Y438293D02*
Y439707D01*
X464293Y439000D02*
X465707D01*
X464293Y326000D02*
X465707D01*
X465000Y325293D02*
Y326707D01*
X464293Y180000D02*
X465707D01*
X465000Y179293D02*
Y180707D01*
X464293Y35000D02*
X465707D01*
X465000Y34293D02*
Y35707D01*
D15*
X-1322Y193442D02*
Y195442D01*
Y194442D01*
X-7320D01*
X-6321Y193442D01*
X-1322Y198441D02*
Y200440D01*
Y199441D01*
X-7320D01*
X-6321Y198441D01*
Y203439D02*
X-7320Y204439D01*
Y206438D01*
X-6321Y207438D01*
X-2322D01*
X-1322Y206438D01*
Y204439D01*
X-2322Y203439D01*
X-6321D01*
X-1322Y209437D02*
X-2322D01*
Y210437D01*
X-1322D01*
Y209437D01*
X-6321Y214436D02*
X-7320Y215435D01*
Y217435D01*
X-6321Y218434D01*
X-2322D01*
X-1322Y217435D01*
Y215435D01*
X-2322Y214436D01*
X-6321D01*
Y220434D02*
X-7320Y221433D01*
Y223433D01*
X-6321Y224432D01*
X-2322D01*
X-1322Y223433D01*
Y221433D01*
X-2322Y220434D01*
X-6321D01*
X-1322Y226432D02*
X-5321D01*
Y227431D01*
X-4321Y228431D01*
X-1322D01*
X-4321D01*
X-5321Y229431D01*
X-4321Y230431D01*
X-1322D01*
Y232430D02*
X-5321D01*
Y233430D01*
X-4321Y234429D01*
X-1322D01*
X-4321D01*
X-5321Y235429D01*
X-4321Y236428D01*
X-1322D01*
X222470Y457401D02*
X224469D01*
X223470D01*
Y463399D01*
X222470Y462399D01*
X231467Y457401D02*
X227468D01*
X231467Y461400D01*
Y462399D01*
X230468Y463399D01*
X228468D01*
X227468Y462399D01*
X237465Y463399D02*
X233467D01*
Y460400D01*
X235466Y461400D01*
X236466D01*
X237465Y460400D01*
Y458401D01*
X236466Y457401D01*
X234466D01*
X233467Y458401D01*
X239465Y457401D02*
Y458401D01*
X240464D01*
Y457401D01*
X239465D01*
X244463Y462399D02*
X245463Y463399D01*
X247462D01*
X248462Y462399D01*
Y458401D01*
X247462Y457401D01*
X245463D01*
X244463Y458401D01*
Y462399D01*
X250461D02*
X251461Y463399D01*
X253460D01*
X254460Y462399D01*
Y458401D01*
X253460Y457401D01*
X251461D01*
X250461Y458401D01*
Y462399D01*
X256459Y457401D02*
Y461400D01*
X257459D01*
X258458Y460400D01*
Y457401D01*
Y460400D01*
X259458Y461400D01*
X260458Y460400D01*
Y457401D01*
X262457D02*
Y461400D01*
X263457D01*
X264457Y460400D01*
Y457401D01*
Y460400D01*
X265456Y461400D01*
X266456Y460400D01*
Y457401D01*
D16*
X35433Y1969D02*
X238189D01*
Y139764D01*
X35433D02*
X238189D01*
X35433Y1969D02*
Y139764D01*
X253937Y1969D02*
X456693D01*
Y139764D01*
X253937D02*
X456693D01*
X253937Y1969D02*
Y139764D01*
X35433Y147638D02*
X238189D01*
Y285433D01*
X35433D02*
X238189D01*
X35433Y147638D02*
Y285433D01*
X253937Y147638D02*
X456693D01*
Y285433D01*
X253937D02*
X456693D01*
X253937Y147638D02*
Y285433D01*
X35433Y293307D02*
X238189D01*
Y431102D01*
X35433D02*
X238189D01*
X35433Y293307D02*
Y431102D01*
X253937Y293307D02*
X456693D01*
Y431102D01*
X253937D02*
X456693D01*
X253937Y293307D02*
Y431102D01*
D17*
X7874Y419291D02*
X19685D01*
X13780Y413386D02*
Y425197D01*
X7874Y13780D02*
X19685D01*
X13780Y7874D02*
Y19685D01*
X472441Y13780D02*
X484252D01*
X478347Y7874D02*
Y19685D01*
X472441Y419291D02*
X484252D01*
X478346Y413386D02*
Y425197D01*
X189961Y129921D02*
X201772D01*
X195866Y124016D02*
Y135827D01*
X189961Y11811D02*
X201772D01*
X195866Y5906D02*
Y17717D01*
X71851Y11811D02*
X83662D01*
X77756Y5906D02*
Y17717D01*
X71851Y129921D02*
X83662D01*
X77756Y124016D02*
Y135827D01*
X211236Y8366D02*
X214386D01*
X212811Y6791D02*
Y9941D01*
X221236Y8366D02*
X224386D01*
X222811Y6791D02*
Y9941D01*
X211236Y28366D02*
X214386D01*
X212811Y26791D02*
Y29941D01*
X221236Y38366D02*
X224386D01*
X222811Y36791D02*
Y39941D01*
X211236Y38366D02*
X214386D01*
X212811Y36791D02*
Y39941D01*
X221236Y28366D02*
X224386D01*
X222811Y26791D02*
Y29941D01*
X221236Y18366D02*
X224386D01*
X222811Y16791D02*
Y19941D01*
X211236Y18366D02*
X214386D01*
X212811Y16791D02*
Y19941D01*
X49236Y100866D02*
X52386D01*
X50811Y99291D02*
Y102441D01*
X59236Y90866D02*
X62386D01*
X60811Y89291D02*
Y92441D01*
X59236Y100866D02*
X62386D01*
X60811Y99291D02*
Y102441D01*
X49236Y90866D02*
X52386D01*
X50811Y89291D02*
Y92441D01*
X39236Y90866D02*
X42386D01*
X40811Y89291D02*
Y92441D01*
X39236Y100866D02*
X42386D01*
X40811Y99291D02*
Y102441D01*
X39236Y80866D02*
X42386D01*
X40811Y79291D02*
Y82441D01*
X39236Y70866D02*
X42386D01*
X40811Y69291D02*
Y72441D01*
X49236Y70866D02*
X52386D01*
X50811Y69291D02*
Y72441D01*
X59236Y80866D02*
X62386D01*
X60811Y79291D02*
Y82441D01*
X59236Y70866D02*
X62386D01*
X60811Y69291D02*
Y72441D01*
X49236Y80866D02*
X52386D01*
X50811Y79291D02*
Y82441D01*
X39236Y50866D02*
X42386D01*
X40811Y49291D02*
Y52441D01*
X39236Y40866D02*
X42386D01*
X40811Y39291D02*
Y42441D01*
X49236Y40866D02*
X52386D01*
X50811Y39291D02*
Y42441D01*
X59236Y50866D02*
X62386D01*
X60811Y49291D02*
Y52441D01*
X59236Y40866D02*
X62386D01*
X60811Y39291D02*
Y42441D01*
X49236Y50866D02*
X52386D01*
X50811Y49291D02*
Y52441D01*
X49236Y60866D02*
X52386D01*
X50811Y59291D02*
Y62441D01*
X59236Y60866D02*
X62386D01*
X60811Y59291D02*
Y62441D01*
X39236Y60866D02*
X42386D01*
X40811Y59291D02*
Y62441D01*
X39236Y20866D02*
X42386D01*
X40811Y19291D02*
Y22441D01*
X39236Y10866D02*
X42386D01*
X40811Y9291D02*
Y12441D01*
X49236Y10866D02*
X52386D01*
X50811Y9291D02*
Y12441D01*
X59236Y20866D02*
X62386D01*
X60811Y19291D02*
Y22441D01*
X59236Y10866D02*
X62386D01*
X60811Y9291D02*
Y12441D01*
X49236Y20866D02*
X52386D01*
X50811Y19291D02*
Y22441D01*
X49236Y30866D02*
X52386D01*
X50811Y29291D02*
Y32441D01*
X59236Y30866D02*
X62386D01*
X60811Y29291D02*
Y32441D01*
X39236Y30866D02*
X42386D01*
X40811Y29291D02*
Y32441D01*
X39236Y130866D02*
X42386D01*
X40811Y129291D02*
Y132441D01*
X39236Y120866D02*
X42386D01*
X40811Y119291D02*
Y122441D01*
X49236Y120866D02*
X52386D01*
X50811Y119291D02*
Y122441D01*
X59236Y130866D02*
X62386D01*
X60811Y129291D02*
Y132441D01*
X59236Y120866D02*
X62386D01*
X60811Y119291D02*
Y122441D01*
X49236Y130866D02*
X52386D01*
X50811Y129291D02*
Y132441D01*
X221236Y123366D02*
X224386D01*
X222811Y121791D02*
Y124941D01*
X211236Y133366D02*
X214386D01*
X212811Y131791D02*
Y134941D01*
X221236Y133366D02*
X224386D01*
X222811Y131791D02*
Y134941D01*
X211236Y123366D02*
X214386D01*
X212811Y121791D02*
Y124941D01*
X166236Y106366D02*
X169386D01*
X167811Y104791D02*
Y107941D01*
X156236Y106366D02*
X159386D01*
X157811Y104791D02*
Y107941D01*
X146236Y106366D02*
X149386D01*
X147811Y104791D02*
Y107941D01*
X176236Y106366D02*
X179386D01*
X177811Y104791D02*
Y107941D01*
X221781Y96513D02*
X225718D01*
X223750Y94544D02*
Y98481D01*
X221781Y65017D02*
X225718D01*
X223750Y63048D02*
Y66985D01*
X122371Y120666D02*
X124571D01*
X123471Y119566D02*
Y121766D01*
X104851Y120666D02*
X107051D01*
X105951Y119566D02*
Y121766D01*
X130048Y133466D02*
X132248D01*
X131148Y132366D02*
Y134566D01*
X97174Y133466D02*
X99374D01*
X98274Y132366D02*
Y134566D01*
X168933Y4366D02*
X171689D01*
X170311Y2988D02*
Y5744D01*
X168934Y14366D02*
X171690D01*
X170312Y12988D02*
Y15744D01*
X168933Y4366D02*
X171689D01*
X170311Y2988D02*
Y5744D01*
X168932Y14366D02*
X171688D01*
X170310Y12988D02*
Y15744D01*
X112211Y71966D02*
X113411D01*
X112811Y71366D02*
Y72566D01*
X118811Y73766D02*
X120011D01*
X119411Y73166D02*
Y74366D01*
X120811Y76066D02*
X122011D01*
X121411Y75466D02*
Y76666D01*
X125511Y125466D02*
X126711D01*
X126111Y124866D02*
Y126066D01*
X128211Y95666D02*
X129411D01*
X128811Y95066D02*
Y96266D01*
X192211Y35466D02*
X193411D01*
X192811Y34866D02*
Y36066D01*
X154111Y25266D02*
X155311D01*
X154711Y24666D02*
Y25866D01*
X88611Y111966D02*
X89811D01*
X89211Y111366D02*
Y112566D01*
X121511Y129066D02*
X122711D01*
X122111Y128466D02*
Y129666D01*
X120211Y48166D02*
X121411D01*
X120811Y47566D02*
Y48766D01*
X115711Y38966D02*
X116911D01*
X116311Y38366D02*
Y39566D01*
X144611Y34766D02*
X145811D01*
X145211Y34166D02*
Y35366D01*
X127233Y49668D02*
X128433D01*
X127833Y49068D02*
Y50269D01*
X127233Y52969D02*
X128433D01*
X127833Y52369D02*
Y53569D01*
X110811Y88666D02*
X112011D01*
X111411Y88066D02*
Y89266D01*
X133111Y103266D02*
X134311D01*
X133711Y102666D02*
Y103866D01*
X135211Y109566D02*
X136411D01*
X135811Y108966D02*
Y110166D01*
X142911Y88066D02*
X144111D01*
X143511Y87466D02*
Y88666D01*
X160411Y81666D02*
X161611D01*
X161011Y81066D02*
Y82266D01*
X142911Y78466D02*
X144111D01*
X143511Y77866D02*
Y79066D01*
X160411Y90466D02*
X161611D01*
X161011Y89866D02*
Y91066D01*
X213911Y42666D02*
X215111D01*
X214511Y42066D02*
Y43266D01*
X227011Y7466D02*
X228211D01*
X227611Y6866D02*
Y8066D01*
X222411Y4066D02*
X223611D01*
X223011Y3466D02*
Y4666D01*
X226811Y12666D02*
X228011D01*
X227411Y12066D02*
Y13266D01*
X226811Y39666D02*
X228011D01*
X227411Y39066D02*
Y40266D01*
X108811Y97766D02*
X110011D01*
X109411Y97166D02*
Y98366D01*
X99011Y96866D02*
X100211D01*
X99611Y96266D02*
Y97466D01*
X99011Y88666D02*
X100211D01*
X99611Y88066D02*
Y89266D01*
X95911Y100766D02*
X97111D01*
X96511Y100166D02*
Y101366D01*
X68811Y106766D02*
X70011D01*
X69411Y106166D02*
Y107366D01*
X73811Y101366D02*
X75011D01*
X74411Y100766D02*
Y101966D01*
X64511Y120766D02*
X65711D01*
X65111Y120166D02*
Y121366D01*
X55211Y122166D02*
X56411D01*
X55811Y121566D02*
Y122766D01*
X55211Y132366D02*
X56411D01*
X55811Y131766D02*
Y132966D01*
X45611Y133366D02*
X46811D01*
X46211Y132766D02*
Y133966D01*
X195266Y106911D02*
X196466D01*
X195866Y106311D02*
Y107511D01*
X82711Y89466D02*
X83911D01*
X83311Y88866D02*
Y90066D01*
X89411Y56066D02*
X90611D01*
X90011Y55466D02*
Y56666D01*
X86511Y63166D02*
X87711D01*
X87111Y62566D02*
Y63766D01*
X98711Y60666D02*
X99911D01*
X99311Y60066D02*
Y61266D01*
X81511Y64766D02*
X82711D01*
X82111Y64166D02*
Y65366D01*
X73411Y66666D02*
X74611D01*
X74011Y66066D02*
Y67266D01*
X65211Y68466D02*
X66411D01*
X65811Y67866D02*
Y69066D01*
X70211Y74866D02*
X71411D01*
X70811Y74266D02*
Y75466D01*
X65411Y73066D02*
X66611D01*
X66011Y72466D02*
Y73666D01*
X113411Y95866D02*
X114611D01*
X114011Y95266D02*
Y96466D01*
X119111Y111566D02*
X120311D01*
X119711Y110966D02*
Y112166D01*
X111911Y116566D02*
X113111D01*
X112511Y115966D02*
Y117166D01*
X151911Y3966D02*
X153111D01*
X152511Y3366D02*
Y4566D01*
X178511Y49766D02*
X179711D01*
X179111Y49166D02*
Y50366D01*
X152111Y129366D02*
X153311D01*
X152711Y128766D02*
Y129966D01*
X133011Y95766D02*
X134211D01*
X133611Y95166D02*
Y96366D01*
X128111Y66466D02*
X129311D01*
X128711Y65866D02*
Y67066D01*
X124711Y98866D02*
X125911D01*
X125311Y98266D02*
Y99466D01*
X126611Y92966D02*
X127811D01*
X127211Y92366D02*
Y93566D01*
X131211Y90966D02*
X132411D01*
X131811Y90366D02*
Y91566D01*
X113311Y92766D02*
X114511D01*
X113911Y92166D02*
Y93366D01*
X113511Y87066D02*
X114711D01*
X114111Y86466D02*
Y87666D01*
X111811Y80666D02*
X113011D01*
X112411Y80066D02*
Y81266D01*
X85611Y109966D02*
X86811D01*
X86211Y109366D02*
Y110566D01*
X79211Y109966D02*
X80411D01*
X79811Y109366D02*
Y110566D01*
X72811Y109966D02*
X74011D01*
X73411Y109366D02*
Y110566D01*
X119711Y98466D02*
X120911D01*
X120311Y97866D02*
Y99066D01*
X115111Y98466D02*
X116311D01*
X115711Y97866D02*
Y99066D01*
X161311Y69666D02*
X162511D01*
X161911Y69066D02*
Y70266D01*
X117411Y100466D02*
X118611D01*
X118011Y99866D02*
Y101066D01*
X159511Y72266D02*
X160711D01*
X160111Y71666D02*
Y72866D01*
X142611Y85066D02*
X143811D01*
X143211Y84466D02*
Y85666D01*
X161311Y85066D02*
X162511D01*
X161911Y84466D02*
Y85666D01*
X116811Y71466D02*
X118011D01*
X117411Y70866D02*
Y72066D01*
X152194Y106749D02*
X153394D01*
X152794Y106149D02*
Y107349D01*
X144711Y99066D02*
X145911D01*
X145311Y98466D02*
Y99666D01*
X141311Y103066D02*
X142511D01*
X141911Y102466D02*
Y103666D01*
X148511Y11466D02*
X149711D01*
X149111Y10866D02*
Y12066D01*
X122011Y100466D02*
X123211D01*
X122611Y99866D02*
Y101066D01*
X101011Y76166D02*
X102211D01*
X101611Y75566D02*
Y76766D01*
X86811Y76266D02*
X88011D01*
X87411Y75666D02*
Y76866D01*
X102611Y66466D02*
X103811D01*
X103211Y65866D02*
Y67066D01*
X114011Y41966D02*
X115211D01*
X114611Y41366D02*
Y42566D01*
X116811Y82366D02*
X118011D01*
X117411Y81766D02*
Y82966D01*
X116111Y85366D02*
X117311D01*
X116711Y84766D02*
Y85966D01*
X108511Y100766D02*
X109711D01*
X109111Y100166D02*
Y101366D01*
X133011Y98866D02*
X134211D01*
X133611Y98266D02*
Y99466D01*
X105611Y66466D02*
X106811D01*
X106211Y65866D02*
Y67066D01*
X131211Y66466D02*
X132411D01*
X131811Y65866D02*
Y67066D01*
X173411Y89966D02*
X174611D01*
X174011Y89366D02*
Y90566D01*
X186211Y68666D02*
X187411D01*
X186811Y68066D02*
Y69266D01*
X187811Y72966D02*
X189011D01*
X188411Y72366D02*
Y73566D01*
X191011Y87966D02*
X192211D01*
X191611Y87366D02*
Y88566D01*
X189411Y85266D02*
X190611D01*
X190011Y84666D02*
Y85866D01*
X125133Y35368D02*
X126333D01*
X125733Y34769D02*
Y35969D01*
X130511Y54766D02*
X131711D01*
X131111Y54166D02*
Y55366D01*
X161911Y41866D02*
X163111D01*
X162511Y41266D02*
Y42466D01*
X232211Y108966D02*
X233411D01*
X232811Y108366D02*
Y109566D01*
X98711Y108866D02*
X99911D01*
X99311Y108266D02*
Y109466D01*
X93411Y106166D02*
X94611D01*
X94011Y105566D02*
Y106766D01*
X90411Y105766D02*
X91611D01*
X91011Y105166D02*
Y106366D01*
X174011Y94066D02*
X175211D01*
X174611Y93466D02*
Y94666D01*
X174011Y98466D02*
X175211D01*
X174611Y97866D02*
Y99066D01*
X100911Y101466D02*
X102111D01*
X101511Y100866D02*
Y102066D01*
X174611Y83966D02*
X175811D01*
X175211Y83366D02*
Y84566D01*
X157511Y101766D02*
X158711D01*
X158111Y101166D02*
Y102366D01*
X117411Y35966D02*
X118611D01*
X118011Y35366D02*
Y36566D01*
X113111Y77666D02*
X114311D01*
X113711Y77066D02*
Y78266D01*
X113811Y74666D02*
X115011D01*
X114411Y74066D02*
Y75266D01*
X119011Y32966D02*
X120211D01*
X119611Y32366D02*
Y33566D01*
X127233Y33169D02*
X128433D01*
X127833Y32568D02*
Y33768D01*
X117061Y130266D02*
X118261D01*
X117661Y129666D02*
Y130866D01*
X113711Y130266D02*
X114911D01*
X114311Y129666D02*
Y130866D01*
X177811Y16966D02*
X179011D01*
X178411Y16366D02*
Y17566D01*
X156111Y16966D02*
X157311D01*
X156711Y16366D02*
Y17566D01*
X216511Y21866D02*
X217711D01*
X217111Y21266D02*
Y22466D01*
X85511Y87966D02*
X86711D01*
X86111Y87366D02*
Y88566D01*
X85511Y90966D02*
X86711D01*
X86111Y90366D02*
Y91566D01*
X98711Y74166D02*
X99911D01*
X99311Y73566D02*
Y74766D01*
X103011Y126666D02*
X104211D01*
X103611Y126066D02*
Y127266D01*
X104711Y133366D02*
X105911D01*
X105311Y132766D02*
Y133966D01*
X104211Y72666D02*
X105411D01*
X104811Y72066D02*
Y73266D01*
X104911Y6466D02*
X106111D01*
X105511Y5866D02*
Y7066D01*
X120111Y38166D02*
X121311D01*
X120711Y37566D02*
Y38766D01*
X216511Y26466D02*
X217711D01*
X217111Y25866D02*
Y27066D01*
X222311Y22666D02*
X223511D01*
X222911Y22066D02*
Y23266D01*
X217611Y18866D02*
X218811D01*
X218211Y18266D02*
Y19466D01*
X217911Y39466D02*
X219111D01*
X218511Y38866D02*
Y40066D01*
X220511Y34066D02*
X221711D01*
X221111Y33466D02*
Y34666D01*
X208011Y35166D02*
X209211D01*
X208611Y34566D02*
Y35766D01*
X235511Y28366D02*
X236711D01*
X236111Y27766D02*
Y28966D01*
X189411Y75666D02*
X190611D01*
X190011Y75066D02*
Y76266D01*
X176611Y29266D02*
X177811D01*
X177211Y28666D02*
Y29866D01*
X172011Y29466D02*
X173211D01*
X172611Y28866D02*
Y30066D01*
X156511Y44966D02*
X157711D01*
X157111Y44366D02*
Y45566D01*
X130311Y35466D02*
X131511D01*
X130911Y34866D02*
Y36066D01*
X122311Y17266D02*
X123511D01*
X122911Y16666D02*
Y17866D01*
X129311Y10766D02*
X130511D01*
X129911Y10166D02*
Y11366D01*
X87611Y40466D02*
X88811D01*
X88211Y39866D02*
Y41066D01*
X73711Y36966D02*
X74911D01*
X74311Y36366D02*
Y37566D01*
X135911Y65566D02*
X137111D01*
X136511Y64966D02*
Y66166D01*
X146311Y66366D02*
X147511D01*
X146911Y65766D02*
Y66966D01*
X162411Y50266D02*
X163611D01*
X163011Y49666D02*
Y50866D01*
X116211Y114466D02*
X117411D01*
X116811Y113866D02*
Y115066D01*
X156611Y137566D02*
X157811D01*
X157211Y136966D02*
Y138166D01*
X183311Y133366D02*
X184511D01*
X183911Y132766D02*
Y133966D01*
X189311Y117866D02*
X190511D01*
X189911Y117266D02*
Y118466D01*
X145111Y125166D02*
X146311D01*
X145711Y124566D02*
Y125766D01*
X228711Y112266D02*
X229911D01*
X229311Y111666D02*
Y112866D01*
X107011Y35366D02*
X108211D01*
X107611Y34766D02*
Y35966D01*
X96611Y28866D02*
X97811D01*
X97211Y28266D02*
Y29466D01*
X104411Y28166D02*
X105611D01*
X105011Y27566D02*
Y28766D01*
X96611Y23866D02*
X97811D01*
X97211Y23266D02*
Y24466D01*
X97511Y20266D02*
X98711D01*
X98111Y19666D02*
Y20866D01*
X100511Y20966D02*
X101711D01*
X101111Y20366D02*
Y21566D01*
X89211Y8866D02*
X90411D01*
X89811Y8266D02*
Y9466D01*
X161311Y74666D02*
X162511D01*
X161911Y74066D02*
Y75266D01*
X140211Y31566D02*
X141411D01*
X140811Y30966D02*
Y32166D01*
X408465Y129921D02*
X420276D01*
X414370Y124016D02*
Y135827D01*
X408465Y11811D02*
X420276D01*
X414370Y5906D02*
Y17717D01*
X290354Y11811D02*
X302165D01*
X296260Y5906D02*
Y17717D01*
X290354Y129921D02*
X302165D01*
X296260Y124016D02*
Y135827D01*
X429740Y8366D02*
X432890D01*
X431315Y6791D02*
Y9941D01*
X439740Y8366D02*
X442890D01*
X441315Y6791D02*
Y9941D01*
X429740Y28366D02*
X432890D01*
X431315Y26791D02*
Y29941D01*
X439740Y38366D02*
X442890D01*
X441315Y36791D02*
Y39941D01*
X429740Y38366D02*
X432890D01*
X431315Y36791D02*
Y39941D01*
X439740Y28366D02*
X442890D01*
X441315Y26791D02*
Y29941D01*
X439740Y18366D02*
X442890D01*
X441315Y16791D02*
Y19941D01*
X429740Y18366D02*
X432890D01*
X431315Y16791D02*
Y19941D01*
X267740Y100866D02*
X270890D01*
X269315Y99291D02*
Y102441D01*
X277740Y90866D02*
X280890D01*
X279315Y89291D02*
Y92441D01*
X277740Y100866D02*
X280890D01*
X279315Y99291D02*
Y102441D01*
X267740Y90866D02*
X270890D01*
X269315Y89291D02*
Y92441D01*
X257740Y90866D02*
X260890D01*
X259315Y89291D02*
Y92441D01*
X257740Y100866D02*
X260890D01*
X259315Y99291D02*
Y102441D01*
X257740Y80866D02*
X260890D01*
X259315Y79291D02*
Y82441D01*
X257740Y70866D02*
X260890D01*
X259315Y69291D02*
Y72441D01*
X267740Y70866D02*
X270890D01*
X269315Y69291D02*
Y72441D01*
X277740Y80866D02*
X280890D01*
X279315Y79291D02*
Y82441D01*
X277740Y70866D02*
X280890D01*
X279315Y69291D02*
Y72441D01*
X267740Y80866D02*
X270890D01*
X269315Y79291D02*
Y82441D01*
X257740Y50866D02*
X260890D01*
X259315Y49291D02*
Y52441D01*
X257740Y40866D02*
X260890D01*
X259315Y39291D02*
Y42441D01*
X267740Y40866D02*
X270890D01*
X269315Y39291D02*
Y42441D01*
X277740Y50866D02*
X280890D01*
X279315Y49291D02*
Y52441D01*
X277740Y40866D02*
X280890D01*
X279315Y39291D02*
Y42441D01*
X267740Y50866D02*
X270890D01*
X269315Y49291D02*
Y52441D01*
X267740Y60866D02*
X270890D01*
X269315Y59291D02*
Y62441D01*
X277740Y60866D02*
X280890D01*
X279315Y59291D02*
Y62441D01*
X257740Y60866D02*
X260890D01*
X259315Y59291D02*
Y62441D01*
X257740Y20866D02*
X260890D01*
X259315Y19291D02*
Y22441D01*
X257740Y10866D02*
X260890D01*
X259315Y9291D02*
Y12441D01*
X267740Y10866D02*
X270890D01*
X269315Y9291D02*
Y12441D01*
X277740Y20866D02*
X280890D01*
X279315Y19291D02*
Y22441D01*
X277740Y10866D02*
X280890D01*
X279315Y9291D02*
Y12441D01*
X267740Y20866D02*
X270890D01*
X269315Y19291D02*
Y22441D01*
X267740Y30866D02*
X270890D01*
X269315Y29291D02*
Y32441D01*
X277740Y30866D02*
X280890D01*
X279315Y29291D02*
Y32441D01*
X257740Y30866D02*
X260890D01*
X259315Y29291D02*
Y32441D01*
X257740Y130866D02*
X260890D01*
X259315Y129291D02*
Y132441D01*
X257740Y120866D02*
X260890D01*
X259315Y119291D02*
Y122441D01*
X267740Y120866D02*
X270890D01*
X269315Y119291D02*
Y122441D01*
X277740Y130866D02*
X280890D01*
X279315Y129291D02*
Y132441D01*
X277740Y120866D02*
X280890D01*
X279315Y119291D02*
Y122441D01*
X267740Y130866D02*
X270890D01*
X269315Y129291D02*
Y132441D01*
X439740Y123366D02*
X442890D01*
X441315Y121791D02*
Y124941D01*
X429740Y133366D02*
X432890D01*
X431315Y131791D02*
Y134941D01*
X439740Y133366D02*
X442890D01*
X441315Y131791D02*
Y134941D01*
X429740Y123366D02*
X432890D01*
X431315Y121791D02*
Y124941D01*
X384740Y106366D02*
X387890D01*
X386315Y104791D02*
Y107941D01*
X374740Y106366D02*
X377890D01*
X376315Y104791D02*
Y107941D01*
X364740Y106366D02*
X367890D01*
X366315Y104791D02*
Y107941D01*
X394740Y106366D02*
X397890D01*
X396315Y104791D02*
Y107941D01*
X440285Y96513D02*
X444222D01*
X442254Y94544D02*
Y98481D01*
X440285Y65017D02*
X444222D01*
X442254Y63048D02*
Y66985D01*
X340875Y120666D02*
X343075D01*
X341975Y119566D02*
Y121766D01*
X323355Y120666D02*
X325555D01*
X324455Y119566D02*
Y121766D01*
X348552Y133466D02*
X350752D01*
X349652Y132366D02*
Y134566D01*
X315678Y133466D02*
X317878D01*
X316778Y132366D02*
Y134566D01*
X387437Y4366D02*
X390193D01*
X388815Y2988D02*
Y5744D01*
X387438Y14366D02*
X390194D01*
X388816Y12988D02*
Y15744D01*
X387437Y4366D02*
X390193D01*
X388815Y2988D02*
Y5744D01*
X387436Y14366D02*
X390192D01*
X388814Y12988D02*
Y15744D01*
X330715Y71966D02*
X331915D01*
X331315Y71366D02*
Y72566D01*
X337315Y73766D02*
X338515D01*
X337915Y73166D02*
Y74366D01*
X339315Y76066D02*
X340515D01*
X339915Y75466D02*
Y76666D01*
X344015Y125466D02*
X345215D01*
X344615Y124866D02*
Y126066D01*
X346715Y95666D02*
X347915D01*
X347315Y95066D02*
Y96266D01*
X410715Y35466D02*
X411915D01*
X411315Y34866D02*
Y36066D01*
X372615Y25266D02*
X373815D01*
X373215Y24666D02*
Y25866D01*
X307115Y111966D02*
X308315D01*
X307715Y111366D02*
Y112566D01*
X340015Y129066D02*
X341215D01*
X340615Y128466D02*
Y129666D01*
X338715Y48166D02*
X339915D01*
X339315Y47566D02*
Y48766D01*
X334215Y38966D02*
X335415D01*
X334815Y38366D02*
Y39566D01*
X363115Y34766D02*
X364315D01*
X363715Y34166D02*
Y35366D01*
X345737Y49668D02*
X346937D01*
X346337Y49068D02*
Y50269D01*
X345737Y52969D02*
X346937D01*
X346337Y52369D02*
Y53569D01*
X329315Y88666D02*
X330515D01*
X329915Y88066D02*
Y89266D01*
X351615Y103266D02*
X352815D01*
X352215Y102666D02*
Y103866D01*
X353715Y109566D02*
X354915D01*
X354315Y108966D02*
Y110166D01*
X361415Y88066D02*
X362615D01*
X362015Y87466D02*
Y88666D01*
X378915Y81666D02*
X380115D01*
X379515Y81066D02*
Y82266D01*
X361415Y78466D02*
X362615D01*
X362015Y77866D02*
Y79066D01*
X378915Y90466D02*
X380115D01*
X379515Y89866D02*
Y91066D01*
X432415Y42666D02*
X433615D01*
X433015Y42066D02*
Y43266D01*
X445515Y7466D02*
X446715D01*
X446115Y6866D02*
Y8066D01*
X440915Y4066D02*
X442115D01*
X441515Y3466D02*
Y4666D01*
X445315Y12666D02*
X446515D01*
X445915Y12066D02*
Y13266D01*
X445315Y39666D02*
X446515D01*
X445915Y39066D02*
Y40266D01*
X327315Y97766D02*
X328515D01*
X327915Y97166D02*
Y98366D01*
X317515Y96866D02*
X318715D01*
X318115Y96266D02*
Y97466D01*
X317515Y88666D02*
X318715D01*
X318115Y88066D02*
Y89266D01*
X314415Y100766D02*
X315615D01*
X315015Y100166D02*
Y101366D01*
X287315Y106766D02*
X288515D01*
X287915Y106166D02*
Y107366D01*
X292315Y101366D02*
X293515D01*
X292915Y100766D02*
Y101966D01*
X283015Y120766D02*
X284215D01*
X283615Y120166D02*
Y121366D01*
X273715Y122166D02*
X274915D01*
X274315Y121566D02*
Y122766D01*
X273715Y132366D02*
X274915D01*
X274315Y131766D02*
Y132966D01*
X264115Y133366D02*
X265315D01*
X264715Y132766D02*
Y133966D01*
X413770Y106911D02*
X414970D01*
X414370Y106311D02*
Y107511D01*
X301215Y89466D02*
X302415D01*
X301815Y88866D02*
Y90066D01*
X307915Y56066D02*
X309115D01*
X308515Y55466D02*
Y56666D01*
X305015Y63166D02*
X306215D01*
X305615Y62566D02*
Y63766D01*
X317215Y60666D02*
X318415D01*
X317815Y60066D02*
Y61266D01*
X300015Y64766D02*
X301215D01*
X300615Y64166D02*
Y65366D01*
X291915Y66666D02*
X293115D01*
X292515Y66066D02*
Y67266D01*
X283715Y68466D02*
X284915D01*
X284315Y67866D02*
Y69066D01*
X288715Y74866D02*
X289915D01*
X289315Y74266D02*
Y75466D01*
X283915Y73066D02*
X285115D01*
X284515Y72466D02*
Y73666D01*
X331915Y95866D02*
X333115D01*
X332515Y95266D02*
Y96466D01*
X337615Y111566D02*
X338815D01*
X338215Y110966D02*
Y112166D01*
X330415Y116566D02*
X331615D01*
X331015Y115966D02*
Y117166D01*
X370415Y3966D02*
X371615D01*
X371015Y3366D02*
Y4566D01*
X397015Y49766D02*
X398215D01*
X397615Y49166D02*
Y50366D01*
X370615Y129366D02*
X371815D01*
X371215Y128766D02*
Y129966D01*
X351515Y95766D02*
X352715D01*
X352115Y95166D02*
Y96366D01*
X346615Y66466D02*
X347815D01*
X347215Y65866D02*
Y67066D01*
X343215Y98866D02*
X344415D01*
X343815Y98266D02*
Y99466D01*
X345115Y92966D02*
X346315D01*
X345715Y92366D02*
Y93566D01*
X349715Y90966D02*
X350915D01*
X350315Y90366D02*
Y91566D01*
X331815Y92766D02*
X333015D01*
X332415Y92166D02*
Y93366D01*
X332015Y87066D02*
X333215D01*
X332615Y86466D02*
Y87666D01*
X330315Y80666D02*
X331515D01*
X330915Y80066D02*
Y81266D01*
X304115Y109966D02*
X305315D01*
X304715Y109366D02*
Y110566D01*
X297715Y109966D02*
X298915D01*
X298315Y109366D02*
Y110566D01*
X291315Y109966D02*
X292515D01*
X291915Y109366D02*
Y110566D01*
X338215Y98466D02*
X339415D01*
X338815Y97866D02*
Y99066D01*
X333615Y98466D02*
X334815D01*
X334215Y97866D02*
Y99066D01*
X379815Y69666D02*
X381015D01*
X380415Y69066D02*
Y70266D01*
X335915Y100466D02*
X337115D01*
X336515Y99866D02*
Y101066D01*
X378015Y72266D02*
X379215D01*
X378615Y71666D02*
Y72866D01*
X361115Y85066D02*
X362315D01*
X361715Y84466D02*
Y85666D01*
X379815Y85066D02*
X381015D01*
X380415Y84466D02*
Y85666D01*
X335315Y71466D02*
X336515D01*
X335915Y70866D02*
Y72066D01*
X370698Y106749D02*
X371898D01*
X371298Y106149D02*
Y107349D01*
X363215Y99066D02*
X364415D01*
X363815Y98466D02*
Y99666D01*
X359815Y103066D02*
X361015D01*
X360415Y102466D02*
Y103666D01*
X367015Y11466D02*
X368215D01*
X367615Y10866D02*
Y12066D01*
X340515Y100466D02*
X341715D01*
X341115Y99866D02*
Y101066D01*
X319515Y76166D02*
X320715D01*
X320115Y75566D02*
Y76766D01*
X305315Y76266D02*
X306515D01*
X305915Y75666D02*
Y76866D01*
X321115Y66466D02*
X322315D01*
X321715Y65866D02*
Y67066D01*
X332515Y41966D02*
X333715D01*
X333115Y41366D02*
Y42566D01*
X335315Y82366D02*
X336515D01*
X335915Y81766D02*
Y82966D01*
X334615Y85366D02*
X335815D01*
X335215Y84766D02*
Y85966D01*
X327015Y100766D02*
X328215D01*
X327615Y100166D02*
Y101366D01*
X351515Y98866D02*
X352715D01*
X352115Y98266D02*
Y99466D01*
X324115Y66466D02*
X325315D01*
X324715Y65866D02*
Y67066D01*
X349715Y66466D02*
X350915D01*
X350315Y65866D02*
Y67066D01*
X391915Y89966D02*
X393115D01*
X392515Y89366D02*
Y90566D01*
X404715Y68666D02*
X405915D01*
X405315Y68066D02*
Y69266D01*
X406315Y72966D02*
X407515D01*
X406915Y72366D02*
Y73566D01*
X409515Y87966D02*
X410715D01*
X410115Y87366D02*
Y88566D01*
X407915Y85266D02*
X409115D01*
X408515Y84666D02*
Y85866D01*
X343637Y35368D02*
X344837D01*
X344237Y34769D02*
Y35969D01*
X349015Y54766D02*
X350215D01*
X349615Y54166D02*
Y55366D01*
X380415Y41866D02*
X381615D01*
X381015Y41266D02*
Y42466D01*
X450715Y108966D02*
X451915D01*
X451315Y108366D02*
Y109566D01*
X317215Y108866D02*
X318415D01*
X317815Y108266D02*
Y109466D01*
X311915Y106166D02*
X313115D01*
X312515Y105566D02*
Y106766D01*
X308915Y105766D02*
X310115D01*
X309515Y105166D02*
Y106366D01*
X392515Y94066D02*
X393715D01*
X393115Y93466D02*
Y94666D01*
X392515Y98466D02*
X393715D01*
X393115Y97866D02*
Y99066D01*
X319415Y101466D02*
X320615D01*
X320015Y100866D02*
Y102066D01*
X393115Y83966D02*
X394315D01*
X393715Y83366D02*
Y84566D01*
X376015Y101766D02*
X377215D01*
X376615Y101166D02*
Y102366D01*
X335915Y35966D02*
X337115D01*
X336515Y35366D02*
Y36566D01*
X331615Y77666D02*
X332815D01*
X332215Y77066D02*
Y78266D01*
X332315Y74666D02*
X333515D01*
X332915Y74066D02*
Y75266D01*
X337515Y32966D02*
X338715D01*
X338115Y32366D02*
Y33566D01*
X345737Y33169D02*
X346937D01*
X346337Y32568D02*
Y33768D01*
X335565Y130266D02*
X336765D01*
X336165Y129666D02*
Y130866D01*
X332215Y130266D02*
X333415D01*
X332815Y129666D02*
Y130866D01*
X396315Y16966D02*
X397515D01*
X396915Y16366D02*
Y17566D01*
X374615Y16966D02*
X375815D01*
X375215Y16366D02*
Y17566D01*
X435015Y21866D02*
X436215D01*
X435615Y21266D02*
Y22466D01*
X304015Y87966D02*
X305215D01*
X304615Y87366D02*
Y88566D01*
X304015Y90966D02*
X305215D01*
X304615Y90366D02*
Y91566D01*
X317215Y74166D02*
X318415D01*
X317815Y73566D02*
Y74766D01*
X321515Y126666D02*
X322715D01*
X322115Y126066D02*
Y127266D01*
X323215Y133366D02*
X324415D01*
X323815Y132766D02*
Y133966D01*
X322715Y72666D02*
X323915D01*
X323315Y72066D02*
Y73266D01*
X323415Y6466D02*
X324615D01*
X324015Y5866D02*
Y7066D01*
X338615Y38166D02*
X339815D01*
X339215Y37566D02*
Y38766D01*
X435015Y26466D02*
X436215D01*
X435615Y25866D02*
Y27066D01*
X440815Y22666D02*
X442015D01*
X441415Y22066D02*
Y23266D01*
X436115Y18866D02*
X437315D01*
X436715Y18266D02*
Y19466D01*
X436415Y39466D02*
X437615D01*
X437015Y38866D02*
Y40066D01*
X439015Y34066D02*
X440215D01*
X439615Y33466D02*
Y34666D01*
X426515Y35166D02*
X427715D01*
X427115Y34566D02*
Y35766D01*
X454015Y28366D02*
X455215D01*
X454615Y27766D02*
Y28966D01*
X407915Y75666D02*
X409115D01*
X408515Y75066D02*
Y76266D01*
X395115Y29266D02*
X396315D01*
X395715Y28666D02*
Y29866D01*
X390515Y29466D02*
X391715D01*
X391115Y28866D02*
Y30066D01*
X375015Y44966D02*
X376215D01*
X375615Y44366D02*
Y45566D01*
X348815Y35466D02*
X350015D01*
X349415Y34866D02*
Y36066D01*
X340815Y17266D02*
X342015D01*
X341415Y16666D02*
Y17866D01*
X347815Y10766D02*
X349015D01*
X348415Y10166D02*
Y11366D01*
X306115Y40466D02*
X307315D01*
X306715Y39866D02*
Y41066D01*
X292215Y36966D02*
X293415D01*
X292815Y36366D02*
Y37566D01*
X354415Y65566D02*
X355615D01*
X355015Y64966D02*
Y66166D01*
X364815Y66366D02*
X366015D01*
X365415Y65766D02*
Y66966D01*
X380915Y50266D02*
X382115D01*
X381515Y49666D02*
Y50866D01*
X334715Y114466D02*
X335915D01*
X335315Y113866D02*
Y115066D01*
X375115Y137566D02*
X376315D01*
X375715Y136966D02*
Y138166D01*
X401815Y133366D02*
X403015D01*
X402415Y132766D02*
Y133966D01*
X407815Y117866D02*
X409015D01*
X408415Y117266D02*
Y118466D01*
X363615Y125166D02*
X364815D01*
X364215Y124566D02*
Y125766D01*
X447215Y112266D02*
X448415D01*
X447815Y111666D02*
Y112866D01*
X325515Y35366D02*
X326715D01*
X326115Y34766D02*
Y35966D01*
X315115Y28866D02*
X316315D01*
X315715Y28266D02*
Y29466D01*
X322915Y28166D02*
X324115D01*
X323515Y27566D02*
Y28766D01*
X315115Y23866D02*
X316315D01*
X315715Y23266D02*
Y24466D01*
X316015Y20266D02*
X317215D01*
X316615Y19666D02*
Y20866D01*
X319015Y20966D02*
X320215D01*
X319615Y20366D02*
Y21566D01*
X307715Y8866D02*
X308915D01*
X308315Y8266D02*
Y9466D01*
X379815Y74666D02*
X381015D01*
X380415Y74066D02*
Y75266D01*
X358715Y31566D02*
X359915D01*
X359315Y30966D02*
Y32166D01*
X189961Y275591D02*
X201772D01*
X195866Y269685D02*
Y281496D01*
X189961Y157480D02*
X201772D01*
X195866Y151575D02*
Y163386D01*
X71851Y157480D02*
X83662D01*
X77756Y151575D02*
Y163386D01*
X71851Y275591D02*
X83662D01*
X77756Y269685D02*
Y281496D01*
X211236Y154035D02*
X214386D01*
X212811Y152461D02*
Y155610D01*
X221236Y154035D02*
X224386D01*
X222811Y152461D02*
Y155610D01*
X211236Y174036D02*
X214386D01*
X212811Y172461D02*
Y175610D01*
X221236Y184036D02*
X224386D01*
X222811Y182461D02*
Y185610D01*
X211236Y184036D02*
X214386D01*
X212811Y182461D02*
Y185610D01*
X221236Y174036D02*
X224386D01*
X222811Y172461D02*
Y175610D01*
X221236Y164035D02*
X224386D01*
X222811Y162461D02*
Y165610D01*
X211236Y164035D02*
X214386D01*
X212811Y162461D02*
Y165610D01*
X49236Y246535D02*
X52386D01*
X50811Y244961D02*
Y248110D01*
X59236Y236536D02*
X62386D01*
X60811Y234961D02*
Y238110D01*
X59236Y246535D02*
X62386D01*
X60811Y244961D02*
Y248110D01*
X49236Y236536D02*
X52386D01*
X50811Y234961D02*
Y238110D01*
X39236Y236536D02*
X42386D01*
X40811Y234961D02*
Y238110D01*
X39236Y246535D02*
X42386D01*
X40811Y244961D02*
Y248110D01*
X39236Y226536D02*
X42386D01*
X40811Y224961D02*
Y228110D01*
X39236Y216535D02*
X42386D01*
X40811Y214961D02*
Y218110D01*
X49236Y216535D02*
X52386D01*
X50811Y214961D02*
Y218110D01*
X59236Y226536D02*
X62386D01*
X60811Y224961D02*
Y228110D01*
X59236Y216535D02*
X62386D01*
X60811Y214961D02*
Y218110D01*
X49236Y226536D02*
X52386D01*
X50811Y224961D02*
Y228110D01*
X39236Y196536D02*
X42386D01*
X40811Y194961D02*
Y198110D01*
X39236Y186536D02*
X42386D01*
X40811Y184961D02*
Y188110D01*
X49236Y186536D02*
X52386D01*
X50811Y184961D02*
Y188110D01*
X59236Y196536D02*
X62386D01*
X60811Y194961D02*
Y198110D01*
X59236Y186536D02*
X62386D01*
X60811Y184961D02*
Y188110D01*
X49236Y196536D02*
X52386D01*
X50811Y194961D02*
Y198110D01*
X49236Y206536D02*
X52386D01*
X50811Y204961D02*
Y208110D01*
X59236Y206536D02*
X62386D01*
X60811Y204961D02*
Y208110D01*
X39236Y206536D02*
X42386D01*
X40811Y204961D02*
Y208110D01*
X39236Y166535D02*
X42386D01*
X40811Y164961D02*
Y168110D01*
X39236Y156535D02*
X42386D01*
X40811Y154961D02*
Y158110D01*
X49236Y156535D02*
X52386D01*
X50811Y154961D02*
Y158110D01*
X59236Y166535D02*
X62386D01*
X60811Y164961D02*
Y168110D01*
X59236Y156535D02*
X62386D01*
X60811Y154961D02*
Y158110D01*
X49236Y166535D02*
X52386D01*
X50811Y164961D02*
Y168110D01*
X49236Y176535D02*
X52386D01*
X50811Y174961D02*
Y178110D01*
X59236Y176535D02*
X62386D01*
X60811Y174961D02*
Y178110D01*
X39236Y176535D02*
X42386D01*
X40811Y174961D02*
Y178110D01*
X39236Y276536D02*
X42386D01*
X40811Y274961D02*
Y278110D01*
X39236Y266535D02*
X42386D01*
X40811Y264961D02*
Y268110D01*
X49236Y266535D02*
X52386D01*
X50811Y264961D02*
Y268110D01*
X59236Y276536D02*
X62386D01*
X60811Y274961D02*
Y278110D01*
X59236Y266535D02*
X62386D01*
X60811Y264961D02*
Y268110D01*
X49236Y276536D02*
X52386D01*
X50811Y274961D02*
Y278110D01*
X221236Y269036D02*
X224386D01*
X222811Y267461D02*
Y270610D01*
X211236Y279035D02*
X214386D01*
X212811Y277461D02*
Y280610D01*
X221236Y279035D02*
X224386D01*
X222811Y277461D02*
Y280610D01*
X211236Y269036D02*
X214386D01*
X212811Y267461D02*
Y270610D01*
X166236Y252035D02*
X169386D01*
X167811Y250461D02*
Y253610D01*
X156236Y252035D02*
X159386D01*
X157811Y250461D02*
Y253610D01*
X146236Y252035D02*
X149386D01*
X147811Y250461D02*
Y253610D01*
X176236Y252035D02*
X179386D01*
X177811Y250461D02*
Y253610D01*
X221781Y242182D02*
X225718D01*
X223750Y240213D02*
Y244150D01*
X221781Y210686D02*
X225718D01*
X223750Y208717D02*
Y212654D01*
X122371Y266336D02*
X124571D01*
X123471Y265235D02*
Y267436D01*
X104851Y266336D02*
X107051D01*
X105951Y265235D02*
Y267436D01*
X130048Y279135D02*
X132248D01*
X131148Y278035D02*
Y280236D01*
X97174Y279135D02*
X99374D01*
X98274Y278035D02*
Y280236D01*
X168933Y150036D02*
X171689D01*
X170311Y148658D02*
Y151413D01*
X168934Y160036D02*
X171690D01*
X170312Y158658D02*
Y161413D01*
X168933Y150036D02*
X171689D01*
X170311Y148658D02*
Y151413D01*
X168932Y160036D02*
X171688D01*
X170310Y158658D02*
Y161413D01*
X112211Y217635D02*
X113411D01*
X112811Y217036D02*
Y218235D01*
X118811Y219436D02*
X120011D01*
X119411Y218835D02*
Y220036D01*
X120811Y221736D02*
X122011D01*
X121411Y221135D02*
Y222336D01*
X125511Y271135D02*
X126711D01*
X126111Y270535D02*
Y271736D01*
X128211Y241336D02*
X129411D01*
X128811Y240736D02*
Y241935D01*
X192211Y181135D02*
X193411D01*
X192811Y180535D02*
Y181736D01*
X154111Y170935D02*
X155311D01*
X154711Y170335D02*
Y171536D01*
X88611Y257635D02*
X89811D01*
X89211Y257035D02*
Y258236D01*
X121511Y274735D02*
X122711D01*
X122111Y274135D02*
Y275336D01*
X120211Y193835D02*
X121411D01*
X120811Y193236D02*
Y194436D01*
X115711Y184635D02*
X116911D01*
X116311Y184036D02*
Y185236D01*
X144611Y180436D02*
X145811D01*
X145211Y179835D02*
Y181035D01*
X127233Y195338D02*
X128433D01*
X127833Y194738D02*
Y195938D01*
X127233Y198638D02*
X128433D01*
X127833Y198038D02*
Y199238D01*
X110811Y234335D02*
X112011D01*
X111411Y233735D02*
Y234935D01*
X133111Y248936D02*
X134311D01*
X133711Y248336D02*
Y249535D01*
X135211Y255236D02*
X136411D01*
X135811Y254636D02*
Y255836D01*
X142911Y233735D02*
X144111D01*
X143511Y233136D02*
Y234335D01*
X160411Y227336D02*
X161611D01*
X161011Y226735D02*
Y227936D01*
X142911Y224135D02*
X144111D01*
X143511Y223535D02*
Y224735D01*
X160411Y236136D02*
X161611D01*
X161011Y235536D02*
Y236736D01*
X213911Y188336D02*
X215111D01*
X214511Y187735D02*
Y188935D01*
X227011Y153136D02*
X228211D01*
X227611Y152535D02*
Y153735D01*
X222411Y149735D02*
X223611D01*
X223011Y149135D02*
Y150336D01*
X226811Y158335D02*
X228011D01*
X227411Y157736D02*
Y158935D01*
X226811Y185336D02*
X228011D01*
X227411Y184736D02*
Y185935D01*
X108811Y243436D02*
X110011D01*
X109411Y242835D02*
Y244036D01*
X99011Y242535D02*
X100211D01*
X99611Y241935D02*
Y243135D01*
X99011Y234335D02*
X100211D01*
X99611Y233735D02*
Y234935D01*
X95911Y246435D02*
X97111D01*
X96511Y245835D02*
Y247036D01*
X68811Y252435D02*
X70011D01*
X69411Y251835D02*
Y253035D01*
X73811Y247036D02*
X75011D01*
X74411Y246435D02*
Y247636D01*
X64511Y266436D02*
X65711D01*
X65111Y265835D02*
Y267036D01*
X55211Y267835D02*
X56411D01*
X55811Y267235D02*
Y268436D01*
X55211Y278035D02*
X56411D01*
X55811Y277435D02*
Y278636D01*
X45611Y279035D02*
X46811D01*
X46211Y278435D02*
Y279636D01*
X195266Y252580D02*
X196466D01*
X195866Y251980D02*
Y253180D01*
X82711Y235136D02*
X83911D01*
X83311Y234536D02*
Y235736D01*
X89411Y201735D02*
X90611D01*
X90011Y201135D02*
Y202336D01*
X86511Y208836D02*
X87711D01*
X87111Y208236D02*
Y209436D01*
X98711Y206335D02*
X99911D01*
X99311Y205735D02*
Y206936D01*
X81511Y210436D02*
X82711D01*
X82111Y209836D02*
Y211035D01*
X73411Y212335D02*
X74611D01*
X74011Y211736D02*
Y212935D01*
X65211Y214136D02*
X66411D01*
X65811Y213535D02*
Y214736D01*
X70211Y220535D02*
X71411D01*
X70811Y219935D02*
Y221135D01*
X65411Y218736D02*
X66611D01*
X66011Y218135D02*
Y219336D01*
X113411Y241535D02*
X114611D01*
X114011Y240935D02*
Y242136D01*
X119111Y257236D02*
X120311D01*
X119711Y256635D02*
Y257836D01*
X111911Y262235D02*
X113111D01*
X112511Y261635D02*
Y262836D01*
X151911Y149636D02*
X153111D01*
X152511Y149036D02*
Y150235D01*
X178511Y195436D02*
X179711D01*
X179111Y194835D02*
Y196036D01*
X152111Y275036D02*
X153311D01*
X152711Y274435D02*
Y275636D01*
X133011Y241436D02*
X134211D01*
X133611Y240835D02*
Y242036D01*
X128111Y212136D02*
X129311D01*
X128711Y211536D02*
Y212736D01*
X124711Y244535D02*
X125911D01*
X125311Y243935D02*
Y245135D01*
X126611Y238635D02*
X127811D01*
X127211Y238035D02*
Y239235D01*
X131211Y236635D02*
X132411D01*
X131811Y236035D02*
Y237235D01*
X113311Y238436D02*
X114511D01*
X113911Y237836D02*
Y239036D01*
X113511Y232735D02*
X114711D01*
X114111Y232136D02*
Y233335D01*
X111811Y226336D02*
X113011D01*
X112411Y225735D02*
Y226936D01*
X85611Y255635D02*
X86811D01*
X86211Y255035D02*
Y256236D01*
X79211Y255635D02*
X80411D01*
X79811Y255035D02*
Y256236D01*
X72811Y255635D02*
X74011D01*
X73411Y255035D02*
Y256236D01*
X119711Y244135D02*
X120911D01*
X120311Y243535D02*
Y244736D01*
X115111Y244135D02*
X116311D01*
X115711Y243535D02*
Y244736D01*
X161311Y215335D02*
X162511D01*
X161911Y214736D02*
Y215935D01*
X117411Y246135D02*
X118611D01*
X118011Y245535D02*
Y246736D01*
X159511Y217935D02*
X160711D01*
X160111Y217336D02*
Y218535D01*
X142611Y230735D02*
X143811D01*
X143211Y230135D02*
Y231335D01*
X161311Y230735D02*
X162511D01*
X161911Y230135D02*
Y231335D01*
X116811Y217136D02*
X118011D01*
X117411Y216535D02*
Y217736D01*
X152194Y252418D02*
X153394D01*
X152794Y251818D02*
Y253018D01*
X144711Y244736D02*
X145911D01*
X145311Y244135D02*
Y245336D01*
X141311Y248735D02*
X142511D01*
X141911Y248135D02*
Y249336D01*
X148511Y157135D02*
X149711D01*
X149111Y156535D02*
Y157736D01*
X122011Y246135D02*
X123211D01*
X122611Y245535D02*
Y246736D01*
X101011Y221835D02*
X102211D01*
X101611Y221235D02*
Y222435D01*
X86811Y221936D02*
X88011D01*
X87411Y221336D02*
Y222535D01*
X102611Y212136D02*
X103811D01*
X103211Y211536D02*
Y212736D01*
X114011Y187636D02*
X115211D01*
X114611Y187036D02*
Y188235D01*
X116811Y228035D02*
X118011D01*
X117411Y227435D02*
Y228636D01*
X116111Y231035D02*
X117311D01*
X116711Y230435D02*
Y231635D01*
X108511Y246435D02*
X109711D01*
X109111Y245835D02*
Y247036D01*
X133011Y244535D02*
X134211D01*
X133611Y243935D02*
Y245135D01*
X105611Y212136D02*
X106811D01*
X106211Y211536D02*
Y212736D01*
X131211Y212136D02*
X132411D01*
X131811Y211536D02*
Y212736D01*
X173411Y235635D02*
X174611D01*
X174011Y235035D02*
Y236235D01*
X186211Y214335D02*
X187411D01*
X186811Y213736D02*
Y214935D01*
X187811Y218636D02*
X189011D01*
X188411Y218036D02*
Y219235D01*
X191011Y233635D02*
X192211D01*
X191611Y233035D02*
Y234236D01*
X189411Y230936D02*
X190611D01*
X190011Y230335D02*
Y231536D01*
X125133Y181038D02*
X126333D01*
X125733Y180438D02*
Y181638D01*
X130511Y200435D02*
X131711D01*
X131111Y199836D02*
Y201035D01*
X161911Y187536D02*
X163111D01*
X162511Y186935D02*
Y188136D01*
X232211Y254636D02*
X233411D01*
X232811Y254035D02*
Y255236D01*
X98711Y254536D02*
X99911D01*
X99311Y253936D02*
Y255135D01*
X93411Y251835D02*
X94611D01*
X94011Y251236D02*
Y252435D01*
X90411Y251435D02*
X91611D01*
X91011Y250835D02*
Y252035D01*
X174011Y239736D02*
X175211D01*
X174611Y239136D02*
Y240335D01*
X174011Y244136D02*
X175211D01*
X174611Y243536D02*
Y244736D01*
X100911Y247135D02*
X102111D01*
X101511Y246535D02*
Y247736D01*
X174611Y229636D02*
X175811D01*
X175211Y229035D02*
Y230236D01*
X157511Y247435D02*
X158711D01*
X158111Y246835D02*
Y248036D01*
X117411Y181635D02*
X118611D01*
X118011Y181035D02*
Y182236D01*
X113111Y223336D02*
X114311D01*
X113711Y222736D02*
Y223936D01*
X113811Y220336D02*
X115011D01*
X114411Y219736D02*
Y220936D01*
X119011Y178636D02*
X120211D01*
X119611Y178035D02*
Y179235D01*
X127233Y178838D02*
X128433D01*
X127833Y178238D02*
Y179438D01*
X117061Y275936D02*
X118261D01*
X117661Y275336D02*
Y276536D01*
X113711Y275936D02*
X114911D01*
X114311Y275336D02*
Y276536D01*
X177811Y162636D02*
X179011D01*
X178411Y162036D02*
Y163235D01*
X156111Y162636D02*
X157311D01*
X156711Y162036D02*
Y163235D01*
X216511Y167535D02*
X217711D01*
X217111Y166936D02*
Y168135D01*
X85511Y233635D02*
X86711D01*
X86111Y233035D02*
Y234236D01*
X85511Y236635D02*
X86711D01*
X86111Y236035D02*
Y237235D01*
X98711Y219835D02*
X99911D01*
X99311Y219235D02*
Y220436D01*
X103011Y272336D02*
X104211D01*
X103611Y271736D02*
Y272936D01*
X104711Y279035D02*
X105911D01*
X105311Y278435D02*
Y279636D01*
X104211Y218336D02*
X105411D01*
X104811Y217736D02*
Y218935D01*
X104911Y152136D02*
X106111D01*
X105511Y151535D02*
Y152735D01*
X120111Y183835D02*
X121311D01*
X120711Y183236D02*
Y184435D01*
X216511Y172135D02*
X217711D01*
X217111Y171536D02*
Y172736D01*
X222311Y168335D02*
X223511D01*
X222911Y167736D02*
Y168936D01*
X217611Y164535D02*
X218811D01*
X218211Y163935D02*
Y165136D01*
X217911Y185135D02*
X219111D01*
X218511Y184536D02*
Y185735D01*
X220511Y179736D02*
X221711D01*
X221111Y179136D02*
Y180335D01*
X208011Y180835D02*
X209211D01*
X208611Y180236D02*
Y181436D01*
X235511Y174036D02*
X236711D01*
X236111Y173435D02*
Y174636D01*
X189411Y221336D02*
X190611D01*
X190011Y220736D02*
Y221936D01*
X176611Y174935D02*
X177811D01*
X177211Y174336D02*
Y175536D01*
X172011Y175136D02*
X173211D01*
X172611Y174536D02*
Y175735D01*
X156511Y190636D02*
X157711D01*
X157111Y190035D02*
Y191235D01*
X130311Y181135D02*
X131511D01*
X130911Y180535D02*
Y181736D01*
X122311Y162935D02*
X123511D01*
X122911Y162336D02*
Y163535D01*
X129311Y156436D02*
X130511D01*
X129911Y155835D02*
Y157036D01*
X87611Y186135D02*
X88811D01*
X88211Y185536D02*
Y186735D01*
X73711Y182635D02*
X74911D01*
X74311Y182036D02*
Y183236D01*
X135911Y211235D02*
X137111D01*
X136511Y210635D02*
Y211836D01*
X146311Y212035D02*
X147511D01*
X146911Y211436D02*
Y212635D01*
X162411Y195935D02*
X163611D01*
X163011Y195335D02*
Y196536D01*
X116211Y260136D02*
X117411D01*
X116811Y259536D02*
Y260736D01*
X156611Y283236D02*
X157811D01*
X157211Y282635D02*
Y283836D01*
X183311Y279035D02*
X184511D01*
X183911Y278435D02*
Y279636D01*
X189311Y263535D02*
X190511D01*
X189911Y262935D02*
Y264136D01*
X145111Y270835D02*
X146311D01*
X145711Y270235D02*
Y271435D01*
X228711Y257936D02*
X229911D01*
X229311Y257335D02*
Y258536D01*
X107011Y181035D02*
X108211D01*
X107611Y180436D02*
Y181635D01*
X96611Y174536D02*
X97811D01*
X97211Y173935D02*
Y175136D01*
X104411Y173836D02*
X105611D01*
X105011Y173235D02*
Y174435D01*
X96611Y169536D02*
X97811D01*
X97211Y168936D02*
Y170135D01*
X97511Y165936D02*
X98711D01*
X98111Y165336D02*
Y166535D01*
X100511Y166636D02*
X101711D01*
X101111Y166035D02*
Y167236D01*
X89211Y154535D02*
X90411D01*
X89811Y153936D02*
Y155136D01*
X161311Y220336D02*
X162511D01*
X161911Y219736D02*
Y220936D01*
X140211Y177235D02*
X141411D01*
X140811Y176636D02*
Y177836D01*
X408465Y275591D02*
X420276D01*
X414370Y269685D02*
Y281496D01*
X408465Y157480D02*
X420276D01*
X414370Y151575D02*
Y163386D01*
X290354Y157480D02*
X302165D01*
X296260Y151575D02*
Y163386D01*
X290354Y275591D02*
X302165D01*
X296260Y269685D02*
Y281496D01*
X429740Y154035D02*
X432890D01*
X431315Y152461D02*
Y155610D01*
X439740Y154035D02*
X442890D01*
X441315Y152461D02*
Y155610D01*
X429740Y174036D02*
X432890D01*
X431315Y172461D02*
Y175610D01*
X439740Y184036D02*
X442890D01*
X441315Y182461D02*
Y185610D01*
X429740Y184036D02*
X432890D01*
X431315Y182461D02*
Y185610D01*
X439740Y174036D02*
X442890D01*
X441315Y172461D02*
Y175610D01*
X439740Y164035D02*
X442890D01*
X441315Y162461D02*
Y165610D01*
X429740Y164035D02*
X432890D01*
X431315Y162461D02*
Y165610D01*
X267740Y246535D02*
X270890D01*
X269315Y244961D02*
Y248110D01*
X277740Y236536D02*
X280890D01*
X279315Y234961D02*
Y238110D01*
X277740Y246535D02*
X280890D01*
X279315Y244961D02*
Y248110D01*
X267740Y236536D02*
X270890D01*
X269315Y234961D02*
Y238110D01*
X257740Y236536D02*
X260890D01*
X259315Y234961D02*
Y238110D01*
X257740Y246535D02*
X260890D01*
X259315Y244961D02*
Y248110D01*
X257740Y226536D02*
X260890D01*
X259315Y224961D02*
Y228110D01*
X257740Y216535D02*
X260890D01*
X259315Y214961D02*
Y218110D01*
X267740Y216535D02*
X270890D01*
X269315Y214961D02*
Y218110D01*
X277740Y226536D02*
X280890D01*
X279315Y224961D02*
Y228110D01*
X277740Y216535D02*
X280890D01*
X279315Y214961D02*
Y218110D01*
X267740Y226536D02*
X270890D01*
X269315Y224961D02*
Y228110D01*
X257740Y196536D02*
X260890D01*
X259315Y194961D02*
Y198110D01*
X257740Y186536D02*
X260890D01*
X259315Y184961D02*
Y188110D01*
X267740Y186536D02*
X270890D01*
X269315Y184961D02*
Y188110D01*
X277740Y196536D02*
X280890D01*
X279315Y194961D02*
Y198110D01*
X277740Y186536D02*
X280890D01*
X279315Y184961D02*
Y188110D01*
X267740Y196536D02*
X270890D01*
X269315Y194961D02*
Y198110D01*
X267740Y206536D02*
X270890D01*
X269315Y204961D02*
Y208110D01*
X277740Y206536D02*
X280890D01*
X279315Y204961D02*
Y208110D01*
X257740Y206536D02*
X260890D01*
X259315Y204961D02*
Y208110D01*
X257740Y166535D02*
X260890D01*
X259315Y164961D02*
Y168110D01*
X257740Y156535D02*
X260890D01*
X259315Y154961D02*
Y158110D01*
X267740Y156535D02*
X270890D01*
X269315Y154961D02*
Y158110D01*
X277740Y166535D02*
X280890D01*
X279315Y164961D02*
Y168110D01*
X277740Y156535D02*
X280890D01*
X279315Y154961D02*
Y158110D01*
X267740Y166535D02*
X270890D01*
X269315Y164961D02*
Y168110D01*
X267740Y176535D02*
X270890D01*
X269315Y174961D02*
Y178110D01*
X277740Y176535D02*
X280890D01*
X279315Y174961D02*
Y178110D01*
X257740Y176535D02*
X260890D01*
X259315Y174961D02*
Y178110D01*
X257740Y276536D02*
X260890D01*
X259315Y274961D02*
Y278110D01*
X257740Y266535D02*
X260890D01*
X259315Y264961D02*
Y268110D01*
X267740Y266535D02*
X270890D01*
X269315Y264961D02*
Y268110D01*
X277740Y276536D02*
X280890D01*
X279315Y274961D02*
Y278110D01*
X277740Y266535D02*
X280890D01*
X279315Y264961D02*
Y268110D01*
X267740Y276536D02*
X270890D01*
X269315Y274961D02*
Y278110D01*
X439740Y269036D02*
X442890D01*
X441315Y267461D02*
Y270610D01*
X429740Y279035D02*
X432890D01*
X431315Y277461D02*
Y280610D01*
X439740Y279035D02*
X442890D01*
X441315Y277461D02*
Y280610D01*
X429740Y269036D02*
X432890D01*
X431315Y267461D02*
Y270610D01*
X384740Y252035D02*
X387890D01*
X386315Y250461D02*
Y253610D01*
X374740Y252035D02*
X377890D01*
X376315Y250461D02*
Y253610D01*
X364740Y252035D02*
X367890D01*
X366315Y250461D02*
Y253610D01*
X394740Y252035D02*
X397890D01*
X396315Y250461D02*
Y253610D01*
X440285Y242182D02*
X444222D01*
X442254Y240213D02*
Y244150D01*
X440285Y210686D02*
X444222D01*
X442254Y208717D02*
Y212654D01*
X340875Y266336D02*
X343075D01*
X341975Y265235D02*
Y267436D01*
X323355Y266336D02*
X325555D01*
X324455Y265235D02*
Y267436D01*
X348552Y279135D02*
X350752D01*
X349652Y278035D02*
Y280236D01*
X315678Y279135D02*
X317878D01*
X316778Y278035D02*
Y280236D01*
X387437Y150036D02*
X390193D01*
X388815Y148658D02*
Y151413D01*
X387438Y160036D02*
X390194D01*
X388816Y158658D02*
Y161413D01*
X387437Y150036D02*
X390193D01*
X388815Y148658D02*
Y151413D01*
X387436Y160036D02*
X390192D01*
X388814Y158658D02*
Y161413D01*
X330715Y217635D02*
X331915D01*
X331315Y217036D02*
Y218235D01*
X337315Y219436D02*
X338515D01*
X337915Y218835D02*
Y220036D01*
X339315Y221736D02*
X340515D01*
X339915Y221135D02*
Y222336D01*
X344015Y271135D02*
X345215D01*
X344615Y270535D02*
Y271736D01*
X346715Y241336D02*
X347915D01*
X347315Y240736D02*
Y241935D01*
X410715Y181135D02*
X411915D01*
X411315Y180535D02*
Y181736D01*
X372615Y170935D02*
X373815D01*
X373215Y170335D02*
Y171536D01*
X307115Y257635D02*
X308315D01*
X307715Y257035D02*
Y258236D01*
X340015Y274735D02*
X341215D01*
X340615Y274135D02*
Y275336D01*
X338715Y193835D02*
X339915D01*
X339315Y193236D02*
Y194436D01*
X334215Y184635D02*
X335415D01*
X334815Y184036D02*
Y185236D01*
X363115Y180436D02*
X364315D01*
X363715Y179835D02*
Y181035D01*
X345737Y195338D02*
X346937D01*
X346337Y194738D02*
Y195938D01*
X345737Y198638D02*
X346937D01*
X346337Y198038D02*
Y199238D01*
X329315Y234335D02*
X330515D01*
X329915Y233735D02*
Y234935D01*
X351615Y248936D02*
X352815D01*
X352215Y248336D02*
Y249535D01*
X353715Y255236D02*
X354915D01*
X354315Y254636D02*
Y255836D01*
X361415Y233735D02*
X362615D01*
X362015Y233136D02*
Y234335D01*
X378915Y227336D02*
X380115D01*
X379515Y226735D02*
Y227936D01*
X361415Y224135D02*
X362615D01*
X362015Y223535D02*
Y224735D01*
X378915Y236136D02*
X380115D01*
X379515Y235536D02*
Y236736D01*
X432415Y188336D02*
X433615D01*
X433015Y187735D02*
Y188935D01*
X445515Y153136D02*
X446715D01*
X446115Y152535D02*
Y153735D01*
X440915Y149735D02*
X442115D01*
X441515Y149135D02*
Y150336D01*
X445315Y158335D02*
X446515D01*
X445915Y157736D02*
Y158935D01*
X445315Y185336D02*
X446515D01*
X445915Y184736D02*
Y185935D01*
X327315Y243436D02*
X328515D01*
X327915Y242835D02*
Y244036D01*
X317515Y242535D02*
X318715D01*
X318115Y241935D02*
Y243135D01*
X317515Y234335D02*
X318715D01*
X318115Y233735D02*
Y234935D01*
X314415Y246435D02*
X315615D01*
X315015Y245835D02*
Y247036D01*
X287315Y252435D02*
X288515D01*
X287915Y251835D02*
Y253035D01*
X292315Y247036D02*
X293515D01*
X292915Y246435D02*
Y247636D01*
X283015Y266436D02*
X284215D01*
X283615Y265835D02*
Y267036D01*
X273715Y267835D02*
X274915D01*
X274315Y267235D02*
Y268436D01*
X273715Y278035D02*
X274915D01*
X274315Y277435D02*
Y278636D01*
X264115Y279035D02*
X265315D01*
X264715Y278435D02*
Y279636D01*
X413770Y252580D02*
X414970D01*
X414370Y251980D02*
Y253180D01*
X301215Y235136D02*
X302415D01*
X301815Y234536D02*
Y235736D01*
X307915Y201735D02*
X309115D01*
X308515Y201135D02*
Y202336D01*
X305015Y208836D02*
X306215D01*
X305615Y208236D02*
Y209436D01*
X317215Y206335D02*
X318415D01*
X317815Y205735D02*
Y206936D01*
X300015Y210436D02*
X301215D01*
X300615Y209836D02*
Y211035D01*
X291915Y212335D02*
X293115D01*
X292515Y211736D02*
Y212935D01*
X283715Y214136D02*
X284915D01*
X284315Y213535D02*
Y214736D01*
X288715Y220535D02*
X289915D01*
X289315Y219935D02*
Y221135D01*
X283915Y218736D02*
X285115D01*
X284515Y218135D02*
Y219336D01*
X331915Y241535D02*
X333115D01*
X332515Y240935D02*
Y242136D01*
X337615Y257236D02*
X338815D01*
X338215Y256635D02*
Y257836D01*
X330415Y262235D02*
X331615D01*
X331015Y261635D02*
Y262836D01*
X370415Y149636D02*
X371615D01*
X371015Y149036D02*
Y150235D01*
X397015Y195436D02*
X398215D01*
X397615Y194835D02*
Y196036D01*
X370615Y275036D02*
X371815D01*
X371215Y274435D02*
Y275636D01*
X351515Y241436D02*
X352715D01*
X352115Y240835D02*
Y242036D01*
X346615Y212136D02*
X347815D01*
X347215Y211536D02*
Y212736D01*
X343215Y244535D02*
X344415D01*
X343815Y243935D02*
Y245135D01*
X345115Y238635D02*
X346315D01*
X345715Y238035D02*
Y239235D01*
X349715Y236635D02*
X350915D01*
X350315Y236035D02*
Y237235D01*
X331815Y238436D02*
X333015D01*
X332415Y237836D02*
Y239036D01*
X332015Y232735D02*
X333215D01*
X332615Y232136D02*
Y233335D01*
X330315Y226336D02*
X331515D01*
X330915Y225735D02*
Y226936D01*
X304115Y255635D02*
X305315D01*
X304715Y255035D02*
Y256236D01*
X297715Y255635D02*
X298915D01*
X298315Y255035D02*
Y256236D01*
X291315Y255635D02*
X292515D01*
X291915Y255035D02*
Y256236D01*
X338215Y244135D02*
X339415D01*
X338815Y243535D02*
Y244736D01*
X333615Y244135D02*
X334815D01*
X334215Y243535D02*
Y244736D01*
X379815Y215335D02*
X381015D01*
X380415Y214736D02*
Y215935D01*
X335915Y246135D02*
X337115D01*
X336515Y245535D02*
Y246736D01*
X378015Y217935D02*
X379215D01*
X378615Y217336D02*
Y218535D01*
X361115Y230735D02*
X362315D01*
X361715Y230135D02*
Y231335D01*
X379815Y230735D02*
X381015D01*
X380415Y230135D02*
Y231335D01*
X335315Y217136D02*
X336515D01*
X335915Y216535D02*
Y217736D01*
X370698Y252418D02*
X371898D01*
X371298Y251818D02*
Y253018D01*
X363215Y244736D02*
X364415D01*
X363815Y244135D02*
Y245336D01*
X359815Y248735D02*
X361015D01*
X360415Y248135D02*
Y249336D01*
X367015Y157135D02*
X368215D01*
X367615Y156535D02*
Y157736D01*
X340515Y246135D02*
X341715D01*
X341115Y245535D02*
Y246736D01*
X319515Y221835D02*
X320715D01*
X320115Y221235D02*
Y222435D01*
X305315Y221936D02*
X306515D01*
X305915Y221336D02*
Y222535D01*
X321115Y212136D02*
X322315D01*
X321715Y211536D02*
Y212736D01*
X332515Y187636D02*
X333715D01*
X333115Y187036D02*
Y188235D01*
X335315Y228035D02*
X336515D01*
X335915Y227435D02*
Y228636D01*
X334615Y231035D02*
X335815D01*
X335215Y230435D02*
Y231635D01*
X327015Y246435D02*
X328215D01*
X327615Y245835D02*
Y247036D01*
X351515Y244535D02*
X352715D01*
X352115Y243935D02*
Y245135D01*
X324115Y212136D02*
X325315D01*
X324715Y211536D02*
Y212736D01*
X349715Y212136D02*
X350915D01*
X350315Y211536D02*
Y212736D01*
X391915Y235635D02*
X393115D01*
X392515Y235035D02*
Y236235D01*
X404715Y214335D02*
X405915D01*
X405315Y213736D02*
Y214935D01*
X406315Y218636D02*
X407515D01*
X406915Y218036D02*
Y219235D01*
X409515Y233635D02*
X410715D01*
X410115Y233035D02*
Y234236D01*
X407915Y230936D02*
X409115D01*
X408515Y230335D02*
Y231536D01*
X343637Y181038D02*
X344837D01*
X344237Y180438D02*
Y181638D01*
X349015Y200435D02*
X350215D01*
X349615Y199836D02*
Y201035D01*
X380415Y187536D02*
X381615D01*
X381015Y186935D02*
Y188136D01*
X450715Y254636D02*
X451915D01*
X451315Y254035D02*
Y255236D01*
X317215Y254536D02*
X318415D01*
X317815Y253936D02*
Y255135D01*
X311915Y251835D02*
X313115D01*
X312515Y251236D02*
Y252435D01*
X308915Y251435D02*
X310115D01*
X309515Y250835D02*
Y252035D01*
X392515Y239736D02*
X393715D01*
X393115Y239136D02*
Y240335D01*
X392515Y244136D02*
X393715D01*
X393115Y243536D02*
Y244736D01*
X319415Y247135D02*
X320615D01*
X320015Y246535D02*
Y247736D01*
X393115Y229636D02*
X394315D01*
X393715Y229035D02*
Y230236D01*
X376015Y247435D02*
X377215D01*
X376615Y246835D02*
Y248036D01*
X335915Y181635D02*
X337115D01*
X336515Y181035D02*
Y182236D01*
X331615Y223336D02*
X332815D01*
X332215Y222736D02*
Y223936D01*
X332315Y220336D02*
X333515D01*
X332915Y219736D02*
Y220936D01*
X337515Y178636D02*
X338715D01*
X338115Y178035D02*
Y179235D01*
X345737Y178838D02*
X346937D01*
X346337Y178238D02*
Y179438D01*
X335565Y275936D02*
X336765D01*
X336165Y275336D02*
Y276536D01*
X332215Y275936D02*
X333415D01*
X332815Y275336D02*
Y276536D01*
X396315Y162636D02*
X397515D01*
X396915Y162036D02*
Y163235D01*
X374615Y162636D02*
X375815D01*
X375215Y162036D02*
Y163235D01*
X435015Y167535D02*
X436215D01*
X435615Y166936D02*
Y168135D01*
X304015Y233635D02*
X305215D01*
X304615Y233035D02*
Y234236D01*
X304015Y236635D02*
X305215D01*
X304615Y236035D02*
Y237235D01*
X317215Y219835D02*
X318415D01*
X317815Y219235D02*
Y220436D01*
X321515Y272336D02*
X322715D01*
X322115Y271736D02*
Y272936D01*
X323215Y279035D02*
X324415D01*
X323815Y278435D02*
Y279636D01*
X322715Y218336D02*
X323915D01*
X323315Y217736D02*
Y218935D01*
X323415Y152136D02*
X324615D01*
X324015Y151535D02*
Y152735D01*
X338615Y183835D02*
X339815D01*
X339215Y183236D02*
Y184435D01*
X435015Y172135D02*
X436215D01*
X435615Y171536D02*
Y172736D01*
X440815Y168335D02*
X442015D01*
X441415Y167736D02*
Y168936D01*
X436115Y164535D02*
X437315D01*
X436715Y163935D02*
Y165136D01*
X436415Y185135D02*
X437615D01*
X437015Y184536D02*
Y185735D01*
X439015Y179736D02*
X440215D01*
X439615Y179136D02*
Y180335D01*
X426515Y180835D02*
X427715D01*
X427115Y180236D02*
Y181436D01*
X454015Y174036D02*
X455215D01*
X454615Y173435D02*
Y174636D01*
X407915Y221336D02*
X409115D01*
X408515Y220736D02*
Y221936D01*
X395115Y174935D02*
X396315D01*
X395715Y174336D02*
Y175536D01*
X390515Y175136D02*
X391715D01*
X391115Y174536D02*
Y175735D01*
X375015Y190636D02*
X376215D01*
X375615Y190035D02*
Y191235D01*
X348815Y181135D02*
X350015D01*
X349415Y180535D02*
Y181736D01*
X340815Y162935D02*
X342015D01*
X341415Y162336D02*
Y163535D01*
X347815Y156436D02*
X349015D01*
X348415Y155835D02*
Y157036D01*
X306115Y186135D02*
X307315D01*
X306715Y185536D02*
Y186735D01*
X292215Y182635D02*
X293415D01*
X292815Y182036D02*
Y183236D01*
X354415Y211235D02*
X355615D01*
X355015Y210635D02*
Y211836D01*
X364815Y212035D02*
X366015D01*
X365415Y211436D02*
Y212635D01*
X380915Y195935D02*
X382115D01*
X381515Y195335D02*
Y196536D01*
X334715Y260136D02*
X335915D01*
X335315Y259536D02*
Y260736D01*
X375115Y283236D02*
X376315D01*
X375715Y282635D02*
Y283836D01*
X401815Y279035D02*
X403015D01*
X402415Y278435D02*
Y279636D01*
X407815Y263535D02*
X409015D01*
X408415Y262935D02*
Y264136D01*
X363615Y270835D02*
X364815D01*
X364215Y270235D02*
Y271435D01*
X447215Y257936D02*
X448415D01*
X447815Y257335D02*
Y258536D01*
X325515Y181035D02*
X326715D01*
X326115Y180436D02*
Y181635D01*
X315115Y174536D02*
X316315D01*
X315715Y173935D02*
Y175136D01*
X322915Y173836D02*
X324115D01*
X323515Y173235D02*
Y174435D01*
X315115Y169536D02*
X316315D01*
X315715Y168936D02*
Y170135D01*
X316015Y165936D02*
X317215D01*
X316615Y165336D02*
Y166535D01*
X319015Y166636D02*
X320215D01*
X319615Y166035D02*
Y167236D01*
X307715Y154535D02*
X308915D01*
X308315Y153936D02*
Y155136D01*
X379815Y220336D02*
X381015D01*
X380415Y219736D02*
Y220936D01*
X358715Y177235D02*
X359915D01*
X359315Y176636D02*
Y177836D01*
X189961Y421260D02*
X201772D01*
X195866Y415354D02*
Y427165D01*
X189961Y303150D02*
X201772D01*
X195866Y297244D02*
Y309055D01*
X71851Y303150D02*
X83662D01*
X77756Y297244D02*
Y309055D01*
X71851Y421260D02*
X83662D01*
X77756Y415354D02*
Y427165D01*
X211236Y299705D02*
X214386D01*
X212811Y298130D02*
Y301280D01*
X221236Y299705D02*
X224386D01*
X222811Y298130D02*
Y301280D01*
X211236Y319705D02*
X214386D01*
X212811Y318130D02*
Y321280D01*
X221236Y329705D02*
X224386D01*
X222811Y328130D02*
Y331280D01*
X211236Y329705D02*
X214386D01*
X212811Y328130D02*
Y331280D01*
X221236Y319705D02*
X224386D01*
X222811Y318130D02*
Y321280D01*
X221236Y309705D02*
X224386D01*
X222811Y308130D02*
Y311280D01*
X211236Y309705D02*
X214386D01*
X212811Y308130D02*
Y311280D01*
X49236Y392205D02*
X52386D01*
X50811Y390630D02*
Y393780D01*
X59236Y382205D02*
X62386D01*
X60811Y380630D02*
Y383780D01*
X59236Y392205D02*
X62386D01*
X60811Y390630D02*
Y393780D01*
X49236Y382205D02*
X52386D01*
X50811Y380630D02*
Y383780D01*
X39236Y382205D02*
X42386D01*
X40811Y380630D02*
Y383780D01*
X39236Y392205D02*
X42386D01*
X40811Y390630D02*
Y393780D01*
X39236Y372205D02*
X42386D01*
X40811Y370630D02*
Y373780D01*
X39236Y362205D02*
X42386D01*
X40811Y360630D02*
Y363780D01*
X49236Y362205D02*
X52386D01*
X50811Y360630D02*
Y363780D01*
X59236Y372205D02*
X62386D01*
X60811Y370630D02*
Y373780D01*
X59236Y362205D02*
X62386D01*
X60811Y360630D02*
Y363780D01*
X49236Y372205D02*
X52386D01*
X50811Y370630D02*
Y373780D01*
X39236Y342205D02*
X42386D01*
X40811Y340630D02*
Y343780D01*
X39236Y332205D02*
X42386D01*
X40811Y330630D02*
Y333780D01*
X49236Y332205D02*
X52386D01*
X50811Y330630D02*
Y333780D01*
X59236Y342205D02*
X62386D01*
X60811Y340630D02*
Y343780D01*
X59236Y332205D02*
X62386D01*
X60811Y330630D02*
Y333780D01*
X49236Y342205D02*
X52386D01*
X50811Y340630D02*
Y343780D01*
X49236Y352205D02*
X52386D01*
X50811Y350630D02*
Y353780D01*
X59236Y352205D02*
X62386D01*
X60811Y350630D02*
Y353780D01*
X39236Y352205D02*
X42386D01*
X40811Y350630D02*
Y353780D01*
X39236Y312205D02*
X42386D01*
X40811Y310630D02*
Y313780D01*
X39236Y302205D02*
X42386D01*
X40811Y300630D02*
Y303780D01*
X49236Y302205D02*
X52386D01*
X50811Y300630D02*
Y303780D01*
X59236Y312205D02*
X62386D01*
X60811Y310630D02*
Y313780D01*
X59236Y302205D02*
X62386D01*
X60811Y300630D02*
Y303780D01*
X49236Y312205D02*
X52386D01*
X50811Y310630D02*
Y313780D01*
X49236Y322205D02*
X52386D01*
X50811Y320630D02*
Y323780D01*
X59236Y322205D02*
X62386D01*
X60811Y320630D02*
Y323780D01*
X39236Y322205D02*
X42386D01*
X40811Y320630D02*
Y323780D01*
X39236Y422205D02*
X42386D01*
X40811Y420630D02*
Y423780D01*
X39236Y412205D02*
X42386D01*
X40811Y410630D02*
Y413780D01*
X49236Y412205D02*
X52386D01*
X50811Y410630D02*
Y413780D01*
X59236Y422205D02*
X62386D01*
X60811Y420630D02*
Y423780D01*
X59236Y412205D02*
X62386D01*
X60811Y410630D02*
Y413780D01*
X49236Y422205D02*
X52386D01*
X50811Y420630D02*
Y423780D01*
X221236Y414705D02*
X224386D01*
X222811Y413130D02*
Y416280D01*
X211236Y424705D02*
X214386D01*
X212811Y423130D02*
Y426280D01*
X221236Y424705D02*
X224386D01*
X222811Y423130D02*
Y426280D01*
X211236Y414705D02*
X214386D01*
X212811Y413130D02*
Y416280D01*
X166236Y397705D02*
X169386D01*
X167811Y396130D02*
Y399280D01*
X156236Y397705D02*
X159386D01*
X157811Y396130D02*
Y399280D01*
X146236Y397705D02*
X149386D01*
X147811Y396130D02*
Y399280D01*
X176236Y397705D02*
X179386D01*
X177811Y396130D02*
Y399280D01*
X221781Y387851D02*
X225718D01*
X223750Y385883D02*
Y389820D01*
X221781Y356355D02*
X225718D01*
X223750Y354387D02*
Y358324D01*
X122371Y412005D02*
X124571D01*
X123471Y410905D02*
Y413105D01*
X104851Y412005D02*
X107051D01*
X105951Y410905D02*
Y413105D01*
X130048Y424805D02*
X132248D01*
X131148Y423705D02*
Y425905D01*
X97174Y424805D02*
X99374D01*
X98274Y423705D02*
Y425905D01*
X168933Y295705D02*
X171689D01*
X170311Y294327D02*
Y297083D01*
X168934Y305705D02*
X171690D01*
X170312Y304327D02*
Y307083D01*
X168933Y295705D02*
X171689D01*
X170311Y294327D02*
Y297083D01*
X168932Y305705D02*
X171688D01*
X170310Y304327D02*
Y307083D01*
X112211Y363305D02*
X113411D01*
X112811Y362705D02*
Y363905D01*
X118811Y365105D02*
X120011D01*
X119411Y364505D02*
Y365705D01*
X120811Y367405D02*
X122011D01*
X121411Y366805D02*
Y368005D01*
X125511Y416805D02*
X126711D01*
X126111Y416205D02*
Y417405D01*
X128211Y387005D02*
X129411D01*
X128811Y386405D02*
Y387605D01*
X192211Y326805D02*
X193411D01*
X192811Y326205D02*
Y327405D01*
X154111Y316605D02*
X155311D01*
X154711Y316005D02*
Y317205D01*
X88611Y403305D02*
X89811D01*
X89211Y402705D02*
Y403905D01*
X121511Y420405D02*
X122711D01*
X122111Y419805D02*
Y421005D01*
X120211Y339505D02*
X121411D01*
X120811Y338905D02*
Y340105D01*
X115711Y330305D02*
X116911D01*
X116311Y329705D02*
Y330905D01*
X144611Y326105D02*
X145811D01*
X145211Y325505D02*
Y326705D01*
X127233Y341007D02*
X128433D01*
X127833Y340407D02*
Y341607D01*
X127233Y344307D02*
X128433D01*
X127833Y343707D02*
Y344907D01*
X110811Y380005D02*
X112011D01*
X111411Y379405D02*
Y380605D01*
X133111Y394605D02*
X134311D01*
X133711Y394005D02*
Y395205D01*
X135211Y400905D02*
X136411D01*
X135811Y400305D02*
Y401505D01*
X142911Y379405D02*
X144111D01*
X143511Y378805D02*
Y380005D01*
X160411Y373005D02*
X161611D01*
X161011Y372405D02*
Y373605D01*
X142911Y369805D02*
X144111D01*
X143511Y369205D02*
Y370405D01*
X160411Y381805D02*
X161611D01*
X161011Y381205D02*
Y382405D01*
X213911Y334005D02*
X215111D01*
X214511Y333405D02*
Y334605D01*
X227011Y298805D02*
X228211D01*
X227611Y298205D02*
Y299405D01*
X222411Y295405D02*
X223611D01*
X223011Y294805D02*
Y296005D01*
X226811Y304005D02*
X228011D01*
X227411Y303405D02*
Y304605D01*
X226811Y331005D02*
X228011D01*
X227411Y330405D02*
Y331605D01*
X108811Y389105D02*
X110011D01*
X109411Y388505D02*
Y389705D01*
X99011Y388205D02*
X100211D01*
X99611Y387605D02*
Y388805D01*
X99011Y380005D02*
X100211D01*
X99611Y379405D02*
Y380605D01*
X95911Y392105D02*
X97111D01*
X96511Y391505D02*
Y392705D01*
X68811Y398105D02*
X70011D01*
X69411Y397505D02*
Y398705D01*
X73811Y392705D02*
X75011D01*
X74411Y392105D02*
Y393305D01*
X64511Y412105D02*
X65711D01*
X65111Y411505D02*
Y412705D01*
X55211Y413505D02*
X56411D01*
X55811Y412905D02*
Y414105D01*
X55211Y423705D02*
X56411D01*
X55811Y423105D02*
Y424305D01*
X45611Y424705D02*
X46811D01*
X46211Y424105D02*
Y425305D01*
X195266Y398250D02*
X196466D01*
X195866Y397650D02*
Y398850D01*
X82711Y380805D02*
X83911D01*
X83311Y380205D02*
Y381405D01*
X89411Y347405D02*
X90611D01*
X90011Y346805D02*
Y348005D01*
X86511Y354505D02*
X87711D01*
X87111Y353905D02*
Y355105D01*
X98711Y352005D02*
X99911D01*
X99311Y351405D02*
Y352605D01*
X81511Y356105D02*
X82711D01*
X82111Y355505D02*
Y356705D01*
X73411Y358005D02*
X74611D01*
X74011Y357405D02*
Y358605D01*
X65211Y359805D02*
X66411D01*
X65811Y359205D02*
Y360405D01*
X70211Y366205D02*
X71411D01*
X70811Y365605D02*
Y366805D01*
X65411Y364405D02*
X66611D01*
X66011Y363805D02*
Y365005D01*
X113411Y387205D02*
X114611D01*
X114011Y386605D02*
Y387805D01*
X119111Y402905D02*
X120311D01*
X119711Y402305D02*
Y403505D01*
X111911Y407905D02*
X113111D01*
X112511Y407305D02*
Y408505D01*
X151911Y295305D02*
X153111D01*
X152511Y294705D02*
Y295905D01*
X178511Y341105D02*
X179711D01*
X179111Y340505D02*
Y341705D01*
X152111Y420705D02*
X153311D01*
X152711Y420105D02*
Y421305D01*
X133011Y387105D02*
X134211D01*
X133611Y386505D02*
Y387705D01*
X128111Y357805D02*
X129311D01*
X128711Y357205D02*
Y358405D01*
X124711Y390205D02*
X125911D01*
X125311Y389605D02*
Y390805D01*
X126611Y384305D02*
X127811D01*
X127211Y383705D02*
Y384905D01*
X131211Y382305D02*
X132411D01*
X131811Y381705D02*
Y382905D01*
X113311Y384105D02*
X114511D01*
X113911Y383505D02*
Y384705D01*
X113511Y378405D02*
X114711D01*
X114111Y377805D02*
Y379005D01*
X111811Y372005D02*
X113011D01*
X112411Y371405D02*
Y372605D01*
X85611Y401305D02*
X86811D01*
X86211Y400705D02*
Y401905D01*
X79211Y401305D02*
X80411D01*
X79811Y400705D02*
Y401905D01*
X72811Y401305D02*
X74011D01*
X73411Y400705D02*
Y401905D01*
X119711Y389805D02*
X120911D01*
X120311Y389205D02*
Y390405D01*
X115111Y389805D02*
X116311D01*
X115711Y389205D02*
Y390405D01*
X161311Y361005D02*
X162511D01*
X161911Y360405D02*
Y361605D01*
X117411Y391805D02*
X118611D01*
X118011Y391205D02*
Y392405D01*
X159511Y363605D02*
X160711D01*
X160111Y363005D02*
Y364205D01*
X142611Y376405D02*
X143811D01*
X143211Y375805D02*
Y377005D01*
X161311Y376405D02*
X162511D01*
X161911Y375805D02*
Y377005D01*
X116811Y362805D02*
X118011D01*
X117411Y362205D02*
Y363405D01*
X152194Y398087D02*
X153394D01*
X152794Y397487D02*
Y398687D01*
X144711Y390405D02*
X145911D01*
X145311Y389805D02*
Y391005D01*
X141311Y394405D02*
X142511D01*
X141911Y393805D02*
Y395005D01*
X148511Y302805D02*
X149711D01*
X149111Y302205D02*
Y303405D01*
X122011Y391805D02*
X123211D01*
X122611Y391205D02*
Y392405D01*
X101011Y367505D02*
X102211D01*
X101611Y366905D02*
Y368105D01*
X86811Y367605D02*
X88011D01*
X87411Y367005D02*
Y368205D01*
X102611Y357805D02*
X103811D01*
X103211Y357205D02*
Y358405D01*
X114011Y333305D02*
X115211D01*
X114611Y332705D02*
Y333905D01*
X116811Y373705D02*
X118011D01*
X117411Y373105D02*
Y374305D01*
X116111Y376705D02*
X117311D01*
X116711Y376105D02*
Y377305D01*
X108511Y392105D02*
X109711D01*
X109111Y391505D02*
Y392705D01*
X133011Y390205D02*
X134211D01*
X133611Y389605D02*
Y390805D01*
X105611Y357805D02*
X106811D01*
X106211Y357205D02*
Y358405D01*
X131211Y357805D02*
X132411D01*
X131811Y357205D02*
Y358405D01*
X173411Y381305D02*
X174611D01*
X174011Y380705D02*
Y381905D01*
X186211Y360005D02*
X187411D01*
X186811Y359405D02*
Y360605D01*
X187811Y364305D02*
X189011D01*
X188411Y363705D02*
Y364905D01*
X191011Y379305D02*
X192211D01*
X191611Y378705D02*
Y379905D01*
X189411Y376605D02*
X190611D01*
X190011Y376005D02*
Y377205D01*
X125133Y326707D02*
X126333D01*
X125733Y326107D02*
Y327307D01*
X130511Y346105D02*
X131711D01*
X131111Y345505D02*
Y346705D01*
X161911Y333205D02*
X163111D01*
X162511Y332605D02*
Y333805D01*
X232211Y400305D02*
X233411D01*
X232811Y399705D02*
Y400905D01*
X98711Y400205D02*
X99911D01*
X99311Y399605D02*
Y400805D01*
X93411Y397505D02*
X94611D01*
X94011Y396905D02*
Y398105D01*
X90411Y397105D02*
X91611D01*
X91011Y396505D02*
Y397705D01*
X174011Y385405D02*
X175211D01*
X174611Y384805D02*
Y386005D01*
X174011Y389805D02*
X175211D01*
X174611Y389205D02*
Y390405D01*
X100911Y392805D02*
X102111D01*
X101511Y392205D02*
Y393405D01*
X174611Y375305D02*
X175811D01*
X175211Y374705D02*
Y375905D01*
X157511Y393105D02*
X158711D01*
X158111Y392505D02*
Y393705D01*
X117411Y327305D02*
X118611D01*
X118011Y326705D02*
Y327905D01*
X113111Y369005D02*
X114311D01*
X113711Y368405D02*
Y369605D01*
X113811Y366005D02*
X115011D01*
X114411Y365405D02*
Y366605D01*
X119011Y324305D02*
X120211D01*
X119611Y323705D02*
Y324905D01*
X127233Y324507D02*
X128433D01*
X127833Y323907D02*
Y325107D01*
X117061Y421605D02*
X118261D01*
X117661Y421005D02*
Y422205D01*
X113711Y421605D02*
X114911D01*
X114311Y421005D02*
Y422205D01*
X177811Y308305D02*
X179011D01*
X178411Y307705D02*
Y308905D01*
X156111Y308305D02*
X157311D01*
X156711Y307705D02*
Y308905D01*
X216511Y313205D02*
X217711D01*
X217111Y312605D02*
Y313805D01*
X85511Y379305D02*
X86711D01*
X86111Y378705D02*
Y379905D01*
X85511Y382305D02*
X86711D01*
X86111Y381705D02*
Y382905D01*
X98711Y365505D02*
X99911D01*
X99311Y364905D02*
Y366105D01*
X103011Y418005D02*
X104211D01*
X103611Y417405D02*
Y418605D01*
X104711Y424705D02*
X105911D01*
X105311Y424105D02*
Y425305D01*
X104211Y364005D02*
X105411D01*
X104811Y363405D02*
Y364605D01*
X104911Y297805D02*
X106111D01*
X105511Y297205D02*
Y298405D01*
X120111Y329505D02*
X121311D01*
X120711Y328905D02*
Y330105D01*
X216511Y317805D02*
X217711D01*
X217111Y317205D02*
Y318405D01*
X222311Y314005D02*
X223511D01*
X222911Y313405D02*
Y314605D01*
X217611Y310205D02*
X218811D01*
X218211Y309605D02*
Y310805D01*
X217911Y330805D02*
X219111D01*
X218511Y330205D02*
Y331405D01*
X220511Y325405D02*
X221711D01*
X221111Y324805D02*
Y326005D01*
X208011Y326505D02*
X209211D01*
X208611Y325905D02*
Y327105D01*
X235511Y319705D02*
X236711D01*
X236111Y319105D02*
Y320305D01*
X189411Y367005D02*
X190611D01*
X190011Y366405D02*
Y367605D01*
X176611Y320605D02*
X177811D01*
X177211Y320005D02*
Y321205D01*
X172011Y320805D02*
X173211D01*
X172611Y320205D02*
Y321405D01*
X156511Y336305D02*
X157711D01*
X157111Y335705D02*
Y336905D01*
X130311Y326805D02*
X131511D01*
X130911Y326205D02*
Y327405D01*
X122311Y308605D02*
X123511D01*
X122911Y308005D02*
Y309205D01*
X129311Y302105D02*
X130511D01*
X129911Y301505D02*
Y302705D01*
X87611Y331805D02*
X88811D01*
X88211Y331205D02*
Y332405D01*
X73711Y328305D02*
X74911D01*
X74311Y327705D02*
Y328905D01*
X135911Y356905D02*
X137111D01*
X136511Y356305D02*
Y357505D01*
X146311Y357705D02*
X147511D01*
X146911Y357105D02*
Y358305D01*
X162411Y341605D02*
X163611D01*
X163011Y341005D02*
Y342205D01*
X116211Y405805D02*
X117411D01*
X116811Y405205D02*
Y406405D01*
X156611Y428905D02*
X157811D01*
X157211Y428305D02*
Y429505D01*
X183311Y424705D02*
X184511D01*
X183911Y424105D02*
Y425305D01*
X189311Y409205D02*
X190511D01*
X189911Y408605D02*
Y409805D01*
X145111Y416505D02*
X146311D01*
X145711Y415905D02*
Y417105D01*
X228711Y403605D02*
X229911D01*
X229311Y403005D02*
Y404205D01*
X107011Y326705D02*
X108211D01*
X107611Y326105D02*
Y327305D01*
X96611Y320205D02*
X97811D01*
X97211Y319605D02*
Y320805D01*
X104411Y319505D02*
X105611D01*
X105011Y318905D02*
Y320105D01*
X96611Y315205D02*
X97811D01*
X97211Y314605D02*
Y315805D01*
X97511Y311605D02*
X98711D01*
X98111Y311005D02*
Y312205D01*
X100511Y312305D02*
X101711D01*
X101111Y311705D02*
Y312905D01*
X89211Y300205D02*
X90411D01*
X89811Y299605D02*
Y300805D01*
X161311Y366005D02*
X162511D01*
X161911Y365405D02*
Y366605D01*
X140211Y322905D02*
X141411D01*
X140811Y322305D02*
Y323505D01*
X408465Y421260D02*
X420276D01*
X414370Y415354D02*
Y427165D01*
X408465Y303150D02*
X420276D01*
X414370Y297244D02*
Y309055D01*
X290354Y303150D02*
X302165D01*
X296260Y297244D02*
Y309055D01*
X290354Y421260D02*
X302165D01*
X296260Y415354D02*
Y427165D01*
X429740Y299705D02*
X432890D01*
X431315Y298130D02*
Y301280D01*
X439740Y299705D02*
X442890D01*
X441315Y298130D02*
Y301280D01*
X429740Y319705D02*
X432890D01*
X431315Y318130D02*
Y321280D01*
X439740Y329705D02*
X442890D01*
X441315Y328130D02*
Y331280D01*
X429740Y329705D02*
X432890D01*
X431315Y328130D02*
Y331280D01*
X439740Y319705D02*
X442890D01*
X441315Y318130D02*
Y321280D01*
X439740Y309705D02*
X442890D01*
X441315Y308130D02*
Y311280D01*
X429740Y309705D02*
X432890D01*
X431315Y308130D02*
Y311280D01*
X267740Y392205D02*
X270890D01*
X269315Y390630D02*
Y393780D01*
X277740Y382205D02*
X280890D01*
X279315Y380630D02*
Y383780D01*
X277740Y392205D02*
X280890D01*
X279315Y390630D02*
Y393780D01*
X267740Y382205D02*
X270890D01*
X269315Y380630D02*
Y383780D01*
X257740Y382205D02*
X260890D01*
X259315Y380630D02*
Y383780D01*
X257740Y392205D02*
X260890D01*
X259315Y390630D02*
Y393780D01*
X257740Y372205D02*
X260890D01*
X259315Y370630D02*
Y373780D01*
X257740Y362205D02*
X260890D01*
X259315Y360630D02*
Y363780D01*
X267740Y362205D02*
X270890D01*
X269315Y360630D02*
Y363780D01*
X277740Y372205D02*
X280890D01*
X279315Y370630D02*
Y373780D01*
X277740Y362205D02*
X280890D01*
X279315Y360630D02*
Y363780D01*
X267740Y372205D02*
X270890D01*
X269315Y370630D02*
Y373780D01*
X257740Y342205D02*
X260890D01*
X259315Y340630D02*
Y343780D01*
X257740Y332205D02*
X260890D01*
X259315Y330630D02*
Y333780D01*
X267740Y332205D02*
X270890D01*
X269315Y330630D02*
Y333780D01*
X277740Y342205D02*
X280890D01*
X279315Y340630D02*
Y343780D01*
X277740Y332205D02*
X280890D01*
X279315Y330630D02*
Y333780D01*
X267740Y342205D02*
X270890D01*
X269315Y340630D02*
Y343780D01*
X267740Y352205D02*
X270890D01*
X269315Y350630D02*
Y353780D01*
X277740Y352205D02*
X280890D01*
X279315Y350630D02*
Y353780D01*
X257740Y352205D02*
X260890D01*
X259315Y350630D02*
Y353780D01*
X257740Y312205D02*
X260890D01*
X259315Y310630D02*
Y313780D01*
X257740Y302205D02*
X260890D01*
X259315Y300630D02*
Y303780D01*
X267740Y302205D02*
X270890D01*
X269315Y300630D02*
Y303780D01*
X277740Y312205D02*
X280890D01*
X279315Y310630D02*
Y313780D01*
X277740Y302205D02*
X280890D01*
X279315Y300630D02*
Y303780D01*
X267740Y312205D02*
X270890D01*
X269315Y310630D02*
Y313780D01*
X267740Y322205D02*
X270890D01*
X269315Y320630D02*
Y323780D01*
X277740Y322205D02*
X280890D01*
X279315Y320630D02*
Y323780D01*
X257740Y322205D02*
X260890D01*
X259315Y320630D02*
Y323780D01*
X257740Y422205D02*
X260890D01*
X259315Y420630D02*
Y423780D01*
X257740Y412205D02*
X260890D01*
X259315Y410630D02*
Y413780D01*
X267740Y412205D02*
X270890D01*
X269315Y410630D02*
Y413780D01*
X277740Y422205D02*
X280890D01*
X279315Y420630D02*
Y423780D01*
X277740Y412205D02*
X280890D01*
X279315Y410630D02*
Y413780D01*
X267740Y422205D02*
X270890D01*
X269315Y420630D02*
Y423780D01*
X439740Y414705D02*
X442890D01*
X441315Y413130D02*
Y416280D01*
X429740Y424705D02*
X432890D01*
X431315Y423130D02*
Y426280D01*
X439740Y424705D02*
X442890D01*
X441315Y423130D02*
Y426280D01*
X429740Y414705D02*
X432890D01*
X431315Y413130D02*
Y416280D01*
X384740Y397705D02*
X387890D01*
X386315Y396130D02*
Y399280D01*
X374740Y397705D02*
X377890D01*
X376315Y396130D02*
Y399280D01*
X364740Y397705D02*
X367890D01*
X366315Y396130D02*
Y399280D01*
X394740Y397705D02*
X397890D01*
X396315Y396130D02*
Y399280D01*
X440285Y387851D02*
X444222D01*
X442254Y385883D02*
Y389820D01*
X440285Y356355D02*
X444222D01*
X442254Y354387D02*
Y358324D01*
X340875Y412005D02*
X343075D01*
X341975Y410905D02*
Y413105D01*
X323355Y412005D02*
X325555D01*
X324455Y410905D02*
Y413105D01*
X348552Y424805D02*
X350752D01*
X349652Y423705D02*
Y425905D01*
X315678Y424805D02*
X317878D01*
X316778Y423705D02*
Y425905D01*
X387437Y295705D02*
X390193D01*
X388815Y294327D02*
Y297083D01*
X387438Y305705D02*
X390194D01*
X388816Y304327D02*
Y307083D01*
X387437Y295705D02*
X390193D01*
X388815Y294327D02*
Y297083D01*
X387436Y305705D02*
X390192D01*
X388814Y304327D02*
Y307083D01*
X330715Y363305D02*
X331915D01*
X331315Y362705D02*
Y363905D01*
X337315Y365105D02*
X338515D01*
X337915Y364505D02*
Y365705D01*
X339315Y367405D02*
X340515D01*
X339915Y366805D02*
Y368005D01*
X344015Y416805D02*
X345215D01*
X344615Y416205D02*
Y417405D01*
X346715Y387005D02*
X347915D01*
X347315Y386405D02*
Y387605D01*
X410715Y326805D02*
X411915D01*
X411315Y326205D02*
Y327405D01*
X372615Y316605D02*
X373815D01*
X373215Y316005D02*
Y317205D01*
X307115Y403305D02*
X308315D01*
X307715Y402705D02*
Y403905D01*
X340015Y420405D02*
X341215D01*
X340615Y419805D02*
Y421005D01*
X338715Y339505D02*
X339915D01*
X339315Y338905D02*
Y340105D01*
X334215Y330305D02*
X335415D01*
X334815Y329705D02*
Y330905D01*
X363115Y326105D02*
X364315D01*
X363715Y325505D02*
Y326705D01*
X345737Y341007D02*
X346937D01*
X346337Y340407D02*
Y341607D01*
X345737Y344307D02*
X346937D01*
X346337Y343707D02*
Y344907D01*
X329315Y380005D02*
X330515D01*
X329915Y379405D02*
Y380605D01*
X351615Y394605D02*
X352815D01*
X352215Y394005D02*
Y395205D01*
X353715Y400905D02*
X354915D01*
X354315Y400305D02*
Y401505D01*
X361415Y379405D02*
X362615D01*
X362015Y378805D02*
Y380005D01*
X378915Y373005D02*
X380115D01*
X379515Y372405D02*
Y373605D01*
X361415Y369805D02*
X362615D01*
X362015Y369205D02*
Y370405D01*
X378915Y381805D02*
X380115D01*
X379515Y381205D02*
Y382405D01*
X432415Y334005D02*
X433615D01*
X433015Y333405D02*
Y334605D01*
X445515Y298805D02*
X446715D01*
X446115Y298205D02*
Y299405D01*
X440915Y295405D02*
X442115D01*
X441515Y294805D02*
Y296005D01*
X445315Y304005D02*
X446515D01*
X445915Y303405D02*
Y304605D01*
X445315Y331005D02*
X446515D01*
X445915Y330405D02*
Y331605D01*
X327315Y389105D02*
X328515D01*
X327915Y388505D02*
Y389705D01*
X317515Y388205D02*
X318715D01*
X318115Y387605D02*
Y388805D01*
X317515Y380005D02*
X318715D01*
X318115Y379405D02*
Y380605D01*
X314415Y392105D02*
X315615D01*
X315015Y391505D02*
Y392705D01*
X287315Y398105D02*
X288515D01*
X287915Y397505D02*
Y398705D01*
X292315Y392705D02*
X293515D01*
X292915Y392105D02*
Y393305D01*
X283015Y412105D02*
X284215D01*
X283615Y411505D02*
Y412705D01*
X273715Y413505D02*
X274915D01*
X274315Y412905D02*
Y414105D01*
X273715Y423705D02*
X274915D01*
X274315Y423105D02*
Y424305D01*
X264115Y424705D02*
X265315D01*
X264715Y424105D02*
Y425305D01*
X413770Y398250D02*
X414970D01*
X414370Y397650D02*
Y398850D01*
X301215Y380805D02*
X302415D01*
X301815Y380205D02*
Y381405D01*
X307915Y347405D02*
X309115D01*
X308515Y346805D02*
Y348005D01*
X305015Y354505D02*
X306215D01*
X305615Y353905D02*
Y355105D01*
X317215Y352005D02*
X318415D01*
X317815Y351405D02*
Y352605D01*
X300015Y356105D02*
X301215D01*
X300615Y355505D02*
Y356705D01*
X291915Y358005D02*
X293115D01*
X292515Y357405D02*
Y358605D01*
X283715Y359805D02*
X284915D01*
X284315Y359205D02*
Y360405D01*
X288715Y366205D02*
X289915D01*
X289315Y365605D02*
Y366805D01*
X283915Y364405D02*
X285115D01*
X284515Y363805D02*
Y365005D01*
X331915Y387205D02*
X333115D01*
X332515Y386605D02*
Y387805D01*
X337615Y402905D02*
X338815D01*
X338215Y402305D02*
Y403505D01*
X330415Y407905D02*
X331615D01*
X331015Y407305D02*
Y408505D01*
X370415Y295305D02*
X371615D01*
X371015Y294705D02*
Y295905D01*
X397015Y341105D02*
X398215D01*
X397615Y340505D02*
Y341705D01*
X370615Y420705D02*
X371815D01*
X371215Y420105D02*
Y421305D01*
X351515Y387105D02*
X352715D01*
X352115Y386505D02*
Y387705D01*
X346615Y357805D02*
X347815D01*
X347215Y357205D02*
Y358405D01*
X343215Y390205D02*
X344415D01*
X343815Y389605D02*
Y390805D01*
X345115Y384305D02*
X346315D01*
X345715Y383705D02*
Y384905D01*
X349715Y382305D02*
X350915D01*
X350315Y381705D02*
Y382905D01*
X331815Y384105D02*
X333015D01*
X332415Y383505D02*
Y384705D01*
X332015Y378405D02*
X333215D01*
X332615Y377805D02*
Y379005D01*
X330315Y372005D02*
X331515D01*
X330915Y371405D02*
Y372605D01*
X304115Y401305D02*
X305315D01*
X304715Y400705D02*
Y401905D01*
X297715Y401305D02*
X298915D01*
X298315Y400705D02*
Y401905D01*
X291315Y401305D02*
X292515D01*
X291915Y400705D02*
Y401905D01*
X338215Y389805D02*
X339415D01*
X338815Y389205D02*
Y390405D01*
X333615Y389805D02*
X334815D01*
X334215Y389205D02*
Y390405D01*
X379815Y361005D02*
X381015D01*
X380415Y360405D02*
Y361605D01*
X335915Y391805D02*
X337115D01*
X336515Y391205D02*
Y392405D01*
X378015Y363605D02*
X379215D01*
X378615Y363005D02*
Y364205D01*
X361115Y376405D02*
X362315D01*
X361715Y375805D02*
Y377005D01*
X379815Y376405D02*
X381015D01*
X380415Y375805D02*
Y377005D01*
X335315Y362805D02*
X336515D01*
X335915Y362205D02*
Y363405D01*
X370698Y398087D02*
X371898D01*
X371298Y397487D02*
Y398687D01*
X363215Y390405D02*
X364415D01*
X363815Y389805D02*
Y391005D01*
X359815Y394405D02*
X361015D01*
X360415Y393805D02*
Y395005D01*
X367015Y302805D02*
X368215D01*
X367615Y302205D02*
Y303405D01*
X340515Y391805D02*
X341715D01*
X341115Y391205D02*
Y392405D01*
X319515Y367505D02*
X320715D01*
X320115Y366905D02*
Y368105D01*
X305315Y367605D02*
X306515D01*
X305915Y367005D02*
Y368205D01*
X321115Y357805D02*
X322315D01*
X321715Y357205D02*
Y358405D01*
X332515Y333305D02*
X333715D01*
X333115Y332705D02*
Y333905D01*
X335315Y373705D02*
X336515D01*
X335915Y373105D02*
Y374305D01*
X334615Y376705D02*
X335815D01*
X335215Y376105D02*
Y377305D01*
X327015Y392105D02*
X328215D01*
X327615Y391505D02*
Y392705D01*
X351515Y390205D02*
X352715D01*
X352115Y389605D02*
Y390805D01*
X324115Y357805D02*
X325315D01*
X324715Y357205D02*
Y358405D01*
X349715Y357805D02*
X350915D01*
X350315Y357205D02*
Y358405D01*
X391915Y381305D02*
X393115D01*
X392515Y380705D02*
Y381905D01*
X404715Y360005D02*
X405915D01*
X405315Y359405D02*
Y360605D01*
X406315Y364305D02*
X407515D01*
X406915Y363705D02*
Y364905D01*
X409515Y379305D02*
X410715D01*
X410115Y378705D02*
Y379905D01*
X407915Y376605D02*
X409115D01*
X408515Y376005D02*
Y377205D01*
X343637Y326707D02*
X344837D01*
X344237Y326107D02*
Y327307D01*
X349015Y346105D02*
X350215D01*
X349615Y345505D02*
Y346705D01*
X380415Y333205D02*
X381615D01*
X381015Y332605D02*
Y333805D01*
X450715Y400305D02*
X451915D01*
X451315Y399705D02*
Y400905D01*
X317215Y400205D02*
X318415D01*
X317815Y399605D02*
Y400805D01*
X311915Y397505D02*
X313115D01*
X312515Y396905D02*
Y398105D01*
X308915Y397105D02*
X310115D01*
X309515Y396505D02*
Y397705D01*
X392515Y385405D02*
X393715D01*
X393115Y384805D02*
Y386005D01*
X392515Y389805D02*
X393715D01*
X393115Y389205D02*
Y390405D01*
X319415Y392805D02*
X320615D01*
X320015Y392205D02*
Y393405D01*
X393115Y375305D02*
X394315D01*
X393715Y374705D02*
Y375905D01*
X376015Y393105D02*
X377215D01*
X376615Y392505D02*
Y393705D01*
X335915Y327305D02*
X337115D01*
X336515Y326705D02*
Y327905D01*
X331615Y369005D02*
X332815D01*
X332215Y368405D02*
Y369605D01*
X332315Y366005D02*
X333515D01*
X332915Y365405D02*
Y366605D01*
X337515Y324305D02*
X338715D01*
X338115Y323705D02*
Y324905D01*
X345737Y324507D02*
X346937D01*
X346337Y323907D02*
Y325107D01*
X335565Y421605D02*
X336765D01*
X336165Y421005D02*
Y422205D01*
X332215Y421605D02*
X333415D01*
X332815Y421005D02*
Y422205D01*
X396315Y308305D02*
X397515D01*
X396915Y307705D02*
Y308905D01*
X374615Y308305D02*
X375815D01*
X375215Y307705D02*
Y308905D01*
X435015Y313205D02*
X436215D01*
X435615Y312605D02*
Y313805D01*
X304015Y379305D02*
X305215D01*
X304615Y378705D02*
Y379905D01*
X304015Y382305D02*
X305215D01*
X304615Y381705D02*
Y382905D01*
X317215Y365505D02*
X318415D01*
X317815Y364905D02*
Y366105D01*
X321515Y418005D02*
X322715D01*
X322115Y417405D02*
Y418605D01*
X323215Y424705D02*
X324415D01*
X323815Y424105D02*
Y425305D01*
X322715Y364005D02*
X323915D01*
X323315Y363405D02*
Y364605D01*
X323415Y297805D02*
X324615D01*
X324015Y297205D02*
Y298405D01*
X338615Y329505D02*
X339815D01*
X339215Y328905D02*
Y330105D01*
X435015Y317805D02*
X436215D01*
X435615Y317205D02*
Y318405D01*
X440815Y314005D02*
X442015D01*
X441415Y313405D02*
Y314605D01*
X436115Y310205D02*
X437315D01*
X436715Y309605D02*
Y310805D01*
X436415Y330805D02*
X437615D01*
X437015Y330205D02*
Y331405D01*
X439015Y325405D02*
X440215D01*
X439615Y324805D02*
Y326005D01*
X426515Y326505D02*
X427715D01*
X427115Y325905D02*
Y327105D01*
X454015Y319705D02*
X455215D01*
X454615Y319105D02*
Y320305D01*
X407915Y367005D02*
X409115D01*
X408515Y366405D02*
Y367605D01*
X395115Y320605D02*
X396315D01*
X395715Y320005D02*
Y321205D01*
X390515Y320805D02*
X391715D01*
X391115Y320205D02*
Y321405D01*
X375015Y336305D02*
X376215D01*
X375615Y335705D02*
Y336905D01*
X348815Y326805D02*
X350015D01*
X349415Y326205D02*
Y327405D01*
X340815Y308605D02*
X342015D01*
X341415Y308005D02*
Y309205D01*
X347815Y302105D02*
X349015D01*
X348415Y301505D02*
Y302705D01*
X306115Y331805D02*
X307315D01*
X306715Y331205D02*
Y332405D01*
X292215Y328305D02*
X293415D01*
X292815Y327705D02*
Y328905D01*
X354415Y356905D02*
X355615D01*
X355015Y356305D02*
Y357505D01*
X364815Y357705D02*
X366015D01*
X365415Y357105D02*
Y358305D01*
X380915Y341605D02*
X382115D01*
X381515Y341005D02*
Y342205D01*
X334715Y405805D02*
X335915D01*
X335315Y405205D02*
Y406405D01*
X375115Y428905D02*
X376315D01*
X375715Y428305D02*
Y429505D01*
X401815Y424705D02*
X403015D01*
X402415Y424105D02*
Y425305D01*
X407815Y409205D02*
X409015D01*
X408415Y408605D02*
Y409805D01*
X363615Y416505D02*
X364815D01*
X364215Y415905D02*
Y417105D01*
X447215Y403605D02*
X448415D01*
X447815Y403005D02*
Y404205D01*
X325515Y326705D02*
X326715D01*
X326115Y326105D02*
Y327305D01*
X315115Y320205D02*
X316315D01*
X315715Y319605D02*
Y320805D01*
X322915Y319505D02*
X324115D01*
X323515Y318905D02*
Y320105D01*
X315115Y315205D02*
X316315D01*
X315715Y314605D02*
Y315805D01*
X316015Y311605D02*
X317215D01*
X316615Y311005D02*
Y312205D01*
X319015Y312305D02*
X320215D01*
X319615Y311705D02*
Y312905D01*
X307715Y300205D02*
X308915D01*
X308315Y299605D02*
Y300805D01*
X379815Y366005D02*
X381015D01*
X380415Y365405D02*
Y366605D01*
X358715Y322905D02*
X359915D01*
X359315Y322305D02*
Y323505D01*
M02*
