%FSLAX25Y25*%
%MOIN*%
G70*
G01*
G75*
G04 Layer_Color=8388736*
%ADD10R,0.05200X0.06000*%
%ADD11R,0.10000X0.03600*%
%ADD12C,0.02800*%
%ADD13R,0.04000X0.02800*%
%ADD14R,0.05400X0.04000*%
%ADD15C,0.04000*%
%ADD16R,0.06000X0.09600*%
%ADD17R,0.09000X0.07000*%
%ADD18R,0.03400X0.02800*%
%ADD19O,0.06496X0.01181*%
%ADD20O,0.01181X0.06496*%
%ADD21R,0.02756X0.00394*%
%ADD22R,0.05512X0.03150*%
%ADD23R,0.01575X0.06400*%
%ADD24R,0.07000X0.04000*%
%ADD25C,0.02400*%
%ADD26C,0.01000*%
%ADD27C,0.00600*%
%ADD28C,0.01400*%
%ADD29C,0.02000*%
%ADD30C,0.01200*%
%ADD31C,0.01600*%
%ADD32C,0.03000*%
%ADD33R,0.05000X0.05000*%
%ADD34R,0.05000X0.05000*%
%ADD35C,0.13780*%
%ADD36C,0.02756*%
%ADD37O,0.04000X0.07000*%
%ADD38O,0.04000X0.05000*%
%ADD39C,0.02400*%
%ADD40C,0.00400*%
%ADD41R,0.07200X0.08600*%
%ADD42R,0.01000X0.05000*%
%ADD43R,0.05600X0.04800*%
%ADD44R,0.06200X0.02800*%
%ADD45R,0.08600X0.04800*%
%ADD46R,0.05600X0.06200*%
%ADD47R,0.03600X0.04400*%
%ADD48R,0.04400X0.03600*%
%ADD49R,0.02800X0.03400*%
G04:AMPARAMS|DCode=50|XSize=37.4mil|YSize=94.49mil|CornerRadius=9.35mil|HoleSize=0mil|Usage=FLASHONLY|Rotation=270.000|XOffset=0mil|YOffset=0mil|HoleType=Round|Shape=RoundedRectangle|*
%AMROUNDEDRECTD50*
21,1,0.03740,0.07579,0,0,270.0*
21,1,0.01870,0.09449,0,0,270.0*
1,1,0.01870,-0.03789,-0.00935*
1,1,0.01870,-0.03789,0.00935*
1,1,0.01870,0.03789,0.00935*
1,1,0.01870,0.03789,-0.00935*
%
%ADD50ROUNDEDRECTD50*%
G04:AMPARAMS|DCode=51|XSize=157.48mil|YSize=94.49mil|CornerRadius=23.62mil|HoleSize=0mil|Usage=FLASHONLY|Rotation=270.000|XOffset=0mil|YOffset=0mil|HoleType=Round|Shape=RoundedRectangle|*
%AMROUNDEDRECTD51*
21,1,0.15748,0.04724,0,0,270.0*
21,1,0.11024,0.09449,0,0,270.0*
1,1,0.04724,-0.02362,-0.05512*
1,1,0.04724,-0.02362,0.05512*
1,1,0.04724,0.02362,0.05512*
1,1,0.04724,0.02362,-0.05512*
%
%ADD51ROUNDEDRECTD51*%
%ADD52C,0.04500*%
%ADD53C,0.03800*%
%ADD54C,0.03000*%
%ADD55C,0.01900*%
%ADD56C,0.02362*%
%ADD57C,0.00800*%
%ADD58C,0.00787*%
%ADD59C,0.00022*%
%ADD60C,0.00500*%
%ADD61R,0.08500X0.02200*%
%ADD62R,0.03400X0.00600*%
%ADD63R,0.05400X0.06200*%
%ADD64R,0.10200X0.03800*%
%ADD65R,0.04200X0.03000*%
%ADD66R,0.05600X0.04200*%
%ADD67R,0.06200X0.09800*%
%ADD68R,0.03600X0.03000*%
%ADD69R,0.02956X0.00594*%
%ADD70R,0.05712X0.03350*%
%ADD71R,0.01775X0.06600*%
G36*
X115978Y1848D02*
Y298D01*
X111778D01*
Y3298D01*
X114528D01*
X115978Y1848D01*
D02*
G37*
G36*
X65978Y298D02*
X61778D01*
Y1848D01*
X63228Y3298D01*
X65978Y3298D01*
Y298D01*
D02*
G37*
G36*
X61078Y5448D02*
X59628Y3998D01*
X55478D01*
Y8198D01*
X61078D01*
Y5448D01*
D02*
G37*
G36*
X95715Y134998D02*
Y127998D01*
X92278Y127998D01*
X89278Y130998D01*
Y134998D01*
X95715Y134998D01*
D02*
G37*
G36*
X69278Y130998D02*
X66278Y127998D01*
X62841Y127998D01*
Y134998D01*
X69278Y134998D01*
Y130998D01*
D02*
G37*
D12*
X113878Y1798D02*
D03*
X63878D02*
D03*
D15*
X58278Y6098D02*
D03*
D17*
X42478Y93298D02*
D03*
Y77098D02*
D03*
D19*
X59129Y96361D02*
D03*
Y94393D02*
D03*
Y92424D02*
D03*
Y90456D02*
D03*
Y88487D02*
D03*
Y86519D02*
D03*
Y84550D02*
D03*
Y82582D02*
D03*
Y80613D02*
D03*
Y78645D02*
D03*
Y76676D02*
D03*
Y74708D02*
D03*
Y72739D02*
D03*
Y70771D02*
D03*
Y68802D02*
D03*
Y66834D02*
D03*
X103027D02*
D03*
Y68802D02*
D03*
Y70771D02*
D03*
Y72739D02*
D03*
Y74708D02*
D03*
Y76676D02*
D03*
Y78645D02*
D03*
Y80613D02*
D03*
Y82582D02*
D03*
Y84550D02*
D03*
Y86519D02*
D03*
Y88487D02*
D03*
Y90456D02*
D03*
Y92424D02*
D03*
Y94393D02*
D03*
Y96361D02*
D03*
D20*
X66314Y59649D02*
D03*
X68283D02*
D03*
X70251D02*
D03*
X72220D02*
D03*
X74188D02*
D03*
X76157D02*
D03*
X78125D02*
D03*
X80094D02*
D03*
X82062D02*
D03*
X84031D02*
D03*
X85999D02*
D03*
X87968D02*
D03*
X89936D02*
D03*
X91905D02*
D03*
X93873D02*
D03*
X95842D02*
D03*
Y103547D02*
D03*
X93873D02*
D03*
X91905D02*
D03*
X89936D02*
D03*
X87968D02*
D03*
X85999D02*
D03*
X84031D02*
D03*
X82062D02*
D03*
X80094D02*
D03*
X78125D02*
D03*
X76157D02*
D03*
X74188D02*
D03*
X72220D02*
D03*
X70251D02*
D03*
X68283D02*
D03*
X66314D02*
D03*
D24*
X83778Y132998D02*
D03*
X74778D02*
D03*
D32*
X188317Y94544D02*
D03*
Y63048D02*
D03*
D33*
X142378Y104398D02*
D03*
X112378D02*
D03*
X122378D02*
D03*
X132378D02*
D03*
X15378Y128898D02*
D03*
X25378Y118898D02*
D03*
Y128898D02*
D03*
X15378Y118898D02*
D03*
X5378D02*
D03*
X5378Y128898D02*
D03*
Y28898D02*
D03*
X25378D02*
D03*
X15378D02*
D03*
Y18898D02*
D03*
X25378Y8898D02*
D03*
Y18898D02*
D03*
X15378Y8898D02*
D03*
X5378D02*
D03*
X5378Y18898D02*
D03*
Y58898D02*
D03*
X25378D02*
D03*
X15378D02*
D03*
Y48898D02*
D03*
X25378Y38898D02*
D03*
Y48898D02*
D03*
X15378Y38898D02*
D03*
X5378D02*
D03*
X5378Y48898D02*
D03*
X15378Y78898D02*
D03*
X25378Y68898D02*
D03*
Y78898D02*
D03*
X15378Y68898D02*
D03*
X5378D02*
D03*
X5378Y78898D02*
D03*
Y98898D02*
D03*
X5378Y88898D02*
D03*
X15378D02*
D03*
X25378Y98898D02*
D03*
Y88898D02*
D03*
X15378Y98898D02*
D03*
D34*
X177378Y121398D02*
D03*
X187378Y131398D02*
D03*
X177378D02*
D03*
X187378Y121398D02*
D03*
X177378Y16398D02*
D03*
X187378D02*
D03*
Y26398D02*
D03*
X177378Y36398D02*
D03*
X187378D02*
D03*
X177378Y26398D02*
D03*
X187378Y6398D02*
D03*
X177378D02*
D03*
D35*
X42323Y127953D02*
D03*
Y9843D02*
D03*
X160433D02*
D03*
Y127953D02*
D03*
D36*
X134878Y2398D02*
D03*
X134879Y12398D02*
D03*
X134878Y2398D02*
D03*
X134877Y12398D02*
D03*
D37*
X62841Y131498D02*
D03*
X95715D02*
D03*
D38*
X70518Y119698D02*
D03*
X88038D02*
D03*
D63*
X180178Y46598D02*
D03*
X193678Y96598D02*
D03*
D64*
X132678Y88358D02*
D03*
Y83358D02*
D03*
Y78357D02*
D03*
Y73357D02*
D03*
Y68357D02*
D03*
Y63358D02*
D03*
Y58358D02*
D03*
Y53357D02*
D03*
D65*
X108878Y1798D02*
D03*
X103878D02*
D03*
X98878D02*
D03*
X93878D02*
D03*
X88878D02*
D03*
X83878D02*
D03*
X68878D02*
D03*
X78878D02*
D03*
X73878D02*
D03*
D66*
X58278Y46098D02*
D03*
Y41098D02*
D03*
Y36098D02*
D03*
Y31098D02*
D03*
Y26098D02*
D03*
Y21098D02*
D03*
Y16098D02*
D03*
Y11098D02*
D03*
D67*
X177178Y107398D02*
D03*
X187578D02*
D03*
D68*
X52878Y46798D02*
D03*
Y40398D02*
D03*
X197378Y110798D02*
D03*
Y104398D02*
D03*
X37478Y104198D02*
D03*
Y110598D02*
D03*
X43878Y104198D02*
D03*
Y110598D02*
D03*
X50278D02*
D03*
Y104198D02*
D03*
D69*
X143978Y798D02*
D03*
D70*
X124878Y3188D02*
D03*
X144878D02*
D03*
X124878Y11607D02*
D03*
X144878D02*
D03*
D71*
X84396Y120498D02*
D03*
X81837D02*
D03*
X79278Y120498D02*
D03*
X76719Y120498D02*
D03*
X74160D02*
D03*
M02*
