%FSLAX25Y25*%
%MOIN*%
G70*
G01*
G75*
G04 Layer_Color=8388736*
%ADD10C,0.04000*%
%ADD11C,0.04000*%
%ADD12R,0.04000X0.02800*%
%ADD13R,0.05400X0.04000*%
%ADD14C,0.02800*%
%ADD15O,0.01181X0.06496*%
%ADD16O,0.06496X0.01181*%
%ADD17R,0.09000X0.07000*%
%ADD18R,0.10000X0.03600*%
%ADD19R,0.05200X0.06000*%
%ADD20R,0.06000X0.09600*%
%ADD21R,0.03400X0.02800*%
%ADD22R,0.07000X0.04000*%
%ADD23R,0.01575X0.06400*%
%ADD24R,0.05512X0.03150*%
%ADD25C,0.01000*%
%ADD26C,0.02400*%
%ADD27C,0.02000*%
%ADD28C,0.01400*%
%ADD29C,0.01200*%
%ADD30C,0.01600*%
%ADD31C,0.00600*%
%ADD32C,0.13780*%
%ADD33R,0.05000X0.05000*%
%ADD34R,0.05000X0.05000*%
%ADD35C,0.03000*%
%ADD36O,0.04000X0.05000*%
%ADD37O,0.04000X0.07000*%
%ADD38C,0.02756*%
%ADD39C,0.02400*%
G04:AMPARAMS|DCode=40|XSize=157.48mil|YSize=94.49mil|CornerRadius=23.62mil|HoleSize=0mil|Usage=FLASHONLY|Rotation=270.000|XOffset=0mil|YOffset=0mil|HoleType=Round|Shape=RoundedRectangle|*
%AMROUNDEDRECTD40*
21,1,0.15748,0.04724,0,0,270.0*
21,1,0.11024,0.09449,0,0,270.0*
1,1,0.04724,-0.02362,-0.05512*
1,1,0.04724,-0.02362,0.05512*
1,1,0.04724,0.02362,0.05512*
1,1,0.04724,0.02362,-0.05512*
%
%ADD40ROUNDEDRECTD40*%
G04:AMPARAMS|DCode=41|XSize=37.4mil|YSize=94.49mil|CornerRadius=9.35mil|HoleSize=0mil|Usage=FLASHONLY|Rotation=270.000|XOffset=0mil|YOffset=0mil|HoleType=Round|Shape=RoundedRectangle|*
%AMROUNDEDRECTD41*
21,1,0.03740,0.07579,0,0,270.0*
21,1,0.01870,0.09449,0,0,270.0*
1,1,0.01870,-0.03789,-0.00935*
1,1,0.01870,-0.03789,0.00935*
1,1,0.01870,0.03789,0.00935*
1,1,0.01870,0.03789,-0.00935*
%
%ADD41ROUNDEDRECTD41*%
%ADD42R,0.01000X0.05000*%
%ADD43R,0.07200X0.08600*%
%ADD44R,0.02800X0.03400*%
%ADD45R,0.04400X0.03600*%
%ADD46R,0.03600X0.04400*%
%ADD47R,0.05600X0.04800*%
%ADD48R,0.06200X0.02800*%
%ADD49R,0.08600X0.04800*%
%ADD50R,0.05600X0.06200*%
%ADD51C,0.03000*%
%ADD52C,0.01900*%
%ADD53C,0.03800*%
%ADD54C,0.04500*%
%ADD55C,0.00022*%
%ADD56C,0.00787*%
%ADD57C,0.00800*%
%ADD58C,0.00500*%
%ADD59R,0.08500X0.02200*%
%ADD60R,0.03400X0.00600*%
%ADD61C,0.05000*%
%ADD62R,0.04200X0.03000*%
%ADD63R,0.05600X0.04200*%
%ADD64R,0.10200X0.03800*%
%ADD65R,0.05400X0.06200*%
G36*
X151411Y3816D02*
Y2266D01*
X147211D01*
Y5266D01*
X149961D01*
X151411Y3816D01*
D02*
G37*
G36*
X101411Y2266D02*
X97211D01*
Y3816D01*
X98661Y5266D01*
X101411Y5266D01*
Y2266D01*
D02*
G37*
G36*
X96511Y7416D02*
X95061Y5966D01*
X90911D01*
Y10166D01*
X96511D01*
Y7416D01*
D02*
G37*
G36*
X131148Y136966D02*
Y129966D01*
X127711Y129966D01*
X124711Y132966D01*
Y136966D01*
X131148Y136966D01*
D02*
G37*
G36*
X104711Y132966D02*
X101711Y129966D01*
X98274Y129966D01*
Y136966D01*
X104711Y136966D01*
Y132966D01*
D02*
G37*
G36*
X369915Y3816D02*
Y2266D01*
X365715D01*
Y5266D01*
X368465D01*
X369915Y3816D01*
D02*
G37*
G36*
X319915Y2266D02*
X315715D01*
Y3816D01*
X317165Y5266D01*
X319915Y5266D01*
Y2266D01*
D02*
G37*
G36*
X315015Y7416D02*
X313565Y5966D01*
X309415D01*
Y10166D01*
X315015D01*
Y7416D01*
D02*
G37*
G36*
X349652Y136966D02*
Y129966D01*
X346215Y129966D01*
X343215Y132966D01*
Y136966D01*
X349652Y136966D01*
D02*
G37*
G36*
X323215Y132966D02*
X320215Y129966D01*
X316778Y129966D01*
Y136966D01*
X323215Y136966D01*
Y132966D01*
D02*
G37*
G36*
X151411Y149486D02*
Y147935D01*
X147211D01*
Y150935D01*
X149961D01*
X151411Y149486D01*
D02*
G37*
G36*
X101411Y147935D02*
X97211D01*
Y149486D01*
X98661Y150935D01*
X101411Y150935D01*
Y147935D01*
D02*
G37*
G36*
X96511Y153085D02*
X95061Y151636D01*
X90911D01*
Y155835D01*
X96511D01*
Y153085D01*
D02*
G37*
G36*
X131148Y282635D02*
Y275636D01*
X127711Y275636D01*
X124711Y278636D01*
Y282635D01*
X131148Y282635D01*
D02*
G37*
G36*
X104711Y278636D02*
X101711Y275636D01*
X98274Y275636D01*
Y282635D01*
X104711Y282635D01*
Y278636D01*
D02*
G37*
G36*
X369915Y149486D02*
Y147935D01*
X365715D01*
Y150935D01*
X368465D01*
X369915Y149486D01*
D02*
G37*
G36*
X319915Y147935D02*
X315715D01*
Y149486D01*
X317165Y150935D01*
X319915Y150935D01*
Y147935D01*
D02*
G37*
G36*
X315015Y153085D02*
X313565Y151636D01*
X309415D01*
Y155835D01*
X315015D01*
Y153085D01*
D02*
G37*
G36*
X349652Y282635D02*
Y275636D01*
X346215Y275636D01*
X343215Y278636D01*
Y282635D01*
X349652Y282635D01*
D02*
G37*
G36*
X323215Y278636D02*
X320215Y275636D01*
X316778Y275636D01*
Y282635D01*
X323215Y282635D01*
Y278636D01*
D02*
G37*
G36*
X151411Y295155D02*
Y293605D01*
X147211D01*
Y296605D01*
X149961D01*
X151411Y295155D01*
D02*
G37*
G36*
X101411Y293605D02*
X97211D01*
Y295155D01*
X98661Y296605D01*
X101411Y296605D01*
Y293605D01*
D02*
G37*
G36*
X96511Y298755D02*
X95061Y297305D01*
X90911D01*
Y301505D01*
X96511D01*
Y298755D01*
D02*
G37*
G36*
X131148Y428305D02*
Y421305D01*
X127711Y421305D01*
X124711Y424305D01*
Y428305D01*
X131148Y428305D01*
D02*
G37*
G36*
X104711Y424305D02*
X101711Y421305D01*
X98274Y421305D01*
Y428305D01*
X104711Y428305D01*
Y424305D01*
D02*
G37*
G36*
X369915Y295155D02*
Y293605D01*
X365715D01*
Y296605D01*
X368465D01*
X369915Y295155D01*
D02*
G37*
G36*
X319915Y293605D02*
X315715D01*
Y295155D01*
X317165Y296605D01*
X319915Y296605D01*
Y293605D01*
D02*
G37*
G36*
X315015Y298755D02*
X313565Y297305D01*
X309415D01*
Y301505D01*
X315015D01*
Y298755D01*
D02*
G37*
G36*
X349652Y428305D02*
Y421305D01*
X346215Y421305D01*
X343215Y424305D01*
Y428305D01*
X349652Y428305D01*
D02*
G37*
G36*
X323215Y424305D02*
X320215Y421305D01*
X316778Y421305D01*
Y428305D01*
X323215Y428305D01*
Y424305D01*
D02*
G37*
D11*
X93711Y8066D02*
D03*
X312215D02*
D03*
X93711Y153735D02*
D03*
X312215D02*
D03*
X93711Y299405D02*
D03*
X312215D02*
D03*
D14*
X99311Y3766D02*
D03*
X149311D02*
D03*
X317815D02*
D03*
X367815D02*
D03*
X99311Y149435D02*
D03*
X149311D02*
D03*
X317815D02*
D03*
X367815D02*
D03*
X99311Y295105D02*
D03*
X149311D02*
D03*
X317815D02*
D03*
X367815D02*
D03*
D15*
X101747Y105515D02*
D03*
X103716D02*
D03*
X105684D02*
D03*
X107653D02*
D03*
X109621D02*
D03*
X111590D02*
D03*
X113558D02*
D03*
X115527D02*
D03*
X117495D02*
D03*
X119464D02*
D03*
X121432D02*
D03*
X123401D02*
D03*
X125369D02*
D03*
X127338D02*
D03*
X129306D02*
D03*
X131275D02*
D03*
Y61617D02*
D03*
X129306D02*
D03*
X127338D02*
D03*
X125369D02*
D03*
X123401D02*
D03*
X121432D02*
D03*
X119464D02*
D03*
X117495D02*
D03*
X115527D02*
D03*
X113558D02*
D03*
X111590D02*
D03*
X109621D02*
D03*
X107653D02*
D03*
X105684D02*
D03*
X103716D02*
D03*
X101747D02*
D03*
X320251Y105515D02*
D03*
X322220D02*
D03*
X324188D02*
D03*
X326157D02*
D03*
X328125D02*
D03*
X330094D02*
D03*
X332062D02*
D03*
X334031D02*
D03*
X335999D02*
D03*
X337968D02*
D03*
X339936D02*
D03*
X341905D02*
D03*
X343873D02*
D03*
X345842D02*
D03*
X347810D02*
D03*
X349779D02*
D03*
Y61617D02*
D03*
X347810D02*
D03*
X345842D02*
D03*
X343873D02*
D03*
X341905D02*
D03*
X339936D02*
D03*
X337968D02*
D03*
X335999D02*
D03*
X334031D02*
D03*
X332062D02*
D03*
X330094D02*
D03*
X328125D02*
D03*
X326157D02*
D03*
X324188D02*
D03*
X322220D02*
D03*
X320251D02*
D03*
X101747Y251184D02*
D03*
X103716D02*
D03*
X105684D02*
D03*
X107653D02*
D03*
X109621D02*
D03*
X111590D02*
D03*
X113558D02*
D03*
X115527D02*
D03*
X117495D02*
D03*
X119464D02*
D03*
X121432D02*
D03*
X123401D02*
D03*
X125369D02*
D03*
X127338D02*
D03*
X129306D02*
D03*
X131275D02*
D03*
Y207287D02*
D03*
X129306D02*
D03*
X127338D02*
D03*
X125369D02*
D03*
X123401D02*
D03*
X121432D02*
D03*
X119464D02*
D03*
X117495D02*
D03*
X115527D02*
D03*
X113558D02*
D03*
X111590D02*
D03*
X109621D02*
D03*
X107653D02*
D03*
X105684D02*
D03*
X103716D02*
D03*
X101747D02*
D03*
X320251Y251184D02*
D03*
X322220D02*
D03*
X324188D02*
D03*
X326157D02*
D03*
X328125D02*
D03*
X330094D02*
D03*
X332062D02*
D03*
X334031D02*
D03*
X335999D02*
D03*
X337968D02*
D03*
X339936D02*
D03*
X341905D02*
D03*
X343873D02*
D03*
X345842D02*
D03*
X347810D02*
D03*
X349779D02*
D03*
Y207287D02*
D03*
X347810D02*
D03*
X345842D02*
D03*
X343873D02*
D03*
X341905D02*
D03*
X339936D02*
D03*
X337968D02*
D03*
X335999D02*
D03*
X334031D02*
D03*
X332062D02*
D03*
X330094D02*
D03*
X328125D02*
D03*
X326157D02*
D03*
X324188D02*
D03*
X322220D02*
D03*
X320251D02*
D03*
X101747Y396854D02*
D03*
X103716D02*
D03*
X105684D02*
D03*
X107653D02*
D03*
X109621D02*
D03*
X111590D02*
D03*
X113558D02*
D03*
X115527D02*
D03*
X117495D02*
D03*
X119464D02*
D03*
X121432D02*
D03*
X123401D02*
D03*
X125369D02*
D03*
X127338D02*
D03*
X129306D02*
D03*
X131275D02*
D03*
Y352956D02*
D03*
X129306D02*
D03*
X127338D02*
D03*
X125369D02*
D03*
X123401D02*
D03*
X121432D02*
D03*
X119464D02*
D03*
X117495D02*
D03*
X115527D02*
D03*
X113558D02*
D03*
X111590D02*
D03*
X109621D02*
D03*
X107653D02*
D03*
X105684D02*
D03*
X103716D02*
D03*
X101747D02*
D03*
X320251Y396854D02*
D03*
X322220D02*
D03*
X324188D02*
D03*
X326157D02*
D03*
X328125D02*
D03*
X330094D02*
D03*
X332062D02*
D03*
X334031D02*
D03*
X335999D02*
D03*
X337968D02*
D03*
X339936D02*
D03*
X341905D02*
D03*
X343873D02*
D03*
X345842D02*
D03*
X347810D02*
D03*
X349779D02*
D03*
Y352956D02*
D03*
X347810D02*
D03*
X345842D02*
D03*
X343873D02*
D03*
X341905D02*
D03*
X339936D02*
D03*
X337968D02*
D03*
X335999D02*
D03*
X334031D02*
D03*
X332062D02*
D03*
X330094D02*
D03*
X328125D02*
D03*
X326157D02*
D03*
X324188D02*
D03*
X322220D02*
D03*
X320251D02*
D03*
D16*
X138460Y98330D02*
D03*
Y96362D02*
D03*
Y94393D02*
D03*
Y92424D02*
D03*
Y90456D02*
D03*
Y88487D02*
D03*
Y86519D02*
D03*
Y84550D02*
D03*
Y82582D02*
D03*
Y80613D02*
D03*
Y78645D02*
D03*
Y76676D02*
D03*
Y74708D02*
D03*
Y72739D02*
D03*
Y70771D02*
D03*
Y68802D02*
D03*
X94562D02*
D03*
Y70771D02*
D03*
Y72739D02*
D03*
Y74708D02*
D03*
Y76676D02*
D03*
Y78645D02*
D03*
Y80613D02*
D03*
Y82582D02*
D03*
Y84550D02*
D03*
Y86519D02*
D03*
Y88487D02*
D03*
Y90456D02*
D03*
Y92424D02*
D03*
Y94393D02*
D03*
Y96362D02*
D03*
Y98330D02*
D03*
X356964D02*
D03*
Y96362D02*
D03*
Y94393D02*
D03*
Y92424D02*
D03*
Y90456D02*
D03*
Y88487D02*
D03*
Y86519D02*
D03*
Y84550D02*
D03*
Y82582D02*
D03*
Y80613D02*
D03*
Y78645D02*
D03*
Y76676D02*
D03*
Y74708D02*
D03*
Y72739D02*
D03*
Y70771D02*
D03*
Y68802D02*
D03*
X313066D02*
D03*
Y70771D02*
D03*
Y72739D02*
D03*
Y74708D02*
D03*
Y76676D02*
D03*
Y78645D02*
D03*
Y80613D02*
D03*
Y82582D02*
D03*
Y84550D02*
D03*
Y86519D02*
D03*
Y88487D02*
D03*
Y90456D02*
D03*
Y92424D02*
D03*
Y94393D02*
D03*
Y96362D02*
D03*
Y98330D02*
D03*
X138460Y243999D02*
D03*
Y242031D02*
D03*
Y240062D02*
D03*
Y238094D02*
D03*
Y236125D02*
D03*
Y234157D02*
D03*
Y232188D02*
D03*
Y230220D02*
D03*
Y228251D02*
D03*
Y226283D02*
D03*
Y224314D02*
D03*
Y222346D02*
D03*
Y220377D02*
D03*
Y218409D02*
D03*
Y216440D02*
D03*
Y214472D02*
D03*
X94562D02*
D03*
Y216440D02*
D03*
Y218409D02*
D03*
Y220377D02*
D03*
Y222346D02*
D03*
Y224314D02*
D03*
Y226283D02*
D03*
Y228251D02*
D03*
Y230220D02*
D03*
Y232188D02*
D03*
Y234157D02*
D03*
Y236125D02*
D03*
Y238094D02*
D03*
Y240062D02*
D03*
Y242031D02*
D03*
Y243999D02*
D03*
X356964D02*
D03*
Y242031D02*
D03*
Y240062D02*
D03*
Y238094D02*
D03*
Y236125D02*
D03*
Y234157D02*
D03*
Y232188D02*
D03*
Y230220D02*
D03*
Y228251D02*
D03*
Y226283D02*
D03*
Y224314D02*
D03*
Y222346D02*
D03*
Y220377D02*
D03*
Y218409D02*
D03*
Y216440D02*
D03*
Y214472D02*
D03*
X313066D02*
D03*
Y216440D02*
D03*
Y218409D02*
D03*
Y220377D02*
D03*
Y222346D02*
D03*
Y224314D02*
D03*
Y226283D02*
D03*
Y228251D02*
D03*
Y230220D02*
D03*
Y232188D02*
D03*
Y234157D02*
D03*
Y236125D02*
D03*
Y238094D02*
D03*
Y240062D02*
D03*
Y242031D02*
D03*
Y243999D02*
D03*
X138460Y389669D02*
D03*
Y387700D02*
D03*
Y385732D02*
D03*
Y383763D02*
D03*
Y381795D02*
D03*
Y379826D02*
D03*
Y377857D02*
D03*
Y375889D02*
D03*
Y373920D02*
D03*
Y371952D02*
D03*
Y369984D02*
D03*
Y368015D02*
D03*
Y366047D02*
D03*
Y364078D02*
D03*
Y362109D02*
D03*
Y360141D02*
D03*
X94562D02*
D03*
Y362109D02*
D03*
Y364078D02*
D03*
Y366047D02*
D03*
Y368015D02*
D03*
Y369984D02*
D03*
Y371952D02*
D03*
Y373920D02*
D03*
Y375889D02*
D03*
Y377857D02*
D03*
Y379826D02*
D03*
Y381795D02*
D03*
Y383763D02*
D03*
Y385732D02*
D03*
Y387700D02*
D03*
Y389669D02*
D03*
X356964D02*
D03*
Y387700D02*
D03*
Y385732D02*
D03*
Y383763D02*
D03*
Y381795D02*
D03*
Y379826D02*
D03*
Y377857D02*
D03*
Y375889D02*
D03*
Y373920D02*
D03*
Y371952D02*
D03*
Y369984D02*
D03*
Y368015D02*
D03*
Y366047D02*
D03*
Y364078D02*
D03*
Y362109D02*
D03*
Y360141D02*
D03*
X313066D02*
D03*
Y362109D02*
D03*
Y364078D02*
D03*
Y366047D02*
D03*
Y368015D02*
D03*
Y369984D02*
D03*
Y371952D02*
D03*
Y373920D02*
D03*
Y375889D02*
D03*
Y377857D02*
D03*
Y379826D02*
D03*
Y381795D02*
D03*
Y383763D02*
D03*
Y385732D02*
D03*
Y387700D02*
D03*
Y389669D02*
D03*
D17*
X77911Y79066D02*
D03*
Y95266D02*
D03*
X296415Y79066D02*
D03*
Y95266D02*
D03*
X77911Y224735D02*
D03*
Y240935D02*
D03*
X296415Y224735D02*
D03*
Y240935D02*
D03*
X77911Y370405D02*
D03*
Y386605D02*
D03*
X296415Y370405D02*
D03*
Y386605D02*
D03*
D20*
X212611Y109366D02*
D03*
X223011D02*
D03*
X431115D02*
D03*
X441515D02*
D03*
X212611Y255035D02*
D03*
X223011D02*
D03*
X431115D02*
D03*
X441515D02*
D03*
X212611Y400705D02*
D03*
X223011D02*
D03*
X431115D02*
D03*
X441515D02*
D03*
D21*
X88311Y42366D02*
D03*
Y48766D02*
D03*
X232811Y112766D02*
D03*
Y106366D02*
D03*
X72911Y106166D02*
D03*
Y112566D02*
D03*
X79311D02*
D03*
Y106166D02*
D03*
X85711D02*
D03*
Y112566D02*
D03*
X306815Y42366D02*
D03*
Y48766D02*
D03*
X451315Y112766D02*
D03*
Y106366D02*
D03*
X291415Y106166D02*
D03*
Y112566D02*
D03*
X297815D02*
D03*
Y106166D02*
D03*
X304215D02*
D03*
Y112566D02*
D03*
X88311Y188036D02*
D03*
Y194436D02*
D03*
X232811Y258436D02*
D03*
Y252035D02*
D03*
X72911Y251835D02*
D03*
Y258236D02*
D03*
X79311D02*
D03*
Y251835D02*
D03*
X85711D02*
D03*
Y258236D02*
D03*
X306815Y188036D02*
D03*
Y194436D02*
D03*
X451315Y258436D02*
D03*
Y252035D02*
D03*
X291415Y251835D02*
D03*
Y258236D02*
D03*
X297815D02*
D03*
Y251835D02*
D03*
X304215D02*
D03*
Y258236D02*
D03*
X88311Y333705D02*
D03*
Y340105D02*
D03*
X232811Y404105D02*
D03*
Y397705D02*
D03*
X72911Y397505D02*
D03*
Y403905D02*
D03*
X79311D02*
D03*
Y397505D02*
D03*
X85711D02*
D03*
Y403905D02*
D03*
X306815Y333705D02*
D03*
Y340105D02*
D03*
X451315Y404105D02*
D03*
Y397705D02*
D03*
X291415Y397505D02*
D03*
Y403905D02*
D03*
X297815D02*
D03*
Y397505D02*
D03*
X304215D02*
D03*
Y403905D02*
D03*
D22*
X110211Y134966D02*
D03*
X119211D02*
D03*
X328715D02*
D03*
X337715D02*
D03*
X110211Y280635D02*
D03*
X119211D02*
D03*
X328715D02*
D03*
X337715D02*
D03*
X110211Y426305D02*
D03*
X119211D02*
D03*
X328715D02*
D03*
X337715D02*
D03*
D23*
X109593Y120966D02*
D03*
X112152D02*
D03*
X114711Y120966D02*
D03*
X117270Y120966D02*
D03*
X119829D02*
D03*
X328097D02*
D03*
X330656D02*
D03*
X333215Y120966D02*
D03*
X335774Y120966D02*
D03*
X338333D02*
D03*
X109593Y266635D02*
D03*
X112152D02*
D03*
X114711Y266635D02*
D03*
X117270Y266635D02*
D03*
X119829D02*
D03*
X328097D02*
D03*
X330656D02*
D03*
X333215Y266635D02*
D03*
X335774Y266635D02*
D03*
X338333D02*
D03*
X109593Y412305D02*
D03*
X112152D02*
D03*
X114711Y412305D02*
D03*
X117270Y412305D02*
D03*
X119829D02*
D03*
X328097D02*
D03*
X330656D02*
D03*
X333215Y412305D02*
D03*
X335774Y412305D02*
D03*
X338333D02*
D03*
D24*
X160311Y5157D02*
D03*
X180311D02*
D03*
X160311Y13576D02*
D03*
X180311D02*
D03*
X378815Y5157D02*
D03*
X398815D02*
D03*
X378815Y13576D02*
D03*
X398815D02*
D03*
X160311Y150826D02*
D03*
X180311D02*
D03*
X160311Y159245D02*
D03*
X180311D02*
D03*
X378815Y150826D02*
D03*
X398815D02*
D03*
X378815Y159245D02*
D03*
X398815D02*
D03*
X160311Y296495D02*
D03*
X180311D02*
D03*
X160311Y304914D02*
D03*
X180311D02*
D03*
X378815Y296495D02*
D03*
X398815D02*
D03*
X378815Y304914D02*
D03*
X398815D02*
D03*
D32*
X13780Y419291D02*
D03*
Y13780D02*
D03*
X478347Y13780D02*
D03*
X478346Y419291D02*
D03*
X195866Y129921D02*
D03*
Y11811D02*
D03*
X77756D02*
D03*
Y129921D02*
D03*
X414370D02*
D03*
Y11811D02*
D03*
X296260D02*
D03*
Y129921D02*
D03*
X195866Y275591D02*
D03*
Y157480D02*
D03*
X77756D02*
D03*
Y275591D02*
D03*
X414370D02*
D03*
Y157480D02*
D03*
X296260D02*
D03*
Y275591D02*
D03*
X195866Y421260D02*
D03*
Y303150D02*
D03*
X77756D02*
D03*
Y421260D02*
D03*
X414370D02*
D03*
Y303150D02*
D03*
X296260D02*
D03*
Y421260D02*
D03*
D33*
X212811Y8366D02*
D03*
X222811D02*
D03*
X212811Y28366D02*
D03*
X222811Y38366D02*
D03*
X212811D02*
D03*
X222811Y28366D02*
D03*
Y18366D02*
D03*
X212811D02*
D03*
X222811Y123366D02*
D03*
X212811Y133366D02*
D03*
X222811D02*
D03*
X212811Y123366D02*
D03*
X431315Y8366D02*
D03*
X441315D02*
D03*
X431315Y28366D02*
D03*
X441315Y38366D02*
D03*
X431315D02*
D03*
X441315Y28366D02*
D03*
Y18366D02*
D03*
X431315D02*
D03*
X441315Y123366D02*
D03*
X431315Y133366D02*
D03*
X441315D02*
D03*
X431315Y123366D02*
D03*
X212811Y154035D02*
D03*
X222811D02*
D03*
X212811Y174036D02*
D03*
X222811Y184036D02*
D03*
X212811D02*
D03*
X222811Y174036D02*
D03*
Y164035D02*
D03*
X212811D02*
D03*
X222811Y269036D02*
D03*
X212811Y279035D02*
D03*
X222811D02*
D03*
X212811Y269036D02*
D03*
X431315Y154035D02*
D03*
X441315D02*
D03*
X431315Y174036D02*
D03*
X441315Y184036D02*
D03*
X431315D02*
D03*
X441315Y174036D02*
D03*
Y164035D02*
D03*
X431315D02*
D03*
X441315Y269036D02*
D03*
X431315Y279035D02*
D03*
X441315D02*
D03*
X431315Y269036D02*
D03*
X212811Y299705D02*
D03*
X222811D02*
D03*
X212811Y319705D02*
D03*
X222811Y329705D02*
D03*
X212811D02*
D03*
X222811Y319705D02*
D03*
Y309705D02*
D03*
X212811D02*
D03*
X222811Y414705D02*
D03*
X212811Y424705D02*
D03*
X222811D02*
D03*
X212811Y414705D02*
D03*
X431315Y299705D02*
D03*
X441315D02*
D03*
X431315Y319705D02*
D03*
X441315Y329705D02*
D03*
X431315D02*
D03*
X441315Y319705D02*
D03*
Y309705D02*
D03*
X431315D02*
D03*
X441315Y414705D02*
D03*
X431315Y424705D02*
D03*
X441315D02*
D03*
X431315Y414705D02*
D03*
D34*
X50811Y100866D02*
D03*
X60811Y90866D02*
D03*
Y100866D02*
D03*
X50811Y90866D02*
D03*
X40811D02*
D03*
X40811Y100866D02*
D03*
Y80866D02*
D03*
X40811Y70866D02*
D03*
X50811D02*
D03*
X60811Y80866D02*
D03*
Y70866D02*
D03*
X50811Y80866D02*
D03*
X40811Y50866D02*
D03*
X40811Y40866D02*
D03*
X50811D02*
D03*
X60811Y50866D02*
D03*
Y40866D02*
D03*
X50811Y50866D02*
D03*
Y60866D02*
D03*
X60811D02*
D03*
X40811D02*
D03*
Y20866D02*
D03*
X40811Y10866D02*
D03*
X50811D02*
D03*
X60811Y20866D02*
D03*
Y10866D02*
D03*
X50811Y20866D02*
D03*
Y30866D02*
D03*
X60811D02*
D03*
X40811D02*
D03*
Y130866D02*
D03*
X40811Y120866D02*
D03*
X50811D02*
D03*
X60811Y130866D02*
D03*
Y120866D02*
D03*
X50811Y130866D02*
D03*
X167811Y106366D02*
D03*
X157811D02*
D03*
X147811D02*
D03*
X177811D02*
D03*
X269315Y100866D02*
D03*
X279315Y90866D02*
D03*
Y100866D02*
D03*
X269315Y90866D02*
D03*
X259315D02*
D03*
X259315Y100866D02*
D03*
Y80866D02*
D03*
X259315Y70866D02*
D03*
X269315D02*
D03*
X279315Y80866D02*
D03*
Y70866D02*
D03*
X269315Y80866D02*
D03*
X259315Y50866D02*
D03*
X259315Y40866D02*
D03*
X269315D02*
D03*
X279315Y50866D02*
D03*
Y40866D02*
D03*
X269315Y50866D02*
D03*
Y60866D02*
D03*
X279315D02*
D03*
X259315D02*
D03*
Y20866D02*
D03*
X259315Y10866D02*
D03*
X269315D02*
D03*
X279315Y20866D02*
D03*
Y10866D02*
D03*
X269315Y20866D02*
D03*
Y30866D02*
D03*
X279315D02*
D03*
X259315D02*
D03*
Y130866D02*
D03*
X259315Y120866D02*
D03*
X269315D02*
D03*
X279315Y130866D02*
D03*
Y120866D02*
D03*
X269315Y130866D02*
D03*
X386315Y106366D02*
D03*
X376315D02*
D03*
X366315D02*
D03*
X396315D02*
D03*
X50811Y246535D02*
D03*
X60811Y236536D02*
D03*
Y246535D02*
D03*
X50811Y236536D02*
D03*
X40811D02*
D03*
X40811Y246535D02*
D03*
Y226536D02*
D03*
X40811Y216535D02*
D03*
X50811D02*
D03*
X60811Y226536D02*
D03*
Y216535D02*
D03*
X50811Y226536D02*
D03*
X40811Y196536D02*
D03*
X40811Y186536D02*
D03*
X50811D02*
D03*
X60811Y196536D02*
D03*
Y186536D02*
D03*
X50811Y196536D02*
D03*
Y206536D02*
D03*
X60811D02*
D03*
X40811D02*
D03*
Y166535D02*
D03*
X40811Y156535D02*
D03*
X50811D02*
D03*
X60811Y166535D02*
D03*
Y156535D02*
D03*
X50811Y166535D02*
D03*
Y176535D02*
D03*
X60811D02*
D03*
X40811D02*
D03*
Y276536D02*
D03*
X40811Y266535D02*
D03*
X50811D02*
D03*
X60811Y276536D02*
D03*
Y266535D02*
D03*
X50811Y276536D02*
D03*
X167811Y252035D02*
D03*
X157811D02*
D03*
X147811D02*
D03*
X177811D02*
D03*
X269315Y246535D02*
D03*
X279315Y236536D02*
D03*
Y246535D02*
D03*
X269315Y236536D02*
D03*
X259315D02*
D03*
X259315Y246535D02*
D03*
Y226536D02*
D03*
X259315Y216535D02*
D03*
X269315D02*
D03*
X279315Y226536D02*
D03*
Y216535D02*
D03*
X269315Y226536D02*
D03*
X259315Y196536D02*
D03*
X259315Y186536D02*
D03*
X269315D02*
D03*
X279315Y196536D02*
D03*
Y186536D02*
D03*
X269315Y196536D02*
D03*
Y206536D02*
D03*
X279315D02*
D03*
X259315D02*
D03*
Y166535D02*
D03*
X259315Y156535D02*
D03*
X269315D02*
D03*
X279315Y166535D02*
D03*
Y156535D02*
D03*
X269315Y166535D02*
D03*
Y176535D02*
D03*
X279315D02*
D03*
X259315D02*
D03*
Y276536D02*
D03*
X259315Y266535D02*
D03*
X269315D02*
D03*
X279315Y276536D02*
D03*
Y266535D02*
D03*
X269315Y276536D02*
D03*
X386315Y252035D02*
D03*
X376315D02*
D03*
X366315D02*
D03*
X396315D02*
D03*
X50811Y392205D02*
D03*
X60811Y382205D02*
D03*
Y392205D02*
D03*
X50811Y382205D02*
D03*
X40811D02*
D03*
X40811Y392205D02*
D03*
Y372205D02*
D03*
X40811Y362205D02*
D03*
X50811D02*
D03*
X60811Y372205D02*
D03*
Y362205D02*
D03*
X50811Y372205D02*
D03*
X40811Y342205D02*
D03*
X40811Y332205D02*
D03*
X50811D02*
D03*
X60811Y342205D02*
D03*
Y332205D02*
D03*
X50811Y342205D02*
D03*
Y352205D02*
D03*
X60811D02*
D03*
X40811D02*
D03*
Y312205D02*
D03*
X40811Y302205D02*
D03*
X50811D02*
D03*
X60811Y312205D02*
D03*
Y302205D02*
D03*
X50811Y312205D02*
D03*
Y322205D02*
D03*
X60811D02*
D03*
X40811D02*
D03*
Y422205D02*
D03*
X40811Y412205D02*
D03*
X50811D02*
D03*
X60811Y422205D02*
D03*
Y412205D02*
D03*
X50811Y422205D02*
D03*
X167811Y397705D02*
D03*
X157811D02*
D03*
X147811D02*
D03*
X177811D02*
D03*
X269315Y392205D02*
D03*
X279315Y382205D02*
D03*
Y392205D02*
D03*
X269315Y382205D02*
D03*
X259315D02*
D03*
X259315Y392205D02*
D03*
Y372205D02*
D03*
X259315Y362205D02*
D03*
X269315D02*
D03*
X279315Y372205D02*
D03*
Y362205D02*
D03*
X269315Y372205D02*
D03*
X259315Y342205D02*
D03*
X259315Y332205D02*
D03*
X269315D02*
D03*
X279315Y342205D02*
D03*
Y332205D02*
D03*
X269315Y342205D02*
D03*
Y352205D02*
D03*
X279315D02*
D03*
X259315D02*
D03*
Y312205D02*
D03*
X259315Y302205D02*
D03*
X269315D02*
D03*
X279315Y312205D02*
D03*
Y302205D02*
D03*
X269315Y312205D02*
D03*
Y322205D02*
D03*
X279315D02*
D03*
X259315D02*
D03*
Y422205D02*
D03*
X259315Y412205D02*
D03*
X269315D02*
D03*
X279315Y422205D02*
D03*
Y412205D02*
D03*
X269315Y422205D02*
D03*
X386315Y397705D02*
D03*
X376315D02*
D03*
X366315D02*
D03*
X396315D02*
D03*
D35*
X223750Y96513D02*
D03*
Y65017D02*
D03*
X442254Y96513D02*
D03*
Y65017D02*
D03*
X223750Y242182D02*
D03*
Y210686D02*
D03*
X442254Y242182D02*
D03*
Y210686D02*
D03*
X223750Y387851D02*
D03*
Y356355D02*
D03*
X442254Y387851D02*
D03*
Y356355D02*
D03*
D36*
X123471Y120666D02*
D03*
X105951D02*
D03*
X341975D02*
D03*
X324455D02*
D03*
X123471Y266336D02*
D03*
X105951D02*
D03*
X341975D02*
D03*
X324455D02*
D03*
X123471Y412005D02*
D03*
X105951D02*
D03*
X341975D02*
D03*
X324455D02*
D03*
D37*
X131148Y133466D02*
D03*
X98274D02*
D03*
X349652D02*
D03*
X316778D02*
D03*
X131148Y279135D02*
D03*
X98274D02*
D03*
X349652D02*
D03*
X316778D02*
D03*
X131148Y424805D02*
D03*
X98274D02*
D03*
X349652D02*
D03*
X316778D02*
D03*
D38*
X170311Y4366D02*
D03*
X170312Y14366D02*
D03*
X170311Y4366D02*
D03*
X170310Y14366D02*
D03*
X388815Y4366D02*
D03*
X388816Y14366D02*
D03*
X388815Y4366D02*
D03*
X388814Y14366D02*
D03*
X170311Y150036D02*
D03*
X170312Y160036D02*
D03*
X170311Y150036D02*
D03*
X170310Y160036D02*
D03*
X388815Y150036D02*
D03*
X388816Y160036D02*
D03*
X388815Y150036D02*
D03*
X388814Y160036D02*
D03*
X170311Y295705D02*
D03*
X170312Y305705D02*
D03*
X170311Y295705D02*
D03*
X170310Y305705D02*
D03*
X388815Y295705D02*
D03*
X388816Y305705D02*
D03*
X388815Y295705D02*
D03*
X388814Y305705D02*
D03*
D61*
X466007Y336000D02*
X486000D01*
X476003D01*
Y349329D01*
X466007D01*
X486000D01*
Y359326D02*
Y365990D01*
X482668Y369323D01*
X476003D01*
X472671Y365990D01*
Y359326D01*
X476003Y355994D01*
X482668D01*
X486000Y359326D01*
Y375987D02*
X472671D01*
Y379319D01*
X476003Y382652D01*
X486000D01*
X476003D01*
X472671Y385984D01*
X476003Y389316D01*
X486000D01*
X20168Y45829D02*
X6839D01*
X3506Y42497D01*
Y35832D01*
X6839Y32500D01*
X20168D01*
X23500Y35832D01*
Y42497D01*
X16836Y39165D02*
X23500Y45829D01*
Y42497D02*
X20168Y45829D01*
X6839Y65823D02*
X3506Y62490D01*
Y55826D01*
X6839Y52494D01*
X20168D01*
X23500Y55826D01*
Y62490D01*
X20168Y65823D01*
X23500Y75819D02*
Y82484D01*
X20168Y85816D01*
X13503D01*
X10171Y82484D01*
Y75819D01*
X13503Y72487D01*
X20168D01*
X23500Y75819D01*
X30165Y92481D02*
X10171D01*
Y102477D01*
X13503Y105810D01*
X20168D01*
X23500Y102477D01*
Y92481D01*
X6839Y115806D02*
X10171D01*
Y112474D01*
Y119139D01*
Y115806D01*
X20168D01*
X23500Y119139D01*
Y139132D02*
Y132468D01*
X20168Y129135D01*
X13503D01*
X10171Y132468D01*
Y139132D01*
X13503Y142464D01*
X16836D01*
Y129135D01*
X10171Y149129D02*
X23500D01*
X16836D01*
X13503Y152461D01*
X10171Y155793D01*
Y159126D01*
X3506Y182451D02*
Y169123D01*
X13503D01*
Y175787D01*
Y169123D01*
X23500D01*
Y189116D02*
Y195781D01*
Y192448D01*
X3506D01*
Y189116D01*
X23500Y205777D02*
Y212442D01*
Y209110D01*
X10171D01*
Y205777D01*
X30165Y229103D02*
Y232435D01*
X26832Y235768D01*
X10171D01*
Y225771D01*
X13503Y222439D01*
X20168D01*
X23500Y225771D01*
Y235768D01*
X3506Y242432D02*
X23500D01*
X13503D01*
X10171Y245764D01*
Y252429D01*
X13503Y255761D01*
X23500D01*
X6839Y265758D02*
X10171D01*
Y262426D01*
Y269090D01*
Y265758D01*
X20168D01*
X23500Y269090D01*
X6839Y292416D02*
X3506Y289084D01*
Y282419D01*
X6839Y279087D01*
X20168D01*
X23500Y282419D01*
Y289084D01*
X20168Y292416D01*
X23500Y302413D02*
Y309077D01*
X20168Y312409D01*
X13503D01*
X10171Y309077D01*
Y302413D01*
X13503Y299080D01*
X20168D01*
X23500Y302413D01*
Y319074D02*
X10171D01*
Y329071D01*
X13503Y332403D01*
X23500D01*
X6839Y342400D02*
X10171D01*
Y339068D01*
Y345732D01*
Y342400D01*
X20168D01*
X23500Y345732D01*
X10171Y355729D02*
X23500D01*
X16836D01*
X13503Y359061D01*
X10171Y362393D01*
Y365726D01*
X23500Y379055D02*
Y385719D01*
X20168Y389051D01*
X13503D01*
X10171Y385719D01*
Y379055D01*
X13503Y375722D01*
X20168D01*
X23500Y379055D01*
Y395716D02*
Y402381D01*
Y399048D01*
X3506D01*
Y395716D01*
X468506Y40000D02*
X481836D01*
X488500Y46665D01*
X481836Y53329D01*
X468506D01*
X488500Y69990D02*
Y63326D01*
X485168Y59993D01*
X478503D01*
X475171Y63326D01*
Y69990D01*
X478503Y73323D01*
X481836D01*
Y59993D01*
X475171Y79987D02*
X488500D01*
X481836D01*
X478503Y83319D01*
X475171Y86652D01*
Y89984D01*
X488500Y99981D02*
Y109977D01*
X485168Y113310D01*
X481836Y109977D01*
Y103313D01*
X478503Y99981D01*
X475171Y103313D01*
Y113310D01*
X488500Y119974D02*
Y126639D01*
Y123306D01*
X475171D01*
Y119974D01*
X488500Y139968D02*
Y146632D01*
X485168Y149964D01*
X478503D01*
X475171Y146632D01*
Y139968D01*
X478503Y136635D01*
X485168D01*
X488500Y139968D01*
Y156629D02*
X475171D01*
Y166626D01*
X478503Y169958D01*
X488500D01*
Y209945D02*
Y196616D01*
X475171Y209945D01*
X471839D01*
X468506Y206613D01*
Y199948D01*
X471839Y196616D01*
X488500Y216610D02*
X485168D01*
Y219942D01*
X488500D01*
Y216610D01*
Y246600D02*
Y233271D01*
X475171Y246600D01*
X471839D01*
X468506Y243268D01*
Y236603D01*
X471839Y233271D01*
D62*
X109311Y3766D02*
D03*
X114311D02*
D03*
X104311D02*
D03*
X119311D02*
D03*
X124311D02*
D03*
X129311D02*
D03*
X134311D02*
D03*
X139311D02*
D03*
X144311D02*
D03*
X327815D02*
D03*
X332815D02*
D03*
X322815D02*
D03*
X337815D02*
D03*
X342815D02*
D03*
X347815D02*
D03*
X352815D02*
D03*
X357815D02*
D03*
X362815D02*
D03*
X109311Y149435D02*
D03*
X114311D02*
D03*
X104311D02*
D03*
X119311D02*
D03*
X124311D02*
D03*
X129311D02*
D03*
X134311D02*
D03*
X139311D02*
D03*
X144311D02*
D03*
X327815D02*
D03*
X332815D02*
D03*
X322815D02*
D03*
X337815D02*
D03*
X342815D02*
D03*
X347815D02*
D03*
X352815D02*
D03*
X357815D02*
D03*
X362815D02*
D03*
X109311Y295105D02*
D03*
X114311D02*
D03*
X104311D02*
D03*
X119311D02*
D03*
X124311D02*
D03*
X129311D02*
D03*
X134311D02*
D03*
X139311D02*
D03*
X144311D02*
D03*
X327815D02*
D03*
X332815D02*
D03*
X322815D02*
D03*
X337815D02*
D03*
X342815D02*
D03*
X347815D02*
D03*
X352815D02*
D03*
X357815D02*
D03*
X362815D02*
D03*
D63*
X93711Y13066D02*
D03*
Y18066D02*
D03*
Y23066D02*
D03*
Y28066D02*
D03*
Y33066D02*
D03*
Y38066D02*
D03*
Y43066D02*
D03*
Y48066D02*
D03*
X312215Y13066D02*
D03*
Y18066D02*
D03*
Y23066D02*
D03*
Y28066D02*
D03*
Y33066D02*
D03*
Y38066D02*
D03*
Y43066D02*
D03*
Y48066D02*
D03*
X93711Y158736D02*
D03*
Y163735D02*
D03*
Y168736D02*
D03*
Y173735D02*
D03*
Y178735D02*
D03*
Y183736D02*
D03*
Y188735D02*
D03*
Y193736D02*
D03*
X312215Y158736D02*
D03*
Y163735D02*
D03*
Y168736D02*
D03*
Y173735D02*
D03*
Y178735D02*
D03*
Y183736D02*
D03*
Y188735D02*
D03*
Y193736D02*
D03*
X93711Y304405D02*
D03*
Y309405D02*
D03*
Y314405D02*
D03*
Y319405D02*
D03*
Y324405D02*
D03*
Y329405D02*
D03*
Y334405D02*
D03*
Y339405D02*
D03*
X312215Y304405D02*
D03*
Y309405D02*
D03*
Y314405D02*
D03*
Y319405D02*
D03*
Y324405D02*
D03*
Y329405D02*
D03*
Y334405D02*
D03*
Y339405D02*
D03*
D64*
X168111Y55326D02*
D03*
Y60326D02*
D03*
Y65326D02*
D03*
Y70326D02*
D03*
Y75326D02*
D03*
Y80326D02*
D03*
Y85326D02*
D03*
Y90326D02*
D03*
X386615Y55326D02*
D03*
Y60326D02*
D03*
Y65326D02*
D03*
Y70326D02*
D03*
Y75326D02*
D03*
Y80326D02*
D03*
Y85326D02*
D03*
Y90326D02*
D03*
X168111Y200995D02*
D03*
Y205995D02*
D03*
Y210995D02*
D03*
Y215995D02*
D03*
Y220995D02*
D03*
Y225995D02*
D03*
Y230995D02*
D03*
Y235995D02*
D03*
X386615Y200995D02*
D03*
Y205995D02*
D03*
Y210995D02*
D03*
Y215995D02*
D03*
Y220995D02*
D03*
Y225995D02*
D03*
Y230995D02*
D03*
Y235995D02*
D03*
X168111Y346665D02*
D03*
Y351665D02*
D03*
Y356665D02*
D03*
Y361665D02*
D03*
Y366665D02*
D03*
Y371665D02*
D03*
Y376665D02*
D03*
Y381665D02*
D03*
X386615Y346665D02*
D03*
Y351665D02*
D03*
Y356665D02*
D03*
Y361665D02*
D03*
Y366665D02*
D03*
Y371665D02*
D03*
Y376665D02*
D03*
Y381665D02*
D03*
D65*
X229111Y98566D02*
D03*
X215611Y48566D02*
D03*
X447615Y98566D02*
D03*
X434115Y48566D02*
D03*
X229111Y244235D02*
D03*
X215611Y194236D02*
D03*
X447615Y244235D02*
D03*
X434115Y194236D02*
D03*
X229111Y389905D02*
D03*
X215611Y339905D02*
D03*
X447615Y389905D02*
D03*
X434115Y339905D02*
D03*
M02*
