%FSLAX25Y25*%
%MOIN*%
G70*
G01*
G75*
G04 Layer_Color=32896*
%ADD10R,0.05200X0.06000*%
%ADD11R,0.10000X0.03600*%
%ADD12C,0.02800*%
%ADD13R,0.04000X0.02800*%
%ADD14R,0.05400X0.04000*%
%ADD15C,0.04000*%
%ADD16R,0.06000X0.09600*%
%ADD17R,0.09000X0.07000*%
%ADD18R,0.03400X0.02800*%
%ADD19O,0.06496X0.01181*%
%ADD20O,0.01181X0.06496*%
%ADD21R,0.02756X0.00394*%
%ADD22R,0.05512X0.03150*%
%ADD23R,0.01575X0.06400*%
%ADD24R,0.07000X0.04000*%
%ADD25C,0.02400*%
%ADD26C,0.01000*%
%ADD27C,0.00600*%
%ADD28C,0.01400*%
%ADD29C,0.02000*%
%ADD30C,0.01200*%
%ADD31C,0.01600*%
%ADD32C,0.03000*%
%ADD33R,0.05000X0.05000*%
%ADD34R,0.05000X0.05000*%
%ADD35C,0.13780*%
%ADD36C,0.02756*%
%ADD37O,0.04000X0.07000*%
%ADD38O,0.04000X0.05000*%
%ADD39C,0.02400*%
%ADD40C,0.00400*%
%ADD41R,0.07200X0.08600*%
%ADD42R,0.01000X0.05000*%
%ADD43R,0.05600X0.04800*%
%ADD44R,0.06200X0.02800*%
%ADD45R,0.08600X0.04800*%
%ADD46R,0.05600X0.06200*%
%ADD47R,0.03600X0.04400*%
%ADD48R,0.04400X0.03600*%
%ADD49R,0.02800X0.03400*%
G04:AMPARAMS|DCode=50|XSize=37.4mil|YSize=94.49mil|CornerRadius=9.35mil|HoleSize=0mil|Usage=FLASHONLY|Rotation=270.000|XOffset=0mil|YOffset=0mil|HoleType=Round|Shape=RoundedRectangle|*
%AMROUNDEDRECTD50*
21,1,0.03740,0.07579,0,0,270.0*
21,1,0.01870,0.09449,0,0,270.0*
1,1,0.01870,-0.03789,-0.00935*
1,1,0.01870,-0.03789,0.00935*
1,1,0.01870,0.03789,0.00935*
1,1,0.01870,0.03789,-0.00935*
%
%ADD50ROUNDEDRECTD50*%
G04:AMPARAMS|DCode=51|XSize=157.48mil|YSize=94.49mil|CornerRadius=23.62mil|HoleSize=0mil|Usage=FLASHONLY|Rotation=270.000|XOffset=0mil|YOffset=0mil|HoleType=Round|Shape=RoundedRectangle|*
%AMROUNDEDRECTD51*
21,1,0.15748,0.04724,0,0,270.0*
21,1,0.11024,0.09449,0,0,270.0*
1,1,0.04724,-0.02362,-0.05512*
1,1,0.04724,-0.02362,0.05512*
1,1,0.04724,0.02362,0.05512*
1,1,0.04724,0.02362,-0.05512*
%
%ADD51ROUNDEDRECTD51*%
%ADD52C,0.04500*%
%ADD53C,0.03800*%
%ADD54C,0.03000*%
%ADD55C,0.01900*%
%ADD56C,0.02362*%
%ADD57C,0.00800*%
%ADD58C,0.00787*%
%ADD59C,0.00022*%
%ADD60C,0.00500*%
%ADD61R,0.08500X0.02200*%
%ADD62R,0.03400X0.00600*%
%ADD63R,0.05400X0.06200*%
%ADD64R,0.10200X0.03800*%
%ADD65R,0.04200X0.03000*%
%ADD66R,0.05600X0.04200*%
%ADD67R,0.06200X0.09800*%
%ADD68R,0.03600X0.03000*%
%ADD69R,0.02956X0.00594*%
%ADD70R,0.05712X0.03350*%
%ADD71R,0.01775X0.06600*%
%ADD72R,0.07400X0.08800*%
%ADD73R,0.01200X0.05200*%
%ADD74R,0.05800X0.05000*%
%ADD75R,0.06400X0.03000*%
%ADD76R,0.08800X0.05000*%
%ADD77R,0.05800X0.06400*%
%ADD78R,0.03800X0.04600*%
%ADD79R,0.04600X0.03800*%
%ADD80R,0.03000X0.03600*%
%ADD81C,0.01500*%
%ADD82C,0.00044*%
%ADD83C,0.00563*%
%ADD84R,0.00600X0.02400*%
%ADD85R,0.02400X0.00600*%
%ADD86R,0.00600X0.03400*%
%ADD87R,0.01800X0.01402*%
%ADD88R,0.01400X0.01402*%
%ADD89R,0.01539X0.01261*%
G04:AMPARAMS|DCode=90|XSize=87.74mil|YSize=14mil|CornerRadius=0mil|HoleSize=0mil|Usage=FLASHONLY|Rotation=290.000|XOffset=0mil|YOffset=0mil|HoleType=Round|Shape=Rectangle|*
%AMROTATEDRECTD90*
4,1,4,-0.02158,0.03883,-0.00843,0.04362,0.02158,-0.03883,0.00843,-0.04362,-0.02158,0.03883,0.0*
%
%ADD90ROTATEDRECTD90*%

G04:AMPARAMS|DCode=91|XSize=47.59mil|YSize=12.42mil|CornerRadius=0mil|HoleSize=0mil|Usage=FLASHONLY|Rotation=250.000|XOffset=0mil|YOffset=0mil|HoleType=Round|Shape=Rectangle|*
%AMROTATEDRECTD91*
4,1,4,0.00230,0.02448,0.01397,0.02023,-0.00230,-0.02448,-0.01397,-0.02023,0.00230,0.02448,0.0*
%
%ADD91ROTATEDRECTD91*%

%ADD92R,0.06400X0.01400*%
%ADD93R,0.01400X0.13900*%
%ADD94R,0.09400X0.01400*%
%ADD95R,0.07900X0.01400*%
%ADD96R,0.12400X0.01400*%
G04:AMPARAMS|DCode=97|XSize=108mil|YSize=14mil|CornerRadius=0mil|HoleSize=0mil|Usage=FLASHONLY|Rotation=240.000|XOffset=0mil|YOffset=0mil|HoleType=Round|Shape=Rectangle|*
%AMROTATEDRECTD97*
4,1,4,0.02094,0.05027,0.03306,0.04327,-0.02094,-0.05027,-0.03306,-0.04327,0.02094,0.05027,0.0*
%
%ADD97ROTATEDRECTD97*%

G04:AMPARAMS|DCode=98|XSize=47.24mil|YSize=14mil|CornerRadius=0mil|HoleSize=0mil|Usage=FLASHONLY|Rotation=290.000|XOffset=0mil|YOffset=0mil|HoleType=Round|Shape=Rectangle|*
%AMROTATEDRECTD98*
4,1,4,-0.01466,0.01980,-0.00150,0.02459,0.01466,-0.01980,0.00150,-0.02459,-0.01466,0.01980,0.0*
%
%ADD98ROTATEDRECTD98*%

%ADD99R,0.01000X0.13900*%
G04:AMPARAMS|DCode=100|XSize=10mil|YSize=64.85mil|CornerRadius=0mil|HoleSize=0mil|Usage=FLASHONLY|Rotation=200.000|XOffset=0mil|YOffset=0mil|HoleType=Round|Shape=Rectangle|*
%AMROTATEDRECTD100*
4,1,4,-0.00639,0.03218,0.01579,-0.02876,0.00639,-0.03218,-0.01579,0.02876,-0.00639,0.03218,0.0*
%
%ADD100ROTATEDRECTD100*%

%ADD101R,0.01400X0.13900*%
%ADD102R,0.01212X0.00700*%
G04:AMPARAMS|DCode=103|XSize=0mil|YSize=14mil|CornerRadius=0mil|HoleSize=0mil|Usage=FLASHONLY|Rotation=60.000|XOffset=0mil|YOffset=0mil|HoleType=Round|Shape=Rectangle|*
%AMROTATEDRECTD103*
4,1,4,0.00606,-0.00350,-0.00606,0.00350,-0.00606,0.00350,0.00606,-0.00350,0.00606,-0.00350,0.0*
%
%ADD103ROTATEDRECTD103*%

G36*
X174278Y74698D02*
X174078Y73398D01*
X173478Y71598D01*
X172678Y70698D01*
X172078Y70298D01*
X171378Y70198D01*
X170778D01*
X170478Y70398D01*
X169878Y70898D01*
X169478Y71598D01*
X169178Y72798D01*
X168378Y74598D01*
X168178Y74898D01*
X168078Y74998D01*
X167978D01*
X167878Y74898D01*
X167778Y74698D01*
Y72198D01*
X167878Y71098D01*
X168078Y69598D01*
X168178Y68898D01*
X168078Y68498D01*
X167678Y68298D01*
X165978Y67598D01*
X165178Y67498D01*
X164778Y67698D01*
X164678Y67898D01*
Y75398D01*
X164778Y76398D01*
X165078Y77598D01*
X165678Y78798D01*
X166478Y79598D01*
X167278Y79898D01*
X167878D01*
X168478Y79698D01*
X169178Y79398D01*
X169678Y78898D01*
X170178Y78198D01*
X170678Y77098D01*
X170778Y76598D01*
X171078Y75398D01*
X171478Y74198D01*
X171578Y73998D01*
X171778Y73898D01*
X171978Y73998D01*
X172078Y74198D01*
X172178Y75198D01*
Y81203D01*
X174278Y81898D01*
Y74698D01*
D02*
G37*
G36*
X181178Y70198D02*
Y68298D01*
X180778Y67898D01*
X174978D01*
X174778Y68098D01*
Y70398D01*
X174978Y70598D01*
X180778D01*
X181178Y70198D01*
D02*
G37*
G36*
X182978Y85598D02*
X183378Y85298D01*
X183878Y84698D01*
X184278Y83998D01*
X184378Y83298D01*
Y81298D01*
X184178Y80598D01*
X183878Y79998D01*
X183478Y79498D01*
X182778Y78898D01*
X182378Y78698D01*
X181978Y78598D01*
X175078D01*
X174878Y78798D01*
Y80998D01*
X175078Y81198D01*
X181278D01*
X181478Y81298D01*
X181578Y81398D01*
X181678Y81598D01*
X181778Y81998D01*
Y82798D01*
X181678Y82998D01*
X181478Y83198D01*
X181178Y83298D01*
X180578D01*
X180378Y83398D01*
X180178Y83598D01*
X179978Y83898D01*
Y85098D01*
X180078Y85498D01*
X180378Y85798D01*
X180678Y85898D01*
X182278D01*
X182978Y85598D01*
D02*
G37*
G36*
X183778Y78198D02*
X184178Y77798D01*
X184378Y77098D01*
Y75798D01*
X184278Y74798D01*
X184078Y74198D01*
X183678Y73198D01*
X183178Y72498D01*
X182478Y71698D01*
X181578Y71198D01*
X181178Y70998D01*
X180878Y70898D01*
X178378D01*
X177978Y70998D01*
X177578Y71198D01*
X177178Y71498D01*
X176578Y71998D01*
X176078Y72498D01*
X175478Y73398D01*
X175178Y73998D01*
X174978Y74698D01*
X174878Y76098D01*
Y77098D01*
X174978Y77398D01*
X175178Y77698D01*
X175678Y78198D01*
X176278Y78298D01*
X177078Y78198D01*
X177578Y77798D01*
X177878Y77298D01*
Y75198D01*
X178278Y74398D01*
X178778Y73998D01*
X179378Y73898D01*
X179978D01*
X180778Y74198D01*
X181178Y74598D01*
X181478Y75198D01*
Y77098D01*
X181578Y77698D01*
X181878Y78098D01*
X182378Y78298D01*
X182978Y78398D01*
X183478D01*
X183778Y78198D01*
D02*
G37*
G36*
X95678Y59871D02*
X95278D01*
Y54556D01*
X94878D01*
Y61839D01*
X95678D01*
Y59871D01*
D02*
G37*
G36*
X89678Y54556D02*
X89278D01*
Y59871D01*
X88878D01*
Y61839D01*
X89678D01*
Y54556D01*
D02*
G37*
G36*
X58978Y69398D02*
X58078D01*
Y67198D01*
X58978D01*
Y66598D01*
X56578D01*
Y67198D01*
X57478D01*
Y69398D01*
X56578D01*
Y69998D01*
X58978D01*
Y69398D01*
D02*
G37*
G36*
X182678Y67098D02*
X183278Y66598D01*
X183678Y65898D01*
X183978Y65098D01*
X184078Y64098D01*
X183878Y62898D01*
X183578Y62198D01*
X183178Y61798D01*
Y61498D01*
X183578Y60798D01*
X183878Y60198D01*
X183978Y59098D01*
X183878Y57998D01*
X183578Y57098D01*
X183078Y56398D01*
X182378Y55798D01*
X181878Y55598D01*
X169478D01*
X169278Y55798D01*
Y58098D01*
X169481Y58300D01*
X177078Y58398D01*
X180478D01*
X180778Y58498D01*
X181078Y58798D01*
Y59598D01*
X180978Y59898D01*
X180878Y59998D01*
X180378Y60098D01*
X169478D01*
X169278Y60298D01*
Y62698D01*
X169478Y62898D01*
X180678D01*
X180878Y62998D01*
X181078Y63198D01*
X181178Y63398D01*
Y64098D01*
X180978Y64398D01*
X180578Y64598D01*
X169478D01*
X169278Y64798D01*
Y67298D01*
X169478Y67498D01*
X181678D01*
X182678Y67098D01*
D02*
G37*
G36*
X108120Y89798D02*
X102805D01*
Y89398D01*
X100836D01*
Y90198D01*
X108120D01*
Y89798D01*
D02*
G37*
G36*
X102805Y95798D02*
X108120D01*
Y95398D01*
X100836D01*
Y96198D01*
X102805D01*
Y95798D01*
D02*
G37*
G36*
X127597Y109709D02*
X123660D01*
Y113646D01*
X127597Y109709D01*
D02*
G37*
G36*
X181778Y93998D02*
X182578Y93498D01*
X183378Y92798D01*
X183978Y91898D01*
X184178Y90998D01*
Y89398D01*
X183778Y88098D01*
X183178Y87198D01*
X182478Y86498D01*
X181578Y86198D01*
X180178Y86098D01*
X179078D01*
X177778Y86198D01*
X176978Y86598D01*
X176278Y86998D01*
X175678Y87698D01*
X175278Y88498D01*
X174978Y89398D01*
Y90898D01*
X175278Y91698D01*
X175678Y92698D01*
X176578Y93598D01*
X177378Y93998D01*
X178778Y94198D01*
X180778D01*
X181778Y93998D01*
D02*
G37*
G36*
X174178Y86798D02*
X174252Y83189D01*
X172178Y82503D01*
Y84098D01*
X171978Y85498D01*
X173978Y87798D01*
X174178Y86798D01*
D02*
G37*
G36*
X170878Y94098D02*
X171378Y93798D01*
X171878Y93298D01*
X172478Y92598D01*
X172778Y91998D01*
X170978Y86798D01*
X170778Y86698D01*
X170478D01*
X170078Y86598D01*
X169678Y86098D01*
X169378Y85398D01*
X169078Y84598D01*
X168878Y83598D01*
X168778Y82198D01*
Y81498D01*
X168678Y81298D01*
X164978Y80498D01*
X164778Y80598D01*
Y81898D01*
X164878Y83898D01*
X165378Y87898D01*
X166478Y91098D01*
X167478Y92798D01*
X168678Y93798D01*
X169678Y94298D01*
X170478D01*
X170878Y94098D01*
D02*
G37*
G36*
X173278Y90698D02*
X173778Y88798D01*
X171748Y85957D01*
X171678Y86098D01*
X171378Y86498D01*
X173119Y91111D01*
X173278Y90698D01*
D02*
G37*
%LPC*%
G36*
X180578Y91698D02*
X178778D01*
X178178Y91398D01*
X177778Y90898D01*
X177678Y90298D01*
Y89598D01*
X177878Y89098D01*
X178178Y88898D01*
X178778Y88598D01*
X179678Y88498D01*
X180378D01*
X180878Y88698D01*
X181478Y89198D01*
X181678Y89798D01*
X181578Y90698D01*
X181378Y91198D01*
X180978Y91498D01*
X180578Y91698D01*
D02*
G37*
%LPD*%
D26*
X199878Y65038D02*
Y102198D01*
Y65038D02*
X204078Y60838D01*
Y47198D02*
Y60838D01*
X153478Y47198D02*
X204078D01*
X153478D02*
Y51698D01*
X151478Y53698D02*
X153478Y51698D01*
X151478Y102198D02*
X151478Y53698D01*
X151478Y102198D02*
X199878Y102198D01*
X97079Y12496D02*
X101078D01*
Y9497D01*
X99079D01*
X101078D01*
Y6498D01*
X91081Y12496D02*
X95080D01*
Y9497D01*
X93081D01*
X95080D01*
Y6498D01*
X85083Y11496D02*
X86083Y12496D01*
X88082D01*
X89082Y11496D01*
Y7497D01*
X88082Y6498D01*
X86083D01*
X85083Y7497D01*
X79085Y11496D02*
X80085Y12496D01*
X82084D01*
X83084Y11496D01*
Y10496D01*
X82084Y9497D01*
X80085D01*
X79085Y8497D01*
Y7497D01*
X80085Y6498D01*
X82084D01*
X83084Y7497D01*
X77086Y6498D02*
Y12496D01*
X74087D01*
X73087Y11496D01*
Y9497D01*
X74087Y8497D01*
X77086D01*
X71088Y12496D02*
X69088D01*
X70088D01*
Y6498D01*
X71088D01*
X69088D01*
X132176Y118598D02*
X126178D01*
Y122596D01*
Y124596D02*
X132176D01*
X130177Y126595D01*
X132176Y128594D01*
X126178D01*
X17378Y108897D02*
X13379D01*
X15379Y110896D02*
Y106897D01*
X7378Y108897D02*
X3379D01*
X179378Y113997D02*
X175379D01*
X177379Y115996D02*
Y111997D01*
X189378Y113997D02*
X185379D01*
D27*
X107878Y298D02*
Y4298D01*
X101978Y20698D02*
X107878D01*
X62878D02*
X68778D01*
X62878Y14698D02*
Y20698D01*
X107878Y14698D02*
Y20698D01*
X62878Y298D02*
X107878D01*
X62878D02*
Y4298D01*
X123660Y109709D02*
Y136087D01*
X133896Y109709D02*
Y136087D01*
X123660Y109709D02*
X133896D01*
X123660Y136087D02*
X133896D01*
X172378Y136398D02*
X192378D01*
X172378Y109498D02*
X192378D01*
X172378D02*
Y136398D01*
X192378Y109498D02*
Y136398D01*
X182378Y109498D02*
Y136398D01*
X378Y3898D02*
X20378D01*
X378Y123898D02*
X20378D01*
Y3898D02*
Y123898D01*
X10378Y3898D02*
Y123898D01*
X378Y3898D02*
Y123898D01*
X125778Y13898D02*
X126178Y14298D01*
X143578D01*
X143978Y13898D01*
X125878Y5898D02*
Y8898D01*
X127978Y498D02*
X143478D01*
X143978Y5898D02*
Y8898D01*
X143478Y498D02*
X143878Y898D01*
D57*
X140378Y16398D02*
Y20396D01*
X138379D01*
X137712Y19730D01*
Y18397D01*
X138379Y17730D01*
X140378D01*
X139045D02*
X137712Y16398D01*
X133713Y19730D02*
X134380Y20396D01*
X135713D01*
X136379Y19730D01*
Y19063D01*
X135713Y18397D01*
X134380D01*
X133713Y17730D01*
Y17064D01*
X134380Y16398D01*
X135713D01*
X136379Y17064D01*
X132380Y20396D02*
X129715D01*
X131048D01*
Y16398D01*
D60*
X43300Y40200D02*
X42500Y38600D01*
X41701Y40200D01*
X39301Y38600D02*
X40901D01*
X39301Y40200D01*
Y40599D01*
X39701Y40999D01*
X40501D01*
X40901Y40599D01*
X38502Y38600D02*
Y39000D01*
X38102D01*
Y38600D01*
X38502D01*
X34903D02*
X36502D01*
X34903Y40200D01*
Y40599D01*
X35303Y40999D01*
X36102D01*
X36502Y40599D01*
X190378Y30098D02*
Y31830D01*
X189512Y32697D01*
X188645Y31830D01*
Y30098D01*
Y31397D01*
X190378D01*
X187779Y32697D02*
Y30098D01*
X186479D01*
X186046Y30531D01*
Y32264D01*
X186479Y32697D01*
X187779D01*
X185180D02*
X184313D01*
X184747D01*
Y30098D01*
X185180D01*
X184313D01*
X190878Y20098D02*
Y21830D01*
X190012Y22697D01*
X189145Y21830D01*
Y20098D01*
Y21397D01*
X190878D01*
X188279Y22697D02*
Y20098D01*
X186979D01*
X186546Y20531D01*
Y22264D01*
X186979Y22697D01*
X188279D01*
X185680D02*
Y20964D01*
X184813Y20098D01*
X183947Y20964D01*
Y22697D01*
X190778Y12264D02*
X190345Y12697D01*
X189478D01*
X189045Y12264D01*
Y11830D01*
X189478Y11397D01*
X189912D01*
X189478D01*
X189045Y10964D01*
Y10531D01*
X189478Y10098D01*
X190345D01*
X190778Y10531D01*
X188179Y12697D02*
Y10964D01*
X187312Y10098D01*
X186446Y10964D01*
Y12697D01*
X185580Y12264D02*
X185146Y12697D01*
X184280D01*
X183847Y12264D01*
Y11830D01*
X184280Y11397D01*
X184713D01*
X184280D01*
X183847Y10964D01*
Y10531D01*
X184280Y10098D01*
X185146D01*
X185580Y10531D01*
X179045Y12264D02*
X179478Y12697D01*
X180345D01*
X180778Y12264D01*
Y10531D01*
X180345Y10098D01*
X179478D01*
X179045Y10531D01*
Y11397D01*
X179912D01*
X178179Y10098D02*
Y12697D01*
X176446Y10098D01*
Y12697D01*
X175580D02*
Y10098D01*
X174280D01*
X173847Y10531D01*
Y12264D01*
X174280Y12697D01*
X175580D01*
X180778Y22697D02*
Y20531D01*
X180345Y20098D01*
X179478D01*
X179045Y20531D01*
Y22697D01*
X178179Y20098D02*
Y22697D01*
X176879D01*
X176446Y22264D01*
Y21397D01*
X176879Y20964D01*
X178179D01*
X177312D02*
X176446Y20098D01*
X175580Y22697D02*
X173847Y20098D01*
Y22697D02*
X175580Y20098D01*
X180778Y32697D02*
Y30531D01*
X180345Y30098D01*
X179478D01*
X179045Y30531D01*
Y32697D01*
X178179D02*
X176446D01*
X177312D01*
Y30098D01*
X175580Y32697D02*
X173847Y30098D01*
Y32697D02*
X175580Y30098D01*
X180778Y42264D02*
X180345Y42697D01*
X179478D01*
X179045Y42264D01*
Y41830D01*
X179478Y41397D01*
X179912D01*
X179478D01*
X179045Y40964D01*
Y40531D01*
X179478Y40098D01*
X180345D01*
X180778Y40531D01*
X178179Y42697D02*
Y40964D01*
X177312Y40098D01*
X176446Y40964D01*
Y42697D01*
X175580Y42264D02*
X175146Y42697D01*
X174280D01*
X173847Y42264D01*
Y41830D01*
X174280Y41397D01*
X174713D01*
X174280D01*
X173847Y40964D01*
Y40531D01*
X174280Y40098D01*
X175146D01*
X175580Y40531D01*
X8778Y135197D02*
Y132598D01*
X7045D01*
X6179Y135197D02*
Y132598D01*
X4879D01*
X4446Y133031D01*
Y134764D01*
X4879Y135197D01*
X6179D01*
X3580D02*
Y132598D01*
X2280D01*
X1847Y133031D01*
Y133464D01*
X2280Y133897D01*
X3580D01*
X2280D01*
X1847Y134330D01*
Y134764D01*
X2280Y135197D01*
X3580D01*
X18778D02*
Y132598D01*
X17045D01*
X16179Y135197D02*
Y132598D01*
X14879D01*
X14446Y133031D01*
Y134764D01*
X14879Y135197D01*
X16179D01*
X11847Y134764D02*
X12280Y135197D01*
X13147D01*
X13580Y134764D01*
Y133031D01*
X13147Y132598D01*
X12280D01*
X11847Y133031D01*
Y133897D01*
X12713D01*
X27478Y122598D02*
Y125197D01*
X25745Y122598D01*
Y125197D01*
X23146Y124764D02*
X23579Y125197D01*
X24446D01*
X24879Y124764D01*
Y123031D01*
X24446Y122598D01*
X23579D01*
X23146Y123031D01*
X28778Y135197D02*
Y132598D01*
X27045D01*
X26179Y135197D02*
Y132598D01*
X24879D01*
X24446Y133031D01*
Y134764D01*
X24879Y135197D01*
X26179D01*
X23580Y132598D02*
Y135197D01*
X22280D01*
X21847Y134764D01*
Y133897D01*
X22280Y133464D01*
X23580D01*
X22713D02*
X21847Y132598D01*
X27045Y104764D02*
X27478Y105197D01*
X28345D01*
X28778Y104764D01*
Y103031D01*
X28345Y102598D01*
X27478D01*
X27045Y103031D01*
X26179Y102598D02*
Y105197D01*
X24879D01*
X24446Y104764D01*
Y103897D01*
X24879Y103464D01*
X26179D01*
X25312D02*
X24446Y102598D01*
X23580Y105197D02*
X21847Y102598D01*
Y105197D02*
X23580Y102598D01*
X27045Y94764D02*
X27478Y95197D01*
X28345D01*
X28778Y94764D01*
Y93031D01*
X28345Y92598D01*
X27478D01*
X27045Y93031D01*
X26179Y95197D02*
X24446D01*
X25312D01*
Y92598D01*
X23580Y95197D02*
X21847Y92598D01*
Y95197D02*
X23580Y92598D01*
X28378Y82598D02*
Y85197D01*
X27078D01*
X26645Y84764D01*
Y83897D01*
X27078Y83464D01*
X28378D01*
X25779Y85197D02*
Y82598D01*
X24912Y83464D01*
X24046Y82598D01*
Y85197D01*
X23180Y82598D02*
X22313D01*
X22747D01*
Y85197D01*
X23180Y84764D01*
X28778Y72598D02*
Y75197D01*
X27478D01*
X27045Y74764D01*
Y73897D01*
X27478Y73464D01*
X28778D01*
X26179Y75197D02*
Y72598D01*
X25312Y73464D01*
X24446Y72598D01*
Y75197D01*
X21847Y72598D02*
X23580D01*
X21847Y74330D01*
Y74764D01*
X22280Y75197D01*
X23146D01*
X23580Y74764D01*
X28778Y62598D02*
Y65197D01*
X27478D01*
X27045Y64764D01*
Y63897D01*
X27478Y63464D01*
X28778D01*
X26179Y65197D02*
Y62598D01*
X25312Y63464D01*
X24446Y62598D01*
Y65197D01*
X23580Y64764D02*
X23146Y65197D01*
X22280D01*
X21847Y64764D01*
Y64330D01*
X22280Y63897D01*
X22713D01*
X22280D01*
X21847Y63464D01*
Y63031D01*
X22280Y62598D01*
X23146D01*
X23580Y63031D01*
X28778Y52598D02*
Y55197D01*
X27478D01*
X27045Y54764D01*
Y53897D01*
X27478Y53464D01*
X28778D01*
X26179Y55197D02*
Y52598D01*
X25312Y53464D01*
X24446Y52598D01*
Y55197D01*
X22280Y52598D02*
Y55197D01*
X23580Y53897D01*
X21847D01*
X28778Y42598D02*
Y45197D01*
X27478D01*
X27045Y44764D01*
Y43897D01*
X27478Y43464D01*
X28778D01*
X26179Y45197D02*
Y42598D01*
X25312Y43464D01*
X24446Y42598D01*
Y45197D01*
X21847D02*
X23580D01*
Y43897D01*
X22713Y44330D01*
X22280D01*
X21847Y43897D01*
Y43031D01*
X22280Y42598D01*
X23146D01*
X23580Y43031D01*
X28778Y32598D02*
Y35197D01*
X27478D01*
X27045Y34764D01*
Y33897D01*
X27478Y33464D01*
X28778D01*
X26179Y35197D02*
Y32598D01*
X25312Y33464D01*
X24446Y32598D01*
Y35197D01*
X21847D02*
X22713Y34764D01*
X23580Y33897D01*
Y33031D01*
X23146Y32598D01*
X22280D01*
X21847Y33031D01*
Y33464D01*
X22280Y33897D01*
X23580D01*
X28778Y12598D02*
Y15197D01*
X27478D01*
X27045Y14764D01*
Y13897D01*
X27478Y13464D01*
X28778D01*
X26179Y15197D02*
Y12598D01*
X25312Y13464D01*
X24446Y12598D01*
Y15197D01*
X23580Y14764D02*
X23146Y15197D01*
X22280D01*
X21847Y14764D01*
Y14330D01*
X22280Y13897D01*
X21847Y13464D01*
Y13031D01*
X22280Y12598D01*
X23146D01*
X23580Y13031D01*
Y13464D01*
X23146Y13897D01*
X23580Y14330D01*
Y14764D01*
X23146Y13897D02*
X22280D01*
X28778Y22598D02*
Y25197D01*
X27478D01*
X27045Y24764D01*
Y23897D01*
X27478Y23464D01*
X28778D01*
X26179Y25197D02*
Y22598D01*
X25312Y23464D01*
X24446Y22598D01*
Y25197D01*
X23580D02*
X21847D01*
Y24764D01*
X23580Y23031D01*
Y22598D01*
D62*
X67178Y105698D02*
D03*
Y104298D02*
D03*
X126778Y20998D02*
D03*
X126778Y19598D02*
D03*
X69978Y57398D02*
D03*
Y58798D02*
D03*
X97578Y57898D02*
D03*
Y59298D02*
D03*
X95678Y123098D02*
D03*
Y121698D02*
D03*
D81*
X183985Y69198D02*
G03*
X183985Y69198I-707J0D01*
G01*
D82*
X116120Y29692D02*
X117352D01*
X115900Y29736D02*
X117572D01*
X115680Y29780D02*
X117792D01*
X115548Y29824D02*
X117924D01*
X115372Y29868D02*
X118056D01*
X115284Y29912D02*
X118188D01*
X115152Y29956D02*
X118320D01*
X115064Y30000D02*
X118408D01*
X114932Y30044D02*
X118540D01*
X114844Y30088D02*
X118628D01*
X114756Y30132D02*
X118672D01*
X114712Y30176D02*
X118760D01*
X114624Y30220D02*
X118848D01*
X114536Y30264D02*
X118936D01*
X114448Y30308D02*
X118980D01*
X114404Y30352D02*
X119068D01*
X114316Y30396D02*
X119112D01*
X114272Y30440D02*
X119200D01*
X114228Y30484D02*
X119244D01*
X114140Y30528D02*
X119332D01*
X114096Y30572D02*
X119376D01*
X114052Y30616D02*
X119420D01*
X114008Y30660D02*
X119464D01*
X113920Y30704D02*
X119508D01*
X113876Y30748D02*
X119596D01*
X113832Y30792D02*
X119640D01*
X113788Y30836D02*
X119684D01*
X113744Y30880D02*
X119728D01*
X113700Y30924D02*
X119772D01*
X113656Y30968D02*
X119816D01*
X113612Y31012D02*
X119860D01*
X113568Y31056D02*
X119904D01*
X113524Y31100D02*
X119904D01*
X113524Y31144D02*
X119948D01*
X113480Y31188D02*
X119992D01*
X113436Y31232D02*
X120036D01*
X113392Y31276D02*
X120080D01*
X113348Y31320D02*
X120124D01*
X113348Y31364D02*
X120124D01*
X113304Y31408D02*
X120168D01*
X113260Y31452D02*
X120212D01*
X113260Y31496D02*
X120212D01*
X113216Y31540D02*
X120256D01*
X113172Y31584D02*
X116296D01*
X117176D02*
X120300D01*
X113172Y31628D02*
X116120D01*
X117352D02*
X120300D01*
X113128Y31672D02*
X115944D01*
X117484D02*
X120344D01*
X113084Y31716D02*
X115856D01*
X117616D02*
X120388D01*
X113084Y31760D02*
X115724D01*
X117748D02*
X120388D01*
X113040Y31804D02*
X115636D01*
X117792D02*
X120432D01*
X113040Y31848D02*
X115592D01*
X117880D02*
X120432D01*
X112996Y31892D02*
X115504D01*
X117968D02*
X120476D01*
X112996Y31936D02*
X115416D01*
X118056D02*
X120476D01*
X112952Y31980D02*
X115372D01*
X118100D02*
X120520D01*
X112952Y32024D02*
X115328D01*
X118144D02*
X120520D01*
X112908Y32068D02*
X115240D01*
X118232D02*
X120564D01*
X112908Y32112D02*
X115196D01*
X118276D02*
X120564D01*
X112864Y32156D02*
X115152D01*
X118320D02*
X120608D01*
X112864Y32200D02*
X115108D01*
X118364D02*
X120608D01*
X112820Y32244D02*
X115064D01*
X118408D02*
X120652D01*
X112820Y32288D02*
X115020D01*
X118452D02*
X120652D01*
X112776Y32332D02*
X114976D01*
X118496D02*
X120652D01*
X112776Y32376D02*
X114932D01*
X118540D02*
X120696D01*
X112776Y32420D02*
X114888D01*
X118584D02*
X120696D01*
X112732Y32464D02*
X114888D01*
X118584D02*
X120740D01*
X112732Y32508D02*
X114844D01*
X118628D02*
X120740D01*
X112732Y32552D02*
X114800D01*
X118672D02*
X120740D01*
X112688Y32596D02*
X114756D01*
X118716D02*
X120784D01*
X112688Y32640D02*
X114756D01*
X118716D02*
X120784D01*
X112688Y32684D02*
X114712D01*
X118760D02*
X120784D01*
X112644Y32728D02*
X114712D01*
X118760D02*
X120828D01*
X112644Y32772D02*
X114668D01*
X118804D02*
X120828D01*
X112644Y32816D02*
X114624D01*
X118804D02*
X120828D01*
X112644Y32860D02*
X114624D01*
X118848D02*
X120828D01*
X112600Y32904D02*
X114580D01*
X118848D02*
X120872D01*
X112600Y32948D02*
X114580D01*
X118892D02*
X120872D01*
X112600Y32992D02*
X114580D01*
X118892D02*
X120872D01*
X112600Y33036D02*
X114536D01*
X118936D02*
X120872D01*
X112556Y33080D02*
X114536D01*
X118936D02*
X120872D01*
X112556Y33124D02*
X114492D01*
X118936D02*
X120916D01*
X112556Y33168D02*
X114492D01*
X118980D02*
X120916D01*
X112556Y33212D02*
X114492D01*
X118980D02*
X120916D01*
X112556Y33256D02*
X114492D01*
X118980D02*
X120916D01*
X112556Y33300D02*
X114448D01*
X119024D02*
X120916D01*
X112512Y33344D02*
X114448D01*
X119024D02*
X120916D01*
X112512Y33388D02*
X114448D01*
X119024D02*
X120960D01*
X112512Y33432D02*
X114448D01*
X119024D02*
X120960D01*
X112512Y33476D02*
X114404D01*
X119068D02*
X120960D01*
X112512Y33520D02*
X114404D01*
X119068D02*
X120960D01*
X112512Y33564D02*
X114404D01*
X119068D02*
X120960D01*
X112512Y33608D02*
X114404D01*
X119068D02*
X120960D01*
X112512Y33652D02*
X114404D01*
X119068D02*
X120960D01*
X112512Y33696D02*
X114404D01*
X119068D02*
X120960D01*
X112512Y33740D02*
X114404D01*
X119068D02*
X120960D01*
X112512Y33784D02*
X114404D01*
X119068D02*
X120960D01*
X112512Y33828D02*
X114360D01*
X119068D02*
X120960D01*
X112512Y33872D02*
X114360D01*
X119068D02*
X120960D01*
X112512Y33916D02*
X114360D01*
X119068D02*
X120960D01*
X112512Y33960D02*
X114360D01*
X119068D02*
X120960D01*
X112512Y34004D02*
X114404D01*
X119068D02*
X120960D01*
X112512Y34048D02*
X114404D01*
X119068D02*
X120960D01*
X112512Y34092D02*
X114404D01*
X119068D02*
X120960D01*
X112512Y34136D02*
X114404D01*
X119068D02*
X120960D01*
X112512Y34180D02*
X114404D01*
X119068D02*
X120960D01*
X112512Y34224D02*
X114404D01*
X119068D02*
X120960D01*
X112512Y34268D02*
X114404D01*
X119068D02*
X120960D01*
X112512Y34312D02*
X114404D01*
X119068D02*
X120960D01*
X112512Y34356D02*
X114448D01*
X119024D02*
X120960D01*
X112512Y34400D02*
X114448D01*
X119024D02*
X120960D01*
X112512Y34444D02*
X114448D01*
X119024D02*
X120916D01*
X112556Y34488D02*
X114448D01*
X119024D02*
X120916D01*
X112556Y34532D02*
X114492D01*
X118980D02*
X120916D01*
X112556Y34576D02*
X114492D01*
X118980D02*
X120916D01*
X112556Y34620D02*
X114492D01*
X118980D02*
X120916D01*
X112556Y34664D02*
X114492D01*
X118936D02*
X120916D01*
X112556Y34708D02*
X114536D01*
X118936D02*
X120872D01*
X112600Y34752D02*
X114536D01*
X118936D02*
X120872D01*
X112600Y34796D02*
X114580D01*
X118892D02*
X120872D01*
X112600Y34840D02*
X114580D01*
X118892D02*
X120872D01*
X112600Y34884D02*
X114580D01*
X118848D02*
X120872D01*
X112600Y34928D02*
X114624D01*
X118848D02*
X120828D01*
X112512Y34972D02*
X114624D01*
X118804D02*
X120828D01*
X112424Y35016D02*
X114668D01*
X118804D02*
X120828D01*
X112380Y35060D02*
X114712D01*
X118760D02*
X120828D01*
X112292Y35104D02*
X114712D01*
X118760D02*
X120784D01*
X112204Y35148D02*
X114756D01*
X118716D02*
X120784D01*
X112116Y35192D02*
X114756D01*
X118716D02*
X120784D01*
X112072Y35236D02*
X114800D01*
X118672D02*
X120740D01*
X111984Y35280D02*
X114844D01*
X118628D02*
X120740D01*
X111896Y35324D02*
X114888D01*
X118584D02*
X120740D01*
X111808Y35368D02*
X114888D01*
X118584D02*
X120696D01*
X111764Y35412D02*
X114932D01*
X118540D02*
X120696D01*
X111676Y35456D02*
X114976D01*
X118496D02*
X120696D01*
X111588Y35500D02*
X115020D01*
X118452D02*
X120652D01*
X111500Y35544D02*
X115064D01*
X118408D02*
X120652D01*
X111456Y35588D02*
X115108D01*
X118364D02*
X120608D01*
X111368Y35632D02*
X115152D01*
X118320D02*
X120608D01*
X111280Y35676D02*
X115196D01*
X118276D02*
X120564D01*
X111236Y35720D02*
X115240D01*
X118232D02*
X120564D01*
X111148Y35764D02*
X115328D01*
X118144D02*
X120520D01*
X111060Y35808D02*
X115372D01*
X118100D02*
X120520D01*
X110972Y35852D02*
X115416D01*
X118056D02*
X120476D01*
X110928Y35896D02*
X115504D01*
X117968D02*
X120476D01*
X110840Y35940D02*
X115592D01*
X117880D02*
X120432D01*
X110752Y35984D02*
X115636D01*
X117836D02*
X120432D01*
X110664Y36028D02*
X115724D01*
X117748D02*
X120388D01*
X110620Y36072D02*
X115856D01*
X117616D02*
X120388D01*
X110532Y36116D02*
X115944D01*
X117528D02*
X120344D01*
X110444Y36160D02*
X116076D01*
X117352D02*
X120300D01*
X110400Y36204D02*
X116296D01*
X117176D02*
X120300D01*
X110312Y36248D02*
X120256D01*
X110224Y36292D02*
X120212D01*
X110136Y36336D02*
X120212D01*
X110092Y36380D02*
X120168D01*
X110004Y36424D02*
X120124D01*
X109916Y36468D02*
X120124D01*
X109828Y36512D02*
X120080D01*
X109784Y36556D02*
X120036D01*
X109696Y36600D02*
X119992D01*
X109608Y36644D02*
X119948D01*
X109520Y36688D02*
X119904D01*
X109476Y36732D02*
X119904D01*
X109388Y36776D02*
X119860D01*
X109300Y36820D02*
X119816D01*
X109256Y36864D02*
X119772D01*
X109168Y36908D02*
X119728D01*
X109080Y36952D02*
X119684D01*
X108992Y36996D02*
X113744D01*
X113832D02*
X119640D01*
X108948Y37040D02*
X113656D01*
X113876D02*
X119596D01*
X108860Y37084D02*
X113568D01*
X113920D02*
X119508D01*
X108772Y37128D02*
X113480D01*
X114008D02*
X119464D01*
X108684Y37172D02*
X113436D01*
X114052D02*
X119420D01*
X108640Y37216D02*
X113348D01*
X114096D02*
X119376D01*
X108552Y37260D02*
X113260D01*
X114140D02*
X119332D01*
X108464Y37304D02*
X113172D01*
X114228D02*
X119244D01*
X108420Y37348D02*
X113128D01*
X114272D02*
X119200D01*
X108332Y37392D02*
X113040D01*
X114316D02*
X119112D01*
X108244Y37436D02*
X112952D01*
X114404D02*
X119068D01*
X108156Y37480D02*
X112908D01*
X114448D02*
X118980D01*
X108112Y37524D02*
X112820D01*
X114536D02*
X118936D01*
X108024Y37568D02*
X112732D01*
X114624D02*
X118848D01*
X107936Y37612D02*
X112644D01*
X114668D02*
X118760D01*
X107848Y37656D02*
X112600D01*
X114756D02*
X118716D01*
X107804Y37700D02*
X112512D01*
X114844D02*
X118628D01*
X107716Y37744D02*
X112424D01*
X114932D02*
X118496D01*
X107628Y37788D02*
X112336D01*
X115064D02*
X118408D01*
X107584Y37832D02*
X112292D01*
X115152D02*
X118320D01*
X107496Y37876D02*
X112204D01*
X115284D02*
X118188D01*
X107408Y37920D02*
X112116D01*
X115372D02*
X118056D01*
X107320Y37964D02*
X112072D01*
X115548D02*
X117924D01*
X107276Y38008D02*
X111984D01*
X115680D02*
X117792D01*
X107188Y38052D02*
X111896D01*
X115900D02*
X117572D01*
X107100Y38096D02*
X111808D01*
X116164D02*
X117308D01*
X107012Y38140D02*
X111764D01*
X106968Y38184D02*
X111676D01*
X106880Y38228D02*
X111588D01*
X106792Y38272D02*
X111500D01*
X106704Y38316D02*
X111456D01*
X106660Y38360D02*
X111368D01*
X106572Y38404D02*
X111280D01*
X106484Y38448D02*
X111192D01*
X106440Y38492D02*
X111148D01*
X106352Y38536D02*
X111060D01*
X106264Y38580D02*
X110972D01*
X106176Y38624D02*
X110928D01*
X106132Y38668D02*
X110840D01*
X106044Y38712D02*
X110752D01*
X105956Y38756D02*
X110664D01*
X105868Y38800D02*
X110620D01*
X105824Y38844D02*
X110532D01*
X105736Y38888D02*
X110444D01*
X105648Y38932D02*
X110356D01*
X105604Y38976D02*
X110312D01*
X105516Y39020D02*
X110224D01*
X105428Y39064D02*
X110136D01*
X105340Y39108D02*
X110092D01*
X105296Y39152D02*
X110004D01*
X105208Y39196D02*
X109916D01*
X105120Y39240D02*
X109828D01*
X105032Y39284D02*
X109784D01*
X104988Y39328D02*
X109696D01*
X104900Y39372D02*
X109608D01*
X104812Y39416D02*
X109520D01*
X104724Y39460D02*
X109476D01*
X104680Y39504D02*
X109388D01*
X104592Y39548D02*
X109300D01*
X104504Y39592D02*
X109256D01*
X104460Y39636D02*
X109168D01*
X104372Y39680D02*
X109080D01*
X104284Y39724D02*
X108992D01*
X104196Y39768D02*
X108948D01*
X104152Y39812D02*
X108860D01*
X104064Y39856D02*
X108772D01*
X103976Y39900D02*
X108684D01*
X103888Y39944D02*
X108640D01*
X103844Y39988D02*
X108552D01*
X103756Y40032D02*
X108464D01*
X103668Y40076D02*
X108376D01*
X103624Y40120D02*
X108332D01*
X103536Y40164D02*
X108244D01*
X103448Y40208D02*
X108156D01*
X103360Y40252D02*
X108112D01*
X103316Y40296D02*
X108024D01*
X103228Y40340D02*
X107936D01*
X103140Y40384D02*
X107848D01*
X103052Y40428D02*
X107804D01*
X103008Y40472D02*
X107716D01*
X102920Y40516D02*
X107628D01*
X102832Y40560D02*
X107540D01*
X102788Y40604D02*
X107496D01*
X102700Y40648D02*
X107408D01*
X102612Y40692D02*
X107320D01*
X102524Y40736D02*
X107276D01*
X102480Y40780D02*
X107188D01*
X102392Y40824D02*
X107100D01*
X102304Y40868D02*
X107012D01*
X102216Y40912D02*
X106968D01*
X102172Y40956D02*
X106880D01*
X102084Y41000D02*
X106792D01*
X101996Y41044D02*
X106704D01*
X101952Y41088D02*
X106660D01*
X101864Y41132D02*
X106572D01*
X101776Y41176D02*
X106484D01*
X101688Y41220D02*
X106396D01*
X116736D02*
X119552D01*
X101644Y41264D02*
X106352D01*
X116736D02*
X119552D01*
X101556Y41308D02*
X106264D01*
X116736D02*
X119596D01*
X101468Y41352D02*
X106176D01*
X116736D02*
X119596D01*
X101380Y41396D02*
X106132D01*
X116736D02*
X119596D01*
X101336Y41440D02*
X106044D01*
X116736D02*
X119596D01*
X101248Y41484D02*
X105956D01*
X116736D02*
X119640D01*
X101204Y41528D02*
X105868D01*
X116736D02*
X119640D01*
X101204Y41572D02*
X105824D01*
X116736D02*
X119640D01*
X101248Y41616D02*
X105736D01*
X116736D02*
X119640D01*
X101292Y41660D02*
X105648D01*
X116736D02*
X119640D01*
X101336Y41704D02*
X105604D01*
X116736D02*
X119684D01*
X101336Y41748D02*
X105516D01*
X116736D02*
X119684D01*
X101380Y41792D02*
X105428D01*
X116736D02*
X119684D01*
X101424Y41836D02*
X105340D01*
X116736D02*
X119684D01*
X101468Y41880D02*
X105296D01*
X116736D02*
X119684D01*
X101468Y41924D02*
X105208D01*
X116736D02*
X119728D01*
X101512Y41968D02*
X105120D01*
X116736D02*
X119728D01*
X101556Y42012D02*
X105032D01*
X116736D02*
X119728D01*
X101600Y42056D02*
X104988D01*
X116736D02*
X119728D01*
X101644Y42100D02*
X104900D01*
X116736D02*
X119772D01*
X101644Y42144D02*
X104812D01*
X116736D02*
X119772D01*
X101688Y42188D02*
X104724D01*
X116736D02*
X119772D01*
X101732Y42232D02*
X104680D01*
X116736D02*
X119772D01*
X101776Y42276D02*
X104592D01*
X116736D02*
X119772D01*
X101776Y42320D02*
X104548D01*
X116736D02*
X119816D01*
X101820Y42364D02*
X104592D01*
X116736D02*
X119816D01*
X101864Y42408D02*
X104636D01*
X116736D02*
X119816D01*
X101908Y42452D02*
X104636D01*
X116736D02*
X119816D01*
X101952Y42496D02*
X104680D01*
X116736D02*
X119816D01*
X101952Y42540D02*
X104724D01*
X116736D02*
X119860D01*
X101996Y42584D02*
X104768D01*
X116736D02*
X119860D01*
X102040Y42628D02*
X104812D01*
X116736D02*
X119860D01*
X102084Y42672D02*
X104812D01*
X116736D02*
X119860D01*
X102084Y42716D02*
X104856D01*
X116736D02*
X119860D01*
X102128Y42760D02*
X104900D01*
X114008D02*
X114096D01*
X116736D02*
X119904D01*
X102172Y42804D02*
X104944D01*
X113964D02*
X114096D01*
X116736D02*
X119904D01*
X102216Y42848D02*
X104944D01*
X113876D02*
X114096D01*
X116736D02*
X119904D01*
X102260Y42892D02*
X104988D01*
X113788D02*
X114096D01*
X116736D02*
X119904D01*
X102260Y42936D02*
X105032D01*
X113700D02*
X114140D01*
X116736D02*
X119948D01*
X102304Y42980D02*
X105076D01*
X113656D02*
X114140D01*
X116736D02*
X119948D01*
X102348Y43024D02*
X105120D01*
X113568D02*
X114140D01*
X116736D02*
X119948D01*
X102392Y43068D02*
X105120D01*
X113480D02*
X114140D01*
X116736D02*
X119948D01*
X102392Y43112D02*
X105164D01*
X113436D02*
X114140D01*
X116736D02*
X119948D01*
X102436Y43156D02*
X105208D01*
X113348D02*
X114140D01*
X116736D02*
X119992D01*
X102480Y43200D02*
X105252D01*
X113260D02*
X114184D01*
X116736D02*
X119992D01*
X102524Y43244D02*
X105252D01*
X113172D02*
X114184D01*
X116736D02*
X119992D01*
X102568Y43288D02*
X105296D01*
X113128D02*
X114184D01*
X116736D02*
X119992D01*
X102568Y43332D02*
X105340D01*
X113040D02*
X114184D01*
X116736D02*
X119992D01*
X102612Y43376D02*
X105384D01*
X112952D02*
X114184D01*
X116736D02*
X120036D01*
X102656Y43420D02*
X105428D01*
X112864D02*
X114228D01*
X116736D02*
X120036D01*
X102700Y43464D02*
X105428D01*
X112820D02*
X114228D01*
X116736D02*
X120036D01*
X102744Y43508D02*
X105472D01*
X112732D02*
X114228D01*
X116736D02*
X120036D01*
X102744Y43552D02*
X105516D01*
X112644D02*
X114228D01*
X116736D02*
X120080D01*
X102788Y43596D02*
X105560D01*
X112556D02*
X114228D01*
X116736D02*
X120080D01*
X102832Y43640D02*
X105560D01*
X112512D02*
X114272D01*
X116736D02*
X120080D01*
X102876Y43684D02*
X105604D01*
X112424D02*
X114272D01*
X116736D02*
X120080D01*
X102876Y43728D02*
X105648D01*
X112336D02*
X114272D01*
X116736D02*
X120080D01*
X102920Y43772D02*
X105692D01*
X112292D02*
X114272D01*
X116736D02*
X120124D01*
X102964Y43816D02*
X105736D01*
X112204D02*
X114272D01*
X116736D02*
X120124D01*
X103008Y43860D02*
X105736D01*
X112116D02*
X114272D01*
X116736D02*
X120124D01*
X103008Y43904D02*
X105780D01*
X112028D02*
X114316D01*
X116736D02*
X120124D01*
X103052Y43948D02*
X105824D01*
X111984D02*
X114316D01*
X116736D02*
X120124D01*
X103096Y43992D02*
X105868D01*
X111896D02*
X114316D01*
X116736D02*
X120168D01*
X103140Y44036D02*
X105868D01*
X111808D02*
X114316D01*
X116736D02*
X120168D01*
X103184Y44080D02*
X105912D01*
X111720D02*
X114316D01*
X116736D02*
X120168D01*
X103184Y44124D02*
X105956D01*
X111676D02*
X114360D01*
X116736D02*
X120168D01*
X103228Y44168D02*
X106000D01*
X111588D02*
X114360D01*
X116736D02*
X120168D01*
X103272Y44212D02*
X106044D01*
X111500D02*
X114360D01*
X116736D02*
X120212D01*
X103316Y44256D02*
X106044D01*
X111456D02*
X114360D01*
X116736D02*
X120212D01*
X103360Y44300D02*
X106088D01*
X111368D02*
X114360D01*
X116736D02*
X120212D01*
X103360Y44344D02*
X106132D01*
X111280D02*
X114360D01*
X116736D02*
X120212D01*
X103404Y44388D02*
X106176D01*
X111192D02*
X114404D01*
X116736D02*
X120256D01*
X103448Y44432D02*
X106220D01*
X111148D02*
X114404D01*
X116736D02*
X120256D01*
X103492Y44476D02*
X106220D01*
X111060D02*
X114404D01*
X116736D02*
X120256D01*
X103492Y44520D02*
X106264D01*
X110972D02*
X114404D01*
X116736D02*
X120256D01*
X103536Y44564D02*
X106308D01*
X110884D02*
X114404D01*
X116736D02*
X120256D01*
X103580Y44608D02*
X106352D01*
X110840D02*
X114448D01*
X116736D02*
X120300D01*
X103624Y44652D02*
X106352D01*
X110752D02*
X114448D01*
X116736D02*
X120300D01*
X103668Y44696D02*
X106396D01*
X110664D02*
X114448D01*
X116736D02*
X120300D01*
X103668Y44740D02*
X106440D01*
X110576D02*
X114448D01*
X116736D02*
X120300D01*
X103712Y44784D02*
X106484D01*
X110532D02*
X114448D01*
X116736D02*
X120300D01*
X103756Y44828D02*
X106528D01*
X110444D02*
X114492D01*
X116736D02*
X120344D01*
X103800Y44872D02*
X106528D01*
X110356D02*
X114492D01*
X116736D02*
X120344D01*
X103800Y44916D02*
X106572D01*
X110312D02*
X114492D01*
X116736D02*
X120344D01*
X103844Y44960D02*
X106616D01*
X110224D02*
X114492D01*
X116736D02*
X120344D01*
X103888Y45004D02*
X106660D01*
X110136D02*
X114492D01*
X116736D02*
X120388D01*
X103932Y45048D02*
X106660D01*
X110048D02*
X114492D01*
X116736D02*
X120388D01*
X103976Y45092D02*
X106704D01*
X110004D02*
X114536D01*
X116736D02*
X120388D01*
X103976Y45136D02*
X106748D01*
X109916D02*
X114536D01*
X116736D02*
X120388D01*
X104020Y45180D02*
X106792D01*
X109828D02*
X114536D01*
X116736D02*
X120388D01*
X104064Y45224D02*
X106836D01*
X109740D02*
X114536D01*
X116736D02*
X120432D01*
X104108Y45268D02*
X106836D01*
X109696D02*
X114536D01*
X116736D02*
X120432D01*
X104108Y45312D02*
X106880D01*
X109608D02*
X114580D01*
X116736D02*
X120432D01*
X104152Y45356D02*
X106924D01*
X109520D02*
X114580D01*
X116736D02*
X120432D01*
X104196Y45400D02*
X106968D01*
X109476D02*
X114580D01*
X116736D02*
X120432D01*
X104240Y45444D02*
X106968D01*
X109388D02*
X114580D01*
X116736D02*
X120476D01*
X104284Y45488D02*
X107012D01*
X109300D02*
X114580D01*
X116736D02*
X120476D01*
X104284Y45532D02*
X107056D01*
X109212D02*
X114624D01*
X116736D02*
X120476D01*
X104328Y45576D02*
X107100D01*
X109168D02*
X114624D01*
X116736D02*
X120476D01*
X104372Y45620D02*
X107144D01*
X109080D02*
X112864D01*
X112952D02*
X114624D01*
X116736D02*
X120520D01*
X104416Y45664D02*
X107144D01*
X108992D02*
X112776D01*
X112952D02*
X114624D01*
X116736D02*
X120520D01*
X104416Y45708D02*
X107188D01*
X108948D02*
X112688D01*
X112952D02*
X114624D01*
X116736D02*
X120520D01*
X104460Y45752D02*
X107232D01*
X108860D02*
X112644D01*
X112952D02*
X114624D01*
X116736D02*
X120520D01*
X104504Y45796D02*
X107276D01*
X108772D02*
X112556D01*
X112952D02*
X114668D01*
X116736D02*
X120520D01*
X104548Y45840D02*
X107276D01*
X108684D02*
X112468D01*
X112996D02*
X114668D01*
X116736D02*
X120564D01*
X104592Y45884D02*
X107320D01*
X108640D02*
X112380D01*
X112996D02*
X114668D01*
X116736D02*
X120696D01*
X104592Y45928D02*
X107364D01*
X108552D02*
X112336D01*
X112996D02*
X114668D01*
X116736D02*
X120784D01*
X104636Y45972D02*
X107408D01*
X108464D02*
X112248D01*
X112996D02*
X114668D01*
X116736D02*
X120916D01*
X104680Y46016D02*
X107452D01*
X108376D02*
X112160D01*
X112996D02*
X114712D01*
X116736D02*
X121048D01*
X104724Y46060D02*
X107452D01*
X108332D02*
X112072D01*
X113040D02*
X114712D01*
X116736D02*
X121136D01*
X104724Y46104D02*
X107496D01*
X108244D02*
X112028D01*
X113040D02*
X114712D01*
X116736D02*
X121268D01*
X104768Y46148D02*
X107540D01*
X108156D02*
X111940D01*
X113040D02*
X114712D01*
X116736D02*
X121356D01*
X104812Y46192D02*
X107584D01*
X108112D02*
X111852D01*
X113040D02*
X114712D01*
X116736D02*
X121444D01*
X104856Y46236D02*
X107584D01*
X108024D02*
X111808D01*
X113040D02*
X114712D01*
X116736D02*
X121576D01*
X104900Y46280D02*
X107628D01*
X107936D02*
X111720D01*
X113040D02*
X114756D01*
X116736D02*
X121664D01*
X104900Y46324D02*
X107672D01*
X107848D02*
X111632D01*
X113084D02*
X114756D01*
X116736D02*
X121752D01*
X104944Y46368D02*
X107716D01*
X107804D02*
X111544D01*
X113084D02*
X114756D01*
X116736D02*
X121840D01*
X104988Y46412D02*
X111500D01*
X113084D02*
X114756D01*
X116736D02*
X121928D01*
X105032Y46456D02*
X111412D01*
X113084D02*
X114756D01*
X116736D02*
X122016D01*
X105076Y46500D02*
X111324D01*
X113084D02*
X114800D01*
X116736D02*
X122104D01*
X105076Y46544D02*
X111236D01*
X113128D02*
X114800D01*
X116736D02*
X122192D01*
X105120Y46588D02*
X111192D01*
X113128D02*
X114800D01*
X116736D02*
X122280D01*
X105164Y46632D02*
X111104D01*
X113128D02*
X114800D01*
X116736D02*
X122368D01*
X105208Y46676D02*
X111016D01*
X113128D02*
X114800D01*
X116736D02*
X122412D01*
X128880D02*
X129012D01*
X105208Y46720D02*
X110972D01*
X113128D02*
X114844D01*
X116736D02*
X122500D01*
X128748D02*
X129012D01*
X105252Y46764D02*
X110884D01*
X113172D02*
X114844D01*
X116736D02*
X122588D01*
X128616D02*
X129056D01*
X105296Y46808D02*
X110796D01*
X113172D02*
X114844D01*
X116736D02*
X122676D01*
X128440D02*
X129056D01*
X105340Y46852D02*
X110708D01*
X113172D02*
X114844D01*
X116736D02*
X122720D01*
X128308D02*
X129100D01*
X105384Y46896D02*
X110664D01*
X113172D02*
X114844D01*
X116736D02*
X122808D01*
X128176D02*
X129144D01*
X105384Y46940D02*
X110576D01*
X113172D02*
X114844D01*
X116736D02*
X122896D01*
X128044D02*
X129144D01*
X105428Y46984D02*
X110488D01*
X113172D02*
X114888D01*
X116736D02*
X122940D01*
X127912D02*
X129188D01*
X105472Y47028D02*
X110400D01*
X113216D02*
X114888D01*
X116736D02*
X123028D01*
X127780D02*
X129188D01*
X105516Y47072D02*
X110356D01*
X113216D02*
X114888D01*
X116736D02*
X123116D01*
X127648D02*
X129232D01*
X105516Y47116D02*
X110268D01*
X113216D02*
X114888D01*
X116736D02*
X123160D01*
X127516D02*
X129232D01*
X105560Y47160D02*
X110180D01*
X113216D02*
X114888D01*
X116736D02*
X123248D01*
X127384D02*
X129276D01*
X105604Y47204D02*
X110136D01*
X113216D02*
X114932D01*
X116736D02*
X123292D01*
X127252D02*
X129320D01*
X105648Y47248D02*
X110048D01*
X113260D02*
X114932D01*
X116736D02*
X123380D01*
X127120D02*
X129320D01*
X105692Y47292D02*
X109960D01*
X113260D02*
X114932D01*
X116736D02*
X123424D01*
X126988D02*
X129364D01*
X105692Y47336D02*
X109872D01*
X113260D02*
X114932D01*
X116736D02*
X123468D01*
X126812D02*
X129364D01*
X105736Y47380D02*
X109828D01*
X113260D02*
X114932D01*
X116736D02*
X123556D01*
X126680D02*
X129408D01*
X105780Y47424D02*
X109740D01*
X113260D02*
X114976D01*
X116736D02*
X123600D01*
X126548D02*
X129408D01*
X105824Y47468D02*
X109652D01*
X113304D02*
X114976D01*
X116736D02*
X123688D01*
X126416D02*
X129452D01*
X105824Y47512D02*
X109564D01*
X113304D02*
X114976D01*
X116736D02*
X123732D01*
X126284D02*
X129496D01*
X105868Y47556D02*
X109520D01*
X113304D02*
X114976D01*
X116736D02*
X123776D01*
X126152D02*
X129496D01*
X105912Y47600D02*
X109432D01*
X113304D02*
X114976D01*
X117572D02*
X123864D01*
X126020D02*
X129540D01*
X105956Y47644D02*
X109344D01*
X113304D02*
X114976D01*
X117968D02*
X123908D01*
X125888D02*
X129540D01*
X106000Y47688D02*
X109256D01*
X113216D02*
X115020D01*
X118276D02*
X123952D01*
X125756D02*
X129584D01*
X106000Y47732D02*
X109212D01*
X113128D02*
X115020D01*
X118496D02*
X124040D01*
X125624D02*
X129584D01*
X106044Y47776D02*
X109124D01*
X113040D02*
X115020D01*
X118716D02*
X124084D01*
X125492D02*
X129628D01*
X106088Y47820D02*
X109036D01*
X112996D02*
X115020D01*
X118936D02*
X124128D01*
X125360D02*
X129672D01*
X106132Y47864D02*
X108992D01*
X112908D02*
X115020D01*
X119112D02*
X124172D01*
X125228D02*
X129672D01*
X106132Y47908D02*
X108904D01*
X112820D02*
X115064D01*
X119244D02*
X124260D01*
X125096D02*
X129716D01*
X106176Y47952D02*
X108816D01*
X112776D02*
X115064D01*
X119420D02*
X124304D01*
X124964D02*
X129716D01*
X106220Y47996D02*
X108728D01*
X112688D02*
X115064D01*
X119552D02*
X124348D01*
X124788D02*
X129760D01*
X106264Y48040D02*
X108684D01*
X112600D02*
X115064D01*
X119684D02*
X124392D01*
X124656D02*
X129804D01*
X106308Y48084D02*
X108596D01*
X112512D02*
X115064D01*
X119816D02*
X124436D01*
X124524D02*
X129804D01*
X106308Y48128D02*
X108508D01*
X112468D02*
X115064D01*
X119948D02*
X129848D01*
X106352Y48172D02*
X108420D01*
X112380D02*
X115108D01*
X120080D02*
X129848D01*
X106396Y48216D02*
X108376D01*
X112292D02*
X115108D01*
X120168D02*
X129892D01*
X106440Y48260D02*
X108288D01*
X112204D02*
X115108D01*
X120300D02*
X129892D01*
X106484Y48304D02*
X108200D01*
X112160D02*
X115108D01*
X120388D02*
X129936D01*
X106484Y48348D02*
X108156D01*
X112072D02*
X115108D01*
X120476D02*
X129980D01*
X106528Y48392D02*
X108068D01*
X111984D02*
X115152D01*
X120608D02*
X129980D01*
X106572Y48436D02*
X107980D01*
X111940D02*
X115152D01*
X120696D02*
X130024D01*
X106616Y48480D02*
X107892D01*
X111852D02*
X115152D01*
X120784D02*
X130024D01*
X106616Y48524D02*
X107848D01*
X111764D02*
X115064D01*
X120872D02*
X130068D01*
X106660Y48568D02*
X107760D01*
X111676D02*
X114976D01*
X120960D02*
X130068D01*
X106704Y48612D02*
X107672D01*
X111632D02*
X114932D01*
X121048D02*
X130112D01*
X106748Y48656D02*
X107584D01*
X111544D02*
X114844D01*
X121136D02*
X130156D01*
X106792Y48700D02*
X107540D01*
X111456D02*
X114756D01*
X121224D02*
X130156D01*
X106792Y48744D02*
X107452D01*
X111368D02*
X114712D01*
X121312D02*
X130200D01*
X106836Y48788D02*
X107364D01*
X111324D02*
X114624D01*
X121356D02*
X130200D01*
X106880Y48832D02*
X107320D01*
X111236D02*
X114536D01*
X121444D02*
X130244D01*
X106924Y48876D02*
X107232D01*
X111148D02*
X114448D01*
X121532D02*
X130244D01*
X106924Y48920D02*
X107144D01*
X111060D02*
X114404D01*
X121620D02*
X130288D01*
X106968Y48964D02*
X107056D01*
X111016D02*
X114316D01*
X121664D02*
X130332D01*
X110928Y49008D02*
X114228D01*
X121752D02*
X130332D01*
X110840Y49052D02*
X114140D01*
X121796D02*
X130376D01*
X110796Y49096D02*
X114096D01*
X121884D02*
X130376D01*
X103052Y49140D02*
X103184D01*
X110708D02*
X114008D01*
X121928D02*
X130420D01*
X103008Y49184D02*
X103228D01*
X110620D02*
X113920D01*
X122016D02*
X130464D01*
X103008Y49228D02*
X103316D01*
X110532D02*
X113832D01*
X122060D02*
X130464D01*
X102964Y49272D02*
X103404D01*
X110488D02*
X113788D01*
X122148D02*
X130508D01*
X102964Y49316D02*
X103492D01*
X110400D02*
X113700D01*
X122192D02*
X130508D01*
X102920Y49360D02*
X103536D01*
X110312D02*
X113612D01*
X122280D02*
X130552D01*
X102876Y49404D02*
X103624D01*
X110224D02*
X113568D01*
X122324D02*
X130552D01*
X102876Y49448D02*
X103712D01*
X110180D02*
X113480D01*
X122368D02*
X130596D01*
X102832Y49492D02*
X103800D01*
X110136D02*
X113392D01*
X122456D02*
X130640D01*
X102832Y49536D02*
X103844D01*
X110180D02*
X113304D01*
X122500D02*
X130640D01*
X102788Y49580D02*
X103932D01*
X110224D02*
X113260D01*
X122544D02*
X130684D01*
X102788Y49624D02*
X104020D01*
X110224D02*
X113172D01*
X122588D02*
X130684D01*
X102744Y49668D02*
X104064D01*
X110268D02*
X113084D01*
X122676D02*
X130728D01*
X102700Y49712D02*
X104152D01*
X110312D02*
X112996D01*
X122720D02*
X130728D01*
X102700Y49756D02*
X104240D01*
X110356D02*
X112952D01*
X122764D02*
X130772D01*
X102656Y49800D02*
X104328D01*
X110400D02*
X112864D01*
X122808D02*
X130816D01*
X102656Y49844D02*
X104372D01*
X110400D02*
X112776D01*
X122852D02*
X130816D01*
X102612Y49888D02*
X104460D01*
X110444D02*
X112732D01*
X122940D02*
X130860D01*
X102612Y49932D02*
X104548D01*
X110488D02*
X112644D01*
X116252D02*
X117220D01*
X122984D02*
X130860D01*
X102568Y49976D02*
X104636D01*
X110532D02*
X112556D01*
X115812D02*
X117660D01*
X123028D02*
X130904D01*
X102524Y50020D02*
X104680D01*
X110532D02*
X112468D01*
X115504D02*
X117968D01*
X123072D02*
X130904D01*
X102524Y50064D02*
X104768D01*
X110576D02*
X112424D01*
X115504D02*
X118188D01*
X123116D02*
X130948D01*
X102480Y50108D02*
X104856D01*
X110620D02*
X112336D01*
X115504D02*
X118364D01*
X123160D02*
X130992D01*
X102480Y50152D02*
X104944D01*
X110664D02*
X112248D01*
X115548D02*
X118540D01*
X123204D02*
X130992D01*
X102436Y50196D02*
X104988D01*
X110708D02*
X112204D01*
X115548D02*
X118716D01*
X123248D02*
X131036D01*
X102436Y50240D02*
X105076D01*
X110708D02*
X112204D01*
X115548D02*
X118848D01*
X123292D02*
X131036D01*
X102392Y50284D02*
X105164D01*
X110752D02*
X112248D01*
X115548D02*
X118980D01*
X123336D02*
X131080D01*
X102348Y50328D02*
X105208D01*
X110796D02*
X112292D01*
X115548D02*
X119112D01*
X123380D02*
X131124D01*
X102348Y50372D02*
X105296D01*
X110840D02*
X112336D01*
X115548D02*
X119244D01*
X123424D02*
X131124D01*
X102304Y50416D02*
X105384D01*
X110840D02*
X112380D01*
X115592D02*
X119332D01*
X123468D02*
X131168D01*
X102304Y50460D02*
X105472D01*
X110884D02*
X112380D01*
X115592D02*
X119464D01*
X123512D02*
X131168D01*
X102260Y50504D02*
X105516D01*
X110928D02*
X112424D01*
X115592D02*
X119552D01*
X123556D02*
X131212D01*
X102260Y50548D02*
X105604D01*
X110972D02*
X112468D01*
X115592D02*
X119640D01*
X123600D02*
X131212D01*
X102216Y50592D02*
X105692D01*
X111016D02*
X112512D01*
X115592D02*
X119772D01*
X123644D02*
X131256D01*
X102172Y50636D02*
X105780D01*
X111016D02*
X112512D01*
X115636D02*
X119860D01*
X123688D02*
X131300D01*
X102172Y50680D02*
X105824D01*
X111060D02*
X112556D01*
X115636D02*
X119948D01*
X123732D02*
X131300D01*
X102128Y50724D02*
X105912D01*
X111104D02*
X112600D01*
X115636D02*
X120036D01*
X123776D02*
X131344D01*
X102128Y50768D02*
X106000D01*
X111148D02*
X112644D01*
X115636D02*
X120080D01*
X123820D02*
X131344D01*
X102084Y50812D02*
X106044D01*
X111148D02*
X112688D01*
X115636D02*
X120168D01*
X123820D02*
X131388D01*
X102040Y50856D02*
X106132D01*
X111192D02*
X112688D01*
X115636D02*
X120256D01*
X123864D02*
X131388D01*
X102040Y50900D02*
X106220D01*
X111236D02*
X112732D01*
X115680D02*
X120344D01*
X123908D02*
X131432D01*
X101996Y50944D02*
X106308D01*
X111280D02*
X112776D01*
X115680D02*
X120388D01*
X123952D02*
X131476D01*
X101996Y50988D02*
X106352D01*
X111324D02*
X112820D01*
X115680D02*
X120476D01*
X123996D02*
X131476D01*
X101952Y51032D02*
X106440D01*
X111324D02*
X112820D01*
X115680D02*
X120564D01*
X124040D02*
X131520D01*
X101952Y51076D02*
X106528D01*
X111368D02*
X112864D01*
X115680D02*
X120608D01*
X124084D02*
X131520D01*
X101908Y51120D02*
X106616D01*
X111412D02*
X112908D01*
X115680D02*
X120696D01*
X124084D02*
X131564D01*
X101864Y51164D02*
X106660D01*
X111456D02*
X112952D01*
X115724D02*
X120740D01*
X124128D02*
X131564D01*
X101864Y51208D02*
X106748D01*
X111456D02*
X112996D01*
X115724D02*
X120828D01*
X124172D02*
X131608D01*
X101820Y51252D02*
X106836D01*
X111500D02*
X112996D01*
X115724D02*
X120872D01*
X124216D02*
X131652D01*
X101820Y51296D02*
X106924D01*
X111544D02*
X113040D01*
X115724D02*
X120916D01*
X124216D02*
X131652D01*
X101776Y51340D02*
X106968D01*
X111588D02*
X113084D01*
X115724D02*
X121004D01*
X124260D02*
X131696D01*
X101776Y51384D02*
X107056D01*
X111632D02*
X113128D01*
X115724D02*
X121048D01*
X124304D02*
X131696D01*
X101732Y51428D02*
X107144D01*
X111632D02*
X113128D01*
X115768D02*
X121092D01*
X124348D02*
X131740D01*
X101688Y51472D02*
X107188D01*
X111676D02*
X113172D01*
X115768D02*
X121180D01*
X124348D02*
X131784D01*
X101688Y51516D02*
X107276D01*
X111720D02*
X113216D01*
X115768D02*
X121224D01*
X124392D02*
X131784D01*
X101688Y51560D02*
X107364D01*
X111764D02*
X113260D01*
X115768D02*
X121268D01*
X124436D02*
X131784D01*
X101732Y51604D02*
X107452D01*
X111764D02*
X113304D01*
X115768D02*
X121312D01*
X124436D02*
X131740D01*
X101776Y51648D02*
X107496D01*
X111808D02*
X113304D01*
X115812D02*
X121356D01*
X124480D02*
X131696D01*
X101820Y51692D02*
X107584D01*
X111852D02*
X113348D01*
X115812D02*
X121400D01*
X124524D02*
X131652D01*
X101864Y51736D02*
X107672D01*
X111896D02*
X113392D01*
X115812D02*
X121488D01*
X124568D02*
X131564D01*
X101952Y51780D02*
X107760D01*
X111940D02*
X113436D01*
X115812D02*
X121532D01*
X124568D02*
X131520D01*
X101996Y51824D02*
X107804D01*
X111940D02*
X113436D01*
X115812D02*
X121576D01*
X124612D02*
X131476D01*
X102040Y51868D02*
X107892D01*
X111984D02*
X113480D01*
X115812D02*
X121620D01*
X124656D02*
X131432D01*
X102084Y51912D02*
X107980D01*
X112028D02*
X113524D01*
X115856D02*
X121664D01*
X124656D02*
X131388D01*
X102128Y51956D02*
X108024D01*
X112072D02*
X113568D01*
X115856D02*
X121708D01*
X124700D02*
X131344D01*
X102172Y52000D02*
X108112D01*
X112116D02*
X113612D01*
X115856D02*
X121752D01*
X124700D02*
X131300D01*
X102216Y52044D02*
X108200D01*
X112116D02*
X113612D01*
X115856D02*
X121796D01*
X124744D02*
X131256D01*
X102260Y52088D02*
X108288D01*
X112160D02*
X113656D01*
X115856D02*
X121840D01*
X124788D02*
X131212D01*
X102304Y52132D02*
X108332D01*
X112204D02*
X113700D01*
X115856D02*
X121884D01*
X124788D02*
X131168D01*
X102392Y52176D02*
X108420D01*
X112248D02*
X113744D01*
X115900D02*
X121928D01*
X124832D02*
X131080D01*
X102436Y52220D02*
X108508D01*
X112248D02*
X113788D01*
X115900D02*
X121972D01*
X124832D02*
X131036D01*
X102480Y52264D02*
X108596D01*
X112292D02*
X113788D01*
X115900D02*
X121972D01*
X124876D02*
X130992D01*
X102524Y52308D02*
X108552D01*
X112336D02*
X113832D01*
X115900D02*
X122016D01*
X124920D02*
X130948D01*
X102568Y52352D02*
X108552D01*
X112380D02*
X113876D01*
X115900D02*
X122060D01*
X124920D02*
X130904D01*
X102612Y52396D02*
X108508D01*
X112424D02*
X113920D01*
X115944D02*
X122104D01*
X124964D02*
X130860D01*
X102656Y52440D02*
X108508D01*
X112424D02*
X113920D01*
X115944D02*
X122148D01*
X124964D02*
X130816D01*
X102700Y52484D02*
X108464D01*
X112468D02*
X113964D01*
X115944D02*
X122192D01*
X125008D02*
X130772D01*
X102744Y52528D02*
X108464D01*
X112512D02*
X114008D01*
X115944D02*
X122236D01*
X125008D02*
X130728D01*
X102832Y52572D02*
X108420D01*
X112556D02*
X114052D01*
X115944D02*
X122236D01*
X125052D02*
X130640D01*
X102876Y52616D02*
X108376D01*
X112556D02*
X114096D01*
X115944D02*
X122280D01*
X125052D02*
X130596D01*
X102920Y52660D02*
X108376D01*
X112600D02*
X114096D01*
X115988D02*
X122324D01*
X125096D02*
X130552D01*
X102964Y52704D02*
X108332D01*
X112644D02*
X114140D01*
X115988D02*
X122368D01*
X125096D02*
X130508D01*
X103008Y52748D02*
X108332D01*
X112688D02*
X114184D01*
X115988D02*
X122368D01*
X125140D02*
X130464D01*
X103052Y52792D02*
X108288D01*
X112732D02*
X114228D01*
X115988D02*
X122412D01*
X125140D02*
X130420D01*
X103096Y52836D02*
X108288D01*
X112732D02*
X114228D01*
X115988D02*
X122456D01*
X125184D02*
X130376D01*
X103140Y52880D02*
X108244D01*
X112776D02*
X114272D01*
X115988D02*
X122500D01*
X125184D02*
X130332D01*
X103184Y52924D02*
X108244D01*
X112820D02*
X114316D01*
X116032D02*
X122500D01*
X125228D02*
X130288D01*
X103272Y52968D02*
X108244D01*
X112864D02*
X114360D01*
X116032D02*
X122544D01*
X125228D02*
X130200D01*
X103316Y53012D02*
X108200D01*
X112864D02*
X114404D01*
X116032D02*
X122588D01*
X125272D02*
X130156D01*
X103360Y53056D02*
X108200D01*
X112908D02*
X114404D01*
X116032D02*
X122588D01*
X125272D02*
X130112D01*
X103404Y53100D02*
X108156D01*
X112952D02*
X114448D01*
X116032D02*
X122632D01*
X125316D02*
X130068D01*
X103448Y53144D02*
X108156D01*
X112996D02*
X114492D01*
X116076D02*
X122676D01*
X125316D02*
X130024D01*
X103492Y53188D02*
X108112D01*
X113040D02*
X114536D01*
X116076D02*
X122676D01*
X125360D02*
X129980D01*
X103536Y53232D02*
X108112D01*
X113040D02*
X114536D01*
X116076D02*
X122720D01*
X125360D02*
X129936D01*
X103580Y53276D02*
X108068D01*
X113084D02*
X114580D01*
X116076D02*
X122764D01*
X125404D02*
X129892D01*
X103624Y53320D02*
X108068D01*
X113128D02*
X114624D01*
X116076D02*
X122764D01*
X125404D02*
X129848D01*
X103668Y53364D02*
X108068D01*
X113172D02*
X114668D01*
X116076D02*
X122808D01*
X125404D02*
X129760D01*
X103756Y53408D02*
X108024D01*
X113172D02*
X114712D01*
X116120D02*
X122808D01*
X125448D02*
X129716D01*
X103800Y53452D02*
X108024D01*
X113216D02*
X114712D01*
X116120D02*
X122852D01*
X125448D02*
X129672D01*
X103844Y53496D02*
X107980D01*
X113260D02*
X114756D01*
X116120D02*
X122896D01*
X125492D02*
X129628D01*
X103888Y53540D02*
X107980D01*
X113304D02*
X114800D01*
X116120D02*
X122896D01*
X125492D02*
X129584D01*
X103932Y53584D02*
X107980D01*
X113348D02*
X114844D01*
X116120D02*
X122940D01*
X125492D02*
X129540D01*
X103976Y53628D02*
X107936D01*
X113348D02*
X114844D01*
X116120D02*
X122940D01*
X125536D02*
X129496D01*
X104020Y53672D02*
X107936D01*
X113392D02*
X114888D01*
X116164D02*
X122984D01*
X125536D02*
X129452D01*
X104064Y53716D02*
X107892D01*
X113436D02*
X114932D01*
X116164D02*
X122984D01*
X125580D02*
X129408D01*
X104108Y53760D02*
X107892D01*
X113480D02*
X114976D01*
X116164D02*
X123028D01*
X125580D02*
X129320D01*
X104196Y53804D02*
X107892D01*
X113524D02*
X115020D01*
X116164D02*
X123028D01*
X125580D02*
X129276D01*
X104240Y53848D02*
X107848D01*
X113524D02*
X115020D01*
X116164D02*
X123072D01*
X125624D02*
X129232D01*
X104284Y53892D02*
X107848D01*
X113568D02*
X115064D01*
X116208D02*
X123072D01*
X125624D02*
X129188D01*
X104328Y53936D02*
X107848D01*
X113612D02*
X115108D01*
X116208D02*
X116472D01*
X117000D02*
X123116D01*
X125624D02*
X129144D01*
X104372Y53980D02*
X107804D01*
X113656D02*
X115152D01*
X117308D02*
X123116D01*
X125668D02*
X129100D01*
X104416Y54024D02*
X107804D01*
X113656D02*
X115196D01*
X117528D02*
X123160D01*
X125668D02*
X129056D01*
X104460Y54068D02*
X107804D01*
X113700D02*
X115196D01*
X117660D02*
X123160D01*
X125668D02*
X129012D01*
X104504Y54112D02*
X107760D01*
X110268D02*
X110312D01*
X113744D02*
X115240D01*
X117792D02*
X123204D01*
X125712D02*
X128968D01*
X104548Y54156D02*
X107760D01*
X110268D02*
X110400D01*
X113788D02*
X115284D01*
X117924D02*
X123204D01*
X125712D02*
X128880D01*
X104636Y54200D02*
X107760D01*
X110224D02*
X110488D01*
X113832D02*
X115328D01*
X118012D02*
X123204D01*
X125712D02*
X128836D01*
X104680Y54244D02*
X107716D01*
X110224D02*
X110576D01*
X113832D02*
X115328D01*
X118100D02*
X123248D01*
X125756D02*
X128792D01*
X104724Y54288D02*
X107716D01*
X110224D02*
X110708D01*
X113876D02*
X115372D01*
X118188D02*
X119992D01*
X120080D02*
X123248D01*
X125756D02*
X128748D01*
X104768Y54332D02*
X107716D01*
X110180D02*
X110796D01*
X113920D02*
X115416D01*
X118276D02*
X119904D01*
X120080D02*
X123292D01*
X125756D02*
X128704D01*
X104812Y54376D02*
X107672D01*
X110180D02*
X110884D01*
X113964D02*
X115460D01*
X118320D02*
X119816D01*
X120124D02*
X123292D01*
X125756D02*
X128660D01*
X104856Y54420D02*
X107672D01*
X110136D02*
X110972D01*
X113964D02*
X115504D01*
X118408D02*
X119772D01*
X120124D02*
X123292D01*
X125800D02*
X128616D01*
X104900Y54464D02*
X107672D01*
X110136D02*
X111104D01*
X114008D02*
X115504D01*
X118452D02*
X119684D01*
X120168D02*
X123336D01*
X125800D02*
X128572D01*
X104944Y54508D02*
X107672D01*
X110136D02*
X111192D01*
X114052D02*
X115548D01*
X118540D02*
X119596D01*
X120212D02*
X123336D01*
X125800D02*
X128528D01*
X104988Y54552D02*
X107628D01*
X110092D02*
X111280D01*
X114096D02*
X115592D01*
X118584D02*
X119552D01*
X120212D02*
X123380D01*
X125844D02*
X128440D01*
X105076Y54596D02*
X107628D01*
X110092D02*
X111368D01*
X114140D02*
X115636D01*
X118628D02*
X119464D01*
X120256D02*
X123380D01*
X125844D02*
X128396D01*
X105120Y54640D02*
X107628D01*
X110092D02*
X111500D01*
X114140D02*
X115636D01*
X118716D02*
X119376D01*
X120256D02*
X123380D01*
X125844D02*
X128352D01*
X105164Y54684D02*
X107628D01*
X110048D02*
X111588D01*
X114184D02*
X115680D01*
X118760D02*
X119288D01*
X120300D02*
X123424D01*
X125844D02*
X128308D01*
X105208Y54728D02*
X107584D01*
X110048D02*
X111676D01*
X114228D02*
X115724D01*
X118804D02*
X119244D01*
X120300D02*
X123424D01*
X125888D02*
X128264D01*
X105164Y54772D02*
X107584D01*
X110048D02*
X111764D01*
X114272D02*
X115768D01*
X118848D02*
X119156D01*
X120344D02*
X123424D01*
X125888D02*
X128308D01*
X105164Y54816D02*
X107584D01*
X110004D02*
X111896D01*
X114272D02*
X115812D01*
X118892D02*
X119068D01*
X120388D02*
X123468D01*
X125888D02*
X128308D01*
X105164Y54860D02*
X107584D01*
X110004D02*
X111984D01*
X114316D02*
X115812D01*
X118936D02*
X118980D01*
X120388D02*
X123468D01*
X125888D02*
X128308D01*
X105164Y54904D02*
X107540D01*
X110004D02*
X112072D01*
X114360D02*
X115856D01*
X120432D02*
X123468D01*
X125932D02*
X128308D01*
X105164Y54948D02*
X107540D01*
X109960D02*
X112160D01*
X114404D02*
X115900D01*
X120432D02*
X123512D01*
X125932D02*
X128308D01*
X105120Y54992D02*
X107540D01*
X109960D02*
X112292D01*
X114448D02*
X115944D01*
X120476D02*
X123512D01*
X125932D02*
X128352D01*
X105120Y55036D02*
X107540D01*
X109960D02*
X112380D01*
X114448D02*
X115944D01*
X120520D02*
X123512D01*
X125932D02*
X128352D01*
X105120Y55080D02*
X107496D01*
X109916D02*
X112468D01*
X114492D02*
X115988D01*
X120520D02*
X123556D01*
X125932D02*
X128352D01*
X105120Y55124D02*
X107496D01*
X109916D02*
X112556D01*
X114536D02*
X116032D01*
X120564D02*
X123556D01*
X125976D02*
X128352D01*
X105120Y55168D02*
X107496D01*
X109916D02*
X112644D01*
X114580D02*
X116076D01*
X120564D02*
X123556D01*
X125976D02*
X128352D01*
X105120Y55212D02*
X107496D01*
X109916D02*
X112776D01*
X114624D02*
X116120D01*
X120608D02*
X123556D01*
X125976D02*
X128352D01*
X105076Y55256D02*
X107496D01*
X109872D02*
X112864D01*
X114624D02*
X116120D01*
X120608D02*
X123600D01*
X125976D02*
X128352D01*
X105076Y55300D02*
X107452D01*
X109872D02*
X112952D01*
X114668D02*
X116164D01*
X120652D02*
X123600D01*
X125976D02*
X128396D01*
X105076Y55344D02*
X107452D01*
X109872D02*
X113040D01*
X114712D02*
X116208D01*
X116560D02*
X116912D01*
X120696D02*
X123600D01*
X126020D02*
X128396D01*
X105076Y55388D02*
X107452D01*
X109872D02*
X113172D01*
X114756D02*
X116252D01*
X116296D02*
X117176D01*
X120696D02*
X123600D01*
X126020D02*
X128396D01*
X105076Y55432D02*
X107452D01*
X109828D02*
X113260D01*
X114756D02*
X117308D01*
X120740D02*
X123644D01*
X126020D02*
X128396D01*
X105076Y55476D02*
X107452D01*
X109828D02*
X113348D01*
X114800D02*
X117396D01*
X120740D02*
X123644D01*
X126020D02*
X128396D01*
X105076Y55520D02*
X107452D01*
X109828D02*
X113436D01*
X114844D02*
X117484D01*
X120696D02*
X123644D01*
X126020D02*
X128396D01*
X105032Y55564D02*
X107452D01*
X109828D02*
X113568D01*
X114888D02*
X117572D01*
X120608D02*
X123644D01*
X126020D02*
X128396D01*
X105032Y55608D02*
X107408D01*
X109828D02*
X113656D01*
X114888D02*
X117660D01*
X120520D02*
X123644D01*
X126020D02*
X128440D01*
X105032Y55652D02*
X107408D01*
X109784D02*
X113744D01*
X114932D02*
X117704D01*
X120432D02*
X123688D01*
X126064D02*
X128440D01*
X105032Y55696D02*
X107408D01*
X109784D02*
X113832D01*
X114976D02*
X117748D01*
X120388D02*
X123688D01*
X126064D02*
X128440D01*
X105032Y55740D02*
X107408D01*
X109784D02*
X113920D01*
X115020D02*
X117836D01*
X120300D02*
X123688D01*
X126064D02*
X128440D01*
X105032Y55784D02*
X107408D01*
X109784D02*
X113920D01*
X115064D02*
X117880D01*
X120212D02*
X123688D01*
X126064D02*
X128440D01*
X105032Y55828D02*
X107408D01*
X109784D02*
X113920D01*
X115064D02*
X117924D01*
X120124D02*
X123688D01*
X126064D02*
X128440D01*
X105032Y55872D02*
X107408D01*
X109740D02*
X113876D01*
X115108D02*
X117968D01*
X120080D02*
X123688D01*
X126064D02*
X128440D01*
X105032Y55916D02*
X107364D01*
X109740D02*
X113876D01*
X115152D02*
X118012D01*
X119992D02*
X123732D01*
X126064D02*
X128440D01*
X105032Y55960D02*
X107364D01*
X109740D02*
X113832D01*
X115196D02*
X118012D01*
X119904D02*
X123732D01*
X126108D02*
X128440D01*
X104988Y56004D02*
X107364D01*
X109740D02*
X113832D01*
X115240D02*
X118056D01*
X119816D02*
X123732D01*
X126108D02*
X128440D01*
X104988Y56048D02*
X107364D01*
X109740D02*
X113832D01*
X115240D02*
X118100D01*
X119772D02*
X123732D01*
X126108D02*
X128484D01*
X104988Y56092D02*
X107364D01*
X109740D02*
X113832D01*
X115284D02*
X118100D01*
X119684D02*
X123732D01*
X126108D02*
X128484D01*
X104988Y56136D02*
X107364D01*
X109740D02*
X113788D01*
X115328D02*
X118144D01*
X119684D02*
X123732D01*
X126108D02*
X128484D01*
X104988Y56180D02*
X107364D01*
X109696D02*
X113788D01*
X115284D02*
X118188D01*
X119684D02*
X123732D01*
X126108D02*
X128484D01*
X104988Y56224D02*
X107364D01*
X109696D02*
X113788D01*
X115284D02*
X118188D01*
X119684D02*
X123776D01*
X126108D02*
X128484D01*
X104988Y56268D02*
X107364D01*
X109696D02*
X113744D01*
X115240D02*
X118232D01*
X119684D02*
X123776D01*
X126108D02*
X128484D01*
X104988Y56312D02*
X107364D01*
X109696D02*
X113744D01*
X115240D02*
X118232D01*
X119728D02*
X123776D01*
X126108D02*
X128484D01*
X104988Y56356D02*
X107364D01*
X109696D02*
X113744D01*
X115196D02*
X118276D01*
X119728D02*
X123776D01*
X126108D02*
X128484D01*
X104988Y56400D02*
X107320D01*
X109696D02*
X113744D01*
X115196D02*
X118276D01*
X119728D02*
X123776D01*
X126108D02*
X128484D01*
X104988Y56444D02*
X107364D01*
X109696D02*
X113744D01*
X115196D02*
X118276D01*
X119728D02*
X123776D01*
X126108D02*
X128484D01*
X104988Y56488D02*
X107320D01*
X109696D02*
X113700D01*
X115152D02*
X118320D01*
X119772D02*
X123776D01*
X126108D02*
X128484D01*
X104988Y56532D02*
X107320D01*
X109696D02*
X113700D01*
X115152D02*
X118320D01*
X119772D02*
X123776D01*
X126152D02*
X128484D01*
X104988Y56576D02*
X107320D01*
X109696D02*
X113700D01*
X115152D02*
X118320D01*
X119772D02*
X123776D01*
X126152D02*
X128484D01*
X104988Y56620D02*
X107320D01*
X109696D02*
X113700D01*
X115108D02*
X118364D01*
X119772D02*
X123776D01*
X126152D02*
X128484D01*
X104988Y56664D02*
X107320D01*
X109696D02*
X113700D01*
X115108D02*
X118364D01*
X119772D02*
X123776D01*
X126152D02*
X128484D01*
X104988Y56708D02*
X107320D01*
X109696D02*
X113700D01*
X115108D02*
X118364D01*
X119772D02*
X123776D01*
X126152D02*
X128484D01*
X104988Y56752D02*
X107320D01*
X109696D02*
X113700D01*
X115108D02*
X118364D01*
X119772D02*
X123776D01*
X126152D02*
X128484D01*
X104988Y56796D02*
X107320D01*
X109696D02*
X113700D01*
X115108D02*
X118364D01*
X119772D02*
X123776D01*
X126152D02*
X128484D01*
X104988Y56840D02*
X107320D01*
X109696D02*
X113700D01*
X115108D02*
X118364D01*
X119772D02*
X123776D01*
X126152D02*
X128484D01*
X104988Y56884D02*
X107320D01*
X109652D02*
X113700D01*
X115064D02*
X118364D01*
X119772D02*
X123776D01*
X126152D02*
X128484D01*
X104988Y56928D02*
X107320D01*
X109652D02*
X113656D01*
X115108D02*
X118364D01*
X119772D02*
X123776D01*
X126152D02*
X128484D01*
X104988Y56972D02*
X107320D01*
X109652D02*
X113656D01*
X115108D02*
X118364D01*
X119772D02*
X123776D01*
X126152D02*
X128484D01*
X104988Y57016D02*
X107320D01*
X109652D02*
X113656D01*
X115108D02*
X118364D01*
X119772D02*
X123776D01*
X126152D02*
X128484D01*
X104988Y57060D02*
X107320D01*
X109652D02*
X113656D01*
X115064D02*
X118364D01*
X119772D02*
X123776D01*
X126152D02*
X128484D01*
X104988Y57104D02*
X107320D01*
X109652D02*
X113700D01*
X115108D02*
X118364D01*
X119772D02*
X123776D01*
X126152D02*
X128484D01*
X104988Y57148D02*
X107320D01*
X109696D02*
X113700D01*
X115108D02*
X118364D01*
X119772D02*
X123776D01*
X126152D02*
X128484D01*
X104988Y57192D02*
X107320D01*
X109696D02*
X113700D01*
X115108D02*
X118364D01*
X119772D02*
X123776D01*
X126152D02*
X128484D01*
X104988Y57236D02*
X107320D01*
X109696D02*
X113700D01*
X115108D02*
X118364D01*
X119772D02*
X123776D01*
X126152D02*
X128484D01*
X104988Y57280D02*
X107320D01*
X109696D02*
X113700D01*
X115108D02*
X118364D01*
X119772D02*
X123776D01*
X126152D02*
X128484D01*
X104988Y57324D02*
X107320D01*
X109696D02*
X113700D01*
X115108D02*
X118364D01*
X119772D02*
X123776D01*
X126152D02*
X128484D01*
X104988Y57368D02*
X107320D01*
X109696D02*
X113700D01*
X115108D02*
X118320D01*
X119772D02*
X123776D01*
X126152D02*
X128484D01*
X104988Y57412D02*
X107320D01*
X109696D02*
X113700D01*
X115152D02*
X118320D01*
X119772D02*
X123776D01*
X126152D02*
X128484D01*
X104988Y57456D02*
X107320D01*
X109696D02*
X113700D01*
X115152D02*
X118320D01*
X119772D02*
X123776D01*
X126152D02*
X128484D01*
X104988Y57500D02*
X107320D01*
X109696D02*
X113700D01*
X115152D02*
X118320D01*
X119728D02*
X123776D01*
X126108D02*
X128484D01*
X104988Y57544D02*
X107320D01*
X109696D02*
X113744D01*
X115196D02*
X118276D01*
X119728D02*
X123776D01*
X126108D02*
X128484D01*
X104988Y57588D02*
X107364D01*
X109696D02*
X113744D01*
X115196D02*
X118276D01*
X119728D02*
X123776D01*
X126108D02*
X128484D01*
X104988Y57632D02*
X107364D01*
X109696D02*
X113744D01*
X115196D02*
X118232D01*
X119728D02*
X123776D01*
X126108D02*
X128484D01*
X104988Y57676D02*
X107364D01*
X109696D02*
X113744D01*
X115240D02*
X118232D01*
X119728D02*
X123776D01*
X126108D02*
X128484D01*
X104988Y57720D02*
X107364D01*
X109696D02*
X113788D01*
X115240D02*
X118232D01*
X119684D02*
X123776D01*
X126108D02*
X128484D01*
X104988Y57764D02*
X107364D01*
X109696D02*
X113788D01*
X115284D02*
X118188D01*
X119684D02*
X123732D01*
X126108D02*
X128484D01*
X104988Y57808D02*
X107364D01*
X109740D02*
X113788D01*
X115284D02*
X118144D01*
X119684D02*
X123732D01*
X126108D02*
X128484D01*
X104988Y57852D02*
X107364D01*
X109740D02*
X113788D01*
X115328D02*
X118144D01*
X119684D02*
X123732D01*
X126108D02*
X128484D01*
X104988Y57896D02*
X107364D01*
X109740D02*
X113832D01*
X115372D02*
X118100D01*
X119640D02*
X123732D01*
X126108D02*
X128484D01*
X104988Y57940D02*
X107364D01*
X109740D02*
X113832D01*
X115372D02*
X118100D01*
X119640D02*
X123732D01*
X126108D02*
X128440D01*
X104988Y57984D02*
X107364D01*
X109740D02*
X113832D01*
X115416D02*
X118056D01*
X119640D02*
X123732D01*
X126108D02*
X128440D01*
X105032Y58028D02*
X107364D01*
X109740D02*
X113876D01*
X115460D02*
X118012D01*
X119596D02*
X123732D01*
X126064D02*
X128440D01*
X105032Y58072D02*
X107408D01*
X109740D02*
X113876D01*
X115504D02*
X117968D01*
X119596D02*
X123732D01*
X126064D02*
X128440D01*
X105032Y58116D02*
X107408D01*
X109784D02*
X113876D01*
X115548D02*
X117924D01*
X119596D02*
X123688D01*
X126064D02*
X128440D01*
X105032Y58160D02*
X107408D01*
X109784D02*
X113920D01*
X115592D02*
X117880D01*
X119552D02*
X123688D01*
X126064D02*
X128440D01*
X105032Y58204D02*
X107408D01*
X109784D02*
X113920D01*
X115636D02*
X117836D01*
X119552D02*
X123688D01*
X126064D02*
X128440D01*
X105032Y58248D02*
X107408D01*
X109784D02*
X113964D01*
X115680D02*
X117792D01*
X119508D02*
X123688D01*
X126064D02*
X128440D01*
X105032Y58292D02*
X107408D01*
X109784D02*
X113964D01*
X115724D02*
X117748D01*
X119508D02*
X123688D01*
X126064D02*
X128440D01*
X105032Y58336D02*
X107408D01*
X109784D02*
X114008D01*
X115768D02*
X117704D01*
X119464D02*
X123644D01*
X126064D02*
X128440D01*
X105032Y58380D02*
X107408D01*
X109828D02*
X114008D01*
X115856D02*
X117616D01*
X119464D02*
X123644D01*
X126020D02*
X128440D01*
X105076Y58424D02*
X107452D01*
X109828D02*
X114052D01*
X115900D02*
X117528D01*
X119420D02*
X123644D01*
X126020D02*
X128396D01*
X105076Y58468D02*
X107452D01*
X109828D02*
X114052D01*
X115988D02*
X117440D01*
X119420D02*
X123644D01*
X126020D02*
X128396D01*
X105076Y58512D02*
X107452D01*
X109828D02*
X114096D01*
X116120D02*
X117352D01*
X119376D02*
X123644D01*
X126020D02*
X128396D01*
X105076Y58556D02*
X107452D01*
X109828D02*
X114096D01*
X116208D02*
X117264D01*
X119376D02*
X123600D01*
X126020D02*
X128396D01*
X105076Y58600D02*
X107452D01*
X109872D02*
X114140D01*
X116384D02*
X117088D01*
X119332D02*
X123600D01*
X126020D02*
X128396D01*
X105076Y58644D02*
X107452D01*
X109872D02*
X114184D01*
X119288D02*
X123600D01*
X125976D02*
X128396D01*
X105076Y58688D02*
X107496D01*
X109872D02*
X114184D01*
X119288D02*
X123600D01*
X125976D02*
X128396D01*
X105076Y58732D02*
X107496D01*
X109872D02*
X114228D01*
X119244D02*
X123556D01*
X125976D02*
X128352D01*
X105120Y58776D02*
X107496D01*
X109916D02*
X114272D01*
X119200D02*
X123556D01*
X125976D02*
X128352D01*
X105120Y58820D02*
X107496D01*
X109916D02*
X114272D01*
X119200D02*
X123556D01*
X125976D02*
X128352D01*
X105120Y58864D02*
X107496D01*
X109916D02*
X114316D01*
X119156D02*
X123556D01*
X125976D02*
X128352D01*
X105120Y58908D02*
X107540D01*
X109916D02*
X114360D01*
X119112D02*
X123512D01*
X125932D02*
X128352D01*
X105120Y58952D02*
X107540D01*
X109960D02*
X114404D01*
X119068D02*
X123512D01*
X125932D02*
X128352D01*
X105120Y58996D02*
X107540D01*
X109960D02*
X114448D01*
X119024D02*
X123512D01*
X125932D02*
X128308D01*
X105164Y59040D02*
X107540D01*
X109960D02*
X114448D01*
X118980D02*
X123512D01*
X125932D02*
X128308D01*
X105164Y59084D02*
X107540D01*
X110004D02*
X114492D01*
X118936D02*
X123468D01*
X125888D02*
X128308D01*
X105164Y59128D02*
X107584D01*
X110004D02*
X114536D01*
X118936D02*
X123468D01*
X125888D02*
X128308D01*
X105164Y59172D02*
X107584D01*
X110004D02*
X114580D01*
X118892D02*
X123468D01*
X125888D02*
X128308D01*
X105164Y59216D02*
X107584D01*
X110048D02*
X114624D01*
X118804D02*
X123424D01*
X125888D02*
X128308D01*
X105164Y59260D02*
X107584D01*
X110048D02*
X114668D01*
X118760D02*
X123424D01*
X125844D02*
X128308D01*
X105120Y59304D02*
X107628D01*
X110048D02*
X114756D01*
X118716D02*
X123424D01*
X125844D02*
X128352D01*
X105076Y59348D02*
X107628D01*
X110092D02*
X114800D01*
X118672D02*
X123380D01*
X125844D02*
X128396D01*
X105032Y59392D02*
X107628D01*
X110092D02*
X114844D01*
X118628D02*
X123380D01*
X125844D02*
X128440D01*
X104988Y59436D02*
X107628D01*
X110092D02*
X114888D01*
X118584D02*
X123380D01*
X125800D02*
X128484D01*
X104944Y59480D02*
X107672D01*
X110136D02*
X114976D01*
X118496D02*
X123336D01*
X125800D02*
X128528D01*
X104900Y59524D02*
X107672D01*
X110136D02*
X115020D01*
X118452D02*
X123336D01*
X125800D02*
X128572D01*
X104856Y59568D02*
X107672D01*
X110180D02*
X115108D01*
X118364D02*
X123292D01*
X125800D02*
X128616D01*
X104768Y59612D02*
X107716D01*
X110180D02*
X115152D01*
X118320D02*
X123292D01*
X125756D02*
X128660D01*
X104724Y59656D02*
X107716D01*
X110180D02*
X115240D01*
X118232D02*
X123292D01*
X125756D02*
X128748D01*
X104680Y59700D02*
X107716D01*
X110224D02*
X115328D01*
X118144D02*
X123248D01*
X125756D02*
X128792D01*
X104636Y59744D02*
X107716D01*
X110224D02*
X115416D01*
X118056D02*
X123248D01*
X125712D02*
X128836D01*
X104592Y59788D02*
X107760D01*
X110268D02*
X115504D01*
X117968D02*
X123204D01*
X125712D02*
X128880D01*
X104548Y59832D02*
X107760D01*
X110268D02*
X115592D01*
X117836D02*
X123204D01*
X125712D02*
X128924D01*
X104504Y59876D02*
X107760D01*
X110268D02*
X115724D01*
X117748D02*
X123160D01*
X125668D02*
X128968D01*
X104460Y59920D02*
X107804D01*
X110312D02*
X115856D01*
X117616D02*
X123160D01*
X125668D02*
X129012D01*
X104416Y59964D02*
X107804D01*
X110312D02*
X116032D01*
X117440D02*
X123160D01*
X125668D02*
X129056D01*
X104328Y60008D02*
X107804D01*
X110356D02*
X116252D01*
X117220D02*
X123116D01*
X125624D02*
X129100D01*
X104284Y60052D02*
X107848D01*
X110356D02*
X123116D01*
X125624D02*
X129144D01*
X104240Y60096D02*
X107848D01*
X110400D02*
X123072D01*
X125624D02*
X129232D01*
X104196Y60140D02*
X107848D01*
X110400D02*
X123072D01*
X125580D02*
X129276D01*
X104152Y60184D02*
X107892D01*
X110444D02*
X123028D01*
X125580D02*
X129320D01*
X104108Y60228D02*
X107892D01*
X110444D02*
X123028D01*
X125580D02*
X129364D01*
X104064Y60272D02*
X107936D01*
X110488D02*
X122984D01*
X125536D02*
X129408D01*
X104020Y60316D02*
X107936D01*
X110488D02*
X122984D01*
X125536D02*
X129452D01*
X103976Y60360D02*
X107936D01*
X110532D02*
X122940D01*
X125536D02*
X129496D01*
X103932Y60404D02*
X107980D01*
X110532D02*
X122896D01*
X125492D02*
X129540D01*
X103844Y60448D02*
X107980D01*
X110576D02*
X122896D01*
X125492D02*
X129584D01*
X103800Y60492D02*
X107980D01*
X110620D02*
X122852D01*
X125448D02*
X129672D01*
X103756Y60536D02*
X108024D01*
X110620D02*
X122852D01*
X125448D02*
X129716D01*
X103712Y60580D02*
X108024D01*
X110664D02*
X122808D01*
X125448D02*
X129760D01*
X103668Y60624D02*
X108068D01*
X110664D02*
X122808D01*
X125404D02*
X129804D01*
X103624Y60668D02*
X108068D01*
X110708D02*
X122764D01*
X125404D02*
X129848D01*
X103580Y60712D02*
X108112D01*
X110752D02*
X122720D01*
X125360D02*
X129892D01*
X103536Y60756D02*
X108112D01*
X110752D02*
X122720D01*
X125360D02*
X129936D01*
X103492Y60800D02*
X108112D01*
X110796D02*
X122676D01*
X125316D02*
X129980D01*
X103404Y60844D02*
X108156D01*
X110796D02*
X122632D01*
X125316D02*
X130024D01*
X103360Y60888D02*
X108156D01*
X110840D02*
X122632D01*
X125316D02*
X130112D01*
X103316Y60932D02*
X108200D01*
X110884D02*
X122588D01*
X125272D02*
X130156D01*
X103272Y60976D02*
X108200D01*
X110884D02*
X122544D01*
X125272D02*
X130200D01*
X103228Y61020D02*
X108244D01*
X110928D02*
X122544D01*
X125228D02*
X130244D01*
X103184Y61064D02*
X108244D01*
X110972D02*
X122500D01*
X125228D02*
X130288D01*
X103140Y61108D02*
X108288D01*
X111016D02*
X122456D01*
X125184D02*
X130332D01*
X103096Y61152D02*
X108288D01*
X111016D02*
X122456D01*
X125184D02*
X130376D01*
X103052Y61196D02*
X108332D01*
X111060D02*
X122412D01*
X125140D02*
X130420D01*
X102964Y61240D02*
X108332D01*
X111104D02*
X122368D01*
X125140D02*
X130464D01*
X102920Y61284D02*
X108376D01*
X111104D02*
X122324D01*
X125096D02*
X130552D01*
X102876Y61328D02*
X108376D01*
X111148D02*
X122324D01*
X125096D02*
X130596D01*
X102832Y61372D02*
X108420D01*
X111192D02*
X122280D01*
X125052D02*
X130640D01*
X102788Y61416D02*
X108420D01*
X111236D02*
X122236D01*
X125052D02*
X130684D01*
X102744Y61460D02*
X108464D01*
X111280D02*
X122192D01*
X125008D02*
X130728D01*
X102700Y61504D02*
X108464D01*
X111280D02*
X122148D01*
X125008D02*
X130772D01*
X102656Y61548D02*
X108508D01*
X111324D02*
X122148D01*
X124964D02*
X130816D01*
X102612Y61592D02*
X108508D01*
X111368D02*
X122104D01*
X124920D02*
X130860D01*
X102524Y61636D02*
X108552D01*
X111412D02*
X122060D01*
X124920D02*
X130904D01*
X102480Y61680D02*
X108596D01*
X111456D02*
X122016D01*
X124876D02*
X130992D01*
X102436Y61724D02*
X108596D01*
X111500D02*
X121972D01*
X124876D02*
X131036D01*
X102392Y61768D02*
X108640D01*
X111544D02*
X121928D01*
X124832D02*
X131080D01*
X102348Y61812D02*
X108640D01*
X111588D02*
X121884D01*
X124832D02*
X131124D01*
X102304Y61856D02*
X108684D01*
X111632D02*
X121840D01*
X124788D02*
X131168D01*
X102260Y61900D02*
X108684D01*
X111676D02*
X121796D01*
X124744D02*
X131212D01*
X102216Y61944D02*
X108728D01*
X111720D02*
X121752D01*
X124744D02*
X131256D01*
X102172Y61988D02*
X108772D01*
X111764D02*
X121708D01*
X124700D02*
X131300D01*
X102128Y62032D02*
X108772D01*
X111808D02*
X121664D01*
X124700D02*
X131344D01*
X102040Y62076D02*
X108816D01*
X111852D02*
X121620D01*
X124656D02*
X131432D01*
X101996Y62120D02*
X108860D01*
X111896D02*
X121576D01*
X124612D02*
X131476D01*
X101952Y62164D02*
X108860D01*
X111940D02*
X121532D01*
X124612D02*
X131520D01*
X101908Y62208D02*
X108904D01*
X111984D02*
X121488D01*
X124568D02*
X131564D01*
X101864Y62252D02*
X108948D01*
X112028D02*
X121444D01*
X124524D02*
X131608D01*
X101820Y62296D02*
X108948D01*
X112072D02*
X121400D01*
X124524D02*
X131652D01*
X101776Y62340D02*
X108992D01*
X112116D02*
X121356D01*
X124480D02*
X131696D01*
X101732Y62384D02*
X109036D01*
X112160D02*
X121312D01*
X124436D02*
X131740D01*
X101688Y62428D02*
X109036D01*
X112204D02*
X121224D01*
X124392D02*
X131784D01*
X101688Y62472D02*
X109080D01*
X112292D02*
X121180D01*
X124392D02*
X131784D01*
X101732Y62516D02*
X109124D01*
X112336D02*
X121136D01*
X124348D02*
X131740D01*
X101732Y62560D02*
X109168D01*
X112380D02*
X121092D01*
X124304D02*
X131740D01*
X101776Y62604D02*
X109168D01*
X112424D02*
X121004D01*
X124304D02*
X131696D01*
X101776Y62648D02*
X109212D01*
X112512D02*
X120960D01*
X124260D02*
X131696D01*
X101820Y62692D02*
X109256D01*
X112556D02*
X120916D01*
X124216D02*
X131652D01*
X101864Y62736D02*
X109300D01*
X112644D02*
X120828D01*
X124172D02*
X131608D01*
X101864Y62780D02*
X109300D01*
X112688D02*
X120784D01*
X124172D02*
X131608D01*
X101908Y62824D02*
X109344D01*
X112732D02*
X120696D01*
X124128D02*
X131564D01*
X101908Y62868D02*
X109388D01*
X112820D02*
X120652D01*
X124084D02*
X131564D01*
X101952Y62912D02*
X109432D01*
X112864D02*
X120564D01*
X124040D02*
X131520D01*
X101952Y62956D02*
X109476D01*
X112952D02*
X120520D01*
X123996D02*
X131476D01*
X101996Y63000D02*
X109476D01*
X113040D02*
X120432D01*
X123996D02*
X131476D01*
X102040Y63044D02*
X109520D01*
X113084D02*
X120388D01*
X123952D02*
X131432D01*
X102040Y63088D02*
X109564D01*
X113172D02*
X120300D01*
X123908D02*
X131432D01*
X102084Y63132D02*
X109608D01*
X113260D02*
X120212D01*
X123864D02*
X131388D01*
X102084Y63176D02*
X109652D01*
X113304D02*
X120168D01*
X123820D02*
X131388D01*
X102128Y63220D02*
X109696D01*
X113392D02*
X120080D01*
X123776D02*
X131344D01*
X102128Y63264D02*
X109740D01*
X113480D02*
X119992D01*
X123732D02*
X131300D01*
X102172Y63308D02*
X109740D01*
X113568D02*
X119904D01*
X123688D02*
X131300D01*
X102216Y63352D02*
X109784D01*
X113656D02*
X119816D01*
X123688D02*
X131256D01*
X102216Y63396D02*
X109828D01*
X113744D02*
X119728D01*
X123644D02*
X131256D01*
X102260Y63440D02*
X109872D01*
X113832D02*
X119640D01*
X123600D02*
X131212D01*
X102260Y63484D02*
X109916D01*
X113964D02*
X119508D01*
X123556D02*
X131212D01*
X102304Y63528D02*
X109960D01*
X114052D02*
X119420D01*
X123512D02*
X131168D01*
X102348Y63572D02*
X110004D01*
X114184D02*
X119288D01*
X123468D02*
X131124D01*
X102348Y63616D02*
X110048D01*
X114272D02*
X119200D01*
X123424D02*
X131124D01*
X102392Y63660D02*
X110092D01*
X114404D02*
X119068D01*
X123380D02*
X131080D01*
X102392Y63704D02*
X110136D01*
X114536D02*
X118936D01*
X123336D02*
X131080D01*
X102436Y63748D02*
X110180D01*
X114668D02*
X118804D01*
X123292D02*
X131036D01*
X102436Y63792D02*
X110224D01*
X114800D02*
X118628D01*
X123248D02*
X131036D01*
X102480Y63836D02*
X110268D01*
X114976D02*
X118496D01*
X123204D02*
X130992D01*
X102524Y63880D02*
X110312D01*
X115152D02*
X118320D01*
X123160D02*
X130948D01*
X102524Y63924D02*
X110356D01*
X115372D02*
X118100D01*
X123116D02*
X130948D01*
X102568Y63968D02*
X110400D01*
X115636D02*
X117836D01*
X123072D02*
X130904D01*
X102568Y64012D02*
X110444D01*
X115944D02*
X117528D01*
X122984D02*
X130904D01*
X102612Y64056D02*
X110532D01*
X116604D02*
X116648D01*
X116824D02*
X116868D01*
X122940D02*
X130860D01*
X102612Y64100D02*
X110576D01*
X122896D02*
X130816D01*
X102656Y64144D02*
X110620D01*
X122852D02*
X130816D01*
X102700Y64188D02*
X110664D01*
X122808D02*
X130772D01*
X102700Y64232D02*
X110708D01*
X122764D02*
X130772D01*
X102744Y64276D02*
X110796D01*
X122676D02*
X130728D01*
X102744Y64320D02*
X110840D01*
X122632D02*
X130728D01*
X102788Y64364D02*
X110884D01*
X122588D02*
X130684D01*
X102788Y64408D02*
X110928D01*
X122544D02*
X130640D01*
X102832Y64452D02*
X111016D01*
X122456D02*
X130640D01*
X102876Y64496D02*
X111060D01*
X122412D02*
X130596D01*
X102876Y64540D02*
X111104D01*
X122368D02*
X130596D01*
X102920Y64584D02*
X111192D01*
X122280D02*
X130552D01*
X102920Y64628D02*
X111236D01*
X122236D02*
X130552D01*
X102964Y64672D02*
X111280D01*
X122192D02*
X130508D01*
X102964Y64716D02*
X111368D01*
X122104D02*
X130464D01*
X103008Y64760D02*
X111412D01*
X122060D02*
X130464D01*
X103052Y64804D02*
X111500D01*
X121972D02*
X130420D01*
X103052Y64848D02*
X111544D01*
X121928D02*
X130420D01*
X103096Y64892D02*
X111632D01*
X121840D02*
X130376D01*
X103096Y64936D02*
X111676D01*
X121796D02*
X130376D01*
X103140Y64980D02*
X111764D01*
X121708D02*
X130332D01*
X103184Y65024D02*
X111808D01*
X121620D02*
X130288D01*
X103184Y65068D02*
X111896D01*
X121576D02*
X130288D01*
X103228Y65112D02*
X111984D01*
X121488D02*
X130244D01*
X103228Y65156D02*
X112028D01*
X121400D02*
X130244D01*
X103272Y65200D02*
X112116D01*
X121356D02*
X130200D01*
X103272Y65244D02*
X112204D01*
X121268D02*
X130156D01*
X103316Y65288D02*
X112292D01*
X121180D02*
X130156D01*
X103360Y65332D02*
X112380D01*
X121092D02*
X130112D01*
X103360Y65376D02*
X112468D01*
X121004D02*
X130112D01*
X103404Y65420D02*
X112556D01*
X120916D02*
X130068D01*
X103404Y65464D02*
X112644D01*
X120828D02*
X130068D01*
X103448Y65508D02*
X112732D01*
X120740D02*
X130024D01*
X103448Y65552D02*
X112820D01*
X120652D02*
X129980D01*
X103492Y65596D02*
X112908D01*
X120564D02*
X129980D01*
X103536Y65640D02*
X112996D01*
X120432D02*
X129936D01*
X103536Y65684D02*
X113128D01*
X120344D02*
X129936D01*
X103580Y65728D02*
X113216D01*
X120256D02*
X129892D01*
X103580Y65772D02*
X113348D01*
X120124D02*
X129892D01*
X103624Y65816D02*
X113436D01*
X119992D02*
X129848D01*
X103624Y65860D02*
X113568D01*
X119904D02*
X129804D01*
X103668Y65904D02*
X108860D01*
X109036D02*
X113700D01*
X119772D02*
X124436D01*
X124612D02*
X129804D01*
X103712Y65948D02*
X108728D01*
X109080D02*
X113832D01*
X119640D02*
X124392D01*
X124744D02*
X129760D01*
X103712Y65992D02*
X108596D01*
X109168D02*
X113964D01*
X119508D02*
X124304D01*
X124876D02*
X129760D01*
X103756Y66036D02*
X108464D01*
X109212D02*
X114140D01*
X119332D02*
X124260D01*
X125008D02*
X129716D01*
X103756Y66080D02*
X108332D01*
X109256D02*
X114272D01*
X119200D02*
X124216D01*
X125140D02*
X129716D01*
X103800Y66124D02*
X108200D01*
X109300D02*
X114448D01*
X119024D02*
X124172D01*
X125272D02*
X129672D01*
X103844Y66168D02*
X108068D01*
X109344D02*
X114624D01*
X118848D02*
X124128D01*
X125404D02*
X129628D01*
X103844Y66212D02*
X107936D01*
X109432D02*
X114844D01*
X118628D02*
X124040D01*
X125536D02*
X129628D01*
X103888Y66256D02*
X107804D01*
X109476D02*
X115064D01*
X118408D02*
X123996D01*
X125668D02*
X129584D01*
X103888Y66300D02*
X107628D01*
X109520D02*
X115328D01*
X118144D02*
X123952D01*
X125800D02*
X129584D01*
X103932Y66344D02*
X107496D01*
X109564D02*
X115636D01*
X117836D02*
X123864D01*
X125932D02*
X129540D01*
X103932Y66388D02*
X107364D01*
X109652D02*
X116120D01*
X116164D02*
X116208D01*
X117352D02*
X123820D01*
X126108D02*
X129496D01*
X103976Y66432D02*
X107232D01*
X109696D02*
X123776D01*
X126240D02*
X129496D01*
X104020Y66476D02*
X107100D01*
X109740D02*
X123688D01*
X126372D02*
X129452D01*
X104020Y66520D02*
X106968D01*
X109828D02*
X123644D01*
X126504D02*
X129452D01*
X104064Y66564D02*
X106836D01*
X109872D02*
X123600D01*
X126636D02*
X129408D01*
X104064Y66608D02*
X106704D01*
X109960D02*
X123512D01*
X126768D02*
X129408D01*
X104108Y66652D02*
X106572D01*
X110004D02*
X123468D01*
X126900D02*
X129364D01*
X104108Y66696D02*
X106440D01*
X110048D02*
X123380D01*
X127032D02*
X129320D01*
X104152Y66740D02*
X106308D01*
X110136D02*
X123336D01*
X127164D02*
X129320D01*
X104196Y66784D02*
X106176D01*
X110180D02*
X123248D01*
X127296D02*
X129276D01*
X104196Y66828D02*
X106044D01*
X110268D02*
X123204D01*
X127428D02*
X129276D01*
X104240Y66872D02*
X105912D01*
X110312D02*
X123116D01*
X127560D02*
X129232D01*
X104240Y66916D02*
X105736D01*
X110400D02*
X123072D01*
X127692D02*
X129232D01*
X104284Y66960D02*
X105604D01*
X110488D02*
X122984D01*
X127824D02*
X129188D01*
X104284Y67004D02*
X105472D01*
X110532D02*
X122940D01*
X128000D02*
X129144D01*
X104328Y67048D02*
X105340D01*
X110620D02*
X122852D01*
X128132D02*
X129144D01*
X104372Y67092D02*
X105208D01*
X110664D02*
X122764D01*
X128264D02*
X129100D01*
X104372Y67136D02*
X105076D01*
X110752D02*
X122720D01*
X128396D02*
X129100D01*
X104416Y67180D02*
X104944D01*
X110840D02*
X122632D01*
X128528D02*
X129056D01*
X104416Y67224D02*
X104812D01*
X110928D02*
X122544D01*
X128660D02*
X129056D01*
X104460Y67268D02*
X104680D01*
X110972D02*
X122456D01*
X128792D02*
X129012D01*
X104504Y67312D02*
X104548D01*
X111060D02*
X122412D01*
X128924D02*
X128968D01*
X111148Y67356D02*
X122324D01*
X111236Y67400D02*
X122236D01*
X111324Y67444D02*
X122148D01*
X111412Y67488D02*
X122060D01*
X111500Y67532D02*
X121972D01*
X111588Y67576D02*
X121884D01*
X111676Y67620D02*
X121796D01*
X111764Y67664D02*
X121708D01*
X111852Y67708D02*
X121620D01*
X111940Y67752D02*
X121532D01*
X112072Y67796D02*
X121400D01*
X112160Y67840D02*
X121312D01*
X112248Y67884D02*
X121224D01*
X112380Y67928D02*
X121092D01*
X112468Y67972D02*
X121004D01*
X112600Y68016D02*
X120872D01*
X112732Y68060D02*
X120740D01*
X112864Y68104D02*
X120608D01*
X112908Y68148D02*
X120520D01*
X112952Y68192D02*
X120520D01*
X112952Y68236D02*
X120520D01*
X112952Y68280D02*
X120520D01*
X112952Y68324D02*
X120520D01*
X112952Y68368D02*
X120476D01*
X112996Y68412D02*
X120476D01*
X112996Y68456D02*
X120476D01*
X112996Y68500D02*
X120476D01*
X112996Y68544D02*
X120476D01*
X113040Y68588D02*
X120432D01*
X113040Y68632D02*
X120432D01*
X113040Y68676D02*
X120432D01*
X113040Y68720D02*
X120432D01*
X113040Y68764D02*
X120388D01*
X113084Y68808D02*
X120388D01*
X113084Y68852D02*
X120388D01*
X113084Y68896D02*
X120388D01*
X113084Y68940D02*
X120388D01*
X113084Y68984D02*
X120344D01*
X113128Y69028D02*
X120344D01*
X113128Y69072D02*
X120344D01*
X113128Y69116D02*
X120344D01*
X113128Y69160D02*
X120344D01*
X113172Y69204D02*
X120300D01*
X113172Y69248D02*
X120300D01*
X113172Y69292D02*
X120300D01*
X113172Y69336D02*
X120300D01*
X113172Y69380D02*
X120256D01*
X113216Y69424D02*
X120256D01*
X113216Y69468D02*
X120256D01*
X113216Y69512D02*
X120256D01*
X113216Y69556D02*
X120256D01*
X113216Y69600D02*
X120212D01*
X113260Y69644D02*
X120212D01*
X113260Y69688D02*
X120212D01*
X113260Y69732D02*
X120212D01*
X113260Y69776D02*
X120212D01*
X113260Y69820D02*
X120168D01*
X113304Y69864D02*
X120168D01*
X113304Y69908D02*
X120168D01*
X113304Y69952D02*
X120168D01*
X113304Y69996D02*
X120168D01*
X113348Y70040D02*
X120124D01*
X113348Y70084D02*
X120124D01*
X113348Y70128D02*
X120124D01*
X113348Y70172D02*
X120124D01*
X113348Y70216D02*
X120080D01*
X113392Y70260D02*
X120080D01*
X113392Y70304D02*
X120080D01*
X113392Y70348D02*
X120080D01*
X113392Y70392D02*
X120080D01*
X113392Y70436D02*
X120036D01*
X113436Y70480D02*
X120036D01*
X113436Y70524D02*
X120036D01*
X113436Y70568D02*
X120036D01*
X113436Y70612D02*
X120036D01*
X113480Y70656D02*
X119992D01*
X113480Y70700D02*
X119992D01*
X113480Y70744D02*
X119992D01*
X113480Y70788D02*
X119992D01*
X113480Y70832D02*
X119992D01*
X113524Y70876D02*
X119948D01*
X113524Y70920D02*
X119948D01*
X113524Y70964D02*
X119948D01*
X113524Y71008D02*
X119948D01*
X113524Y71052D02*
X119904D01*
X113568Y71096D02*
X119904D01*
X113568Y71140D02*
X119904D01*
X113568Y71184D02*
X119904D01*
X113568Y71228D02*
X119904D01*
X113568Y71272D02*
X119860D01*
X113612Y71316D02*
X119860D01*
X113612Y71360D02*
X119860D01*
X113612Y71404D02*
X119860D01*
X113612Y71448D02*
X119860D01*
X113656Y71492D02*
X119816D01*
X113656Y71536D02*
X119816D01*
X113656Y71580D02*
X119816D01*
X113656Y71624D02*
X119816D01*
X113656Y71668D02*
X119816D01*
X113700Y71712D02*
X119772D01*
X113700Y71756D02*
X119772D01*
X113700Y71800D02*
X119772D01*
X113700Y71844D02*
X119772D01*
X113700Y71888D02*
X119728D01*
X113744Y71932D02*
X119728D01*
X113744Y71976D02*
X119728D01*
X113744Y72020D02*
X119728D01*
X113744Y72064D02*
X119728D01*
X113788Y72108D02*
X119684D01*
X113788Y72152D02*
X119684D01*
X113788Y72196D02*
X119684D01*
X113788Y72240D02*
X119684D01*
X113788Y72284D02*
X119684D01*
X113832Y72328D02*
X119640D01*
X113832Y72372D02*
X119640D01*
X113832Y72416D02*
X119640D01*
X113832Y72460D02*
X119640D01*
X113832Y72504D02*
X119596D01*
X113876Y72548D02*
X119596D01*
X113876Y72592D02*
X119596D01*
X113876Y72636D02*
X119596D01*
X113876Y72680D02*
X119596D01*
X113876Y72724D02*
X119552D01*
X113920Y72768D02*
X119552D01*
D83*
X56924Y43869D02*
Y45745D01*
X57393Y46214D01*
X58331D01*
X58800Y45745D01*
Y43869D01*
X58331Y43400D01*
X57393D01*
X57862Y44338D02*
X56924Y43400D01*
X57393D02*
X56924Y43869D01*
X54110Y45745D02*
X54579Y46214D01*
X55517D01*
X55986Y45745D01*
Y43869D01*
X55517Y43400D01*
X54579D01*
X54110Y43869D01*
X52703Y43400D02*
X51765D01*
X51296Y43869D01*
Y44807D01*
X51765Y45276D01*
X52703D01*
X53172Y44807D01*
Y43869D01*
X52703Y43400D01*
X50358Y42462D02*
Y45276D01*
X48951D01*
X48482Y44807D01*
Y43869D01*
X48951Y43400D01*
X50358D01*
X47075Y45745D02*
Y45276D01*
X47544D01*
X46606D01*
X47075D01*
Y43869D01*
X46606Y43400D01*
X43791D02*
X44730D01*
X45199Y43869D01*
Y44807D01*
X44730Y45276D01*
X43791D01*
X43323Y44807D01*
Y44338D01*
X45199D01*
X42384Y45276D02*
Y43400D01*
Y44338D01*
X41915Y44807D01*
X41446Y45276D01*
X40977D01*
X37694Y46214D02*
X39570D01*
Y44807D01*
X38632D01*
X39570D01*
Y43400D01*
X34880Y45745D02*
X35349Y46214D01*
X36287D01*
X36756Y45745D01*
Y43869D01*
X36287Y43400D01*
X35349D01*
X34880Y43869D01*
D84*
X88578Y127698D02*
D03*
X85778D02*
D03*
X79778D02*
D03*
X76978D02*
D03*
X84178D02*
D03*
X81378D02*
D03*
X72578D02*
D03*
X75378D02*
D03*
X51678Y107397D02*
D03*
X48878D02*
D03*
X45278D02*
D03*
X42478D02*
D03*
X38878D02*
D03*
X36078D02*
D03*
X142078Y20298D02*
D03*
X144878D02*
D03*
X100478Y31798D02*
D03*
X103278D02*
D03*
X121378Y20298D02*
D03*
X124178D02*
D03*
X71178Y104998D02*
D03*
X73978D02*
D03*
X198778Y112798D02*
D03*
X195978D02*
D03*
D85*
X138578Y97898D02*
D03*
Y95098D02*
D03*
Y93498D02*
D03*
Y90698D02*
D03*
Y76198D02*
D03*
Y73398D02*
D03*
Y71898D02*
D03*
Y69098D02*
D03*
Y67598D02*
D03*
Y64798D02*
D03*
D86*
X137878Y87798D02*
D03*
X139278D02*
D03*
X104778Y98098D02*
D03*
X103378D02*
D03*
X55778Y85498D02*
D03*
X57178D02*
D03*
X55778Y89498D02*
D03*
X57178D02*
D03*
X58478Y76298D02*
D03*
X57078D02*
D03*
X58478Y72298D02*
D03*
X57078D02*
D03*
X116278Y118398D02*
D03*
X117678D02*
D03*
X116278Y127398D02*
D03*
X117678D02*
D03*
D87*
X39600Y28401D02*
D03*
D88*
X43500Y28401D02*
D03*
D89*
X41730Y31988D02*
D03*
D90*
X37858Y32062D02*
D03*
D91*
X40731Y30148D02*
D03*
D92*
X37800Y36100D02*
D03*
D93*
X46500Y34650D02*
D03*
D94*
X54700Y40900D02*
D03*
D95*
X52950Y28400D02*
D03*
D96*
X50200Y33400D02*
D03*
D97*
X46294Y32727D02*
D03*
D98*
X42650Y30160D02*
D03*
D99*
X53700Y34650D02*
D03*
D100*
X39471Y33039D02*
D03*
D101*
X51700Y34650D02*
D03*
D102*
X48994Y37403D02*
D03*
D103*
X49105Y37596D02*
D03*
M02*
