M48
;Layer_Color=9474304
;FILE_FORMAT=2:5
INCH,TZ
;TYPE=PLATED
T1F00S00C0.01200
T4F00S00C0.02756
T5F00S00C0.03150
T6F00S00C0.03937
T7F00S00C0.11811
%
T01
X142978Y14998
X157378Y33498
X181678Y19898
X191978Y10698
X192178Y5498
X187578Y2098
X117078Y1998
X113678Y9498
X121278Y14998
X119278Y23298
X109778Y32798
X92478Y31198
X90478Y33498
X82578Y33998
X84178Y30998
X72178Y26198
X62178Y26898
Y31898
Y21898
X54378Y16898
X70078Y4498
X62178Y36898
X80878Y36998
X79178Y39998
X85278Y36198
X85378Y46198
X90478Y48798
X92478Y51098
X95678Y52798
X96378Y64498
X93278
X81978Y69498
X83978Y71798
X85978Y74098
X78978Y72698
X78278Y75698
X76978Y78698
X81978Y80398
X81278Y83398
X78678Y85098
X75978Y86698
X78478Y90798
X78578Y93898
X80278Y96498
X82578Y98498
X84878Y96498
X87178Y98498
X89878Y96898
X93378Y93698
X91778Y90998
X96378Y88998
X98178Y93798
Y96898
X98278Y101298
X106478Y101098
X109878Y97098
X108078Y86098
X107778Y83098
X108078Y76498
X125578Y79698
Y88498
X122678Y99798
X117361Y104780
X100378Y107598
X84378Y109698
X77078Y116098
X78878Y128298
X82228
X86678Y127098
X90678Y123498
X68178Y124698
X69878Y131398
X63878Y106898
X58578Y104198
X55578Y103798
X53778Y109998
X50778Y107998
X44378
X37978
X33978Y104798
X38978Y99398
X47878Y87498
X50678Y88998
Y85998
X51978Y74298
X51678Y61198
X46678Y62798
X38578Y64698
X30378Y66498
X30578Y71098
X35378Y72898
X63878Y72198
X66178Y74198
X69378Y70698
X70778Y64498
X67778
X63878Y58698
X54578Y54098
X77378Y69998
X73978Y95798
X73678Y98798
X66078Y99498
X61078Y98798
X64178Y94898
Y86698
X29678Y118798
X20378Y120198
Y130398
X10778Y131398
X117278Y127398
X124678Y70298
X126478Y72698
Y67698
Y83098
X139778Y81998
X138578Y87998
X139178Y92098
Y96498
X156178Y85998
X154578Y83298
X152978Y70998
X151378Y66698
X143678Y47798
X127078Y39898
X179078Y40698
X191978Y37698
X197378Y106998
X160433Y104943
T04
X134878Y2398
X134879Y12398
X134877
T05
X177378Y6398
Y16398
X187378
Y26398
X177378
X187378Y6398
X25378Y8898
Y18898
Y28898
X15378
Y18898
Y8898
X5378
X5378Y18898
Y28898
X5378Y38898
X15378
Y48898
Y58898
X25378
Y48898
Y38898
Y68898
Y78898
X15378
Y68898
X5378
X5378Y58898
Y48898
Y78898
X5378Y88898
X15378
X25378
Y98898
X15378
X5378
X5378Y118898
X15378
Y128898
X25378
Y118898
X5378Y128898
X112378Y104398
X122378
X132378
X142378
X177378Y121398
Y131398
X187378
Y121398
Y36398
X177378
T06
X188317Y63048
Y94544
T07
X160433Y9843
X42323
Y127953
X160433
M30
