%FSLAX25Y25*%
%MOIN*%
G70*
G01*
G75*
%ADD10C,0.01000*%
%ADD11C,0.00000*%
%ADD12C,0.00600*%
%ADD13C,0.00500*%
%ADD14C,0.00667*%
%ADD15C,0.01600*%
%ADD16C,0.00800*%
%ADD17C,0.01400*%
D10*
X-7122Y0D02*
X-1000D01*
X-7122Y137795D02*
X-1000D01*
X-6122Y0D02*
Y46204D01*
Y88391D02*
Y137795D01*
Y0D02*
X-4122Y6000D01*
X-8122D02*
X-6122Y0D01*
X-8122Y131795D02*
X-6122Y137795D01*
X-4122Y131795D01*
X0Y138795D02*
Y143998D01*
X202756Y138795D02*
Y143998D01*
X0Y142998D02*
X79184D01*
X120372D02*
X202756D01*
X0D02*
X6000Y140998D01*
X0Y142998D02*
X6000Y144998D01*
X196756D02*
X202756Y142998D01*
X196756Y140998D02*
X202756Y142998D01*
D11*
X0Y0D02*
Y137795D01*
X202756D01*
Y0D02*
Y137795D01*
X0Y0D02*
X202756D01*
D12*
X-7521Y47804D02*
X-8521Y48804D01*
Y50803D01*
X-7521Y51803D01*
X-6522D01*
X-5522Y50803D01*
Y49803D01*
Y50803D01*
X-4522Y51803D01*
X-3523D01*
X-2523Y50803D01*
Y48804D01*
X-3523Y47804D01*
X-8521Y57801D02*
Y53802D01*
X-5522D01*
X-6522Y55801D01*
Y56801D01*
X-5522Y57801D01*
X-3523D01*
X-2523Y56801D01*
Y54802D01*
X-3523Y53802D01*
X-2523Y59800D02*
X-3523D01*
Y60800D01*
X-2523D01*
Y59800D01*
X-7521Y64798D02*
X-8521Y65798D01*
Y67797D01*
X-7521Y68797D01*
X-3523D01*
X-2523Y67797D01*
Y65798D01*
X-3523Y64798D01*
X-7521D01*
Y70797D02*
X-8521Y71796D01*
Y73795D01*
X-7521Y74795D01*
X-3523D01*
X-2523Y73795D01*
Y71796D01*
X-3523Y70797D01*
X-7521D01*
X-2523Y76795D02*
X-6522D01*
Y77794D01*
X-5522Y78794D01*
X-2523D01*
X-5522D01*
X-6522Y79794D01*
X-5522Y80793D01*
X-2523D01*
Y82793D02*
X-6522D01*
Y83792D01*
X-5522Y84792D01*
X-2523D01*
X-5522D01*
X-6522Y85792D01*
X-5522Y86791D01*
X-2523D01*
X84783Y145397D02*
X80784D01*
Y142398D01*
X82784Y143397D01*
X83783D01*
X84783Y142398D01*
Y140398D01*
X83783Y139399D01*
X81784D01*
X80784Y140398D01*
X86782Y139399D02*
X88781D01*
X87782D01*
Y145397D01*
X86782Y144397D01*
X91781Y139399D02*
Y140398D01*
X92780D01*
Y139399D01*
X91781D01*
X100778Y145397D02*
X96779D01*
Y142398D01*
X98778Y143397D01*
X99778D01*
X100778Y142398D01*
Y140398D01*
X99778Y139399D01*
X97779D01*
X96779Y140398D01*
X102777Y144397D02*
X103777Y145397D01*
X105776D01*
X106776Y144397D01*
Y140398D01*
X105776Y139399D01*
X103777D01*
X102777Y140398D01*
Y144397D01*
X108775Y139399D02*
Y143397D01*
X109775D01*
X110774Y142398D01*
Y139399D01*
Y142398D01*
X111774Y143397D01*
X112774Y142398D01*
Y139399D01*
X114773D02*
Y143397D01*
X115773D01*
X116772Y142398D01*
Y139399D01*
Y142398D01*
X117772Y143397D01*
X118772Y142398D01*
Y139399D01*
D13*
X186348Y94544D02*
X190285D01*
X188317Y92576D02*
Y96513D01*
X186348Y63048D02*
X190285D01*
X188317Y61080D02*
Y65017D01*
X140803Y104398D02*
X143953D01*
X142378Y102823D02*
Y105972D01*
X110803Y104398D02*
X113953D01*
X112378Y102823D02*
Y105972D01*
X120803Y104398D02*
X123953D01*
X122378Y102823D02*
Y105972D01*
X130803Y104398D02*
X133953D01*
X132378Y102823D02*
Y105972D01*
X175803Y121398D02*
X178953D01*
X177378Y119823D02*
Y122972D01*
X185803Y131398D02*
X188953D01*
X187378Y129823D02*
Y132972D01*
X175803Y131398D02*
X178953D01*
X177378Y129823D02*
Y132972D01*
X185803Y121398D02*
X188953D01*
X187378Y119823D02*
Y122972D01*
X13803Y128898D02*
X16953D01*
X15378Y127323D02*
Y130472D01*
X23803Y118898D02*
X26953D01*
X25378Y117323D02*
Y120472D01*
X23803Y128898D02*
X26953D01*
X25378Y127323D02*
Y130472D01*
X13803Y118898D02*
X16953D01*
X15378Y117323D02*
Y120472D01*
X3803Y118898D02*
X6953D01*
X5378Y117323D02*
Y120472D01*
X3803Y128898D02*
X6953D01*
X5378Y127323D02*
Y130472D01*
X3803Y28898D02*
X6953D01*
X5378Y27323D02*
Y30472D01*
X23803Y28898D02*
X26953D01*
X25378Y27323D02*
Y30472D01*
X13803Y28898D02*
X16953D01*
X15378Y27323D02*
Y30472D01*
X13803Y18898D02*
X16953D01*
X15378Y17323D02*
Y20472D01*
X23803Y8898D02*
X26953D01*
X25378Y7323D02*
Y10472D01*
X23803Y18898D02*
X26953D01*
X25378Y17323D02*
Y20472D01*
X13803Y8898D02*
X16953D01*
X15378Y7323D02*
Y10472D01*
X3803Y8898D02*
X6953D01*
X5378Y7323D02*
Y10472D01*
X3803Y18898D02*
X6953D01*
X5378Y17323D02*
Y20472D01*
X3803Y58898D02*
X6953D01*
X5378Y57323D02*
Y60472D01*
X23803Y58898D02*
X26953D01*
X25378Y57323D02*
Y60472D01*
X13803Y58898D02*
X16953D01*
X15378Y57323D02*
Y60472D01*
X13803Y48898D02*
X16953D01*
X15378Y47323D02*
Y50472D01*
X23803Y38898D02*
X26953D01*
X25378Y37323D02*
Y40472D01*
X23803Y48898D02*
X26953D01*
X25378Y47323D02*
Y50472D01*
X13803Y38898D02*
X16953D01*
X15378Y37323D02*
Y40472D01*
X3803Y38898D02*
X6953D01*
X5378Y37323D02*
Y40472D01*
X3803Y48898D02*
X6953D01*
X5378Y47323D02*
Y50472D01*
X13803Y78898D02*
X16953D01*
X15378Y77323D02*
Y80472D01*
X23803Y68898D02*
X26953D01*
X25378Y67323D02*
Y70472D01*
X23803Y78898D02*
X26953D01*
X25378Y77323D02*
Y80472D01*
X13803Y68898D02*
X16953D01*
X15378Y67323D02*
Y70472D01*
X3803Y68898D02*
X6953D01*
X5378Y67323D02*
Y70472D01*
X3803Y78898D02*
X6953D01*
X5378Y77323D02*
Y80472D01*
X3803Y98898D02*
X6953D01*
X5378Y97323D02*
Y100472D01*
X3803Y88898D02*
X6953D01*
X5378Y87323D02*
Y90472D01*
X13803Y88898D02*
X16953D01*
X15378Y87323D02*
Y90472D01*
X23803Y98898D02*
X26953D01*
X25378Y97323D02*
Y100472D01*
X23803Y88898D02*
X26953D01*
X25378Y87323D02*
Y90472D01*
X13803Y98898D02*
X16953D01*
X15378Y97323D02*
Y100472D01*
X175803Y16398D02*
X178953D01*
X177378Y14823D02*
Y17972D01*
X185803Y16398D02*
X188953D01*
X187378Y14823D02*
Y17972D01*
X185803Y26398D02*
X188953D01*
X187378Y24823D02*
Y27972D01*
X175803Y36398D02*
X178953D01*
X177378Y34823D02*
Y37972D01*
X185803Y36398D02*
X188953D01*
X187378Y34823D02*
Y37972D01*
X175803Y26398D02*
X178953D01*
X177378Y24823D02*
Y27972D01*
X185803Y6398D02*
X188953D01*
X187378Y4823D02*
Y7972D01*
X175803Y6398D02*
X178953D01*
X177378Y4823D02*
Y7972D01*
X36417Y127953D02*
X48228D01*
X42323Y122047D02*
Y133858D01*
X36417Y9843D02*
X48228D01*
X42323Y3937D02*
Y15748D01*
X154528Y9843D02*
X166339D01*
X160433Y3937D02*
Y15748D01*
X154528Y127953D02*
X166339D01*
X160433Y122047D02*
Y133858D01*
X133500Y2398D02*
X136256D01*
X134878Y1020D02*
Y3776D01*
X133501Y12398D02*
X136257D01*
X134879Y11020D02*
Y13776D01*
X133500Y2398D02*
X136256D01*
X134878Y1020D02*
Y3776D01*
X133499Y12398D02*
X136255D01*
X134877Y11020D02*
Y13776D01*
X61741Y131498D02*
X63941D01*
X62841Y130398D02*
Y132598D01*
X94615Y131498D02*
X96815D01*
X95715Y130398D02*
Y132598D01*
X69418Y119698D02*
X71618D01*
X70518Y118598D02*
Y120798D01*
X86955Y119698D02*
X89121D01*
X88038Y118615D02*
Y120780D01*
X71578Y26198D02*
X72778D01*
X72178Y25598D02*
Y26798D01*
X84678Y36198D02*
X85878D01*
X85278Y35598D02*
Y36798D01*
X69478Y4498D02*
X70678D01*
X70078Y3898D02*
Y5098D01*
X68778Y70698D02*
X69978D01*
X69378Y70098D02*
Y71298D01*
X69278Y131398D02*
X70478D01*
X69878Y130798D02*
Y131998D01*
X67578Y124698D02*
X68778D01*
X68178Y124098D02*
Y125298D01*
X63278Y72198D02*
X64478D01*
X63878Y71598D02*
Y72798D01*
X50078Y88998D02*
X51278D01*
X50678Y88398D02*
Y89598D01*
X50078Y85998D02*
X51278D01*
X50678Y85398D02*
Y86598D01*
X181078Y19898D02*
X182278D01*
X181678Y19298D02*
Y20498D01*
X120678Y14998D02*
X121878D01*
X121278Y14398D02*
Y15598D01*
X142378Y14998D02*
X143578D01*
X142978Y14398D02*
Y15598D01*
X78278Y128298D02*
X79478D01*
X78878Y127698D02*
Y128898D01*
X81628Y128298D02*
X82828D01*
X82228Y127698D02*
Y128898D01*
X89878Y33498D02*
X91078D01*
X90478Y32898D02*
Y34098D01*
X83578Y30998D02*
X84778D01*
X84178Y30398D02*
Y31598D01*
X76778Y69998D02*
X77978D01*
X77378Y69398D02*
Y70598D01*
X78378Y72698D02*
X79578D01*
X78978Y72098D02*
Y73298D01*
X77678Y75698D02*
X78878D01*
X78278Y75098D02*
Y76298D01*
X81978Y33998D02*
X83178D01*
X82578Y33398D02*
Y34598D01*
X122078Y99798D02*
X123278D01*
X122678Y99198D02*
Y100398D01*
X139178Y81998D02*
X140378D01*
X139778Y81398D02*
Y82598D01*
X65478Y99498D02*
X66678D01*
X66078Y98898D02*
Y100098D01*
X138578Y96498D02*
X139778D01*
X139178Y95898D02*
Y97098D01*
X138578Y92098D02*
X139778D01*
X139178Y91498D02*
Y92698D01*
X54978Y103798D02*
X56178D01*
X55578Y103198D02*
Y104398D01*
X57978Y104198D02*
X59178D01*
X58578Y103598D02*
Y104798D01*
X63278Y106898D02*
X64478D01*
X63878Y106298D02*
Y107498D01*
X196778Y106998D02*
X197978D01*
X197378Y106398D02*
Y107598D01*
X126478Y39898D02*
X127678D01*
X127078Y39298D02*
Y40498D01*
X95078Y52798D02*
X96278D01*
X95678Y52198D02*
Y53398D01*
X91878Y31198D02*
X93078D01*
X92478Y30598D02*
Y31798D01*
X153978Y83298D02*
X155178D01*
X154578Y82698D02*
Y83898D01*
X155578Y85998D02*
X156778D01*
X156178Y85398D02*
Y86598D01*
X152378Y70998D02*
X153578D01*
X152978Y70398D02*
Y71598D01*
X150778Y66698D02*
X151978D01*
X151378Y66098D02*
Y67298D01*
X137978Y87998D02*
X139178D01*
X138578Y87398D02*
Y88598D01*
X95778Y64498D02*
X96978D01*
X96378Y63898D02*
Y65098D01*
X70178Y64498D02*
X71378D01*
X70778Y63898D02*
Y65098D01*
X97578Y96898D02*
X98778D01*
X98178Y96298D02*
Y97498D01*
X73078Y98798D02*
X74278D01*
X73678Y98198D02*
Y99398D01*
X80678Y83398D02*
X81878D01*
X81278Y82798D02*
Y83998D01*
X81378Y80398D02*
X82578D01*
X81978Y79798D02*
Y80998D01*
X78578Y39998D02*
X79778D01*
X79178Y39398D02*
Y40598D01*
X67178Y64498D02*
X68378D01*
X67778Y63898D02*
Y65098D01*
X51378Y74298D02*
X52578D01*
X51978Y73698D02*
Y74898D01*
X65578Y74198D02*
X66778D01*
X66178Y73598D02*
Y74798D01*
X86578Y98498D02*
X87778D01*
X87178Y97898D02*
Y99098D01*
X113078Y9498D02*
X114278D01*
X113678Y8898D02*
Y10098D01*
X105878Y101098D02*
X107078D01*
X106478Y100498D02*
Y101698D01*
X109278Y97098D02*
X110478D01*
X109878Y96498D02*
Y97698D01*
X116761Y104780D02*
X117961D01*
X117361Y104180D02*
Y105380D01*
X53778Y16898D02*
X54978D01*
X54378Y16298D02*
Y17498D01*
X83378Y71798D02*
X84578D01*
X83978Y71198D02*
Y72398D01*
X85378Y74098D02*
X86578D01*
X85978Y73498D02*
Y74698D01*
X81378Y69498D02*
X82578D01*
X81978Y68898D02*
Y70098D01*
X125878Y83098D02*
X127078D01*
X126478Y82498D02*
Y83698D01*
X107178Y83098D02*
X108378D01*
X107778Y82498D02*
Y83698D01*
X124078Y70298D02*
X125278D01*
X124678Y69698D02*
Y70898D01*
X81978Y98498D02*
X83178D01*
X82578Y97898D02*
Y99098D01*
X125878Y67698D02*
X127078D01*
X126478Y67098D02*
Y68298D01*
X79678Y96498D02*
X80878D01*
X80278Y95898D02*
Y97098D01*
X84278Y96498D02*
X85478D01*
X84878Y95898D02*
Y97098D01*
X37378Y107998D02*
X38578D01*
X37978Y107398D02*
Y108598D01*
X43778Y107998D02*
X44978D01*
X44378Y107398D02*
Y108598D01*
X50178Y107998D02*
X51378D01*
X50778Y107398D02*
Y108598D01*
X76378Y78698D02*
X77578D01*
X76978Y78098D02*
Y79298D01*
X78078Y85098D02*
X79278D01*
X78678Y84498D02*
Y85698D01*
X77878Y90798D02*
X79078D01*
X78478Y90198D02*
Y91398D01*
X95778Y88998D02*
X96978D01*
X96378Y88398D02*
Y89598D01*
X91178Y90998D02*
X92378D01*
X91778Y90398D02*
Y91598D01*
X89278Y96898D02*
X90478D01*
X89878Y96298D02*
Y97498D01*
X92678Y64498D02*
X93878D01*
X93278Y63898D02*
Y65098D01*
X97578Y93798D02*
X98778D01*
X98178Y93198D02*
Y94398D01*
X61578Y31898D02*
X62778D01*
X62178Y31298D02*
Y32498D01*
X61578Y26898D02*
X62778D01*
X62178Y26298D02*
Y27498D01*
X61578Y21898D02*
X62778D01*
X62178Y21298D02*
Y22498D01*
X116678Y127398D02*
X117878D01*
X117278Y126798D02*
Y127998D01*
X143078Y47798D02*
X144278D01*
X143678Y47198D02*
Y48398D01*
X116478Y1998D02*
X117678D01*
X117078Y1398D02*
Y2598D01*
X76478Y116098D02*
X77678D01*
X77078Y115498D02*
Y116698D01*
X83778Y109698D02*
X84978D01*
X84378Y109098D02*
Y110298D01*
X77978Y93898D02*
X79178D01*
X78578Y93298D02*
Y94498D01*
X29978Y71098D02*
X31178D01*
X30578Y70498D02*
Y71698D01*
X34778Y72898D02*
X35978D01*
X35378Y72298D02*
Y73498D01*
X29778Y66498D02*
X30978D01*
X30378Y65898D02*
Y67098D01*
X37978Y64698D02*
X39178D01*
X38578Y64098D02*
Y65298D01*
X46078Y62798D02*
X47278D01*
X46678Y62198D02*
Y63398D01*
X63278Y58698D02*
X64478D01*
X63878Y58098D02*
Y59298D01*
X61578Y36898D02*
X62778D01*
X62178Y36298D02*
Y37498D01*
X51078Y61198D02*
X52278D01*
X51678Y60598D02*
Y61798D01*
X53978Y54098D02*
X55178D01*
X54578Y53498D02*
Y54698D01*
X47278Y87498D02*
X48478D01*
X47878Y86898D02*
Y88098D01*
X159833Y104943D02*
X161033D01*
X160433Y104342D02*
Y105543D01*
X10178Y131398D02*
X11378D01*
X10778Y130798D02*
Y131998D01*
X19778Y130398D02*
X20978D01*
X20378Y129798D02*
Y130998D01*
X19778Y120198D02*
X20978D01*
X20378Y119598D02*
Y120798D01*
X29078Y118798D02*
X30278D01*
X29678Y118198D02*
Y119398D01*
X38378Y99398D02*
X39578D01*
X38978Y98798D02*
Y99998D01*
X33378Y104798D02*
X34578D01*
X33978Y104198D02*
Y105398D01*
X60478Y98798D02*
X61678D01*
X61078Y98198D02*
Y99398D01*
X63578Y86698D02*
X64778D01*
X64178Y86098D02*
Y87298D01*
X63578Y94898D02*
X64778D01*
X64178Y94298D02*
Y95498D01*
X73378Y95798D02*
X74578D01*
X73978Y95198D02*
Y96398D01*
X191378Y37698D02*
X192578D01*
X191978Y37098D02*
Y38298D01*
X191378Y10698D02*
X192578D01*
X191978Y10098D02*
Y11298D01*
X186978Y2098D02*
X188178D01*
X187578Y1498D02*
Y2698D01*
X191578Y5498D02*
X192778D01*
X192178Y4898D02*
Y6098D01*
X178478Y40698D02*
X179678D01*
X179078Y40098D02*
Y41298D01*
X124978Y88498D02*
X126178D01*
X125578Y87898D02*
Y89098D01*
X107478Y76498D02*
X108678D01*
X108078Y75898D02*
Y77098D01*
X124978Y79698D02*
X126178D01*
X125578Y79098D02*
Y80298D01*
X107478Y86098D02*
X108678D01*
X108078Y85498D02*
Y86698D01*
X99778Y107598D02*
X100978D01*
X100378Y106998D02*
Y108198D01*
X97678Y101298D02*
X98878D01*
X98278Y100698D02*
Y101898D01*
X75378Y86698D02*
X76578D01*
X75978Y86098D02*
Y87298D01*
X91878Y51098D02*
X93078D01*
X92478Y50498D02*
Y51698D01*
X89878Y48798D02*
X91078D01*
X90478Y48198D02*
Y49398D01*
X109178Y32798D02*
X110378D01*
X109778Y32198D02*
Y33398D01*
X80278Y36998D02*
X81478D01*
X80878Y36398D02*
Y37598D01*
X84778Y46198D02*
X85978D01*
X85378Y45598D02*
Y46798D01*
X86078Y127098D02*
X87278D01*
X86678Y126498D02*
Y127698D01*
X53178Y109998D02*
X54378D01*
X53778Y109398D02*
Y110598D01*
X118678Y23298D02*
X119878D01*
X119278Y22698D02*
Y23898D01*
X156778Y33498D02*
X157978D01*
X157378Y32898D02*
Y34098D01*
X92778Y93698D02*
X93978D01*
X93378Y93098D02*
Y94298D01*
X90078Y123498D02*
X91278D01*
X90678Y122898D02*
Y124098D01*
X125878Y72698D02*
X127078D01*
X126478Y72098D02*
Y73298D01*
M02*
