%FSLAX25Y25*%
%MOIN*%
G70*
G01*
G75*
G04 Layer_Physical_Order=4*
G04 Layer_Color=16711680*
%ADD10R,0.05200X0.06000*%
%ADD11R,0.10000X0.03600*%
%ADD12C,0.02800*%
%ADD13R,0.04000X0.02800*%
%ADD14R,0.05400X0.04000*%
%ADD15C,0.04000*%
%ADD16R,0.06000X0.09600*%
%ADD17R,0.09000X0.07000*%
%ADD18R,0.03400X0.02800*%
%ADD19O,0.06496X0.01181*%
%ADD20O,0.01181X0.06496*%
%ADD21R,0.02756X0.00394*%
%ADD22R,0.05512X0.03150*%
%ADD23R,0.01575X0.06400*%
%ADD24R,0.07000X0.04000*%
%ADD25C,0.02400*%
%ADD26C,0.01000*%
%ADD27C,0.00600*%
%ADD28C,0.01400*%
%ADD29C,0.02000*%
%ADD30C,0.01200*%
%ADD31C,0.01600*%
%ADD32C,0.03000*%
%ADD33R,0.05000X0.05000*%
%ADD34R,0.05000X0.05000*%
%ADD35C,0.13780*%
%ADD36C,0.02756*%
%ADD37O,0.04000X0.07000*%
%ADD38O,0.04000X0.05000*%
%ADD39C,0.02400*%
%ADD40C,0.00400*%
%ADD41R,0.07200X0.08600*%
%ADD42R,0.01000X0.05000*%
%ADD43R,0.05600X0.04800*%
%ADD44R,0.06200X0.02800*%
%ADD45R,0.08600X0.04800*%
%ADD46R,0.05600X0.06200*%
%ADD47R,0.03600X0.04400*%
%ADD48R,0.04400X0.03600*%
%ADD49R,0.02800X0.03400*%
G04:AMPARAMS|DCode=50|XSize=37.4mil|YSize=94.49mil|CornerRadius=9.35mil|HoleSize=0mil|Usage=FLASHONLY|Rotation=270.000|XOffset=0mil|YOffset=0mil|HoleType=Round|Shape=RoundedRectangle|*
%AMROUNDEDRECTD50*
21,1,0.03740,0.07579,0,0,270.0*
21,1,0.01870,0.09449,0,0,270.0*
1,1,0.01870,-0.03789,-0.00935*
1,1,0.01870,-0.03789,0.00935*
1,1,0.01870,0.03789,0.00935*
1,1,0.01870,0.03789,-0.00935*
%
%ADD50ROUNDEDRECTD50*%
G04:AMPARAMS|DCode=51|XSize=157.48mil|YSize=94.49mil|CornerRadius=23.62mil|HoleSize=0mil|Usage=FLASHONLY|Rotation=270.000|XOffset=0mil|YOffset=0mil|HoleType=Round|Shape=RoundedRectangle|*
%AMROUNDEDRECTD51*
21,1,0.15748,0.04724,0,0,270.0*
21,1,0.11024,0.09449,0,0,270.0*
1,1,0.04724,-0.02362,-0.05512*
1,1,0.04724,-0.02362,0.05512*
1,1,0.04724,0.02362,0.05512*
1,1,0.04724,0.02362,-0.05512*
%
%ADD51ROUNDEDRECTD51*%
G36*
X201878Y134898D02*
Y2898D01*
X199878Y898D01*
X2878D01*
X878Y2898D01*
Y134898D01*
X2878Y136898D01*
X199878D01*
X201878Y134898D01*
D02*
G37*
%LPC*%
G36*
X125178Y107498D02*
X119578D01*
X119278Y107198D01*
Y101598D01*
X119578Y101298D01*
X125178D01*
X125478Y101598D01*
Y107198D01*
X125178Y107498D01*
D02*
G37*
G36*
X62378Y78898D02*
X59578D01*
X58978Y78298D01*
Y66298D01*
X59578Y65698D01*
X62378D01*
X62978Y66298D01*
Y68698D01*
X65678Y71398D01*
Y72998D01*
X62978Y75698D01*
Y78298D01*
X62378Y78898D01*
D02*
G37*
G36*
X28178Y41998D02*
X22578D01*
X22278Y41698D01*
Y36098D01*
X22578Y35798D01*
X28178D01*
X28478Y36098D01*
Y41698D01*
X28178Y41998D01*
D02*
G37*
G36*
X191378Y46998D02*
X182978D01*
X181878Y45898D01*
Y41298D01*
X182978Y40198D01*
X191378D01*
X192478Y41298D01*
Y45898D01*
X191378Y46998D01*
D02*
G37*
G36*
X143878Y131398D02*
X136478D01*
X134778Y129698D01*
Y116098D01*
X136478Y114398D01*
X144278D01*
X147178Y111498D01*
X194778D01*
X195078Y111198D01*
Y102698D01*
X195678Y102098D01*
X199078D01*
X199678Y102698D01*
Y111298D01*
X198678Y112298D01*
Y113298D01*
X199778Y114398D01*
Y117598D01*
X199078Y118298D01*
X195678D01*
X194978Y117598D01*
Y115898D01*
X193778Y114698D01*
X148578D01*
X145578Y117698D01*
Y129698D01*
X143878Y131398D01*
D02*
G37*
G36*
X135178Y107498D02*
X129578D01*
X129278Y107198D01*
Y101598D01*
X129578Y101298D01*
X135178D01*
X135478Y101598D01*
Y107198D01*
X135178Y107498D01*
D02*
G37*
G36*
X71778Y24998D02*
X69778D01*
X69478Y24698D01*
Y19098D01*
X70078Y18498D01*
X71778D01*
X72078Y18798D01*
Y24698D01*
X71778Y24998D01*
D02*
G37*
G36*
X28178Y31998D02*
X22578D01*
X22278Y31698D01*
Y26098D01*
X22578Y25798D01*
X28178D01*
X28478Y26098D01*
Y31698D01*
X28178Y31998D01*
D02*
G37*
G36*
X127278Y84898D02*
X125678D01*
X124278Y83498D01*
X109978D01*
X108578Y84898D01*
X106978D01*
X105978Y83898D01*
Y82298D01*
X106978Y81298D01*
X127278D01*
X128278Y82298D01*
Y83898D01*
X127278Y84898D01*
D02*
G37*
G36*
X54978Y91798D02*
X50878D01*
X48878Y89798D01*
Y85198D01*
X50878Y83198D01*
X54978D01*
X55578Y83798D01*
Y91198D01*
X54978Y91798D01*
D02*
G37*
G36*
X28178Y71998D02*
X22578D01*
X22278Y71698D01*
Y66098D01*
X22578Y65798D01*
X28178D01*
X28478Y66098D01*
Y71698D01*
X28178Y71998D01*
D02*
G37*
G36*
X190478Y39498D02*
X184578D01*
X184278Y39198D01*
Y33598D01*
X184578Y33298D01*
X190178D01*
X190478Y33598D01*
Y39498D01*
D02*
G37*
G36*
X28178Y81998D02*
X22578D01*
X22278Y81698D01*
Y76098D01*
X22578Y75798D01*
X28178D01*
X28478Y76098D01*
Y81698D01*
X28178Y81998D01*
D02*
G37*
G36*
X191378Y109598D02*
X182978D01*
X181878Y108498D01*
Y104398D01*
Y103898D01*
X182978Y102798D01*
X191378D01*
X192478Y103898D01*
Y108498D01*
X191378Y109598D01*
D02*
G37*
G36*
X151378Y135798D02*
X123678D01*
X122278Y134398D01*
X111878D01*
X108578Y131098D01*
Y127898D01*
X108278Y127598D01*
X92778D01*
X89478Y130898D01*
Y132598D01*
X86278Y135798D01*
X66378D01*
X64878Y134298D01*
Y127698D01*
X58178Y120998D01*
X39478D01*
X35878Y124598D01*
X15178D01*
X12278Y121698D01*
Y6098D01*
X12878Y5498D01*
X17878D01*
X18478Y6098D01*
Y121098D01*
X18778Y121398D01*
X21978D01*
X22278Y121098D01*
Y116098D01*
X22578Y115798D01*
X28178D01*
X28478Y116098D01*
Y121098D01*
X28778Y121398D01*
X34478D01*
X38078Y117798D01*
X59578D01*
X68078Y126298D01*
Y132298D01*
X68378Y132598D01*
X71378D01*
X71678Y132298D01*
Y122798D01*
X72578Y121898D01*
Y117498D01*
X72278Y117198D01*
X62678D01*
X54628Y109148D01*
X53778Y109998D01*
X52578D01*
Y112298D01*
X51978Y112898D01*
X48578D01*
X47978Y112298D01*
Y106798D01*
X47678Y106498D01*
X46478D01*
X46178Y106798D01*
Y112298D01*
X45578Y112898D01*
X42178D01*
X41578Y112298D01*
Y106798D01*
X41278Y106498D01*
X40078D01*
X39778Y106798D01*
Y112298D01*
X39178Y112898D01*
X35778D01*
X35178Y112298D01*
Y102498D01*
X35778Y101898D01*
X50078D01*
X50878Y101098D01*
Y99998D01*
X49078Y98198D01*
X28778D01*
X28478Y98498D01*
Y101698D01*
X28178Y101998D01*
X22578D01*
X22278Y101698D01*
Y96098D01*
X22578Y95798D01*
X28878D01*
X29578Y95098D01*
Y94098D01*
X27478Y91998D01*
X22578D01*
X22278Y91698D01*
Y86098D01*
X22578Y85798D01*
X28178D01*
X28478Y86098D01*
Y89498D01*
X32978Y93998D01*
X50978D01*
X60478Y103498D01*
X60978D01*
X64278Y100198D01*
Y98698D01*
X67578Y95398D01*
Y91798D01*
Y78898D01*
Y66398D01*
X68628Y65348D01*
X67778Y64498D01*
Y63298D01*
X57178D01*
X56878Y63598D01*
Y69998D01*
X56278Y70598D01*
X52878D01*
X52278Y69998D01*
Y66598D01*
X53678Y65198D01*
Y61598D01*
X55178Y60098D01*
X67178D01*
X68278Y58998D01*
X71678D01*
X72578Y59898D01*
Y65898D01*
X70778Y67698D01*
Y69498D01*
X71278Y69998D01*
Y71398D01*
X70778Y71898D01*
Y97498D01*
X71278Y97998D01*
X71878D01*
X72878Y96998D01*
X74478D01*
X75478Y97998D01*
Y104098D01*
X74878Y104698D01*
X70378D01*
X69478Y103798D01*
X65278D01*
X59778Y109298D01*
Y109698D01*
X64078Y113998D01*
X81778D01*
X82578Y113198D01*
Y108898D01*
X83578Y107898D01*
X85478D01*
X89478Y103898D01*
Y99098D01*
X88028Y97648D01*
X87178Y98498D01*
X86328Y97648D01*
X83678Y100298D01*
X81478D01*
X78478Y97298D01*
Y96398D01*
X76678Y94598D01*
Y89998D01*
X77678Y88998D01*
X79678D01*
X80278Y88398D01*
Y87198D01*
X79978Y86898D01*
X77878D01*
X76878Y85898D01*
Y84298D01*
X77878Y83298D01*
X78778D01*
X80178Y81898D01*
Y79598D01*
X81178Y78598D01*
X82978D01*
X84178Y77398D01*
Y73898D01*
X83878Y73598D01*
X83078D01*
X82378Y72898D01*
X81378D01*
X80078Y74198D01*
Y76498D01*
X78778Y77798D01*
Y79498D01*
X77778Y80498D01*
X76178D01*
X75178Y79498D01*
Y77498D01*
X72278Y74598D01*
Y67598D01*
X73678Y66198D01*
Y55498D01*
X61678Y43498D01*
X49078D01*
X37278Y31698D01*
X27578Y21998D01*
X22578D01*
X22278Y21698D01*
Y16098D01*
X22578Y15798D01*
X27878D01*
X28178Y15498D01*
Y12598D01*
X27578Y11998D01*
X22578D01*
X22278Y11698D01*
Y6098D01*
X22578Y5798D01*
X28178D01*
X28478Y6098D01*
Y9698D01*
X30378Y11598D01*
Y19298D01*
X50778Y39698D01*
X53378D01*
X53978Y39098D01*
Y19098D01*
X52578Y17698D01*
Y16098D01*
X53578Y15098D01*
X55178D01*
X56178Y16098D01*
Y37798D01*
X56478Y38098D01*
X60078D01*
X60378Y37798D01*
Y36098D01*
X61378Y35098D01*
Y33998D01*
X60378Y32998D01*
Y31098D01*
X61378Y30098D01*
Y28698D01*
X60378Y27698D01*
Y26098D01*
X61378Y25098D01*
Y23698D01*
X60378Y22698D01*
Y21098D01*
X61378Y20098D01*
X62978D01*
X63978Y21098D01*
Y23098D01*
X67278Y26398D01*
Y32098D01*
X71878Y36698D01*
X72778D01*
X73378Y36098D01*
Y24998D01*
X73078Y24698D01*
Y18798D01*
X73378Y18498D01*
X75718D01*
X76018Y18798D01*
Y24658D01*
X75678Y24998D01*
Y38198D01*
X76178Y38698D01*
X76878D01*
X77378Y38198D01*
Y24998D01*
X77018Y24638D01*
Y18798D01*
X77318Y18498D01*
X79653D01*
X79953Y18798D01*
Y24398D01*
X80953D01*
Y18798D01*
X81253Y18498D01*
X83598D01*
X83898Y18798D01*
Y24398D01*
X84898D01*
Y18798D01*
X85198Y18498D01*
X87538D01*
X87838Y18798D01*
Y24398D01*
X88838D01*
Y18798D01*
X89138Y18498D01*
X91488D01*
X91768Y18778D01*
Y24708D01*
X85978Y30498D01*
Y31798D01*
X84378Y33398D01*
Y34798D01*
X82678Y36498D01*
Y37798D01*
X80978Y39498D01*
Y40798D01*
X80278Y41498D01*
Y42798D01*
X84528Y47048D01*
X85378Y46198D01*
X86578D01*
Y32198D01*
X92768Y26008D01*
Y18798D01*
X93068Y18498D01*
X97378D01*
X97678Y18798D01*
Y24398D01*
X98678D01*
Y18798D01*
X98978Y18498D01*
X100678D01*
X101278Y19098D01*
Y25398D01*
X102178Y26298D01*
X103578D01*
X104178Y26898D01*
Y30298D01*
X103578Y30898D01*
X100178D01*
X99578Y30298D01*
Y27198D01*
X99078Y26698D01*
X95278D01*
X94278Y27698D01*
Y51898D01*
X93278Y52898D01*
X91678D01*
X90178Y51398D01*
X89378D01*
X88778Y51998D01*
Y64498D01*
X90978Y66698D01*
Y73998D01*
X91378Y74398D01*
X91978D01*
X122878Y43498D01*
Y25998D01*
X122678Y25798D01*
X121078D01*
X120478Y25198D01*
Y23298D01*
X119278D01*
X118428Y22448D01*
X102278Y38598D01*
Y59598D01*
X99878Y61998D01*
Y63598D01*
X97178Y66298D01*
X92178D01*
X89478Y63598D01*
Y59398D01*
X90078Y58798D01*
X94478D01*
X95178Y59498D01*
X98178D01*
X99278Y58398D01*
Y33598D01*
X99878Y32998D01*
X103678D01*
X119478Y17198D01*
Y14198D01*
X121178Y12498D01*
Y9998D01*
X121778Y9398D01*
X128478D01*
X129078Y9998D01*
Y18798D01*
X128478Y19398D01*
X127778D01*
X125078Y22098D01*
Y37598D01*
X125578Y38098D01*
X128278D01*
X138378Y27998D01*
Y19598D01*
X141178Y16798D01*
Y14298D01*
X141478Y13998D01*
Y9698D01*
X141778Y9398D01*
X147878D01*
X148278Y9798D01*
Y13398D01*
X147878Y13798D01*
X146078D01*
X145778Y14098D01*
Y18798D01*
X145278Y19298D01*
X141878D01*
X140578Y20598D01*
Y28198D01*
X140878Y28498D01*
X164378D01*
X174278Y18598D01*
Y13598D01*
X174578Y13298D01*
X180178D01*
X180478Y13598D01*
Y17798D01*
X180778Y18098D01*
X183978D01*
X184278Y17798D01*
Y13598D01*
X184578Y13298D01*
X190178D01*
X190478Y13598D01*
Y13998D01*
Y19198D01*
X190178Y19498D01*
X186778D01*
X185978Y20298D01*
Y21598D01*
X187678Y23298D01*
X190178D01*
X190478Y23598D01*
Y29198D01*
X190178Y29498D01*
X184578D01*
X184278Y29198D01*
Y25098D01*
X183178Y23998D01*
X181278D01*
X180478Y24798D01*
Y29198D01*
X180178Y29498D01*
X175178D01*
X172378Y32298D01*
X141878D01*
X109278Y64898D01*
Y65898D01*
X109978Y66598D01*
X124978D01*
X125678Y65898D01*
X127278D01*
X128278Y66898D01*
Y68498D01*
X127378Y69398D01*
Y70998D01*
X128278Y71898D01*
Y73498D01*
X127278Y74498D01*
X125678D01*
X125078Y73898D01*
X107178D01*
X96178Y84898D01*
Y86198D01*
X98178Y88198D01*
Y89698D01*
X98478Y89998D01*
X103278D01*
X103878Y90598D01*
Y94998D01*
X103178Y95698D01*
Y99798D01*
X102578Y100398D01*
X98978D01*
X98078Y101298D01*
X97078D01*
Y106498D01*
X85078Y118498D01*
Y121898D01*
X85378Y122198D01*
X88878D01*
X89478Y122798D01*
Y123498D01*
X90678D01*
Y124398D01*
X92878D01*
X93678Y123598D01*
X97678D01*
X98478Y124398D01*
X111178D01*
X111478Y124098D01*
Y118698D01*
X109278Y116498D01*
Y101598D01*
X109878Y100998D01*
X112078D01*
X117878Y95198D01*
X133078D01*
X133378Y94898D01*
Y48798D01*
X145878Y36298D01*
X173978D01*
X174278Y35998D01*
Y33598D01*
X174578Y33298D01*
X180278D01*
X180478Y33498D01*
Y39198D01*
X180178Y39498D01*
X147278D01*
X136578Y50198D01*
Y63398D01*
X137078Y63898D01*
X151278D01*
X153178Y65798D01*
Y68598D01*
X154878Y70298D01*
Y71698D01*
X153778Y72798D01*
X151378D01*
X151078Y73098D01*
Y74798D01*
X157978Y81698D01*
Y86798D01*
X156978Y87798D01*
X155378D01*
X153378Y85798D01*
X143778D01*
X142978Y84998D01*
Y80798D01*
X142678Y80498D01*
X137678D01*
X137378Y80798D01*
Y85898D01*
X137678Y86198D01*
X139378D01*
X140378Y87198D01*
Y89498D01*
X140678Y89798D01*
X150478D01*
X151078Y90398D01*
Y98198D01*
X150478Y98798D01*
X137178D01*
X136878Y99098D01*
X133978D01*
X133278Y98398D01*
X119278D01*
X115478Y102198D01*
Y107298D01*
X114978Y107798D01*
X112778D01*
X112478Y108098D01*
Y115098D01*
X113478Y116098D01*
X115478D01*
X116078Y116698D01*
Y120098D01*
X116378Y120398D01*
X122178D01*
X122778Y120998D01*
Y124798D01*
X122178Y125398D01*
X116378D01*
X116078Y125698D01*
Y129098D01*
X116378Y129398D01*
X121878D01*
X125078Y132598D01*
X149378D01*
X149678Y132298D01*
Y118798D01*
X151178Y117298D01*
X179178D01*
X180478Y118598D01*
Y124198D01*
X180178Y124498D01*
X174578D01*
X174278Y124198D01*
Y120798D01*
X173978Y120498D01*
X153178D01*
X152878Y120798D01*
Y134298D01*
X151378Y135798D01*
D02*
G37*
G36*
X18178Y131998D02*
X12578D01*
X12278Y131698D01*
Y126098D01*
X12578Y125798D01*
X18178D01*
X18478Y126098D01*
Y131698D01*
X18178Y131998D01*
D02*
G37*
G36*
X8178D02*
X2578D01*
X2278Y131698D01*
Y126098D01*
X2578Y125798D01*
X8178D01*
X8478Y126098D01*
Y131698D01*
X8178Y131998D01*
D02*
G37*
G36*
X66478Y14798D02*
X59378D01*
X58278Y13698D01*
Y5298D01*
X59378Y4198D01*
X66378D01*
X67478Y5298D01*
Y6698D01*
Y13798D01*
X66478Y14798D01*
D02*
G37*
G36*
X28178Y131998D02*
X22578D01*
X22278Y131698D01*
Y126098D01*
X22578Y125798D01*
X28178D01*
X28478Y126098D01*
Y131698D01*
X28178Y131998D01*
D02*
G37*
G36*
X190178Y9498D02*
X184578D01*
X184278Y9198D01*
Y3598D01*
X184578Y3298D01*
X190178D01*
X190478Y3598D01*
X190478Y9198D01*
X190178Y9498D01*
D02*
G37*
G36*
X111378Y14798D02*
X104378D01*
X103278Y13698D01*
Y6698D01*
Y5298D01*
X104378Y4198D01*
X111378D01*
X112478Y5298D01*
Y9398D01*
Y13698D01*
X111378Y14798D01*
D02*
G37*
G36*
X151678Y51698D02*
X146278D01*
X145178Y50598D01*
Y44598D01*
X146278Y43498D01*
X151678D01*
X152778Y44598D01*
Y50598D01*
X151678Y51698D01*
D02*
G37*
G36*
X28178Y61998D02*
X22578D01*
X22278Y61698D01*
Y56098D01*
X22578Y55798D01*
X28178D01*
X28478Y56098D01*
Y61698D01*
X28178Y61998D01*
D02*
G37*
G36*
X152478Y109798D02*
X147078D01*
X145978Y108698D01*
Y104098D01*
X147078Y102998D01*
X152478D01*
X153578Y104098D01*
Y104398D01*
Y108698D01*
X152478Y109798D01*
D02*
G37*
G36*
X28178Y51998D02*
X22578D01*
X22278Y51698D01*
Y46098D01*
X22578Y45798D01*
X28178D01*
X28478Y46098D01*
Y51698D01*
X28178Y51998D01*
D02*
G37*
G36*
X180178Y134498D02*
X174578D01*
X174278Y134198D01*
Y128598D01*
X174578Y128298D01*
X180178D01*
X180678Y128798D01*
Y133998D01*
X180178Y134498D01*
D02*
G37*
G36*
X190478Y13598D02*
D01*
X190478Y9198D01*
X190478Y9198D01*
Y13598D01*
D02*
G37*
%LPD*%
G36*
X85178Y68698D02*
X83378Y66898D01*
Y51398D01*
X64978Y32998D01*
Y29998D01*
X63378Y28398D01*
Y26898D01*
X62178D01*
X61328Y27748D01*
X63978Y30398D01*
Y33398D01*
X82378Y51798D01*
Y67298D01*
X84078Y68998D01*
Y69998D01*
X83128Y70948D01*
X83978Y71798D01*
X85178D01*
Y68698D01*
D02*
G37*
G36*
X80178Y52798D02*
X63078Y35698D01*
X62178D01*
Y38098D01*
X64078D01*
X79178Y53198D01*
Y70798D01*
X78128Y71848D01*
X78978Y72698D01*
X80178D01*
Y52798D01*
D02*
G37*
G36*
X115478Y128798D02*
Y125398D01*
X116078Y124798D01*
X121878D01*
X122178Y124498D01*
Y121298D01*
X121878Y120998D01*
X116078D01*
X115478Y120398D01*
Y116998D01*
X115178Y116698D01*
X113178D01*
X111878Y115398D01*
Y107798D01*
X112478Y107198D01*
X114578D01*
X114878Y106898D01*
Y101898D01*
X118978Y97798D01*
X133578D01*
X134278Y98498D01*
X136478D01*
X136778Y98198D01*
Y89798D01*
X137378Y89198D01*
X138578D01*
Y86798D01*
X137378D01*
X136778Y86198D01*
Y80498D01*
X137378Y79898D01*
X143178D01*
X143878Y80598D01*
X150093D01*
X150378Y80313D01*
Y78098D01*
X150078Y77798D01*
X143878Y77798D01*
X137378D01*
X136778Y77198D01*
Y64498D01*
X135978Y63698D01*
Y49898D01*
X146978Y38898D01*
X177378D01*
Y35898D01*
X175278D01*
X174278Y36898D01*
X146178D01*
X133978Y49098D01*
Y95198D01*
X133378Y95798D01*
X118178D01*
X112378Y101598D01*
X110178D01*
X109878Y101898D01*
Y116198D01*
X112078Y118398D01*
Y128798D01*
X112378Y129098D01*
X115178D01*
X115478Y128798D01*
D02*
G37*
G36*
X91678Y33498D02*
X90478D01*
X89628Y34348D01*
X90678Y35398D01*
Y46898D01*
X89628Y47948D01*
X90478Y48798D01*
X91678D01*
Y33498D01*
D02*
G37*
G36*
X93678Y31198D02*
X92478D01*
X91628Y32048D01*
X92678Y33098D01*
Y49198D01*
X91628Y50248D01*
X92478Y51098D01*
X93678D01*
Y31198D01*
D02*
G37*
G36*
X82828Y68648D02*
X81778Y67598D01*
Y52098D01*
X63378Y33698D01*
Y31898D01*
X60978D01*
Y32698D01*
X80778Y52498D01*
Y69498D01*
X81978D01*
X82828Y68648D01*
D02*
G37*
G36*
X79778Y93498D02*
X141578Y31698D01*
X172078D01*
X177378Y26398D01*
X176678Y25698D01*
X171678Y30698D01*
X141178D01*
X79178Y92698D01*
X78578D01*
Y93898D01*
X79778D01*
Y93498D01*
D02*
G37*
G36*
X78578Y53498D02*
X63778Y38698D01*
X55578D01*
Y16898D01*
X54378D01*
X53528Y17748D01*
X54578Y18798D01*
Y39112D01*
X55164Y39698D01*
X63378D01*
X77578Y53898D01*
Y68098D01*
X76528Y69148D01*
X77378Y69998D01*
X78578D01*
Y53498D01*
D02*
G37*
G36*
X140878Y30098D02*
X165078D01*
X178078Y17098D01*
X177378Y16398D01*
X164678Y29098D01*
X140478D01*
X79978Y89598D01*
X78478D01*
Y90798D01*
X79328Y91648D01*
X140878Y30098D01*
D02*
G37*
G36*
X188628Y25148D02*
X182528Y19048D01*
X180828Y20748D01*
X186928Y26848D01*
X188628Y25148D01*
D02*
G37*
G36*
X77828Y77848D02*
X73878Y73898D01*
Y68298D01*
X75278Y66898D01*
Y54798D01*
X62378Y41898D01*
X49778D01*
X26078Y18198D01*
X25378Y18898D01*
X49378Y42898D01*
X61978D01*
X74278Y55198D01*
Y66498D01*
X72878Y67898D01*
Y74298D01*
X75778Y77198D01*
Y78698D01*
X76978D01*
X77828Y77848D01*
D02*
G37*
G36*
X124478Y44198D02*
Y21798D01*
X127478Y18798D01*
X128178D01*
X128478Y18498D01*
Y10298D01*
X128178Y9998D01*
X122078D01*
X121778Y10298D01*
Y12898D01*
X122078Y13198D01*
X124078D01*
X125078Y14198D01*
Y18798D01*
X122078Y21798D01*
X121378D01*
X121078Y22098D01*
Y24898D01*
X121378Y25198D01*
X122978D01*
X123478Y25698D01*
Y43798D01*
X121978Y45298D01*
X122678Y45998D01*
X124478Y44198D01*
D02*
G37*
G36*
X78278Y75698D02*
Y74498D01*
X76778D01*
X75578Y73298D01*
Y68998D01*
X76878Y67698D01*
Y54098D01*
X63078Y40298D01*
X50478D01*
X29778Y19598D01*
Y11898D01*
X26078Y8198D01*
X25378Y8898D01*
X28778Y12298D01*
Y19998D01*
X50078Y41298D01*
X62678D01*
X75878Y54498D01*
Y67298D01*
X74578Y68598D01*
Y73698D01*
X77428Y76548D01*
X78278Y75698D01*
D02*
G37*
G36*
X139978Y28698D02*
Y20298D01*
X141578Y18698D01*
X144978D01*
X145178Y18498D01*
Y15498D01*
X143828Y14148D01*
X143078Y14898D01*
Y14998D01*
X141778D01*
Y17098D01*
X138978Y19898D01*
Y28298D01*
X128578Y38698D01*
X127078D01*
Y39898D01*
X127928Y40748D01*
X139978Y28698D01*
D02*
G37*
G36*
X99278Y63298D02*
Y61698D01*
X101578Y59398D01*
Y38398D01*
X121178Y18798D01*
X124178D01*
X124478Y18498D01*
Y15698D01*
X124178Y15398D01*
X123378D01*
X122128Y14148D01*
X121278Y14998D01*
X120078D01*
Y17498D01*
X103978Y33598D01*
X100178D01*
X99878Y33898D01*
Y58698D01*
X98478Y60098D01*
X95778Y60098D01*
X95178Y60698D01*
Y64498D01*
X96378D01*
X97228Y65348D01*
X99278Y63298D01*
D02*
G37*
G36*
X90378Y75998D02*
Y66998D01*
X88178Y64798D01*
Y32898D01*
X94738Y26338D01*
Y19398D01*
X94438Y19098D01*
X94038D01*
X93738Y19398D01*
Y25938D01*
X87178Y32498D01*
Y65198D01*
X89378Y67398D01*
Y75598D01*
X82778Y82198D01*
X81278D01*
Y83398D01*
X82128Y84248D01*
X90378Y75998D01*
D02*
G37*
G36*
X85378Y30198D02*
X90798Y24778D01*
Y19398D01*
X90498Y19098D01*
X90098D01*
X89798Y19398D01*
Y24378D01*
X83678Y30498D01*
X84178Y30998D01*
X85378D01*
Y30198D01*
D02*
G37*
G36*
X87178Y68398D02*
X84978Y66198D01*
Y50698D01*
X66678Y32398D01*
Y26698D01*
X63378Y23398D01*
Y21898D01*
X62178D01*
X61328Y22748D01*
X65678Y27098D01*
Y32798D01*
X83978Y51098D01*
Y66598D01*
X86178Y68798D01*
Y72198D01*
X85128Y73248D01*
X85978Y74098D01*
X87178D01*
Y68398D01*
D02*
G37*
G36*
X103578Y29998D02*
Y27198D01*
X103278Y26898D01*
X101878D01*
X100648Y25668D01*
Y19398D01*
X100348Y19098D01*
X99938D01*
X99638Y19398D01*
Y24638D01*
X99278Y24998D01*
X97078D01*
X96708Y24628D01*
Y19398D01*
X96408Y19098D01*
X95998D01*
X95698Y19398D01*
Y25118D01*
X96678Y26098D01*
X99378D01*
X100178Y26898D01*
Y29998D01*
X100478Y30298D01*
X103278D01*
X103578Y29998D01*
D02*
G37*
G36*
X80028Y39148D02*
X78988Y38108D01*
Y19398D01*
X78688Y19098D01*
X78288D01*
X77988Y19398D01*
Y39998D01*
X79178D01*
X80028Y39148D01*
D02*
G37*
G36*
X88778Y75298D02*
Y67698D01*
X86578Y65498D01*
Y49998D01*
X75058Y38478D01*
Y19398D01*
X74758Y19098D01*
X74348D01*
X74048Y19398D01*
Y38868D01*
X85578Y50398D01*
Y65898D01*
X87778Y68098D01*
Y74898D01*
X83478Y79198D01*
X81978D01*
Y80398D01*
X82828Y81248D01*
X88778Y75298D01*
D02*
G37*
G36*
X83428Y33148D02*
X82378Y32098D01*
Y29398D01*
X86868Y24908D01*
Y19398D01*
X86568Y19098D01*
X86158D01*
X85858Y19398D01*
Y24518D01*
X81378Y28998D01*
Y33998D01*
X82578D01*
X83428Y33148D01*
D02*
G37*
G36*
X81728Y36148D02*
X80678Y35098D01*
Y27898D01*
X82928Y25648D01*
Y19398D01*
X82628Y19098D01*
X82228D01*
X81928Y19398D01*
Y25248D01*
X79678Y27498D01*
Y36998D01*
X80878D01*
X81728Y36148D01*
D02*
G37*
G36*
X91078Y104698D02*
Y96898D01*
X89878D01*
X89028Y97748D01*
X90078Y98798D01*
Y104198D01*
X85778Y108498D01*
X84378D01*
Y109698D01*
X85228Y110548D01*
X91078Y104698D01*
D02*
G37*
G36*
X102578Y99498D02*
Y96698D01*
X101578Y95698D01*
X98178D01*
Y96898D01*
X97328Y97748D01*
X99378Y99798D01*
X102278D01*
X102578Y99498D01*
D02*
G37*
G36*
X74878Y103798D02*
Y98798D01*
X73678D01*
X72828Y97948D01*
X70378Y100398D01*
Y103798D01*
X70678Y104098D01*
X74578D01*
X74878Y103798D01*
D02*
G37*
G36*
X56428Y102948D02*
X49878Y96398D01*
X25378D01*
Y98898D01*
X27878D01*
Y98198D01*
X28478Y97598D01*
X49378D01*
X54378Y102598D01*
Y103798D01*
X55578D01*
X56428Y102948D01*
D02*
G37*
G36*
X78978Y115898D02*
X82178D01*
X92678Y105398D01*
Y95698D01*
X91578Y94598D01*
Y92898D01*
X92628Y91848D01*
X91778Y90998D01*
X90578D01*
Y94998D01*
X91678Y96098D01*
Y104998D01*
X81778Y114898D01*
X77078D01*
Y116098D01*
X77928Y116948D01*
X78978Y115898D01*
D02*
G37*
G36*
X103278Y94698D02*
Y90898D01*
X102978Y90598D01*
X99378D01*
X96978Y92998D01*
Y93798D01*
X98178D01*
Y94998D01*
X102978D01*
X103278Y94698D01*
D02*
G37*
G36*
X150478Y97898D02*
Y95098D01*
X150178Y94798D01*
X139178D01*
X138328Y95648D01*
X139178Y96498D01*
X138328Y97348D01*
X139178Y98198D01*
X150178D01*
X150478Y97898D01*
D02*
G37*
G36*
X80078Y125898D02*
Y120298D01*
X94578Y105798D01*
Y93698D01*
X93378D01*
X92528Y94548D01*
X93578Y95598D01*
Y105398D01*
X79078Y119898D01*
Y122198D01*
X78478Y122798D01*
X76978D01*
X76678Y123098D01*
Y125898D01*
X76978Y126198D01*
X79778D01*
X80078Y125898D01*
D02*
G37*
G36*
X199078Y110998D02*
Y102998D01*
X198778Y102698D01*
X195978D01*
X195678Y102998D01*
Y110998D01*
X195978Y111298D01*
X198778D01*
X199078Y110998D01*
D02*
G37*
G36*
X152278Y134026D02*
Y119898D01*
X174278D01*
X174878Y120498D01*
Y121298D01*
X179878D01*
Y118898D01*
X178878Y117898D01*
X151450D01*
X150278Y119069D01*
Y133198D01*
X124778D01*
X121578Y129998D01*
X111178D01*
Y126169D01*
X110006Y124998D01*
X98178D01*
X97378Y124198D01*
X93978D01*
X93178Y124998D01*
X91678D01*
X87478Y129198D01*
X85778D01*
X85478Y129498D01*
Y132198D01*
X84478Y133198D01*
X67478D01*
Y126569D01*
X59306Y118398D01*
X38350D01*
X34749Y121998D01*
X18478D01*
X17878Y121398D01*
Y6398D01*
X17578Y6098D01*
X13178D01*
X12878Y6398D01*
Y121398D01*
X15478Y123998D01*
X35578D01*
X39178Y120398D01*
X58478D01*
X65478Y127398D01*
Y134026D01*
X66650Y135198D01*
X85978D01*
X88878Y132298D01*
Y130598D01*
X92478Y126998D01*
X109178D01*
Y130826D01*
X112150Y133798D01*
X122549D01*
X123950Y135198D01*
X151106D01*
X152278Y134026D01*
D02*
G37*
G36*
X88878Y126598D02*
Y123098D01*
X88578Y122798D01*
X85778D01*
X85478Y123098D01*
Y127098D01*
X86678D01*
X87528Y127948D01*
X88878Y126598D01*
D02*
G37*
G36*
X84478Y132298D02*
Y128848D01*
X83078Y127448D01*
X82228Y128298D01*
X81078D01*
Y132298D01*
X81378Y132598D01*
X84178D01*
X84478Y132298D01*
D02*
G37*
G36*
X80078D02*
Y128298D01*
X78878D01*
X78028Y127448D01*
X76278Y129198D01*
X72578D01*
X72278Y129498D01*
Y132298D01*
X72578Y132598D01*
X79778D01*
X80078Y132298D01*
D02*
G37*
G36*
X45578Y111998D02*
Y107998D01*
X44378D01*
X43528Y107148D01*
X42178Y108498D01*
Y111998D01*
X42478Y112298D01*
X45278D01*
X45578Y111998D01*
D02*
G37*
G36*
X39178D02*
Y107998D01*
X37978D01*
X37128Y107148D01*
X35778Y108498D01*
Y111998D01*
X36078Y112298D01*
X38878D01*
X39178Y111998D01*
D02*
G37*
G36*
X144978Y129398D02*
Y117398D01*
X148278Y114098D01*
X194078D01*
X195678Y115698D01*
Y117398D01*
X195978Y117698D01*
X198778D01*
X199078Y117398D01*
Y114598D01*
X198778Y114298D01*
X197078D01*
X194878Y112098D01*
X147478D01*
X144578Y114998D01*
X136778D01*
X135378Y116398D01*
Y129398D01*
X136778Y130798D01*
X143578D01*
X144978Y129398D01*
D02*
G37*
G36*
X51978Y111998D02*
Y107998D01*
X50778D01*
X49928Y107148D01*
X48578Y108498D01*
Y111998D01*
X48878Y112298D01*
X51678D01*
X51978Y111998D01*
D02*
G37*
G36*
X81478Y94098D02*
X107378Y68198D01*
X125278D01*
X125628Y68548D01*
X126478Y67698D01*
X125628Y66848D01*
X125278Y67198D01*
X106978D01*
X80378Y93798D01*
Y94698D01*
X79428Y95648D01*
X80278Y96498D01*
X81478D01*
Y94098D01*
D02*
G37*
G36*
X62378Y77998D02*
Y75398D01*
X64778Y72998D01*
X63978Y72198D01*
X63878D01*
X64728Y71348D01*
X62378Y68998D01*
Y66598D01*
X62078Y66298D01*
X59878D01*
X59578Y66598D01*
Y77998D01*
X59878Y78298D01*
X62078D01*
X62378Y77998D01*
D02*
G37*
G36*
X83428Y97648D02*
X83078Y97298D01*
Y94798D01*
X107078Y70798D01*
X123478D01*
X123828Y71148D01*
X124678Y70298D01*
X123828Y69448D01*
X123478Y69798D01*
X106678D01*
X82078Y94398D01*
Y97298D01*
X81728Y97648D01*
X82578Y98498D01*
X83428Y97648D01*
D02*
G37*
G36*
X152978Y70998D02*
X153828Y70148D01*
X152478Y68798D01*
X140378D01*
X140078Y69098D01*
Y71898D01*
X140378Y72198D01*
X152978D01*
Y70998D01*
D02*
G37*
G36*
X93278Y64498D02*
X94478D01*
Y59698D01*
X94178Y59398D01*
X90378D01*
X90078Y59698D01*
Y63298D01*
X92478Y65698D01*
X93278D01*
Y64498D01*
D02*
G37*
G36*
X113228Y55448D02*
X112528Y54748D01*
X81978Y85298D01*
X80478D01*
X79478Y84298D01*
X78678Y85098D01*
Y86298D01*
X82378D01*
X113228Y55448D01*
D02*
G37*
G36*
X151378Y66698D02*
X152228Y65848D01*
X150878Y64498D01*
X140378D01*
X140078Y64798D01*
Y67598D01*
X140378Y67898D01*
X151378D01*
Y66698D01*
D02*
G37*
G36*
X75678Y125898D02*
Y123098D01*
X75178Y122598D01*
Y115769D01*
X74006Y114598D01*
X63778D01*
X59178Y109998D01*
Y108998D01*
X64978Y103198D01*
X68878D01*
X69178Y102898D01*
Y98498D01*
X70178Y97498D01*
Y67398D01*
X71978Y65598D01*
Y60198D01*
X71378Y59598D01*
X68578D01*
X67478Y60698D01*
X55449D01*
X54278Y61869D01*
Y65498D01*
X52878Y66898D01*
Y69698D01*
X53178Y69998D01*
X55978D01*
X56278Y69698D01*
Y62698D01*
X68578D01*
X69578Y63698D01*
Y65298D01*
X68178Y66698D01*
Y95698D01*
X65228Y98648D01*
X66092Y99512D01*
X64878Y99498D01*
Y100498D01*
X57778Y107598D01*
X56778D01*
X51678Y102498D01*
X36078D01*
X35778Y102798D01*
Y105598D01*
X36078Y105898D01*
X52278D01*
X62978Y116598D01*
X73178D01*
Y122198D01*
X72278Y123098D01*
Y125898D01*
X72578Y126198D01*
X75378D01*
X75678Y125898D01*
D02*
G37*
G36*
X85728Y95648D02*
X85378Y95298D01*
Y94798D01*
X106878Y73298D01*
X125378D01*
X125628Y73548D01*
X126478Y72698D01*
X125628Y71848D01*
X125178Y72298D01*
X106478D01*
X83678Y95098D01*
Y96498D01*
X84878D01*
X85728Y95648D01*
D02*
G37*
G36*
X59428Y103348D02*
X50678Y94598D01*
X32678D01*
X26178Y88098D01*
X25378Y88898D01*
X32278Y95798D01*
X50178D01*
X57378Y102998D01*
Y104198D01*
X58578D01*
X59428Y103348D01*
D02*
G37*
G36*
X54978Y90898D02*
Y88098D01*
X54678Y87798D01*
X50678D01*
Y88998D01*
X49828Y89848D01*
X51178Y91198D01*
X54678D01*
X54978Y90898D01*
D02*
G37*
G36*
X150478Y93498D02*
Y90698D01*
X150178Y90398D01*
X139178D01*
X138328Y91248D01*
X139178Y92098D01*
X138328Y92948D01*
X139178Y93798D01*
X150178D01*
X150478Y93498D01*
D02*
G37*
G36*
X84478Y125898D02*
Y118198D01*
X96178Y106498D01*
Y90898D01*
X97228Y89848D01*
X96378Y88998D01*
X95178D01*
Y106098D01*
X83478Y117798D01*
Y122198D01*
X82878Y122798D01*
X81378D01*
X81078Y123098D01*
Y125898D01*
X81378Y126198D01*
X84178D01*
X84478Y125898D01*
D02*
G37*
G36*
X155428Y84148D02*
X154578Y83298D01*
Y82098D01*
X143878D01*
X143578Y82398D01*
Y84698D01*
X143878Y84998D01*
X154578D01*
X155428Y84148D01*
D02*
G37*
G36*
X157378Y81998D02*
X150478Y75098D01*
Y73398D01*
X150178Y73098D01*
X140378D01*
X140078Y73398D01*
Y76198D01*
X140378Y76498D01*
X150378D01*
X156378Y82498D01*
Y84098D01*
X155328Y85148D01*
X156178Y85998D01*
X157378D01*
Y81998D01*
D02*
G37*
G36*
X54978Y86898D02*
Y84098D01*
X54678Y83798D01*
X51178D01*
X49828Y85148D01*
X50678Y85998D01*
Y87198D01*
X54678D01*
X54978Y86898D01*
D02*
G37*
G36*
X126478Y83098D02*
Y81898D01*
X107778D01*
Y83098D01*
X108628Y83948D01*
X109678Y82898D01*
X124578D01*
X125628Y83948D01*
X126478Y83098D01*
D02*
G37*
D18*
X87178Y130898D02*
D03*
Y124498D02*
D03*
X78378Y130898D02*
D03*
Y124498D02*
D03*
X82778Y130898D02*
D03*
Y124498D02*
D03*
X73978D02*
D03*
Y130898D02*
D03*
X50278Y110598D02*
D03*
Y104198D02*
D03*
X43878Y110598D02*
D03*
Y104198D02*
D03*
X37478Y110598D02*
D03*
Y104198D02*
D03*
X143478Y17098D02*
D03*
Y23498D02*
D03*
X101878Y28598D02*
D03*
Y34998D02*
D03*
X122778Y17098D02*
D03*
Y23498D02*
D03*
X72578Y101798D02*
D03*
Y108198D02*
D03*
X197378Y115998D02*
D03*
Y109598D02*
D03*
X67178Y108198D02*
D03*
Y101798D02*
D03*
X126778Y23498D02*
D03*
Y17098D02*
D03*
X69978Y54898D02*
D03*
Y61298D02*
D03*
X97578Y55398D02*
D03*
Y61798D02*
D03*
X95678Y125598D02*
D03*
Y119198D02*
D03*
D21*
X125778Y798D02*
D03*
D22*
X144878Y3188D02*
D03*
X124878D02*
D03*
X144878Y11607D02*
D03*
X124878D02*
D03*
D25*
X178178Y41598D02*
X179078Y40698D01*
X148978Y41598D02*
X178178D01*
X148978D02*
Y47598D01*
Y55698D01*
X143678D02*
X148978D01*
X143678Y47798D02*
Y55698D01*
X179078Y43598D02*
X187178D01*
X179078Y40698D02*
Y43598D01*
X160433Y104943D02*
X161688Y106198D01*
X187178D02*
X193759D01*
Y99987D02*
Y106198D01*
X188317Y94544D02*
X193759Y99987D01*
X161688Y106198D02*
X187178D01*
Y110198D01*
X149778Y106398D02*
Y110198D01*
Y100843D02*
Y106398D01*
X146978Y100843D02*
X149778D01*
X144434Y106454D02*
X158922D01*
X113678Y9498D02*
Y16298D01*
X107878D02*
X113678D01*
X107878Y9498D02*
Y16298D01*
X59078Y16998D02*
X62878D01*
X51578Y9498D02*
X59078Y16998D01*
X62878Y9498D02*
Y16998D01*
X42323Y9498D02*
X62878D01*
Y2398D02*
Y9498D01*
X107878Y2498D02*
Y9498D01*
X70078Y2398D02*
Y4498D01*
X62878Y2398D02*
X70078D01*
Y2498D02*
X107878D01*
X118569Y9498D02*
X124878Y3188D01*
X107878Y9498D02*
X118569D01*
X98173D02*
X107878D01*
X92268D02*
X98173D01*
X88331D02*
X92268D01*
X76520D02*
X88331D01*
X72583D02*
X76520D01*
X62878D02*
X72583D01*
X187178Y95683D02*
X188317Y94544D01*
X187178Y95683D02*
Y106198D01*
X59678Y83698D02*
Y85498D01*
X54578Y78598D02*
X59678Y83698D01*
X54578Y76297D02*
Y78598D01*
X177378Y6598D02*
X182178Y11398D01*
X117361Y132313D02*
X117761D01*
X187242Y43544D02*
Y61973D01*
X188317Y63048D01*
X177378Y121298D02*
Y121398D01*
Y122398D01*
X88038Y119698D02*
X95178D01*
X37478Y104198D02*
X43878D01*
X50278D01*
X15378Y8898D02*
Y18898D01*
Y28898D01*
Y38898D01*
Y48898D01*
Y58898D01*
Y68898D01*
Y78898D01*
Y88898D01*
Y98898D01*
Y118898D01*
X5378Y38898D02*
Y68898D01*
Y88898D01*
Y118898D01*
Y8898D02*
Y38898D01*
X60978Y68297D02*
Y72298D01*
Y72398D01*
Y76297D01*
X59678Y85498D02*
Y89498D01*
X51978Y74298D02*
X54578D01*
Y72298D02*
Y74298D01*
X158922Y106454D02*
X160433Y104943D01*
X193878Y11398D02*
X196678Y14198D01*
X163678Y6598D02*
X177378D01*
X182178Y11398D02*
X193878D01*
X187242Y43544D02*
X196678D01*
Y14198D02*
Y43544D01*
X174628Y63048D02*
X188317D01*
X159378Y47798D02*
X174628Y63048D01*
X143678Y47798D02*
X159378D01*
X117361Y104780D02*
Y113882D01*
X120178Y118398D02*
X124378D01*
Y127398D01*
X117278D02*
X124378D01*
X95178Y119698D02*
X95678Y119198D01*
X120178Y113882D02*
Y118398D01*
X117361Y113882D02*
X120178D01*
X133194D02*
X142378Y104698D01*
X117361Y113882D02*
X133194D01*
X142378Y104398D02*
X144434Y106454D01*
D26*
X146978Y74859D02*
X149439D01*
X156878Y82298D01*
Y85998D01*
X146978Y74859D02*
X149439D01*
X95715Y131498D02*
X100615Y136398D01*
X152189D01*
X160433Y128154D01*
X84178Y30698D02*
X90299Y24576D01*
Y21895D02*
Y24576D01*
X80178Y36298D02*
X80878Y36998D01*
X80178Y27698D02*
X82425Y25450D01*
X80178Y27698D02*
Y36298D01*
X81878Y29198D02*
X86362Y24713D01*
X81878Y29198D02*
Y33298D01*
X72583Y21898D02*
Y26293D01*
X81278Y83398D02*
X82278D01*
X81978Y80398D02*
X82978D01*
X62178Y26898D02*
Y27898D01*
X64478Y30198D01*
X66178Y32598D02*
X84478Y50898D01*
Y66398D01*
X82878Y51598D02*
Y67086D01*
X64478Y33198D02*
X82878Y51598D01*
X81278Y52298D02*
Y69498D01*
X62178Y33198D02*
X81278Y52298D01*
X79678Y52998D02*
Y71998D01*
X63578Y36898D02*
X79678Y52998D01*
X78078Y53698D02*
Y69298D01*
X63578Y39198D02*
X78078Y53698D01*
X76378Y54298D02*
Y67415D01*
X62878Y40798D02*
X76378Y54298D01*
X74778Y54998D02*
Y66698D01*
X62178Y42398D02*
X74778Y54998D01*
X87678Y64998D02*
X89878Y67198D01*
X87678Y32698D02*
Y64998D01*
X86078Y65698D02*
X88278Y67898D01*
X86078Y50198D02*
Y65698D01*
X84478Y66398D02*
X86678Y68598D01*
Y68623D02*
Y74098D01*
X64478Y30198D02*
Y33198D01*
X62178Y31898D02*
Y33198D01*
X55378Y39198D02*
X63578D01*
X55078Y38898D02*
X55378Y39198D01*
X55078Y16898D02*
Y38898D01*
X76978Y77698D02*
Y78698D01*
X73378Y68098D02*
X74778Y66698D01*
X71778Y67398D02*
X73172Y66004D01*
Y57991D02*
Y66004D01*
X67178Y108198D02*
X72578D01*
X73378Y68098D02*
Y74098D01*
X71778Y67398D02*
Y93398D01*
X49578Y42398D02*
X62178D01*
X50278Y40798D02*
X62878D01*
X62178Y36898D02*
X63578D01*
X66178Y26898D02*
Y32560D01*
X74551Y21895D02*
Y38671D01*
X86078Y50198D01*
X69978Y54798D02*
X73172Y57991D01*
X25378Y8898D02*
X26078D01*
X29278Y12098D01*
X26078Y18898D02*
X49578Y42398D01*
X29278Y19798D02*
X50278Y40798D01*
X25378Y18898D02*
X26078D01*
X29278Y12098D02*
Y19798D01*
X187278Y26498D02*
X187378Y26598D01*
X157133Y9843D02*
X160433D01*
X143478Y23498D02*
X157133Y9843D01*
X134879Y2398D02*
Y12398D01*
X134877D02*
Y15498D01*
X126878Y23498D02*
X134877Y15498D01*
X124878Y11607D02*
X126878Y13607D01*
Y17098D01*
X124878Y11607D02*
X126587D01*
X61678Y22398D02*
X66178Y26898D01*
X92478Y31198D02*
X93178Y31898D01*
X90478Y48798D02*
X91178Y48098D01*
X92478Y51098D02*
X93178Y50398D01*
X94236Y21895D02*
Y26139D01*
X87678Y32698D02*
X94236Y26139D01*
X90478Y33498D02*
X91178Y34198D01*
X81878Y33298D02*
X82578Y33998D01*
X100142Y21898D02*
Y24834D01*
X99478Y25498D02*
X100142Y24834D01*
X96878Y25498D02*
X99478D01*
X96205Y24825D02*
X96878Y25498D01*
X96205Y21898D02*
Y24825D01*
X86362Y21895D02*
Y24713D01*
X82425Y21895D02*
Y25450D01*
X73378Y74098D02*
X76978Y77698D01*
X106678Y72798D02*
X126478D01*
X82578Y94598D02*
X106878Y70298D01*
X124678D01*
X107178Y67698D02*
X126478D01*
X80978Y93898D02*
X107178Y67698D01*
X63978Y107098D02*
X65078Y108198D01*
X146978Y83521D02*
X154801D01*
X147009Y70498D02*
X153278D01*
X146509Y70998D02*
X146978Y70528D01*
Y66198D02*
X151378D01*
X70078Y65198D02*
X70778Y64498D01*
X117361Y131913D02*
X117761Y132313D01*
X82278Y83398D02*
X89878Y75798D01*
X82978Y80398D02*
X88278Y75098D01*
X66478Y65798D02*
Y73398D01*
Y65798D02*
X67778Y64498D01*
X84678Y100998D02*
X87178Y98498D01*
X79378Y100998D02*
X84678D01*
X77378Y69998D02*
X78078Y69298D01*
X78978Y72698D02*
X79678Y71998D01*
X83978Y71798D02*
X84678Y71098D01*
X80978Y93898D02*
Y95798D01*
X80278Y96498D02*
X80978Y95798D01*
X75078Y68798D02*
Y73498D01*
Y68798D02*
X76372Y67504D01*
X75078Y73498D02*
X77778Y76198D01*
X91078Y91698D02*
Y94798D01*
X89778Y96298D02*
X90478Y96998D01*
X72583Y9498D02*
Y21895D01*
X76520Y9498D02*
Y21895D01*
X80457Y9498D02*
Y21895D01*
X84394Y9498D02*
Y21895D01*
X88331Y9498D02*
Y21895D01*
X92268Y9498D02*
Y21895D01*
X98173Y9498D02*
Y21895D01*
X73378Y123798D02*
X73978Y124398D01*
X87178Y130898D02*
Y132397D01*
X85378Y134198D02*
X87178Y132397D01*
X67678Y134198D02*
X85378D01*
X66478Y132998D02*
X67678Y134198D01*
X65078Y108198D02*
X66578D01*
X74178Y116798D02*
Y124297D01*
X58978Y119398D02*
X66478Y126898D01*
Y132998D01*
X72978Y115598D02*
X74178Y116798D01*
X15378Y118898D02*
Y121798D01*
X16678Y123098D01*
X35178D01*
X38878Y119398D01*
X58978D01*
X63378Y115598D02*
X72978D01*
X60978Y72398D02*
X63578D01*
X108478Y82398D02*
X125778D01*
X97678Y61144D02*
X98632D01*
X106478Y98997D02*
Y101098D01*
Y98997D02*
X108378Y97098D01*
X109878D01*
X71778Y93398D02*
X79378Y100998D01*
X91078Y94798D02*
X92178Y95898D01*
X107778Y92798D02*
X112078Y88498D01*
X107778Y92798D02*
Y98104D01*
X112078Y88498D02*
X125578D01*
X135378Y87998D02*
X138578D01*
X97578Y54698D02*
Y55398D01*
X95678Y52798D02*
X97578Y54698D01*
X92278Y54898D02*
X97178D01*
X91178Y34198D02*
Y48098D01*
X93178Y31898D02*
Y50398D01*
X89878Y67298D02*
Y75798D01*
X88278Y67960D02*
Y75098D01*
X82878Y67086D02*
X84678Y68886D01*
Y71098D01*
X78488Y21895D02*
Y39308D01*
X79178Y39998D01*
X49578Y96998D02*
X55978Y103398D01*
X50378Y95198D02*
X58978Y103798D01*
X32378Y95198D02*
X50378D01*
X26078Y88898D02*
X32378Y95198D01*
X27278Y96998D02*
X49578D01*
X69378Y70698D02*
Y97498D01*
Y66998D02*
Y70698D01*
Y66998D02*
X70078Y66298D01*
Y65198D02*
Y66298D01*
X50278Y104198D02*
X51978D01*
X66378Y100498D02*
Y100998D01*
Y100498D02*
X69378Y97498D01*
X57678Y109698D02*
X66378Y100998D01*
X57678Y109698D02*
Y109898D01*
X51978Y104198D02*
X63378Y115598D01*
X142478Y17098D02*
X143378D01*
X78628Y93948D02*
X141378Y31198D01*
X79378Y90898D02*
X140678Y29598D01*
X141378Y31198D02*
X171878D01*
X176678Y26398D01*
X177378D01*
Y16398D02*
Y17098D01*
X140678Y29598D02*
X164878D01*
X177378Y17098D01*
X139478Y20098D02*
X142478Y17098D01*
X127078Y39898D02*
X128078D01*
X139478Y28498D01*
Y20098D02*
Y28498D01*
X78678Y85798D02*
X82178D01*
X123978Y43998D01*
Y24698D02*
Y43998D01*
X122778Y23498D02*
X123978Y24698D01*
X77078Y115398D02*
X81978D01*
X84378Y109698D02*
X85278D01*
X84878Y94598D02*
X106678Y72798D01*
X84878Y94598D02*
Y96498D01*
X82578Y94598D02*
Y98498D01*
X91078Y91698D02*
X91778Y90998D01*
X85278Y109698D02*
X90578Y104398D01*
Y96998D02*
Y104398D01*
X92178Y95898D02*
Y105198D01*
X81978Y115398D02*
X92178Y105198D01*
X94078Y93898D02*
Y105598D01*
X95678Y88998D02*
Y106298D01*
X78378Y124498D02*
X79578Y123298D01*
Y120098D02*
Y123298D01*
Y120098D02*
X94078Y105598D01*
X83978Y117998D02*
X95678Y106298D01*
X83978Y117998D02*
Y123298D01*
X82778Y124498D02*
X83978Y123298D01*
X107778Y83098D02*
X108478Y82398D01*
X125778D02*
X126478Y83098D01*
X181678Y19898D02*
X187278Y25498D01*
Y26498D01*
D27*
X122878Y21598D02*
Y23498D01*
Y21598D02*
X126878Y17597D01*
Y17098D02*
Y17597D01*
X85278Y32998D02*
Y46098D01*
Y32998D02*
X92268Y26008D01*
Y21898D02*
Y26008D01*
X135768Y2988D02*
X144978D01*
X153779Y3188D02*
X160433Y9843D01*
X144878Y3188D02*
X153779D01*
X143878Y18051D02*
X144224D01*
X116668Y2988D02*
X134187D01*
X89178Y57998D02*
X92278Y54898D01*
X89178Y57998D02*
Y64198D01*
X92278Y67298D01*
X97578D01*
X109778Y32798D02*
X119278Y23298D01*
X109778Y32798D02*
Y55098D01*
X97578Y67298D02*
X109778Y55098D01*
D28*
X100778Y37798D02*
X121978Y16598D01*
X100778Y37798D02*
Y58998D01*
X98632Y61144D02*
X100778Y58998D01*
X175578Y38198D02*
X177378Y36398D01*
X110578Y106198D02*
X112378Y104398D01*
X110578Y106198D02*
Y115598D01*
X113778Y118798D02*
Y127398D01*
X110578Y115598D02*
X113778Y118798D01*
X135378Y79190D02*
X146978D01*
X112378Y103398D02*
Y104398D01*
X119278Y96498D02*
X135378D01*
X112378Y103398D02*
X119278Y96498D01*
X135078Y49398D02*
Y96498D01*
Y49398D02*
X146278Y38198D01*
X175578D01*
D29*
X151878Y118898D02*
X174978D01*
X151278Y119498D02*
X151878Y118898D01*
X151278Y119498D02*
Y133598D01*
X124378Y134198D02*
X150678D01*
X151278Y133598D01*
X117361Y131913D02*
X122094D01*
X124378Y134198D01*
X194478Y113098D02*
X197378Y115998D01*
X160433Y95553D02*
Y104943D01*
X152732Y87851D02*
X160433Y95553D01*
X146978Y87851D02*
X152732D01*
X140295Y122180D02*
Y125398D01*
X147878Y113098D02*
X194478D01*
X140295Y120680D02*
X147878Y113098D01*
X87178Y130898D02*
X92078Y125998D01*
X110178Y130398D02*
X111694Y131913D01*
X117361D01*
X92078Y125998D02*
X109578D01*
X110178Y126598D01*
Y130398D01*
X174978Y118898D02*
X177378Y121298D01*
D30*
X124378Y127398D02*
X128978Y131998D01*
X160433Y127953D02*
Y128154D01*
X144878Y131998D02*
X147578Y129298D01*
X128978Y131998D02*
X144878D01*
X184924Y121398D02*
X187378D01*
X179524Y115998D02*
X184924Y121398D01*
X147578Y119198D02*
Y129298D01*
Y119198D02*
X150778Y115998D01*
X179524D01*
X25378Y88898D02*
X26078D01*
X25378Y98898D02*
X27278Y96998D01*
D32*
X188317Y94544D02*
D03*
Y63048D02*
D03*
D33*
X142378Y104398D02*
D03*
X112378D02*
D03*
X122378D02*
D03*
X132378D02*
D03*
X15378Y128898D02*
D03*
X25378Y118898D02*
D03*
Y128898D02*
D03*
X15378Y118898D02*
D03*
X5378D02*
D03*
X5378Y128898D02*
D03*
Y28898D02*
D03*
X25378D02*
D03*
X15378D02*
D03*
Y18898D02*
D03*
X25378Y8898D02*
D03*
Y18898D02*
D03*
X15378Y8898D02*
D03*
X5378D02*
D03*
X5378Y18898D02*
D03*
Y58898D02*
D03*
X25378D02*
D03*
X15378D02*
D03*
Y48898D02*
D03*
X25378Y38898D02*
D03*
Y48898D02*
D03*
X15378Y38898D02*
D03*
X5378D02*
D03*
X5378Y48898D02*
D03*
X15378Y78898D02*
D03*
X25378Y68898D02*
D03*
Y78898D02*
D03*
X15378Y68898D02*
D03*
X5378D02*
D03*
X5378Y78898D02*
D03*
Y98898D02*
D03*
X5378Y88898D02*
D03*
X15378D02*
D03*
X25378Y98898D02*
D03*
Y88898D02*
D03*
X15378Y98898D02*
D03*
D34*
X177378Y121398D02*
D03*
X187378Y131398D02*
D03*
X177378D02*
D03*
X187378Y121398D02*
D03*
X177378Y16398D02*
D03*
X187378D02*
D03*
Y26398D02*
D03*
X177378Y36398D02*
D03*
X187378D02*
D03*
X177378Y26398D02*
D03*
X187378Y6398D02*
D03*
X177378D02*
D03*
D35*
X42323Y127953D02*
D03*
Y9843D02*
D03*
X160433D02*
D03*
Y127953D02*
D03*
D36*
X134878Y2398D02*
D03*
X134879Y12398D02*
D03*
X134878Y2398D02*
D03*
X134877Y12398D02*
D03*
D37*
X62841Y131498D02*
D03*
X95715D02*
D03*
D38*
X70518Y119698D02*
D03*
X88038D02*
D03*
D39*
X72178Y26198D02*
D03*
X85278Y36198D02*
D03*
X70078Y4498D02*
D03*
X69378Y70698D02*
D03*
X69878Y131398D02*
D03*
X68178Y124698D02*
D03*
X63878Y72198D02*
D03*
X50678Y88998D02*
D03*
Y85998D02*
D03*
X181678Y19898D02*
D03*
X121278Y14998D02*
D03*
X142978D02*
D03*
X78878Y128298D02*
D03*
X82228D02*
D03*
X90478Y33498D02*
D03*
X84178Y30998D02*
D03*
X77378Y69998D02*
D03*
X78978Y72698D02*
D03*
X78278Y75698D02*
D03*
X82578Y33998D02*
D03*
X122678Y99798D02*
D03*
X139778Y81998D02*
D03*
X66078Y99498D02*
D03*
X139178Y96498D02*
D03*
Y92098D02*
D03*
X55578Y103798D02*
D03*
X58578Y104198D02*
D03*
X63878Y106898D02*
D03*
X197378Y106998D02*
D03*
X127078Y39898D02*
D03*
X95678Y52798D02*
D03*
X92478Y31198D02*
D03*
X154578Y83298D02*
D03*
X156178Y85998D02*
D03*
X152978Y70998D02*
D03*
X151378Y66698D02*
D03*
X138578Y87998D02*
D03*
X96378Y64498D02*
D03*
X70778D02*
D03*
X98178Y96898D02*
D03*
X73678Y98798D02*
D03*
X81278Y83398D02*
D03*
X81978Y80398D02*
D03*
X79178Y39998D02*
D03*
X67778Y64498D02*
D03*
X51978Y74298D02*
D03*
X66178Y74198D02*
D03*
X87178Y98498D02*
D03*
X113678Y9498D02*
D03*
X106478Y101098D02*
D03*
X109878Y97098D02*
D03*
X117361Y104780D02*
D03*
X54378Y16898D02*
D03*
X83978Y71798D02*
D03*
X85978Y74098D02*
D03*
X81978Y69498D02*
D03*
X126478Y83098D02*
D03*
X107778D02*
D03*
X124678Y70298D02*
D03*
X82578Y98498D02*
D03*
X126478Y67698D02*
D03*
X80278Y96498D02*
D03*
X84878D02*
D03*
X37978Y107998D02*
D03*
X44378D02*
D03*
X50778D02*
D03*
X76978Y78698D02*
D03*
X78678Y85098D02*
D03*
X78478Y90798D02*
D03*
X96378Y88998D02*
D03*
X91778Y90998D02*
D03*
X89878Y96898D02*
D03*
X93278Y64498D02*
D03*
X98178Y93798D02*
D03*
X62178Y31898D02*
D03*
Y26898D02*
D03*
Y21898D02*
D03*
X117278Y127398D02*
D03*
X143678Y47798D02*
D03*
X117078Y1998D02*
D03*
X77078Y116098D02*
D03*
X84378Y109698D02*
D03*
X78578Y93898D02*
D03*
X30578Y71098D02*
D03*
X35378Y72898D02*
D03*
X30378Y66498D02*
D03*
X38578Y64698D02*
D03*
X46678Y62798D02*
D03*
X63878Y58698D02*
D03*
X62178Y36898D02*
D03*
X51678Y61198D02*
D03*
X54578Y54098D02*
D03*
X47878Y87498D02*
D03*
X160433Y104943D02*
D03*
X10778Y131398D02*
D03*
X20378Y130398D02*
D03*
Y120198D02*
D03*
X29678Y118798D02*
D03*
X38978Y99398D02*
D03*
X33978Y104798D02*
D03*
X61078Y98798D02*
D03*
X64178Y86698D02*
D03*
Y94898D02*
D03*
X73978Y95798D02*
D03*
X191978Y37698D02*
D03*
Y10698D02*
D03*
X187578Y2098D02*
D03*
X192178Y5498D02*
D03*
X179078Y40698D02*
D03*
X125578Y88498D02*
D03*
X108078Y76498D02*
D03*
X125578Y79698D02*
D03*
X108078Y86098D02*
D03*
X100378Y107598D02*
D03*
X98278Y101298D02*
D03*
X75978Y86698D02*
D03*
X92478Y51098D02*
D03*
X90478Y48798D02*
D03*
X109778Y32798D02*
D03*
X80878Y36998D02*
D03*
X85378Y46198D02*
D03*
X86678Y127098D02*
D03*
X53778Y109998D02*
D03*
X119278Y23298D02*
D03*
X157378Y33498D02*
D03*
X93378Y93698D02*
D03*
X90678Y123498D02*
D03*
X126478Y72698D02*
D03*
D41*
X107878Y9498D02*
D03*
X62878D02*
D03*
D42*
X70614Y21898D02*
D03*
X72583D02*
D03*
X74551D02*
D03*
X76520D02*
D03*
X78488D02*
D03*
X80457D02*
D03*
X82425D02*
D03*
X84394D02*
D03*
X86362D02*
D03*
X88331D02*
D03*
X90299D02*
D03*
X92268D02*
D03*
X94236D02*
D03*
X96205D02*
D03*
X98173D02*
D03*
X100142D02*
D03*
D43*
X149778Y106398D02*
D03*
D44*
X146978Y100843D02*
D03*
Y96513D02*
D03*
Y92182D02*
D03*
Y87851D02*
D03*
Y83521D02*
D03*
Y79190D02*
D03*
Y74859D02*
D03*
Y70528D02*
D03*
Y66198D02*
D03*
D45*
X187178Y106198D02*
D03*
Y43598D02*
D03*
D46*
X148978Y47598D02*
D03*
D47*
X101178Y92798D02*
D03*
X107778D02*
D03*
D48*
X92278Y61498D02*
D03*
Y54898D02*
D03*
D49*
X135378Y96498D02*
D03*
X141778D02*
D03*
X135378Y92098D02*
D03*
X141778D02*
D03*
X135378Y74798D02*
D03*
X141778D02*
D03*
X135378Y70498D02*
D03*
X141778D02*
D03*
X135378Y66198D02*
D03*
X141778D02*
D03*
X60978Y68297D02*
D03*
X54578D02*
D03*
X135378Y87798D02*
D03*
X141778D02*
D03*
X107278Y98097D02*
D03*
X100878D02*
D03*
X53278Y85498D02*
D03*
X59678D02*
D03*
X53278Y89498D02*
D03*
X59678D02*
D03*
X60978Y76297D02*
D03*
X54578D02*
D03*
X60978Y72298D02*
D03*
X54578D02*
D03*
X113778Y118398D02*
D03*
X120178D02*
D03*
X113778Y127398D02*
D03*
X120178D02*
D03*
D50*
X117361Y113882D02*
D03*
X117361Y122898D02*
D03*
X117361Y131913D02*
D03*
D51*
X140195Y122898D02*
D03*
M02*
