%FSLAX25Y25*%
%MOIN*%
G70*
G01*
G75*
G04 Layer_Physical_Order=1*
G04 Layer_Color=255*
%ADD10R,0.05200X0.06000*%
%ADD11R,0.10000X0.03600*%
%ADD12C,0.02800*%
%ADD13R,0.04000X0.02800*%
%ADD14R,0.05400X0.04000*%
%ADD15C,0.04000*%
%ADD16R,0.06000X0.09600*%
%ADD17R,0.09000X0.07000*%
%ADD18R,0.03400X0.02800*%
%ADD19O,0.06496X0.01181*%
%ADD20O,0.01181X0.06496*%
%ADD21R,0.02756X0.00394*%
%ADD22R,0.05512X0.03150*%
%ADD23R,0.01575X0.06400*%
%ADD24R,0.07000X0.04000*%
%ADD25C,0.02400*%
%ADD26C,0.01000*%
%ADD27C,0.00600*%
%ADD28C,0.01400*%
%ADD29C,0.02000*%
%ADD30C,0.01200*%
%ADD31C,0.01600*%
%ADD32C,0.03000*%
%ADD33R,0.05000X0.05000*%
%ADD34R,0.05000X0.05000*%
%ADD35C,0.13780*%
%ADD36C,0.02756*%
%ADD37O,0.04000X0.07000*%
%ADD38O,0.04000X0.05000*%
%ADD39C,0.02400*%
G36*
X151178Y109698D02*
Y68598D01*
X152228Y67548D01*
X151378Y66698D01*
X150178D01*
Y109298D01*
X146878Y112598D01*
X98178D01*
X92578Y106998D01*
Y100598D01*
X92278Y100298D01*
X91578D01*
X91278Y100598D01*
Y107098D01*
X97778Y113598D01*
X147278D01*
X151178Y109698D01*
D02*
G37*
G36*
X137978Y69898D02*
Y66798D01*
X137678Y66498D01*
X126478D01*
Y67698D01*
X125628Y68548D01*
X127278Y70198D01*
X137678D01*
X137978Y69898D01*
D02*
G37*
G36*
X62378Y67198D02*
Y66498D01*
X62078Y66198D01*
X56178D01*
X55878Y66498D01*
X34378D01*
X26078Y58198D01*
X25378Y58898D01*
X33978Y67498D01*
X62078D01*
X62378Y67198D01*
D02*
G37*
G36*
X83678Y69498D02*
X105978D01*
X106278Y69198D01*
Y68498D01*
X105978Y68198D01*
X100078D01*
X99978Y68298D01*
X83878Y68298D01*
X81978Y68298D01*
Y69498D01*
X82828Y70348D01*
X83678Y69498D01*
D02*
G37*
G36*
X62378Y69098D02*
Y68398D01*
X62078Y68098D01*
X56178D01*
X55978Y68298D01*
X25378D01*
Y69298D01*
X56078D01*
X56178Y69398D01*
X62078D01*
X62378Y69098D01*
D02*
G37*
G36*
X125578Y88498D02*
X126778D01*
Y85998D01*
X124678Y83898D01*
Y82298D01*
X126428Y80548D01*
X125578Y79698D01*
X126778D01*
Y75598D01*
X122878Y71698D01*
Y68098D01*
X122578Y67798D01*
X107178D01*
X106878Y68098D01*
Y76498D01*
X108078D01*
Y77698D01*
X113078D01*
X124728Y89348D01*
X125578Y88498D01*
D02*
G37*
G36*
X71278Y70498D02*
X73378D01*
X76178Y67698D01*
X94878D01*
X97228Y65348D01*
X96378Y64498D01*
X97228Y63648D01*
X96478Y62898D01*
Y56698D01*
X96178Y56398D01*
X95478D01*
X95178Y56698D01*
X95178Y64523D01*
Y65698D01*
X94178Y66698D01*
X75778D01*
X72978Y69498D01*
X69378D01*
Y70698D01*
X70228Y71548D01*
X71278Y70498D01*
D02*
G37*
G36*
X94478Y56698D02*
X94178Y56398D01*
X93578D01*
X93278Y56698D01*
Y62798D01*
X92428Y63648D01*
X93278Y64498D01*
X94478D01*
Y56698D01*
D02*
G37*
G36*
X75478Y66098D02*
X83778D01*
X86678Y63198D01*
Y56698D01*
X86378Y56398D01*
X85678D01*
X85378Y56698D01*
Y63098D01*
X83378Y65098D01*
X75078D01*
X72278Y67898D01*
X66278D01*
X62978Y64598D01*
X42478D01*
X26078Y48198D01*
X25378Y48898D01*
X42078Y65598D01*
X62578D01*
X65878Y68898D01*
X72678D01*
X75478Y66098D01*
D02*
G37*
G36*
X201878Y134898D02*
Y102698D01*
Y93698D01*
Y50598D01*
Y2898D01*
X199878Y898D01*
X187578D01*
Y3298D01*
X190178D01*
X190778Y3898D01*
Y5798D01*
X191878Y6898D01*
X193678D01*
X195778Y8998D01*
Y39398D01*
X193678Y41498D01*
X181578D01*
X179928Y39848D01*
X179078Y40698D01*
Y39498D01*
X174578D01*
X173978Y38898D01*
Y33898D01*
X174578Y33298D01*
X180278D01*
X180778Y33798D01*
Y36898D01*
X182778Y38898D01*
X183578D01*
X183978Y38498D01*
Y35298D01*
X180178Y31498D01*
X169078D01*
X160278Y40298D01*
X129278D01*
X127878Y41698D01*
X126278D01*
X124878Y40298D01*
X97278D01*
X91478Y46098D01*
Y47198D01*
X94278Y49998D01*
Y52398D01*
X93278Y53398D01*
Y55498D01*
X93578Y55798D01*
X96478D01*
X97078Y56398D01*
Y62598D01*
X100078Y65598D01*
X120378D01*
X126778Y59198D01*
Y51498D01*
X127778Y50498D01*
X137578D01*
X138578Y51498D01*
Y77998D01*
X139178Y78598D01*
X149278D01*
X149578Y78298D01*
Y65898D01*
X150578Y64898D01*
X152178D01*
X153178Y65898D01*
Y68598D01*
X154878Y70298D01*
Y71698D01*
X153378Y73198D01*
Y79498D01*
X156378Y82498D01*
Y83598D01*
X157978Y85198D01*
Y86798D01*
X156578Y88198D01*
Y112098D01*
X149678Y118998D01*
X95278D01*
X87978Y111698D01*
X86778D01*
X85878Y112598D01*
Y123698D01*
X88478Y126298D01*
Y127898D01*
X87478Y128898D01*
X84178D01*
X82978Y130098D01*
X78078D01*
X77078Y129098D01*
Y127498D01*
X77878Y126698D01*
Y124998D01*
X77478Y124598D01*
X75878D01*
X75278Y123998D01*
Y115298D01*
X76278Y114298D01*
X77878D01*
X79978Y116398D01*
X82678D01*
X82978Y116098D01*
Y110898D01*
X82578Y110498D01*
Y107698D01*
X82278Y107398D01*
X73778D01*
X73478Y107698D01*
Y109998D01*
X70578Y112898D01*
X62078D01*
X53778Y104598D01*
Y102998D01*
X54778Y101998D01*
X56378D01*
X56778Y102398D01*
X59378D01*
X60378Y103398D01*
Y105098D01*
X63978Y108698D01*
X68478D01*
X68978Y108198D01*
Y100298D01*
X69578Y99698D01*
X71578D01*
X71878Y99398D01*
Y97998D01*
X72878Y96998D01*
X73978D01*
Y95798D01*
X75178D01*
Y91498D01*
X77678Y88998D01*
X79278D01*
X80278Y89998D01*
Y92898D01*
X80578Y93198D01*
Y94198D01*
X81778Y95398D01*
X83378D01*
X84078Y94698D01*
X85678D01*
X86678Y95698D01*
Y97298D01*
X86328Y97648D01*
X87178Y98498D01*
Y99698D01*
X96478D01*
X97078Y100298D01*
Y105998D01*
X99528Y108448D01*
X100378Y107598D01*
Y108798D01*
X127078D01*
X129278Y106598D01*
Y101598D01*
X129578Y101298D01*
X135178D01*
X135478Y101598D01*
Y107198D01*
X134878Y107798D01*
X131278D01*
X129378Y109698D01*
Y110098D01*
X129678Y110398D01*
X145878D01*
X147978Y108298D01*
Y81498D01*
X147278Y80798D01*
X139778D01*
Y81998D01*
X138578D01*
Y85398D01*
X140378Y87198D01*
Y90698D01*
X140978Y91298D01*
Y97298D01*
X139978Y98298D01*
X138378D01*
X137378Y97298D01*
Y95298D01*
X136178Y94098D01*
X123978D01*
X111478Y81598D01*
X109878D01*
X109578Y81898D01*
Y83898D01*
X108578Y84898D01*
X108078D01*
Y86098D01*
X106878D01*
Y91198D01*
X107178Y91498D01*
X115378D01*
X121478Y97598D01*
Y99798D01*
X122678D01*
Y100998D01*
X124878D01*
X125478Y101598D01*
Y107198D01*
X125178Y107498D01*
X119578D01*
X119278Y107198D01*
Y98598D01*
X114378Y93698D01*
X107178D01*
X106878Y93998D01*
Y95798D01*
X112078Y100998D01*
X114878D01*
X115478Y101598D01*
Y107198D01*
X115178Y107498D01*
X109578D01*
X109278Y107198D01*
Y102198D01*
X104678Y97598D01*
X100078D01*
X98978Y98698D01*
X97378D01*
X96378Y97698D01*
Y95798D01*
X96078Y95498D01*
X91978D01*
X91678Y95798D01*
Y97698D01*
X90678Y98698D01*
X89078D01*
X88078Y97698D01*
Y89798D01*
X94378Y83498D01*
X98878D01*
X99178Y83198D01*
Y77898D01*
X98878Y77598D01*
X89878D01*
X88378Y79098D01*
X84078D01*
X83778Y79398D01*
Y81198D01*
X83078Y81898D01*
Y84198D01*
X82078Y85198D01*
X81178D01*
X79478Y86898D01*
X77878D01*
X76828Y85848D01*
X75978Y86698D01*
Y85498D01*
X64178D01*
Y86698D01*
X62978D01*
Y94898D01*
X64178D01*
X63328Y95748D01*
X65278Y97698D01*
X66878D01*
X67878Y98698D01*
Y100198D01*
X67578Y100498D01*
Y106798D01*
X66878Y107498D01*
X65778D01*
X65078Y106798D01*
Y101098D01*
X61928Y97948D01*
X61078Y98798D01*
Y97598D01*
X54078D01*
X52578Y99098D01*
Y112298D01*
X51978Y112898D01*
X49078D01*
X46178Y115798D01*
X43678D01*
X32978Y126498D01*
Y132998D01*
X29978Y135998D01*
X6578D01*
X1978Y131398D01*
Y126398D01*
X2578Y125798D01*
X8178D01*
X8778Y126398D01*
Y131098D01*
X9928Y132248D01*
X10778Y131398D01*
X11978D01*
Y126398D01*
X12578Y125798D01*
X18178D01*
X18778Y126398D01*
Y131098D01*
X19278Y131598D01*
X21478D01*
X21978Y131098D01*
Y126398D01*
X22578Y125798D01*
X24378D01*
X26978Y123198D01*
Y122498D01*
X26478Y121998D01*
X22578D01*
X22278Y121698D01*
Y116098D01*
X22578Y115798D01*
X28178D01*
X28478Y116098D01*
Y118798D01*
X29678D01*
X30528Y119648D01*
X33078Y117098D01*
Y107398D01*
X34828Y105648D01*
X33978Y104798D01*
X35178D01*
Y102498D01*
X35778Y101898D01*
X38178D01*
X39828Y100248D01*
X38978Y99398D01*
Y98198D01*
X38478D01*
X37378Y97098D01*
Y89498D01*
X37978Y88898D01*
X48178D01*
X48728Y88348D01*
X47878Y87498D01*
X48728Y86648D01*
X43578Y81498D01*
X37978D01*
X37378Y80898D01*
Y73298D01*
X37978Y72698D01*
X46978D01*
X47578Y73298D01*
Y80298D01*
X52578Y85298D01*
X54978D01*
X55278Y84998D01*
Y75998D01*
X55878Y75398D01*
X62378D01*
X62678Y75698D01*
X71078D01*
X75578Y71198D01*
Y70598D01*
X75178Y70198D01*
X74578D01*
X73678Y71098D01*
X71578D01*
X70178Y72498D01*
X68578D01*
X67578Y71498D01*
Y69898D01*
X67178Y69498D01*
X65578D01*
X63778Y67698D01*
X63278D01*
X62978Y67998D01*
Y70098D01*
X63278Y70398D01*
X64678D01*
X65678Y71398D01*
Y72998D01*
X64678Y73998D01*
X55878D01*
X55278Y73398D01*
Y72098D01*
X54878Y71698D01*
X35378D01*
Y72898D01*
X34528Y72048D01*
X28478Y78098D01*
Y81698D01*
X28178Y81998D01*
X22578D01*
X22278Y81698D01*
Y76098D01*
X22578Y75798D01*
X27578D01*
X31428Y71948D01*
X30578Y71098D01*
Y69898D01*
X28778D01*
X28478Y70198D01*
Y71698D01*
X28178Y71998D01*
X22578D01*
X22278Y71698D01*
Y66098D01*
X22578Y65798D01*
X28178D01*
X28478Y66098D01*
Y67398D01*
X28778Y67698D01*
X30378D01*
Y66498D01*
X31228Y65648D01*
X27578Y61998D01*
X22578D01*
X22278Y61698D01*
Y56098D01*
X22578Y55798D01*
X28178D01*
X28478Y56098D01*
Y59698D01*
X34678Y65898D01*
X38578D01*
Y64698D01*
X39428Y63848D01*
X27578Y51998D01*
X22578D01*
X22278Y51698D01*
Y46098D01*
X22578Y45798D01*
X28178D01*
X28478Y46098D01*
Y49698D01*
X42778Y63998D01*
X46678D01*
Y62798D01*
X47528Y61948D01*
X27578Y41998D01*
X22578D01*
X22278Y41698D01*
Y36098D01*
X22578Y35798D01*
X28178D01*
X28478Y36098D01*
Y39698D01*
X50828Y62048D01*
X51678Y61198D01*
Y62398D01*
X64778D01*
X65078Y62098D01*
Y58698D01*
X63878D01*
Y57498D01*
X53078D01*
X27578Y31998D01*
X22578D01*
X22278Y31698D01*
Y26098D01*
X22578Y25798D01*
X28178D01*
X28478Y26098D01*
Y29698D01*
X53728Y54948D01*
X54578Y54098D01*
Y55298D01*
X66578D01*
X67578Y56298D01*
Y62998D01*
X66928Y63648D01*
X67778Y64498D01*
X68978D01*
Y49098D01*
X68678Y48798D01*
X50878D01*
X50278Y48198D01*
Y45398D01*
X50878Y44798D01*
X53978D01*
X55678Y43098D01*
X60878D01*
X61878Y44098D01*
Y45898D01*
X62278Y46298D01*
X70678D01*
X70978Y45998D01*
Y36298D01*
X78078Y29198D01*
X84978D01*
X85978Y30198D01*
Y31798D01*
X84378Y33398D01*
Y34798D01*
X82678Y36498D01*
Y37798D01*
X81378Y39098D01*
Y39998D01*
X81978Y40598D01*
X82978D01*
X88678Y34898D01*
Y14798D01*
X87578Y13698D01*
X62178D01*
X61878Y13998D01*
Y18998D01*
X63978Y21098D01*
Y22698D01*
X62778Y23898D01*
Y24798D01*
X64078Y26098D01*
Y27598D01*
X62778Y28898D01*
Y29898D01*
X63978Y31098D01*
Y32698D01*
X62778Y33898D01*
Y34898D01*
X63978Y36098D01*
Y37698D01*
X62578Y39098D01*
X55678D01*
X54678Y38098D01*
Y19798D01*
X52578Y17698D01*
Y15998D01*
X54678Y13898D01*
Y4098D01*
X55278Y3498D01*
X59878D01*
X61578Y5198D01*
Y6298D01*
X64978Y9698D01*
X89478D01*
X92978Y13198D01*
Y29098D01*
X94278Y30398D01*
Y34198D01*
X94778Y34698D01*
X157878D01*
X173978Y18598D01*
Y13898D01*
X174578Y13298D01*
X180178D01*
X180778Y13898D01*
Y17798D01*
X181078Y18098D01*
X183678D01*
X183978Y17798D01*
Y13898D01*
X184578Y13298D01*
X190178D01*
X190778Y13898D01*
Y18898D01*
X190178Y19498D01*
X186978D01*
X183878Y22598D01*
X183178Y23298D01*
X180778D01*
X180478Y23598D01*
Y28598D01*
X185178Y33298D01*
X190178D01*
X190778Y33898D01*
Y37698D01*
X193178D01*
Y10698D01*
X191978D01*
Y9498D01*
X184578D01*
X183978Y8898D01*
Y3998D01*
X182878Y2898D01*
X148878D01*
X148578Y3198D01*
Y4798D01*
X147978Y5398D01*
X142678D01*
X141678Y6398D01*
X128278D01*
X127278Y5398D01*
X123078D01*
X122078Y6398D01*
Y9098D01*
X122378Y9398D01*
X127978D01*
X128378Y9798D01*
Y13398D01*
X127978Y13798D01*
X125078D01*
X122078Y16798D01*
X120478D01*
X119478Y15798D01*
Y6498D01*
X118778Y5798D01*
X83578D01*
X81578Y3798D01*
X71078D01*
X70878Y3598D01*
Y3198D01*
X71178Y2898D01*
Y698D01*
X70878Y398D01*
X61878D01*
X61578Y698D01*
Y1698D01*
X61378Y1898D01*
X61078D01*
X60078Y898D01*
X2878D01*
X878Y2898D01*
Y134898D01*
X2878Y136898D01*
X199878D01*
X201878Y134898D01*
D02*
G37*
G36*
X125528Y69448D02*
X124678Y68598D01*
Y66898D01*
X126378Y65198D01*
X137678D01*
X137978Y64898D01*
Y61798D01*
X137678Y61498D01*
X127678D01*
X123478Y65698D01*
Y70298D01*
X124678D01*
X125528Y69448D01*
D02*
G37*
G36*
X106578Y67198D02*
X121078D01*
X128078Y60198D01*
X137678D01*
X137978Y59898D01*
Y56798D01*
X137678Y56498D01*
X127678D01*
X127378Y56798D01*
Y59498D01*
X120678Y66198D01*
X100078D01*
X99778Y66498D01*
Y67198D01*
X100078Y67498D01*
X106278D01*
X106578Y67198D01*
D02*
G37*
G36*
X88778Y75398D02*
X105978D01*
X106278Y75098D01*
Y74398D01*
X105978Y74098D01*
X99778D01*
X99478Y74398D01*
X88278D01*
X86778Y75898D01*
X80178D01*
X79128Y74848D01*
X78278Y75698D01*
Y76898D01*
X87278D01*
X88778Y75398D01*
D02*
G37*
G36*
X88378Y73398D02*
X105978D01*
X106278Y73098D01*
Y72398D01*
X105978Y72098D01*
X86278D01*
X85128Y73248D01*
X86828Y74948D01*
X88378Y73398D01*
D02*
G37*
G36*
X62878Y78998D02*
X72378D01*
X77478Y73898D01*
X78978D01*
Y72698D01*
X78128Y71848D01*
X71978Y77998D01*
X56178D01*
X55878Y78298D01*
Y78998D01*
X56178Y79298D01*
X62578D01*
X62878Y78998D01*
D02*
G37*
G36*
X139178Y92098D02*
Y90898D01*
X125378D01*
X112778Y78298D01*
X106578D01*
X106278Y77998D01*
X100078D01*
X99778Y78298D01*
Y78998D01*
X100078Y79298D01*
X112378D01*
X124978Y91898D01*
X137278D01*
X138328Y92948D01*
X139178Y92098D01*
D02*
G37*
G36*
X149578Y108998D02*
Y80798D01*
X147978Y79198D01*
X138878D01*
X137978Y78298D01*
Y76798D01*
X137678Y76498D01*
X127678D01*
X127378Y76798D01*
Y79898D01*
X127678Y80198D01*
X147578D01*
X148578Y81198D01*
Y108598D01*
X146178Y110998D01*
X98878D01*
X94478Y106598D01*
Y100598D01*
X94178Y100298D01*
X93478D01*
X93178Y100598D01*
Y106698D01*
X98478Y111998D01*
X146578D01*
X149578Y108998D01*
D02*
G37*
G36*
X78878Y78498D02*
X88078D01*
X89578Y76998D01*
X99778D01*
X100078Y77298D01*
X105978D01*
X106278Y77029D01*
Y76298D01*
X105978Y75998D01*
X89078D01*
X87578Y77498D01*
X76978D01*
Y78698D01*
X77828Y79548D01*
X78878Y78498D01*
D02*
G37*
G36*
X86078Y71398D02*
X105978D01*
X106278Y71098D01*
Y70398D01*
X105978Y70098D01*
X83978D01*
X83128Y70948D01*
X84828Y72648D01*
X86078Y71398D01*
D02*
G37*
G36*
X34578Y71098D02*
X55878D01*
X56178Y71398D01*
X62078D01*
X62378Y71098D01*
Y70398D01*
X62078Y70098D01*
X34178D01*
X25378Y78898D01*
X26078Y79598D01*
X34578Y71098D01*
D02*
G37*
G36*
X78228Y70848D02*
X77378Y69998D01*
X76178D01*
Y71498D01*
X71378Y76298D01*
X62378D01*
X62078Y75998D01*
X56178D01*
X55878Y76298D01*
Y76998D01*
X56178Y77298D01*
X71778D01*
X78228Y70848D01*
D02*
G37*
G36*
X137978Y74898D02*
Y71798D01*
X137678Y71498D01*
X126478D01*
Y72698D01*
X125628Y73548D01*
X127278Y75198D01*
X137678D01*
X137978Y74898D01*
D02*
G37*
G36*
X63878Y72198D02*
X63028Y71348D01*
X62278Y72098D01*
X56178D01*
X55878Y72398D01*
Y73098D01*
X56178Y73398D01*
X63878Y73398D01*
Y72198D01*
D02*
G37*
G36*
X152778Y110398D02*
Y72898D01*
X153828Y71848D01*
X152978Y70998D01*
X151778D01*
Y109998D01*
X147578Y114198D01*
X97478D01*
X90578Y107298D01*
Y100598D01*
X90278Y100298D01*
X89578D01*
X89278Y100598D01*
Y107398D01*
X97078Y115198D01*
X147978D01*
X152778Y110398D01*
D02*
G37*
G36*
X80778Y62598D02*
Y45398D01*
X89778Y36398D01*
X158678D01*
X173978Y21098D01*
X181678D01*
Y19898D01*
X180828Y19048D01*
X179778Y20098D01*
X173578D01*
X158378Y35298D01*
X89178D01*
X79478Y44998D01*
Y62598D01*
X79778Y62898D01*
X80478D01*
X80778Y62598D01*
D02*
G37*
G36*
X61278Y17798D02*
Y14398D01*
X60978Y14098D01*
X55478D01*
X53528Y16048D01*
X54378Y16898D01*
Y18098D01*
X60978D01*
X61278Y17798D01*
D02*
G37*
G36*
X82678Y62598D02*
Y46098D01*
X90678Y38098D01*
X159278D01*
X174678Y22698D01*
X182878D01*
X186678Y18898D01*
X189878D01*
X190178Y18598D01*
Y14198D01*
X189878Y13898D01*
X184878D01*
X184578Y14198D01*
Y19598D01*
X182478Y21698D01*
X174278D01*
X158978Y36998D01*
X90078D01*
X81378Y45698D01*
Y62598D01*
X81678Y62898D01*
X82378D01*
X82678Y62598D01*
D02*
G37*
G36*
X66978D02*
Y56598D01*
X66278Y55898D01*
X53778D01*
X26078Y28198D01*
X25378Y28898D01*
X53378Y56898D01*
X65439D01*
X65678Y57136D01*
Y62598D01*
X65978Y62898D01*
X66678D01*
X66978Y62598D01*
D02*
G37*
G36*
X62178Y28098D02*
Y26898D01*
X63028Y26048D01*
X61078Y24098D01*
X55578D01*
X55278Y24398D01*
Y27798D01*
X55578Y28098D01*
X61078Y28102D01*
X62178Y28098D01*
D02*
G37*
G36*
Y23098D02*
Y21898D01*
X63028Y21048D01*
X61078Y19098D01*
X55578D01*
X55278Y19398D01*
Y22798D01*
X55578Y23098D01*
X61078Y23102D01*
X62178Y23098D01*
D02*
G37*
G36*
X195178Y39098D02*
Y9298D01*
X193378Y7498D01*
X191478D01*
X190178Y6198D01*
Y4198D01*
X189878Y3898D01*
X186778D01*
X183778Y898D01*
X147578D01*
X146878Y1598D01*
X142078D01*
X141778Y1898D01*
Y3098D01*
X140478Y4398D01*
X129278D01*
X127978Y3098D01*
Y1898D01*
X127678Y1598D01*
X122078D01*
X121778Y1898D01*
Y3498D01*
X121478Y3798D01*
X86478D01*
X85878Y3198D01*
Y398D01*
X81878D01*
Y3198D01*
X83878Y5198D01*
X119078D01*
X120078Y6198D01*
Y14998D01*
X121278D01*
X122128Y14148D01*
X121478Y13498D01*
Y6098D01*
X122778Y4798D01*
X127578D01*
X128578Y5798D01*
X141078D01*
X142078Y4798D01*
X147678D01*
X147978Y4498D01*
Y2598D01*
X148278Y2298D01*
X183178D01*
X184578Y3698D01*
Y8598D01*
X184878Y8898D01*
X192778D01*
X193778Y9898D01*
Y38498D01*
X192778Y39498D01*
X182478D01*
X180178Y37198D01*
Y34198D01*
X179878Y33898D01*
X174878D01*
X174578Y34198D01*
Y38598D01*
X174878Y38898D01*
X179878D01*
X181878Y40898D01*
X193378D01*
X195178Y39098D01*
D02*
G37*
G36*
X141178Y2798D02*
Y1598D01*
X141778Y998D01*
X145378D01*
Y398D01*
X141278D01*
X140678Y998D01*
X128878D01*
X128578Y1298D01*
Y2698D01*
X129678Y3798D01*
X140178D01*
X141178Y2798D01*
D02*
G37*
G36*
X121178Y2898D02*
Y698D01*
X120878Y398D01*
X111878D01*
X111578Y698D01*
Y2898D01*
X111878Y3198D01*
X120878D01*
X121178Y2898D01*
D02*
G37*
G36*
X180178Y18598D02*
Y14198D01*
X179878Y13898D01*
X174878D01*
X174578Y14198D01*
Y18598D01*
X174878Y18898D01*
X179878D01*
X180178Y18598D01*
D02*
G37*
G36*
X91328Y32648D02*
X90378Y31698D01*
Y13998D01*
X88378Y11998D01*
X61778D01*
X61278Y11498D01*
Y9398D01*
X60978Y9098D01*
X55578D01*
X55278Y9398D01*
Y12798D01*
X55578Y13098D01*
X87878D01*
X89278Y14498D01*
Y33498D01*
X90478D01*
X91328Y32648D01*
D02*
G37*
G36*
X93328Y30348D02*
X92378Y29398D01*
Y13498D01*
X89178Y10298D01*
X64678D01*
X60978Y6598D01*
Y5498D01*
X59578Y4098D01*
X55578D01*
X55278Y4398D01*
Y7798D01*
X55578Y8098D01*
X60878Y8098D01*
X64178Y11398D01*
X88678D01*
X91278Y13998D01*
Y31198D01*
X92478D01*
X93328Y30348D01*
D02*
G37*
G36*
X71628Y63648D02*
X70878Y62898D01*
Y47659D01*
X70116Y46898D01*
X61978D01*
X61278Y46198D01*
Y44398D01*
X60978Y44098D01*
X55578D01*
X54278Y45398D01*
X51178D01*
X50878Y45698D01*
Y47898D01*
X51178Y48198D01*
X69578D01*
Y64498D01*
X70778D01*
X71628Y63648D01*
D02*
G37*
G36*
X86978Y55498D02*
Y47298D01*
X92378Y41898D01*
Y40198D01*
X91778Y39598D01*
X90078D01*
X83278Y46398D01*
Y55498D01*
X83578Y55798D01*
X86678D01*
X86978Y55498D01*
D02*
G37*
G36*
X78778Y62598D02*
Y42098D01*
X80028Y40848D01*
X78328Y39148D01*
X77478Y39998D01*
Y62598D01*
X77778Y62898D01*
X78461D01*
X78778Y62598D01*
D02*
G37*
G36*
X74778Y64498D02*
X83078D01*
X84678Y62898D01*
Y56698D01*
X84378Y56398D01*
X83678D01*
X83378Y56698D01*
Y62798D01*
X82678Y63498D01*
X74378D01*
X71578Y66298D01*
X66978D01*
X63678Y62998D01*
X50878D01*
X26078Y38198D01*
X25378Y38898D01*
X50478Y63998D01*
X63278D01*
X66578Y67298D01*
X71978D01*
X74778Y64498D01*
D02*
G37*
G36*
X92578Y62598D02*
Y52698D01*
X93328Y51948D01*
X92478Y51098D01*
X91278D01*
Y62598D01*
X91578Y62898D01*
X92278D01*
X92578Y62598D01*
D02*
G37*
G36*
X90578D02*
Y50398D01*
X91328Y49648D01*
X90478Y48798D01*
X89278D01*
Y62598D01*
X89578Y62898D01*
X90278D01*
X90578Y62598D01*
D02*
G37*
G36*
X88578D02*
Y48098D01*
X96978Y39698D01*
X125178D01*
X126228Y40748D01*
X127078Y39898D01*
X127928Y40748D01*
X128978Y39698D01*
X159978D01*
X168778Y30898D01*
X180478D01*
X184578Y34998D01*
Y38598D01*
X184878Y38898D01*
X189878D01*
X190178Y38598D01*
Y34198D01*
X189878Y33898D01*
X184878D01*
X180878Y29898D01*
X168378D01*
X159578Y38698D01*
X96578D01*
X87578Y47698D01*
Y56098D01*
X87278Y56398D01*
Y62598D01*
X87578Y62898D01*
X88278D01*
X88578Y62598D01*
D02*
G37*
G36*
X72878D02*
Y37498D01*
X78178Y32198D01*
X84178D01*
Y29798D01*
X78378D01*
X71578Y36598D01*
Y62598D01*
X71878Y62898D01*
X72578D01*
X72878Y62598D01*
D02*
G37*
G36*
X62178Y33098D02*
Y31898D01*
X63028Y31048D01*
X61078Y29098D01*
X55578D01*
X55278Y29398D01*
Y32798D01*
X55578Y33098D01*
X61078Y33102D01*
X62178Y33098D01*
D02*
G37*
G36*
X76778Y62598D02*
Y39798D01*
X78378Y38198D01*
X80878D01*
Y35798D01*
X78578D01*
X75478Y38898D01*
Y62598D01*
X75778Y62898D01*
X76478D01*
X76778Y62598D01*
D02*
G37*
G36*
X62178Y38098D02*
Y36898D01*
X63028Y36048D01*
X61078Y34098D01*
X55578D01*
X55278Y34398D01*
Y37798D01*
X55578Y38098D01*
X61078Y38102D01*
X62178Y38098D01*
D02*
G37*
G36*
X74778Y62598D02*
Y38698D01*
X78278Y35198D01*
X82578D01*
Y32798D01*
X78478D01*
X73478Y37798D01*
Y62598D01*
X73778Y62898D01*
X74478D01*
X74778Y62598D01*
D02*
G37*
G36*
X81978Y80398D02*
X81128Y79548D01*
X80078Y80598D01*
X63178D01*
X62578Y79998D01*
X56178D01*
X55878Y80298D01*
Y80998D01*
X56178Y81298D01*
X62278D01*
X62578Y81598D01*
X81978D01*
Y80398D01*
D02*
G37*
G36*
X114878Y101898D02*
X114578Y101598D01*
X111778D01*
X105878Y95698D01*
X98178D01*
Y96898D01*
X99028Y97748D01*
X99778Y96998D01*
X104978D01*
X112378Y104398D01*
X114878D01*
Y101898D01*
D02*
G37*
G36*
X80778Y106498D02*
X80778Y100298D01*
Y96498D01*
X79478D01*
Y106498D01*
X79778Y106798D01*
X80478D01*
X80778Y106498D01*
D02*
G37*
G36*
X82678D02*
Y100098D01*
X83428Y99348D01*
X82578Y98498D01*
X81378D01*
Y106498D01*
X81678Y106798D01*
X82378D01*
X82678Y106498D01*
D02*
G37*
G36*
X84678D02*
Y100398D01*
X85378Y99698D01*
Y98798D01*
X84378D01*
Y99298D01*
X83378Y100298D01*
Y106498D01*
X83678Y106798D01*
X84378D01*
X84678Y106498D01*
D02*
G37*
G36*
X74878D02*
Y98798D01*
X73678D01*
X72828Y99648D01*
X73578Y100398D01*
Y106498D01*
X73878Y106798D01*
X74578D01*
X74878Y106498D01*
D02*
G37*
G36*
X106278Y94698D02*
Y94098D01*
X105978Y93798D01*
X99878D01*
X99028Y92948D01*
X98178Y93798D01*
Y94998D01*
X105978D01*
X106278Y94698D01*
D02*
G37*
G36*
X124878Y101898D02*
X124578Y101598D01*
X121578D01*
X120878Y100898D01*
Y97898D01*
X115078Y92098D01*
X106578D01*
X106278Y91798D01*
X100078D01*
X99778Y92098D01*
Y92798D01*
X100078Y93098D01*
X114678D01*
X119878Y98298D01*
Y101898D01*
X122378Y104398D01*
X124878D01*
Y101898D01*
D02*
G37*
G36*
X32378Y132695D02*
Y126198D01*
X43378Y115198D01*
X45878D01*
X47678Y113398D01*
Y108198D01*
X49975Y105898D01*
X51678D01*
X51978Y105598D01*
Y98798D01*
X55778Y94998D01*
X62078D01*
X62378Y94698D01*
Y93998D01*
X62078Y93698D01*
X55678D01*
X50978Y98398D01*
Y101998D01*
X50478Y102498D01*
X48878D01*
X48578Y102798D01*
Y105598D01*
X46478Y107698D01*
Y112898D01*
X45378Y113998D01*
X42878D01*
X31178Y125698D01*
Y132198D01*
X29178Y134198D01*
X10978D01*
X8178Y131398D01*
Y126698D01*
X7878Y126398D01*
X2878D01*
X2578Y126698D01*
Y131098D01*
X6878Y135398D01*
X29675D01*
X32378Y132695D01*
D02*
G37*
G36*
X66978Y106498D02*
Y99498D01*
X66078D01*
Y98298D01*
X65016D01*
X62416Y95698D01*
X56179Y95697D01*
X55878Y95998D01*
X55878Y96698D01*
X56178Y96998D01*
X61878D01*
X65678Y100798D01*
Y106498D01*
X65978Y106798D01*
X66678D01*
X66978Y106498D01*
D02*
G37*
G36*
X78778D02*
Y100598D01*
X78478Y100298D01*
Y95698D01*
X79528Y94648D01*
X78678Y93798D01*
X77478D01*
Y106498D01*
X77778Y106798D01*
X78478D01*
X78778Y106498D01*
D02*
G37*
G36*
X87528Y126248D02*
X85178Y123898D01*
Y109616D01*
X83578D01*
Y125698D01*
X85828Y127948D01*
X87528Y126248D01*
D02*
G37*
G36*
X51978Y111998D02*
Y107998D01*
X50778D01*
X49928Y107148D01*
X48578Y108498D01*
Y111998D01*
X48878Y112298D01*
X51678D01*
X51978Y111998D01*
D02*
G37*
G36*
X77528Y123698D02*
Y117348D01*
X77928Y116948D01*
X77078Y116098D01*
X75878D01*
Y123698D01*
X76178Y123998D01*
X77228D01*
X77528Y123698D01*
D02*
G37*
G36*
X83103Y127473D02*
X82628Y126998D01*
Y117298D01*
X82328Y116998D01*
X81328D01*
X81028Y117298D01*
Y128298D01*
X82278D01*
X83103Y127473D01*
D02*
G37*
G36*
X80078Y117298D02*
X79778Y116998D01*
X78778D01*
X78478Y117298D01*
Y126998D01*
X78028Y127448D01*
X78878Y128298D01*
X80078D01*
Y117298D01*
D02*
G37*
G36*
X72878Y109698D02*
Y100598D01*
X72578Y100298D01*
X71878D01*
X71578Y100598D01*
Y109198D01*
X69678Y111098D01*
X62878D01*
X56778Y104998D01*
Y103798D01*
X55578D01*
X54728Y104648D01*
X62378Y112298D01*
X70278D01*
X72878Y109698D01*
D02*
G37*
G36*
X70878Y108998D02*
Y100598D01*
X70578Y100298D01*
X69878D01*
X69578Y100598D01*
Y108498D01*
X68778Y109298D01*
X63678D01*
X59778Y105398D01*
Y104198D01*
X58578D01*
X57728Y105048D01*
X63178Y110498D01*
X69378D01*
X70878Y108998D01*
D02*
G37*
G36*
X130978Y107198D02*
X134578D01*
X134878Y106898D01*
Y104398D01*
X132378D01*
X127378Y109398D01*
X99578D01*
X96478Y106298D01*
Y100598D01*
X96178Y100298D01*
X95478D01*
X95178Y100598D01*
Y106398D01*
X99178Y110398D01*
X127778D01*
X130978Y107198D01*
D02*
G37*
G36*
X45578Y111998D02*
Y107998D01*
X44378D01*
X43528Y107148D01*
X42178Y108498D01*
Y111998D01*
X42478Y112298D01*
X45278D01*
X45578Y111998D01*
D02*
G37*
G36*
X39178D02*
Y107998D01*
X37978D01*
X37128Y107148D01*
X35778Y108498D01*
Y111998D01*
X36078Y112298D01*
X38878D01*
X39178Y111998D01*
D02*
G37*
G36*
X30378Y131795D02*
Y125298D01*
X41278Y114398D01*
Y108198D01*
X43575Y105898D01*
X45278D01*
X45578Y105598D01*
Y102898D01*
X55378Y93098D01*
X62078D01*
X62378Y92798D01*
Y92098D01*
X62078Y91798D01*
X55278D01*
X44578Y102498D01*
X42478D01*
X42178Y102798D01*
Y105598D01*
X40078Y107698D01*
Y113898D01*
X29178Y124798D01*
Y131298D01*
X28278Y132198D01*
X18978D01*
X18178Y131398D01*
Y126698D01*
X17878Y126398D01*
X12878D01*
X12578Y126698D01*
Y131098D01*
X14878Y133398D01*
X28775D01*
X30378Y131795D01*
D02*
G37*
G36*
X46978Y96798D02*
Y94398D01*
X52278Y89098D01*
X62078D01*
X62378Y88798D01*
Y88098D01*
X62078Y87798D01*
X50678D01*
Y88998D01*
X49828Y88148D01*
X48478Y89498D01*
X38278D01*
X37978Y89798D01*
Y96798D01*
X38278Y97098D01*
X46678D01*
X46978Y96798D01*
D02*
G37*
G36*
X90628Y96048D02*
X89678Y95098D01*
Y90498D01*
X94978Y85198D01*
X105978D01*
X106278Y84903D01*
Y84198D01*
X105978Y83898D01*
X100078D01*
X99778Y84198D01*
X94578D01*
X88678Y90098D01*
Y96898D01*
X89778D01*
X90628Y96048D01*
D02*
G37*
G36*
X107778Y83098D02*
Y81898D01*
X100078D01*
X99778Y82198D01*
Y82898D01*
X100078Y83198D01*
X106178D01*
X106928Y83948D01*
X107778Y83098D01*
D02*
G37*
G36*
X93378Y91098D02*
Y89398D01*
X95578Y87198D01*
X105978D01*
X106278Y86898D01*
Y86198D01*
X105978Y85898D01*
X95178D01*
X90928Y90148D01*
X92628Y91848D01*
X93378Y91098D01*
D02*
G37*
G36*
X62378Y86898D02*
Y86198D01*
X62078Y85898D01*
X52278D01*
X46978Y80598D01*
Y73598D01*
X46678Y73298D01*
X38278D01*
X37978Y73598D01*
Y80598D01*
X38278Y80898D01*
X43878D01*
X49828Y86848D01*
X50678Y85998D01*
Y87198D01*
X62078D01*
X62378Y86898D01*
D02*
G37*
G36*
X154378Y111098D02*
Y85198D01*
X155428Y84148D01*
X154578Y83298D01*
X153378D01*
Y110698D01*
X148278Y115798D01*
X96778D01*
X88578Y107598D01*
Y100598D01*
X88278Y100298D01*
X87578D01*
X87278Y100598D01*
Y107698D01*
X96378Y116798D01*
X148678D01*
X154378Y111098D01*
D02*
G37*
G36*
X139428Y88848D02*
X138578Y87998D01*
X139427Y87149D01*
X138783Y86498D01*
X127678D01*
X127378Y86798D01*
Y89898D01*
X127678Y90198D01*
X138078D01*
X139428Y88848D01*
D02*
G37*
G36*
X155978Y111798D02*
Y87898D01*
X157028Y86848D01*
X156178Y85998D01*
X154978D01*
Y111398D01*
X148978Y117398D01*
X96078D01*
X86678Y107998D01*
Y100598D01*
X86378Y100298D01*
X85678D01*
X85378Y100598D01*
Y108098D01*
X95678Y118398D01*
X149378D01*
X155978Y111798D01*
D02*
G37*
G36*
X76778Y106498D02*
Y93098D01*
X77878Y91998D01*
X78478D01*
Y90798D01*
X77628Y89948D01*
X75778Y91798D01*
Y100298D01*
X75478Y100598D01*
Y106498D01*
X75778Y106798D01*
X76478D01*
X76778Y106498D01*
D02*
G37*
G36*
X98278Y91098D02*
X105978D01*
X106278Y90798D01*
X106278Y90098D01*
X105978Y89798D01*
X98178D01*
X95478Y92498D01*
X93378D01*
Y94898D01*
X94478D01*
X98278Y91098D01*
D02*
G37*
G36*
X140028Y95648D02*
X136878Y92498D01*
X124678D01*
X112178Y79998D01*
X100078D01*
X99778Y80298D01*
Y80998D01*
X100078Y81298D01*
X106278D01*
X106578Y80998D01*
X111778D01*
X124278Y93498D01*
X136478D01*
X137978Y94998D01*
Y96498D01*
X139178D01*
X140028Y95648D01*
D02*
G37*
G36*
X137978Y84898D02*
Y81798D01*
X137678Y81498D01*
X126378D01*
X125628Y82248D01*
X126478Y83098D01*
X125628Y83948D01*
X126878Y85198D01*
X137678D01*
X137978Y84898D01*
D02*
G37*
G36*
X81278Y83398D02*
Y82198D01*
X62278D01*
X61978Y81898D01*
X56178D01*
X55878Y82198D01*
Y82898D01*
X56178Y83198D01*
X79378D01*
X80428Y84248D01*
X81278Y83398D01*
D02*
G37*
G36*
X78678Y85098D02*
Y83898D01*
X56178D01*
X55878Y84198D01*
Y84898D01*
X56178Y85198D01*
X61978D01*
X62278Y84898D01*
X76778D01*
X77828Y85948D01*
X78678Y85098D01*
D02*
G37*
G36*
X28178Y131098D02*
Y124598D01*
X34878Y117898D01*
Y108198D01*
X37175Y105898D01*
X38878D01*
X39178Y105598D01*
Y103198D01*
X42078Y100298D01*
X45878D01*
X55078Y91098D01*
X62078D01*
X62378Y90798D01*
Y90098D01*
X62078Y89798D01*
X54978D01*
X45478Y99298D01*
X41678D01*
X38478Y102498D01*
X36078D01*
X35778Y102798D01*
Y105598D01*
X33678Y107698D01*
Y117401D01*
X27729Y123349D01*
X26678Y124398D01*
X24678Y126398D01*
X22878D01*
X22578Y126698D01*
Y131098D01*
X22878Y131398D01*
X27878D01*
X28178Y131098D01*
D02*
G37*
G36*
X97978Y89098D02*
X105978D01*
X106278Y88798D01*
Y88098D01*
X105978Y87798D01*
X96378D01*
Y88998D01*
X97228Y89848D01*
X97978Y89098D01*
D02*
G37*
%LPC*%
G36*
X28178Y21998D02*
X22578D01*
X22278Y21698D01*
Y16098D01*
X22578Y15798D01*
X28178D01*
X28478Y16098D01*
Y21698D01*
X28178Y21998D01*
D02*
G37*
G36*
X18178D02*
X12578D01*
X12278Y21698D01*
Y16098D01*
X12578Y15798D01*
X18178D01*
X18478Y16098D01*
Y21698D01*
X18178Y21998D01*
D02*
G37*
G36*
Y11998D02*
X12578D01*
X12278Y11698D01*
Y6098D01*
X12578Y5798D01*
X18178D01*
X18478Y6098D01*
Y11698D01*
X18178Y11998D01*
D02*
G37*
G36*
Y121998D02*
X12578D01*
X12278Y121698D01*
Y116098D01*
X12578Y115798D01*
X18178D01*
X18478Y116098D01*
Y121698D01*
X18178Y121998D01*
D02*
G37*
G36*
X69078Y3798D02*
X63278D01*
X63078Y3598D01*
Y3398D01*
X63278Y3198D01*
X69078D01*
X69278Y3398D01*
Y3598D01*
X69078Y3798D01*
D02*
G37*
G36*
X143778Y16798D02*
X142178D01*
X141178Y15798D01*
Y9998D01*
X141778Y9398D01*
X148078D01*
X148578Y9898D01*
Y13198D01*
X147978Y13798D01*
X146778D01*
X143778Y16798D01*
D02*
G37*
G36*
X18178Y81998D02*
X12578D01*
X12278Y81698D01*
Y76098D01*
X12578Y75798D01*
X18178D01*
X18478Y76098D01*
Y81698D01*
X18178Y81998D01*
D02*
G37*
G36*
X28178Y11998D02*
X22578D01*
X22278Y11698D01*
Y6098D01*
X22578Y5798D01*
X28178D01*
X28478Y6098D01*
Y11698D01*
X28178Y11998D01*
D02*
G37*
G36*
X190178Y29498D02*
X184578D01*
X184278Y29198D01*
Y23598D01*
X184578Y23298D01*
X190178D01*
X190478Y23598D01*
Y29198D01*
X190178Y29498D01*
D02*
G37*
G36*
X18178Y51998D02*
X12578D01*
X12278Y51698D01*
Y46098D01*
X12578Y45798D01*
X18178D01*
X18478Y46098D01*
Y51698D01*
X18178Y51998D01*
D02*
G37*
G36*
X28178Y101998D02*
X22578D01*
X22278Y101698D01*
Y96098D01*
X22578Y95798D01*
X28178D01*
X28478Y96098D01*
Y101698D01*
X28178Y101998D01*
D02*
G37*
G36*
X18178Y41998D02*
X12578D01*
X12278Y41698D01*
Y36098D01*
X12578Y35798D01*
X18178D01*
X18478Y36098D01*
Y41698D01*
X18178Y41998D01*
D02*
G37*
G36*
X182678Y50598D02*
X177678D01*
X176578Y49498D01*
Y43698D01*
X177678Y42598D01*
X182678D01*
X183778Y43698D01*
Y49498D01*
X182678Y50598D01*
D02*
G37*
G36*
X196178Y100598D02*
X191178D01*
X190078Y99498D01*
Y93698D01*
X191178Y92598D01*
X196178D01*
X197278Y93698D01*
Y99498D01*
X196178Y100598D01*
D02*
G37*
G36*
X18178Y71998D02*
X12578D01*
X12278Y71698D01*
Y66098D01*
X12578Y65798D01*
X18178D01*
X18478Y66098D01*
Y71698D01*
X18178Y71998D01*
D02*
G37*
G36*
Y101998D02*
X12578D01*
X12278Y101698D01*
Y96098D01*
X12578Y95798D01*
X18178D01*
X18478Y96098D01*
Y101698D01*
X18178Y101998D01*
D02*
G37*
G36*
Y61998D02*
X12578D01*
X12278Y61698D01*
Y56098D01*
X12578Y55798D01*
X18178D01*
X18478Y56098D01*
Y61698D01*
X18178Y61998D01*
D02*
G37*
G36*
X28178Y91998D02*
X22578D01*
X22278Y91698D01*
Y86098D01*
X22578Y85798D01*
X28178D01*
X28478Y86098D01*
Y91698D01*
X28178Y91998D01*
D02*
G37*
G36*
X180178Y134498D02*
X174178D01*
X173578Y133898D01*
Y102298D01*
X174178Y101698D01*
X180178D01*
X180778Y102298D01*
Y113198D01*
Y133898D01*
X180178Y134498D01*
D02*
G37*
G36*
X198178Y108798D02*
X196578D01*
X195078Y107298D01*
Y102698D01*
X195678Y102098D01*
X199078D01*
X199678Y102698D01*
Y107298D01*
X198178Y108798D01*
D02*
G37*
G36*
X18178Y31998D02*
X12578D01*
X12278Y31698D01*
Y26098D01*
X12578Y25798D01*
X18178D01*
X18478Y26098D01*
Y31698D01*
X18178Y31998D01*
D02*
G37*
G36*
Y91998D02*
X12578D01*
X12278Y91698D01*
Y86098D01*
X12578Y85798D01*
X18178D01*
X18478Y86098D01*
Y91698D01*
X18178Y91998D01*
D02*
G37*
G36*
X190478Y113198D02*
X184678D01*
X183578Y112098D01*
Y102698D01*
X184678Y101598D01*
X190478D01*
X191578Y102698D01*
Y112098D01*
X190478Y113198D01*
D02*
G37*
%LPD*%
G36*
X180178Y133598D02*
Y102598D01*
X179878Y102298D01*
X174478D01*
X174178Y102598D01*
Y133598D01*
X174478Y133898D01*
X179878D01*
X180178Y133598D01*
D02*
G37*
G36*
X199078Y106998D02*
Y102998D01*
X198778Y102698D01*
X195978D01*
X195678Y102998D01*
Y106998D01*
X196528Y107848D01*
X197378Y106998D01*
X198228Y107848D01*
X199078Y106998D01*
D02*
G37*
G36*
X146478Y13198D02*
X147678D01*
X147978Y12898D01*
Y10298D01*
X147678Y9998D01*
X142078D01*
X141778Y10298D01*
Y14998D01*
X142978D01*
X143828Y15848D01*
X146478Y13198D01*
D02*
G37*
D10*
X180178Y46598D02*
D03*
X193678Y96598D02*
D03*
D11*
X132678Y88358D02*
D03*
Y83358D02*
D03*
Y78357D02*
D03*
Y73357D02*
D03*
Y68357D02*
D03*
Y63358D02*
D03*
Y58358D02*
D03*
Y53357D02*
D03*
D12*
X113878Y1798D02*
D03*
X63878D02*
D03*
D13*
X108878D02*
D03*
X103878D02*
D03*
X98878D02*
D03*
X93878D02*
D03*
X88878D02*
D03*
X83878D02*
D03*
X68878D02*
D03*
X78878D02*
D03*
X73878D02*
D03*
D14*
X58278Y46098D02*
D03*
Y41098D02*
D03*
Y36098D02*
D03*
Y31098D02*
D03*
Y26098D02*
D03*
Y21098D02*
D03*
Y16098D02*
D03*
Y11098D02*
D03*
D15*
Y6098D02*
D03*
D16*
X177178Y107398D02*
D03*
X187578D02*
D03*
D17*
X42478Y93298D02*
D03*
Y77098D02*
D03*
D18*
X52878Y46798D02*
D03*
Y40398D02*
D03*
X197378Y110798D02*
D03*
Y104398D02*
D03*
X37478Y104198D02*
D03*
Y110598D02*
D03*
X43878Y104198D02*
D03*
Y110598D02*
D03*
X50278D02*
D03*
Y104198D02*
D03*
D19*
X59129Y96361D02*
D03*
Y94393D02*
D03*
Y92424D02*
D03*
Y90456D02*
D03*
Y88487D02*
D03*
Y86519D02*
D03*
Y84550D02*
D03*
Y82582D02*
D03*
Y80613D02*
D03*
Y78645D02*
D03*
Y76676D02*
D03*
Y74708D02*
D03*
Y72739D02*
D03*
Y70771D02*
D03*
Y68802D02*
D03*
Y66834D02*
D03*
X103027D02*
D03*
Y68802D02*
D03*
Y70771D02*
D03*
Y72739D02*
D03*
Y74708D02*
D03*
Y76676D02*
D03*
Y78645D02*
D03*
Y80613D02*
D03*
Y82582D02*
D03*
Y84550D02*
D03*
Y86519D02*
D03*
Y88487D02*
D03*
Y90456D02*
D03*
Y92424D02*
D03*
Y94393D02*
D03*
Y96361D02*
D03*
D20*
X66314Y59649D02*
D03*
X68283D02*
D03*
X70251D02*
D03*
X72220D02*
D03*
X74188D02*
D03*
X76157D02*
D03*
X78125D02*
D03*
X80094D02*
D03*
X82062D02*
D03*
X84031D02*
D03*
X85999D02*
D03*
X87968D02*
D03*
X89936D02*
D03*
X91905D02*
D03*
X93873D02*
D03*
X95842D02*
D03*
Y103547D02*
D03*
X93873D02*
D03*
X91905D02*
D03*
X89936D02*
D03*
X87968D02*
D03*
X85999D02*
D03*
X84031D02*
D03*
X82062D02*
D03*
X80094D02*
D03*
X78125D02*
D03*
X76157D02*
D03*
X74188D02*
D03*
X72220D02*
D03*
X70251D02*
D03*
X68283D02*
D03*
X66314D02*
D03*
D21*
X143978Y798D02*
D03*
D22*
X124878Y3188D02*
D03*
X144878D02*
D03*
X124878Y11607D02*
D03*
X144878D02*
D03*
D23*
X84396Y120498D02*
D03*
X81837D02*
D03*
X79278Y120498D02*
D03*
X76719Y120498D02*
D03*
X74160D02*
D03*
D24*
X83778Y132998D02*
D03*
X74778D02*
D03*
D25*
X187578Y121198D02*
X193078Y115698D01*
X187378Y121398D02*
X187578Y121198D01*
X74778Y132998D02*
X83778D01*
X143678Y47798D02*
X144878Y46598D01*
X180178D01*
X188317D02*
Y63048D01*
X180178Y46598D02*
X188317D01*
X180178Y54909D02*
X188317Y63048D01*
X180178Y46598D02*
Y54909D01*
X199178Y90698D02*
Y96598D01*
X193678Y90698D02*
X199178D01*
X193678D02*
Y96598D01*
X187578D02*
Y107398D01*
Y96598D02*
X193678D01*
Y107398D01*
Y96598D02*
X199178D01*
X193078Y107398D02*
Y115698D01*
X187578Y107398D02*
X193078D01*
X182178Y116198D02*
X187378Y121398D01*
X182178Y107398D02*
Y116198D01*
Y107398D02*
X187578D01*
Y121198D01*
X188317Y63048D02*
Y94544D01*
X117278Y127398D02*
X159878D01*
X5378Y8898D02*
X11378Y2898D01*
X35378D01*
X42323Y9843D01*
X187378Y121398D02*
Y131398D01*
X94215Y132998D02*
X95715Y131498D01*
X113178D01*
X117278Y127398D01*
X42323Y127953D02*
X45868Y131498D01*
X62841D01*
X88038Y119698D02*
X92678D01*
X95715Y122735D01*
Y131498D01*
X62841D02*
X64341Y132998D01*
X62841Y119698D02*
Y131498D01*
Y119698D02*
X70518D01*
X64341Y132998D02*
X74778D01*
X5378Y8898D02*
Y38898D01*
Y68898D01*
Y88898D01*
Y118898D01*
X160433Y104943D02*
Y127953D01*
Y104943D02*
X170832Y94544D01*
X188317D01*
X177378Y6398D02*
X181678Y10698D01*
X191978D01*
Y37698D01*
X170728Y46448D02*
X176478Y40698D01*
X179078D01*
X180178Y41798D01*
Y46598D01*
X83778Y132998D02*
X94215D01*
D26*
X114278Y8798D02*
X114878Y9398D01*
X74378Y8798D02*
X114278D01*
X70278Y4698D02*
X74378Y8798D01*
X62528Y4698D02*
X70278D01*
X180678Y30398D02*
X186678Y36398D01*
X168578Y30398D02*
X180678D01*
X159778Y39198D02*
X168578Y30398D01*
X187378Y16398D02*
Y17498D01*
X182678Y22198D02*
X187378Y17498D01*
X174478Y22198D02*
X182678D01*
X96778Y39198D02*
X159778D01*
X159178Y37498D02*
X174478Y22198D01*
X90378Y37498D02*
X159178D01*
X158578Y35798D02*
X173778Y20598D01*
X89578Y35798D02*
X158578D01*
X173778Y20598D02*
X181678D01*
X88078Y47898D02*
X96778Y39198D01*
X81878Y45998D02*
X90378Y37498D01*
X119478Y4498D02*
X120728Y5748D01*
X88078Y47898D02*
Y59698D01*
X79978Y45398D02*
X89578Y35798D01*
X81878Y45998D02*
Y59698D01*
X79978Y45398D02*
Y59698D01*
X73978Y38398D02*
Y59698D01*
Y38398D02*
X78378Y33998D01*
X75978Y39598D02*
X78578Y36998D01*
X75978Y39598D02*
Y59698D01*
X72078Y37198D02*
Y59698D01*
Y37198D02*
X78278Y30998D01*
X84178D01*
X78378Y33998D02*
X82578D01*
X78578Y36998D02*
X80878D01*
X77978Y40198D02*
Y59649D01*
X74578Y63998D02*
X82878D01*
X71778Y66798D02*
X74578Y63998D01*
X75278Y65598D02*
X83578D01*
X72478Y68398D02*
X75278Y65598D01*
X75978Y67198D02*
X94631D01*
X73178Y69998D02*
X75978Y67198D01*
X71578Y76798D02*
X77378Y70998D01*
X77978Y40198D02*
X78178Y39998D01*
X142687Y3188D02*
X144878D01*
X58278Y11098D02*
X59678D01*
X58278Y6098D02*
X59578D01*
X83978Y4498D02*
X119478D01*
X83878Y4398D02*
X83978Y4498D01*
X83878Y1798D02*
Y4398D01*
X123978Y66898D02*
Y70298D01*
Y66898D02*
X126278Y64598D01*
X131222D01*
X129018Y58157D02*
X132662D01*
X131222Y64598D02*
X132662Y63157D01*
X95878Y117898D02*
X149178D01*
X155478Y111598D01*
Y86698D02*
Y111598D01*
X148478Y116298D02*
X153878Y110898D01*
X96578Y116298D02*
X148478D01*
X153878Y83998D02*
Y110898D01*
X147778Y114698D02*
X152278Y110198D01*
Y71698D02*
Y110198D01*
X97278Y114698D02*
X147778D01*
X146378Y111498D02*
X149078Y108798D01*
Y80998D02*
Y108798D01*
X150678Y67398D02*
Y109498D01*
X147078Y113098D02*
X150678Y109498D01*
X98678Y111498D02*
X146378D01*
X97978Y113098D02*
X147078D01*
X147778Y79698D02*
X149078Y80998D01*
X133918Y79698D02*
X147778D01*
X132678Y78357D02*
X133918Y79598D01*
X126478Y83098D02*
X132418D01*
X102978Y80498D02*
X111978D01*
X124478Y92998D01*
X102978Y78798D02*
X112578D01*
X125178Y91398D01*
X124515Y92998D02*
X136678D01*
X125178Y91398D02*
X139178D01*
X136678Y92998D02*
X139678Y95998D01*
X155478Y86698D02*
X156178Y85998D01*
X153878Y83998D02*
X154578Y83298D01*
X152278Y71698D02*
X152978Y70998D01*
X150678Y67398D02*
X151378Y66698D01*
X63978Y107098D02*
X65078Y108198D01*
X68283Y103547D02*
Y107293D01*
X67378Y108198D02*
X68283Y107293D01*
X65078Y108198D02*
X67378D01*
X87178Y92598D02*
Y98498D01*
X82478Y87898D02*
X87178Y92598D01*
X87678Y98498D02*
X87778Y98598D01*
X77278Y87898D02*
X82478D01*
X59430Y1600D02*
X62528Y4698D01*
X50565Y1600D02*
X59430D01*
X105842Y96361D02*
X112378Y102898D01*
X103027Y96361D02*
X105842D01*
X65978Y99098D02*
X66314Y99434D01*
X98914Y96361D02*
X103027D01*
X70251Y59649D02*
Y64071D01*
X66314Y99434D02*
Y103547D01*
X96378Y63798D02*
Y65450D01*
X94631Y67198D02*
X96378Y65450D01*
X69478Y69998D02*
X73178D01*
X68778Y70698D02*
X69478Y69998D01*
X73978Y99098D02*
X74188Y99308D01*
Y103547D01*
X80578Y82698D02*
X81278Y83398D01*
X59129Y82698D02*
X80578D01*
X81278Y81098D02*
X81978Y80398D01*
X59129Y80613D02*
X62294D01*
X62778Y81098D01*
X81278D01*
X42323Y9843D02*
Y42542D01*
X68283Y54602D02*
Y59649D01*
X52388Y74708D02*
X59129D01*
X68283Y96893D02*
X77278Y87898D01*
X59178Y76798D02*
X71578D01*
X77378Y69998D02*
Y70998D01*
X72178Y78498D02*
X77978Y72698D01*
X59178Y78498D02*
X72178D01*
X77978Y72698D02*
X78978D01*
X85178Y70598D02*
X103027D01*
X83978Y71798D02*
X85178Y70598D01*
X87478Y72598D02*
X103027D01*
X85978Y74098D02*
X87478Y72598D01*
X82678Y68798D02*
X102978D01*
X81978Y69498D02*
X82678Y68798D01*
X103027Y82582D02*
X107262D01*
X93873Y103547D02*
Y106693D01*
X81878Y99198D02*
Y103798D01*
Y99198D02*
X82278Y98798D01*
X126478Y67898D02*
X132678D01*
X80094Y96682D02*
Y103547D01*
X126478Y72998D02*
X132678D01*
X84031Y100345D02*
Y103547D01*
X84878Y96498D02*
Y99498D01*
X84031Y100345D02*
X84878Y99498D01*
X66078Y68398D02*
X72478D01*
X85999Y59649D02*
Y63176D01*
X83578Y65598D02*
X85999Y63176D01*
X66778Y66798D02*
X71778D01*
X82878Y63998D02*
X84031Y62845D01*
Y59649D02*
Y62845D01*
X59178Y84398D02*
X78578D01*
X87968Y103547D02*
Y107687D01*
X85999Y103547D02*
Y108019D01*
X91905Y103547D02*
Y107024D01*
X89936Y103547D02*
Y107356D01*
X95842Y103547D02*
Y104561D01*
X95878Y104598D01*
Y106384D01*
X76157Y103547D02*
X76278Y103425D01*
Y92898D02*
Y103425D01*
Y92898D02*
X77725Y91450D01*
X77978Y94598D02*
Y103498D01*
Y94598D02*
X78678Y93898D01*
X97088Y88487D02*
X103027D01*
X96578Y88998D02*
X97088Y88487D01*
X93378Y93598D02*
X95034D01*
X98078Y90598D02*
X102978D01*
X95078Y93598D02*
X98078Y90598D01*
X95078Y86698D02*
X102978D01*
X91278Y90498D02*
X95078Y86698D01*
X89178Y90298D02*
X94778Y84698D01*
X102978D01*
X98973Y94393D02*
X103027D01*
X42323Y9843D02*
X50565Y1600D01*
X196332Y105298D02*
X197378Y104251D01*
X95878Y106384D02*
X99392Y109898D01*
X85999Y108019D02*
X95878Y117898D01*
X87968Y107687D02*
X96578Y116298D01*
X89936Y107356D02*
X97278Y114698D01*
X91905Y107024D02*
X97978Y113098D01*
X93873Y106693D02*
X98678Y111498D01*
X51978Y74298D02*
X52388Y74708D01*
X107262Y82582D02*
X107778Y83098D01*
X51478Y98598D02*
Y103646D01*
Y98598D02*
X55578Y94498D01*
X43878Y103898D02*
X55351Y92424D01*
X59129D01*
X55020Y90456D02*
X59129D01*
X88528Y74898D02*
X103178D01*
X78278Y76398D02*
X87028D01*
X88528Y74898D01*
X76978Y77998D02*
X87878D01*
X89378Y76498D02*
X102978D01*
X87878Y77998D02*
X89378Y76498D01*
X89178Y90298D02*
Y95698D01*
X89778Y96298D01*
X99392Y109898D02*
X127578D01*
X131978Y105498D01*
X132378D01*
X115378Y97098D02*
X117361Y99080D01*
Y104780D01*
X109878Y97098D02*
X115378D01*
X87178Y99198D02*
X104578D01*
X106478Y101098D01*
X120378Y98098D02*
Y102398D01*
X122378Y104398D01*
X114878Y92598D02*
X120378Y98098D01*
X102978Y92598D02*
X114878D01*
X25378Y78898D02*
X26078D01*
X34378Y70598D01*
X59178D01*
X27478Y68798D02*
X59178D01*
X26078Y58898D02*
X34178Y66998D01*
X59178D01*
X25378Y58898D02*
X26078D01*
X62778Y65098D02*
X66078Y68398D01*
X63478Y63498D02*
X66778Y66798D01*
X25378Y48898D02*
X26078D01*
X42278Y65098D01*
X62778D01*
X25378Y38898D02*
X26078D01*
X50678Y63498D01*
X63478D01*
X53578Y56398D02*
X65978D01*
X66314Y56734D01*
Y59649D01*
X42323Y42542D02*
X51378Y51598D01*
X65278D01*
X68283Y54602D01*
X25728Y28548D02*
X53578Y56398D01*
X42323Y36143D02*
X46578Y40398D01*
X56178D01*
X57078Y41298D01*
X52878Y46798D02*
X57580D01*
X58278Y46100D01*
X55176Y16100D02*
X58278D01*
X54378Y16898D02*
X55176Y16100D01*
X58278Y36100D02*
X59076Y36898D01*
X62178D01*
X58278Y31100D02*
X59076Y31898D01*
X62178D01*
X58278Y26100D02*
X61380D01*
X62178Y26898D01*
X58278Y21100D02*
X61380D01*
X62178Y21898D01*
X37478Y104198D02*
X41878Y99798D01*
X45678D01*
X55020Y90456D01*
X186678Y36398D02*
X187378D01*
X102978Y66698D02*
X120878D01*
X129018Y58557D01*
X95842Y63261D02*
X96378Y63798D01*
X95842Y59649D02*
Y63261D01*
X91778Y51998D02*
Y59698D01*
X89778Y49498D02*
Y59698D01*
X91778Y51998D02*
X92478Y51298D01*
X89778Y49498D02*
X90478Y48798D01*
X58278Y46100D02*
X59776Y47598D01*
X69778D01*
X70278Y48098D02*
Y59698D01*
X69778Y47598D02*
X70278Y48098D01*
X78178Y39998D02*
X79178D01*
X59678Y11098D02*
X61078Y12498D01*
X59578Y6098D02*
X64378Y10898D01*
X61078Y12498D02*
X88178D01*
X89778Y14098D01*
Y33498D01*
X64378Y10898D02*
X88878D01*
X91778Y13798D01*
Y31198D01*
X68378Y96844D02*
Y103498D01*
D27*
X139805Y2398D02*
X141505Y698D01*
X139678Y2398D02*
X139805D01*
X139678Y2398D02*
X139678Y2398D01*
X134878Y2398D02*
X139678D01*
X141505Y698D02*
X145378D01*
X63878Y1798D02*
X68878D01*
D28*
X123287Y3188D02*
X124878D01*
X120778Y5698D02*
X123287Y3188D01*
X120778Y5698D02*
Y14998D01*
X144878Y3188D02*
X146287D01*
X147878Y1598D01*
X183478D01*
X124878Y3188D02*
X127068D01*
X128978Y5098D02*
X140778D01*
X127068Y3188D02*
X128978Y5098D01*
X140778D02*
X142687Y3188D01*
X189178Y8198D02*
X193078D01*
X194478Y9598D01*
Y38798D01*
X193078Y40198D02*
X194478Y38798D01*
X177378Y36398D02*
X178378D01*
X182178Y40198D01*
X193078D01*
X183478Y1598D02*
X187378Y5498D01*
Y6398D01*
X189178Y8198D01*
D29*
X142418Y53357D02*
X143678Y52098D01*
Y47798D02*
Y52098D01*
X177378Y121398D02*
Y131398D01*
Y108106D02*
Y121398D01*
X95678Y52798D02*
X96238Y53357D01*
X132678D01*
X142418D01*
D30*
X55578Y103798D02*
Y104648D01*
X62628Y111698D01*
X72220Y103547D02*
Y109456D01*
X69978Y111698D02*
X72220Y109456D01*
X62628Y111698D02*
X69978D01*
X70251Y103547D02*
Y108724D01*
X69078Y109898D02*
X70251Y108724D01*
X63428Y109898D02*
X69078D01*
X58528Y104148D02*
Y104998D01*
X63428Y109898D01*
X51188Y88487D02*
X59129D01*
X46278Y93398D02*
X51188Y88487D01*
X41878Y93398D02*
X46278D01*
X51199Y86519D02*
X59129D01*
X41578Y76898D02*
X51199Y86519D01*
X41578Y76024D02*
Y76898D01*
X43878Y104198D02*
Y104746D01*
X40678Y107946D02*
X43878Y104746D01*
X40678Y107946D02*
Y114149D01*
X37478Y104198D02*
Y104746D01*
X34278Y107946D02*
X37478Y104746D01*
X34278Y107946D02*
Y117649D01*
X25378Y126549D02*
X34278Y117649D01*
X25378Y126549D02*
Y128898D01*
X31778Y125946D02*
Y132446D01*
X29778Y125049D02*
X40678Y114149D01*
X29427Y134798D02*
X31778Y132446D01*
X8578Y134798D02*
X29427D01*
X29778Y125049D02*
Y131546D01*
X28526Y132798D02*
X29778Y131546D01*
X5378Y131598D02*
X8578Y134798D01*
X5378Y128898D02*
Y131598D01*
X15378Y128898D02*
Y131598D01*
X16578Y132798D01*
X28526D01*
X31778Y125946D02*
X43126Y114598D01*
X45630D01*
X47078Y107946D02*
Y113149D01*
X45630Y114598D02*
X47078Y113149D01*
Y107946D02*
X51378Y103646D01*
X55908Y94393D02*
X59129D01*
D31*
X79278Y120498D02*
Y127798D01*
X81837Y120498D02*
Y127757D01*
Y127857D02*
X82278Y128298D01*
X78878D02*
X79278Y127898D01*
X84396Y120498D02*
Y124716D01*
Y124816D02*
X86678Y127098D01*
X84396Y109616D02*
Y120498D01*
X76719Y116107D02*
Y120498D01*
X74160D02*
Y132379D01*
D32*
X188317Y94544D02*
D03*
Y63048D02*
D03*
D33*
X142378Y104398D02*
D03*
X112378D02*
D03*
X122378D02*
D03*
X132378D02*
D03*
X15378Y128898D02*
D03*
X25378Y118898D02*
D03*
Y128898D02*
D03*
X15378Y118898D02*
D03*
X5378D02*
D03*
X5378Y128898D02*
D03*
Y28898D02*
D03*
X25378D02*
D03*
X15378D02*
D03*
Y18898D02*
D03*
X25378Y8898D02*
D03*
Y18898D02*
D03*
X15378Y8898D02*
D03*
X5378D02*
D03*
X5378Y18898D02*
D03*
Y58898D02*
D03*
X25378D02*
D03*
X15378D02*
D03*
Y48898D02*
D03*
X25378Y38898D02*
D03*
Y48898D02*
D03*
X15378Y38898D02*
D03*
X5378D02*
D03*
X5378Y48898D02*
D03*
X15378Y78898D02*
D03*
X25378Y68898D02*
D03*
Y78898D02*
D03*
X15378Y68898D02*
D03*
X5378D02*
D03*
X5378Y78898D02*
D03*
Y98898D02*
D03*
X5378Y88898D02*
D03*
X15378D02*
D03*
X25378Y98898D02*
D03*
Y88898D02*
D03*
X15378Y98898D02*
D03*
D34*
X177378Y121398D02*
D03*
X187378Y131398D02*
D03*
X177378D02*
D03*
X187378Y121398D02*
D03*
X177378Y16398D02*
D03*
X187378D02*
D03*
Y26398D02*
D03*
X177378Y36398D02*
D03*
X187378D02*
D03*
X177378Y26398D02*
D03*
X187378Y6398D02*
D03*
X177378D02*
D03*
D35*
X42323Y127953D02*
D03*
Y9843D02*
D03*
X160433D02*
D03*
Y127953D02*
D03*
D36*
X134878Y2398D02*
D03*
X134879Y12398D02*
D03*
X134878Y2398D02*
D03*
X134877Y12398D02*
D03*
D37*
X62841Y131498D02*
D03*
X95715D02*
D03*
D38*
X70518Y119698D02*
D03*
X88038D02*
D03*
D39*
X72178Y26198D02*
D03*
X85278Y36198D02*
D03*
X70078Y4498D02*
D03*
X69378Y70698D02*
D03*
X69878Y131398D02*
D03*
X68178Y124698D02*
D03*
X63878Y72198D02*
D03*
X50678Y88998D02*
D03*
Y85998D02*
D03*
X181678Y19898D02*
D03*
X121278Y14998D02*
D03*
X142978D02*
D03*
X78878Y128298D02*
D03*
X82228D02*
D03*
X90478Y33498D02*
D03*
X84178Y30998D02*
D03*
X77378Y69998D02*
D03*
X78978Y72698D02*
D03*
X78278Y75698D02*
D03*
X82578Y33998D02*
D03*
X122678Y99798D02*
D03*
X139778Y81998D02*
D03*
X66078Y99498D02*
D03*
X139178Y96498D02*
D03*
Y92098D02*
D03*
X55578Y103798D02*
D03*
X58578Y104198D02*
D03*
X63878Y106898D02*
D03*
X197378Y106998D02*
D03*
X127078Y39898D02*
D03*
X95678Y52798D02*
D03*
X92478Y31198D02*
D03*
X154578Y83298D02*
D03*
X156178Y85998D02*
D03*
X152978Y70998D02*
D03*
X151378Y66698D02*
D03*
X138578Y87998D02*
D03*
X96378Y64498D02*
D03*
X70778D02*
D03*
X98178Y96898D02*
D03*
X73678Y98798D02*
D03*
X81278Y83398D02*
D03*
X81978Y80398D02*
D03*
X79178Y39998D02*
D03*
X67778Y64498D02*
D03*
X51978Y74298D02*
D03*
X66178Y74198D02*
D03*
X87178Y98498D02*
D03*
X113678Y9498D02*
D03*
X106478Y101098D02*
D03*
X109878Y97098D02*
D03*
X117361Y104780D02*
D03*
X54378Y16898D02*
D03*
X83978Y71798D02*
D03*
X85978Y74098D02*
D03*
X81978Y69498D02*
D03*
X126478Y83098D02*
D03*
X107778D02*
D03*
X124678Y70298D02*
D03*
X82578Y98498D02*
D03*
X126478Y67698D02*
D03*
X80278Y96498D02*
D03*
X84878D02*
D03*
X37978Y107998D02*
D03*
X44378D02*
D03*
X50778D02*
D03*
X76978Y78698D02*
D03*
X78678Y85098D02*
D03*
X78478Y90798D02*
D03*
X96378Y88998D02*
D03*
X91778Y90998D02*
D03*
X89878Y96898D02*
D03*
X93278Y64498D02*
D03*
X98178Y93798D02*
D03*
X62178Y31898D02*
D03*
Y26898D02*
D03*
Y21898D02*
D03*
X117278Y127398D02*
D03*
X143678Y47798D02*
D03*
X117078Y1998D02*
D03*
X77078Y116098D02*
D03*
X84378Y109698D02*
D03*
X78578Y93898D02*
D03*
X30578Y71098D02*
D03*
X35378Y72898D02*
D03*
X30378Y66498D02*
D03*
X38578Y64698D02*
D03*
X46678Y62798D02*
D03*
X63878Y58698D02*
D03*
X62178Y36898D02*
D03*
X51678Y61198D02*
D03*
X54578Y54098D02*
D03*
X47878Y87498D02*
D03*
X160433Y104943D02*
D03*
X10778Y131398D02*
D03*
X20378Y130398D02*
D03*
Y120198D02*
D03*
X29678Y118798D02*
D03*
X38978Y99398D02*
D03*
X33978Y104798D02*
D03*
X61078Y98798D02*
D03*
X64178Y86698D02*
D03*
Y94898D02*
D03*
X73978Y95798D02*
D03*
X191978Y37698D02*
D03*
Y10698D02*
D03*
X187578Y2098D02*
D03*
X192178Y5498D02*
D03*
X179078Y40698D02*
D03*
X125578Y88498D02*
D03*
X108078Y76498D02*
D03*
X125578Y79698D02*
D03*
X108078Y86098D02*
D03*
X100378Y107598D02*
D03*
X98278Y101298D02*
D03*
X75978Y86698D02*
D03*
X92478Y51098D02*
D03*
X90478Y48798D02*
D03*
X109778Y32798D02*
D03*
X80878Y36998D02*
D03*
X85378Y46198D02*
D03*
X86678Y127098D02*
D03*
X53778Y109998D02*
D03*
X119278Y23298D02*
D03*
X157378Y33498D02*
D03*
X93378Y93698D02*
D03*
X90678Y123498D02*
D03*
X126478Y72698D02*
D03*
M02*
